G04 #@! TF.GenerationSoftware,KiCad,Pcbnew,(5.1.4)-1*
G04 #@! TF.CreationDate,2019-11-14T07:41:03-05:00*
G04 #@! TF.ProjectId,CapstoneSchematic,43617073-746f-46e6-9553-6368656d6174,rev?*
G04 #@! TF.SameCoordinates,Original*
G04 #@! TF.FileFunction,Copper,L1,Top*
G04 #@! TF.FilePolarity,Positive*
%FSLAX46Y46*%
G04 Gerber Fmt 4.6, Leading zero omitted, Abs format (unit mm)*
G04 Created by KiCad (PCBNEW (5.1.4)-1) date 2019-11-14 07:41:03*
%MOMM*%
%LPD*%
G04 APERTURE LIST*
%ADD10C,2.600000*%
%ADD11R,2.600000X2.600000*%
%ADD12O,1.700000X1.700000*%
%ADD13R,1.700000X1.700000*%
%ADD14O,1.600000X1.600000*%
%ADD15R,1.600000X1.600000*%
%ADD16C,1.524000*%
%ADD17C,0.800000*%
%ADD18C,0.250000*%
%ADD19C,3.560000*%
%ADD20C,2.260600*%
%ADD21C,0.254000*%
G04 APERTURE END LIST*
D10*
X99500000Y-77250000D03*
X99500000Y-82250000D03*
D11*
X99500000Y-87250000D03*
X99300000Y-93400000D03*
D10*
X99300000Y-98400000D03*
X99300000Y-109900000D03*
D11*
X99300000Y-104900000D03*
D12*
X171000000Y-104920000D03*
X171000000Y-102380000D03*
X171000000Y-107460000D03*
D13*
X171000000Y-110000000D03*
D10*
X118700000Y-123150000D03*
X123700000Y-123150000D03*
D11*
X128700000Y-123150000D03*
D10*
X135400000Y-123155000D03*
D11*
X140400000Y-123155000D03*
D10*
X146700000Y-123200000D03*
X151700000Y-123200000D03*
D11*
X156700000Y-123200000D03*
D14*
X226545000Y-76740000D03*
X229085000Y-76740000D03*
X189465000Y-76740000D03*
X229085000Y-125000000D03*
X192005000Y-76740000D03*
X226545000Y-125000000D03*
X194545000Y-76740000D03*
X224005000Y-125000000D03*
X197085000Y-76740000D03*
X221465000Y-125000000D03*
X199625000Y-76740000D03*
X218925000Y-125000000D03*
X202165000Y-76740000D03*
X216385000Y-125000000D03*
X204705000Y-76740000D03*
X211305000Y-125000000D03*
X207245000Y-76740000D03*
X208765000Y-125000000D03*
X211305000Y-76740000D03*
X206225000Y-125000000D03*
X213845000Y-76740000D03*
X203685000Y-125000000D03*
X216385000Y-76740000D03*
X201145000Y-125000000D03*
X218925000Y-76740000D03*
X198605000Y-125000000D03*
X221465000Y-76740000D03*
X196065000Y-125000000D03*
X224005000Y-76740000D03*
D15*
X193525000Y-125000000D03*
D14*
X186925000Y-76740000D03*
X184385000Y-76740000D03*
D16*
X89440000Y-123420000D03*
X112330000Y-123290000D03*
X89570000Y-74510000D03*
X112590000Y-74420000D03*
D10*
X97975000Y-123400000D03*
D11*
X102975000Y-123400000D03*
D10*
X203050000Y-117675000D03*
X208050000Y-117675000D03*
D11*
X213050000Y-117675000D03*
D10*
X219900000Y-117675000D03*
X224900000Y-117675000D03*
D11*
X229900000Y-117675000D03*
D10*
X204500000Y-85475000D03*
D11*
X199500000Y-85475000D03*
D10*
X192545000Y-85475000D03*
D11*
X187545000Y-85475000D03*
D12*
X232000000Y-106700000D03*
X232000000Y-104160000D03*
X232000000Y-101620000D03*
X232000000Y-99080000D03*
X232000000Y-96540000D03*
D13*
X232000000Y-94000000D03*
D10*
X226300000Y-85475000D03*
X221300000Y-85475000D03*
D11*
X216300000Y-85475000D03*
D12*
X235400000Y-75855000D03*
X235400000Y-78395000D03*
X235400000Y-80935000D03*
D13*
X235400000Y-83475000D03*
D17*
X236100000Y-120400000D03*
X217500000Y-82000000D03*
X220000000Y-82000000D03*
X168300000Y-116700000D03*
D18*
X234300000Y-122200000D02*
X236100000Y-120400000D01*
X228213630Y-122200000D02*
X234300000Y-122200000D01*
X226545000Y-123868630D02*
X228213630Y-122200000D01*
X226545000Y-125000000D02*
X226545000Y-123868630D01*
X219900000Y-120895000D02*
X224005000Y-125000000D01*
X219900000Y-117675000D02*
X219900000Y-120895000D01*
X203050000Y-123095000D02*
X201145000Y-125000000D01*
X203050000Y-117675000D02*
X203050000Y-123095000D01*
X229900000Y-116125000D02*
X229900000Y-117675000D01*
X228375000Y-114600000D02*
X229900000Y-116125000D01*
X206100000Y-114600000D02*
X228375000Y-114600000D01*
X204349999Y-116350001D02*
X206100000Y-114600000D01*
X204349999Y-116375001D02*
X204349999Y-116350001D01*
X203050000Y-117675000D02*
X204349999Y-116375001D01*
X218925000Y-78100000D02*
X218925000Y-76740000D01*
X226300000Y-85475000D02*
X218925000Y-78100000D01*
X167100000Y-123200000D02*
X168300000Y-122000000D01*
X156700000Y-123200000D02*
X167100000Y-123200000D01*
X168300000Y-116700000D02*
X168300000Y-122000000D01*
X168300000Y-122000000D02*
X168300000Y-122100000D01*
D19*
X211545001Y-126334401D02*
X211545001Y-125000000D01*
X209579402Y-128300000D02*
X211545001Y-126334401D01*
X189200000Y-128300000D02*
X209579402Y-128300000D01*
X184900000Y-124000000D02*
X189200000Y-128300000D01*
X184900000Y-105900000D02*
X184900000Y-124000000D01*
X112590000Y-74420000D02*
X112590000Y-75497630D01*
X112590000Y-75497630D02*
X112600000Y-75507630D01*
X112600000Y-75507630D02*
X112600000Y-80900000D01*
X112600000Y-80900000D02*
X127300000Y-95600000D01*
X127300000Y-95600000D02*
X174600000Y-95600000D01*
X174600000Y-95600000D02*
X184900000Y-105900000D01*
X123700000Y-108000000D02*
X123700000Y-123150000D01*
X99300000Y-104900000D02*
X120600000Y-104900000D01*
X120600000Y-104900000D02*
X123700000Y-108000000D01*
D18*
X112270000Y-123400000D02*
X112305000Y-123365000D01*
X112330000Y-123290000D02*
X113407630Y-123290000D01*
D20*
X112220000Y-123400000D02*
X112330000Y-123290000D01*
D19*
X107835000Y-123400000D02*
X112220000Y-123400000D01*
X102975000Y-123400000D02*
X107835000Y-123400000D01*
X102975000Y-113575000D02*
X99300000Y-109900000D01*
X102975000Y-123400000D02*
X102975000Y-113575000D01*
D18*
X98300000Y-92900000D02*
X98300000Y-94450000D01*
X89340000Y-123400000D02*
X89285000Y-123455000D01*
D20*
X89460000Y-123400000D02*
X89440000Y-123420000D01*
D19*
X96136523Y-123400000D02*
X89460000Y-123400000D01*
X97975000Y-123400000D02*
X96136523Y-123400000D01*
X94440000Y-93400000D02*
X99300000Y-93400000D01*
X89440000Y-98400000D02*
X94440000Y-93400000D01*
X89440000Y-123420000D02*
X89440000Y-98400000D01*
D18*
X208050000Y-117675000D02*
X212375000Y-122000000D01*
X218465000Y-122000000D02*
X221465000Y-125000000D01*
X212375000Y-122000000D02*
X218465000Y-122000000D01*
X229085000Y-77871370D02*
X233500000Y-82286370D01*
X229085000Y-76740000D02*
X229085000Y-77871370D01*
X233500000Y-100120000D02*
X232000000Y-101620000D01*
X233500000Y-82286370D02*
X233500000Y-100120000D01*
X232000000Y-96540000D02*
X229540000Y-96540000D01*
X216385000Y-76740000D02*
X218750000Y-79105000D01*
X218750000Y-79105000D02*
X218750000Y-85750000D01*
X229540000Y-96540000D02*
X218750000Y-85750000D01*
X192545000Y-85475000D02*
X195020000Y-83000000D01*
X205045000Y-83000000D02*
X211305000Y-76740000D01*
X195020000Y-83000000D02*
X205045000Y-83000000D01*
X204705000Y-85270000D02*
X204500000Y-85475000D01*
X204500000Y-85475000D02*
X206475000Y-83500000D01*
X207085000Y-83500000D02*
X213845000Y-76740000D01*
X206475000Y-83500000D02*
X207085000Y-83500000D01*
D21*
G36*
X236830001Y-75453415D02*
G01*
X236778599Y-75283966D01*
X236640706Y-75025986D01*
X236455134Y-74799866D01*
X236229014Y-74614294D01*
X235971034Y-74476401D01*
X235691111Y-74391487D01*
X235472950Y-74370000D01*
X235327050Y-74370000D01*
X235108889Y-74391487D01*
X234828966Y-74476401D01*
X234570986Y-74614294D01*
X234344866Y-74799866D01*
X234159294Y-75025986D01*
X234021401Y-75283966D01*
X233936487Y-75563889D01*
X233907815Y-75855000D01*
X233936487Y-76146111D01*
X234021401Y-76426034D01*
X234159294Y-76684014D01*
X234344866Y-76910134D01*
X234570986Y-77095706D01*
X234625791Y-77125000D01*
X234570986Y-77154294D01*
X234344866Y-77339866D01*
X234159294Y-77565986D01*
X234021401Y-77823966D01*
X233936487Y-78103889D01*
X233907815Y-78395000D01*
X233936487Y-78686111D01*
X234021401Y-78966034D01*
X234159294Y-79224014D01*
X234344866Y-79450134D01*
X234570986Y-79635706D01*
X234625791Y-79665000D01*
X234570986Y-79694294D01*
X234344866Y-79879866D01*
X234159294Y-80105986D01*
X234021401Y-80363966D01*
X233936487Y-80643889D01*
X233907815Y-80935000D01*
X233936487Y-81226111D01*
X234021401Y-81506034D01*
X234159294Y-81764014D01*
X234344866Y-81990134D01*
X234374687Y-82014607D01*
X234305820Y-82035498D01*
X234230336Y-82075846D01*
X234205546Y-81994123D01*
X234134975Y-81862095D01*
X234134974Y-81862093D01*
X234063799Y-81775367D01*
X234040001Y-81746369D01*
X234011004Y-81722572D01*
X230073538Y-77785107D01*
X230104608Y-77759608D01*
X230283932Y-77541101D01*
X230417182Y-77291808D01*
X230499236Y-77021309D01*
X230526943Y-76740000D01*
X230499236Y-76458691D01*
X230417182Y-76188192D01*
X230283932Y-75938899D01*
X230104608Y-75720392D01*
X229886101Y-75541068D01*
X229636808Y-75407818D01*
X229366309Y-75325764D01*
X229155492Y-75305000D01*
X229014508Y-75305000D01*
X228803691Y-75325764D01*
X228533192Y-75407818D01*
X228283899Y-75541068D01*
X228065392Y-75720392D01*
X227886068Y-75938899D01*
X227815000Y-76071858D01*
X227743932Y-75938899D01*
X227564608Y-75720392D01*
X227346101Y-75541068D01*
X227096808Y-75407818D01*
X226826309Y-75325764D01*
X226615492Y-75305000D01*
X226474508Y-75305000D01*
X226263691Y-75325764D01*
X225993192Y-75407818D01*
X225743899Y-75541068D01*
X225525392Y-75720392D01*
X225346068Y-75938899D01*
X225275000Y-76071858D01*
X225203932Y-75938899D01*
X225024608Y-75720392D01*
X224806101Y-75541068D01*
X224556808Y-75407818D01*
X224286309Y-75325764D01*
X224075492Y-75305000D01*
X223934508Y-75305000D01*
X223723691Y-75325764D01*
X223453192Y-75407818D01*
X223203899Y-75541068D01*
X222985392Y-75720392D01*
X222806068Y-75938899D01*
X222735000Y-76071858D01*
X222663932Y-75938899D01*
X222484608Y-75720392D01*
X222266101Y-75541068D01*
X222016808Y-75407818D01*
X221746309Y-75325764D01*
X221535492Y-75305000D01*
X221394508Y-75305000D01*
X221183691Y-75325764D01*
X220913192Y-75407818D01*
X220663899Y-75541068D01*
X220445392Y-75720392D01*
X220266068Y-75938899D01*
X220195000Y-76071858D01*
X220123932Y-75938899D01*
X219944608Y-75720392D01*
X219726101Y-75541068D01*
X219476808Y-75407818D01*
X219206309Y-75325764D01*
X218995492Y-75305000D01*
X218854508Y-75305000D01*
X218643691Y-75325764D01*
X218373192Y-75407818D01*
X218123899Y-75541068D01*
X217905392Y-75720392D01*
X217726068Y-75938899D01*
X217655000Y-76071858D01*
X217583932Y-75938899D01*
X217404608Y-75720392D01*
X217186101Y-75541068D01*
X216936808Y-75407818D01*
X216666309Y-75325764D01*
X216455492Y-75305000D01*
X216314508Y-75305000D01*
X216103691Y-75325764D01*
X215833192Y-75407818D01*
X215583899Y-75541068D01*
X215365392Y-75720392D01*
X215186068Y-75938899D01*
X215115000Y-76071858D01*
X215043932Y-75938899D01*
X214864608Y-75720392D01*
X214646101Y-75541068D01*
X214396808Y-75407818D01*
X214126309Y-75325764D01*
X213915492Y-75305000D01*
X213774508Y-75305000D01*
X213563691Y-75325764D01*
X213293192Y-75407818D01*
X213043899Y-75541068D01*
X212825392Y-75720392D01*
X212646068Y-75938899D01*
X212575000Y-76071858D01*
X212503932Y-75938899D01*
X212324608Y-75720392D01*
X212106101Y-75541068D01*
X211856808Y-75407818D01*
X211586309Y-75325764D01*
X211375492Y-75305000D01*
X211234508Y-75305000D01*
X211023691Y-75325764D01*
X210753192Y-75407818D01*
X210503899Y-75541068D01*
X210285392Y-75720392D01*
X210106068Y-75938899D01*
X209972818Y-76188192D01*
X209890764Y-76458691D01*
X209863057Y-76740000D01*
X209890764Y-77021309D01*
X209904292Y-77065906D01*
X204730199Y-82240000D01*
X195057333Y-82240000D01*
X195020000Y-82236323D01*
X194982667Y-82240000D01*
X194871014Y-82250997D01*
X194727753Y-82294454D01*
X194595724Y-82365026D01*
X194479999Y-82459999D01*
X194456201Y-82488997D01*
X193265986Y-83679213D01*
X193109419Y-83614361D01*
X192735581Y-83540000D01*
X192354419Y-83540000D01*
X191980581Y-83614361D01*
X191628434Y-83760225D01*
X191311509Y-83971987D01*
X191041987Y-84241509D01*
X190830225Y-84558434D01*
X190684361Y-84910581D01*
X190610000Y-85284419D01*
X190610000Y-85665581D01*
X190684361Y-86039419D01*
X190830225Y-86391566D01*
X191041987Y-86708491D01*
X191311509Y-86978013D01*
X191628434Y-87189775D01*
X191980581Y-87335639D01*
X192354419Y-87410000D01*
X192735581Y-87410000D01*
X193109419Y-87335639D01*
X193461566Y-87189775D01*
X193778491Y-86978013D01*
X194048013Y-86708491D01*
X194259775Y-86391566D01*
X194405639Y-86039419D01*
X194480000Y-85665581D01*
X194480000Y-85284419D01*
X194405639Y-84910581D01*
X194340787Y-84754014D01*
X195334802Y-83760000D01*
X197719119Y-83760000D01*
X197669463Y-83820506D01*
X197610498Y-83930820D01*
X197574188Y-84050518D01*
X197561928Y-84175000D01*
X197561928Y-86775000D01*
X197574188Y-86899482D01*
X197610498Y-87019180D01*
X197669463Y-87129494D01*
X197748815Y-87226185D01*
X197845506Y-87305537D01*
X197955820Y-87364502D01*
X198075518Y-87400812D01*
X198200000Y-87413072D01*
X200800000Y-87413072D01*
X200924482Y-87400812D01*
X201044180Y-87364502D01*
X201154494Y-87305537D01*
X201251185Y-87226185D01*
X201330537Y-87129494D01*
X201389502Y-87019180D01*
X201425812Y-86899482D01*
X201438072Y-86775000D01*
X201438072Y-84175000D01*
X201425812Y-84050518D01*
X201389502Y-83930820D01*
X201330537Y-83820506D01*
X201280881Y-83760000D01*
X203583977Y-83760000D01*
X203583434Y-83760225D01*
X203266509Y-83971987D01*
X202996987Y-84241509D01*
X202785225Y-84558434D01*
X202639361Y-84910581D01*
X202565000Y-85284419D01*
X202565000Y-85665581D01*
X202639361Y-86039419D01*
X202785225Y-86391566D01*
X202996987Y-86708491D01*
X203266509Y-86978013D01*
X203583434Y-87189775D01*
X203935581Y-87335639D01*
X204309419Y-87410000D01*
X204690581Y-87410000D01*
X205064419Y-87335639D01*
X205416566Y-87189775D01*
X205733491Y-86978013D01*
X205936504Y-86775000D01*
X214361928Y-86775000D01*
X214374188Y-86899482D01*
X214410498Y-87019180D01*
X214469463Y-87129494D01*
X214548815Y-87226185D01*
X214645506Y-87305537D01*
X214755820Y-87364502D01*
X214875518Y-87400812D01*
X215000000Y-87413072D01*
X216014250Y-87410000D01*
X216173000Y-87251250D01*
X216173000Y-85602000D01*
X214523750Y-85602000D01*
X214365000Y-85760750D01*
X214361928Y-86775000D01*
X205936504Y-86775000D01*
X206003013Y-86708491D01*
X206214775Y-86391566D01*
X206360639Y-86039419D01*
X206435000Y-85665581D01*
X206435000Y-85284419D01*
X206360639Y-84910581D01*
X206295787Y-84754015D01*
X206789802Y-84260000D01*
X207047678Y-84260000D01*
X207085000Y-84263676D01*
X207122322Y-84260000D01*
X207122333Y-84260000D01*
X207233986Y-84249003D01*
X207377247Y-84205546D01*
X207434393Y-84175000D01*
X214361928Y-84175000D01*
X214365000Y-85189250D01*
X214523750Y-85348000D01*
X216173000Y-85348000D01*
X216173000Y-83698750D01*
X216014250Y-83540000D01*
X215000000Y-83536928D01*
X214875518Y-83549188D01*
X214755820Y-83585498D01*
X214645506Y-83644463D01*
X214548815Y-83723815D01*
X214469463Y-83820506D01*
X214410498Y-83930820D01*
X214374188Y-84050518D01*
X214361928Y-84175000D01*
X207434393Y-84175000D01*
X207509276Y-84134974D01*
X207625001Y-84040001D01*
X207648804Y-84010997D01*
X213519094Y-78140708D01*
X213563691Y-78154236D01*
X213774508Y-78175000D01*
X213915492Y-78175000D01*
X214126309Y-78154236D01*
X214396808Y-78072182D01*
X214646101Y-77938932D01*
X214864608Y-77759608D01*
X215043932Y-77541101D01*
X215115000Y-77408142D01*
X215186068Y-77541101D01*
X215365392Y-77759608D01*
X215583899Y-77938932D01*
X215833192Y-78072182D01*
X216103691Y-78154236D01*
X216314508Y-78175000D01*
X216455492Y-78175000D01*
X216666309Y-78154236D01*
X216710906Y-78140708D01*
X217990000Y-79419802D01*
X217990001Y-83673602D01*
X217954494Y-83644463D01*
X217844180Y-83585498D01*
X217724482Y-83549188D01*
X217600000Y-83536928D01*
X216585750Y-83540000D01*
X216427000Y-83698750D01*
X216427000Y-85348000D01*
X216447000Y-85348000D01*
X216447000Y-85602000D01*
X216427000Y-85602000D01*
X216427000Y-87251250D01*
X216585750Y-87410000D01*
X217600000Y-87413072D01*
X217724482Y-87400812D01*
X217844180Y-87364502D01*
X217954494Y-87305537D01*
X218051185Y-87226185D01*
X218130537Y-87129494D01*
X218189502Y-87019180D01*
X218225812Y-86899482D01*
X218238072Y-86775000D01*
X218236669Y-86311888D01*
X218238998Y-86313799D01*
X228976201Y-97051003D01*
X228999999Y-97080001D01*
X229115724Y-97174974D01*
X229247753Y-97245546D01*
X229391014Y-97289003D01*
X229502667Y-97300000D01*
X229502676Y-97300000D01*
X229539999Y-97303676D01*
X229577322Y-97300000D01*
X230722405Y-97300000D01*
X230759294Y-97369014D01*
X230944866Y-97595134D01*
X231170986Y-97780706D01*
X231225791Y-97810000D01*
X231170986Y-97839294D01*
X230944866Y-98024866D01*
X230759294Y-98250986D01*
X230621401Y-98508966D01*
X230536487Y-98788889D01*
X230507815Y-99080000D01*
X230536487Y-99371111D01*
X230621401Y-99651034D01*
X230759294Y-99909014D01*
X230944866Y-100135134D01*
X231170986Y-100320706D01*
X231225791Y-100350000D01*
X231170986Y-100379294D01*
X230944866Y-100564866D01*
X230759294Y-100790986D01*
X230621401Y-101048966D01*
X230536487Y-101328889D01*
X230507815Y-101620000D01*
X230536487Y-101911111D01*
X230621401Y-102191034D01*
X230759294Y-102449014D01*
X230944866Y-102675134D01*
X231170986Y-102860706D01*
X231225791Y-102890000D01*
X231170986Y-102919294D01*
X230944866Y-103104866D01*
X230759294Y-103330986D01*
X230621401Y-103588966D01*
X230536487Y-103868889D01*
X230507815Y-104160000D01*
X230536487Y-104451111D01*
X230621401Y-104731034D01*
X230759294Y-104989014D01*
X230944866Y-105215134D01*
X231170986Y-105400706D01*
X231225791Y-105430000D01*
X231170986Y-105459294D01*
X230944866Y-105644866D01*
X230759294Y-105870986D01*
X230621401Y-106128966D01*
X230536487Y-106408889D01*
X230507815Y-106700000D01*
X230536487Y-106991111D01*
X230621401Y-107271034D01*
X230759294Y-107529014D01*
X230944866Y-107755134D01*
X231170986Y-107940706D01*
X231428966Y-108078599D01*
X231708889Y-108163513D01*
X231927050Y-108185000D01*
X232072950Y-108185000D01*
X232291111Y-108163513D01*
X232571034Y-108078599D01*
X232829014Y-107940706D01*
X233055134Y-107755134D01*
X233240706Y-107529014D01*
X233378599Y-107271034D01*
X233463513Y-106991111D01*
X233492185Y-106700000D01*
X233463513Y-106408889D01*
X233378599Y-106128966D01*
X233240706Y-105870986D01*
X233055134Y-105644866D01*
X232829014Y-105459294D01*
X232774209Y-105430000D01*
X232829014Y-105400706D01*
X233055134Y-105215134D01*
X233240706Y-104989014D01*
X233378599Y-104731034D01*
X233463513Y-104451111D01*
X233492185Y-104160000D01*
X233463513Y-103868889D01*
X233378599Y-103588966D01*
X233240706Y-103330986D01*
X233055134Y-103104866D01*
X232829014Y-102919294D01*
X232774209Y-102890000D01*
X232829014Y-102860706D01*
X233055134Y-102675134D01*
X233240706Y-102449014D01*
X233378599Y-102191034D01*
X233463513Y-101911111D01*
X233492185Y-101620000D01*
X233463513Y-101328889D01*
X233440797Y-101254005D01*
X234011003Y-100683799D01*
X234040001Y-100660001D01*
X234134974Y-100544276D01*
X234205546Y-100412247D01*
X234249003Y-100268986D01*
X234260000Y-100157333D01*
X234260000Y-100157324D01*
X234263676Y-100120001D01*
X234260000Y-100082678D01*
X234260000Y-84890010D01*
X234305820Y-84914502D01*
X234425518Y-84950812D01*
X234550000Y-84963072D01*
X235114250Y-84960000D01*
X235273000Y-84801250D01*
X235273000Y-83602000D01*
X235253000Y-83602000D01*
X235253000Y-83348000D01*
X235273000Y-83348000D01*
X235273000Y-83328000D01*
X235527000Y-83328000D01*
X235527000Y-83348000D01*
X235547000Y-83348000D01*
X235547000Y-83602000D01*
X235527000Y-83602000D01*
X235527000Y-84801250D01*
X235685750Y-84960000D01*
X236250000Y-84963072D01*
X236374482Y-84950812D01*
X236494180Y-84914502D01*
X236604494Y-84855537D01*
X236701185Y-84776185D01*
X236780537Y-84679494D01*
X236830001Y-84586955D01*
X236830000Y-119666289D01*
X236759774Y-119596063D01*
X236590256Y-119482795D01*
X236401898Y-119404774D01*
X236201939Y-119365000D01*
X235998061Y-119365000D01*
X235798102Y-119404774D01*
X235609744Y-119482795D01*
X235440226Y-119596063D01*
X235296063Y-119740226D01*
X235182795Y-119909744D01*
X235104774Y-120098102D01*
X235065000Y-120298061D01*
X235065000Y-120360198D01*
X233985199Y-121440000D01*
X228250952Y-121440000D01*
X228213629Y-121436324D01*
X228176306Y-121440000D01*
X228176297Y-121440000D01*
X228064644Y-121450997D01*
X227921383Y-121494454D01*
X227789354Y-121565026D01*
X227673629Y-121659999D01*
X227649831Y-121688997D01*
X226033998Y-123304831D01*
X226005000Y-123328629D01*
X225981202Y-123357627D01*
X225981201Y-123357628D01*
X225910026Y-123444354D01*
X225839454Y-123576384D01*
X225821353Y-123636059D01*
X225795998Y-123719644D01*
X225790428Y-123776198D01*
X225743899Y-123801068D01*
X225525392Y-123980392D01*
X225346068Y-124198899D01*
X225275000Y-124331858D01*
X225203932Y-124198899D01*
X225024608Y-123980392D01*
X224806101Y-123801068D01*
X224556808Y-123667818D01*
X224286309Y-123585764D01*
X224075492Y-123565000D01*
X223934508Y-123565000D01*
X223723691Y-123585764D01*
X223679094Y-123599292D01*
X220660000Y-120580199D01*
X220660000Y-119454627D01*
X220816566Y-119389775D01*
X221133491Y-119178013D01*
X221403013Y-118908491D01*
X221614775Y-118591566D01*
X221760639Y-118239419D01*
X221835000Y-117865581D01*
X221835000Y-117484419D01*
X222965000Y-117484419D01*
X222965000Y-117865581D01*
X223039361Y-118239419D01*
X223185225Y-118591566D01*
X223396987Y-118908491D01*
X223666509Y-119178013D01*
X223983434Y-119389775D01*
X224335581Y-119535639D01*
X224709419Y-119610000D01*
X225090581Y-119610000D01*
X225464419Y-119535639D01*
X225816566Y-119389775D01*
X226133491Y-119178013D01*
X226403013Y-118908491D01*
X226614775Y-118591566D01*
X226760639Y-118239419D01*
X226835000Y-117865581D01*
X226835000Y-117484419D01*
X226760639Y-117110581D01*
X226614775Y-116758434D01*
X226403013Y-116441509D01*
X226133491Y-116171987D01*
X225816566Y-115960225D01*
X225464419Y-115814361D01*
X225090581Y-115740000D01*
X224709419Y-115740000D01*
X224335581Y-115814361D01*
X223983434Y-115960225D01*
X223666509Y-116171987D01*
X223396987Y-116441509D01*
X223185225Y-116758434D01*
X223039361Y-117110581D01*
X222965000Y-117484419D01*
X221835000Y-117484419D01*
X221760639Y-117110581D01*
X221614775Y-116758434D01*
X221403013Y-116441509D01*
X221133491Y-116171987D01*
X220816566Y-115960225D01*
X220464419Y-115814361D01*
X220090581Y-115740000D01*
X219709419Y-115740000D01*
X219335581Y-115814361D01*
X218983434Y-115960225D01*
X218666509Y-116171987D01*
X218396987Y-116441509D01*
X218185225Y-116758434D01*
X218039361Y-117110581D01*
X217965000Y-117484419D01*
X217965000Y-117865581D01*
X218039361Y-118239419D01*
X218185225Y-118591566D01*
X218396987Y-118908491D01*
X218666509Y-119178013D01*
X218983434Y-119389775D01*
X219140001Y-119454627D01*
X219140001Y-120857668D01*
X219136324Y-120895000D01*
X219150998Y-121043985D01*
X219194454Y-121187246D01*
X219265026Y-121319276D01*
X219330303Y-121398815D01*
X219360000Y-121435001D01*
X219388998Y-121458799D01*
X221495198Y-123565000D01*
X221394508Y-123565000D01*
X221183691Y-123585764D01*
X221139094Y-123599292D01*
X219028804Y-121489003D01*
X219005001Y-121459999D01*
X218889276Y-121365026D01*
X218757247Y-121294454D01*
X218613986Y-121250997D01*
X218502333Y-121240000D01*
X218502322Y-121240000D01*
X218465000Y-121236324D01*
X218427678Y-121240000D01*
X212689802Y-121240000D01*
X209845787Y-118395986D01*
X209910639Y-118239419D01*
X209985000Y-117865581D01*
X209985000Y-117484419D01*
X209910639Y-117110581D01*
X209764775Y-116758434D01*
X209553013Y-116441509D01*
X209486504Y-116375000D01*
X211111928Y-116375000D01*
X211111928Y-118975000D01*
X211124188Y-119099482D01*
X211160498Y-119219180D01*
X211219463Y-119329494D01*
X211298815Y-119426185D01*
X211395506Y-119505537D01*
X211505820Y-119564502D01*
X211625518Y-119600812D01*
X211750000Y-119613072D01*
X214350000Y-119613072D01*
X214474482Y-119600812D01*
X214594180Y-119564502D01*
X214704494Y-119505537D01*
X214801185Y-119426185D01*
X214880537Y-119329494D01*
X214939502Y-119219180D01*
X214975812Y-119099482D01*
X214988072Y-118975000D01*
X214988072Y-116375000D01*
X214975812Y-116250518D01*
X214939502Y-116130820D01*
X214880537Y-116020506D01*
X214801185Y-115923815D01*
X214704494Y-115844463D01*
X214594180Y-115785498D01*
X214474482Y-115749188D01*
X214350000Y-115736928D01*
X211750000Y-115736928D01*
X211625518Y-115749188D01*
X211505820Y-115785498D01*
X211395506Y-115844463D01*
X211298815Y-115923815D01*
X211219463Y-116020506D01*
X211160498Y-116130820D01*
X211124188Y-116250518D01*
X211111928Y-116375000D01*
X209486504Y-116375000D01*
X209283491Y-116171987D01*
X208966566Y-115960225D01*
X208614419Y-115814361D01*
X208240581Y-115740000D01*
X207859419Y-115740000D01*
X207485581Y-115814361D01*
X207133434Y-115960225D01*
X206816509Y-116171987D01*
X206546987Y-116441509D01*
X206335225Y-116758434D01*
X206189361Y-117110581D01*
X206115000Y-117484419D01*
X206115000Y-117865581D01*
X206189361Y-118239419D01*
X206335225Y-118591566D01*
X206546987Y-118908491D01*
X206816509Y-119178013D01*
X207133434Y-119389775D01*
X207485581Y-119535639D01*
X207859419Y-119610000D01*
X208240581Y-119610000D01*
X208614419Y-119535639D01*
X208770986Y-119470787D01*
X211811200Y-122511002D01*
X211834999Y-122540001D01*
X211920678Y-122610316D01*
X211545001Y-122573315D01*
X211071579Y-122619943D01*
X210616350Y-122758035D01*
X210196808Y-122982285D01*
X209829077Y-123284075D01*
X209527287Y-123651806D01*
X209473858Y-123751763D01*
X209316808Y-123667818D01*
X209046309Y-123585764D01*
X208835492Y-123565000D01*
X208694508Y-123565000D01*
X208483691Y-123585764D01*
X208213192Y-123667818D01*
X207963899Y-123801068D01*
X207745392Y-123980392D01*
X207566068Y-124198899D01*
X207495000Y-124331858D01*
X207423932Y-124198899D01*
X207244608Y-123980392D01*
X207026101Y-123801068D01*
X206776808Y-123667818D01*
X206506309Y-123585764D01*
X206295492Y-123565000D01*
X206154508Y-123565000D01*
X205943691Y-123585764D01*
X205673192Y-123667818D01*
X205423899Y-123801068D01*
X205205392Y-123980392D01*
X205026068Y-124198899D01*
X204952421Y-124336682D01*
X204837385Y-124144869D01*
X204648414Y-123936481D01*
X204422420Y-123768963D01*
X204168087Y-123648754D01*
X204034039Y-123608096D01*
X203812000Y-123730085D01*
X203812000Y-124873000D01*
X203832000Y-124873000D01*
X203832000Y-125127000D01*
X203812000Y-125127000D01*
X203812000Y-125147000D01*
X203558000Y-125147000D01*
X203558000Y-125127000D01*
X203538000Y-125127000D01*
X203538000Y-124873000D01*
X203558000Y-124873000D01*
X203558000Y-123730085D01*
X203513929Y-123705872D01*
X203561003Y-123658799D01*
X203590001Y-123635001D01*
X203684974Y-123519276D01*
X203755546Y-123387247D01*
X203799003Y-123243986D01*
X203810000Y-123132333D01*
X203810000Y-123132323D01*
X203813676Y-123095000D01*
X203810000Y-123057677D01*
X203810000Y-119454627D01*
X203966566Y-119389775D01*
X204283491Y-119178013D01*
X204553013Y-118908491D01*
X204764775Y-118591566D01*
X204910639Y-118239419D01*
X204985000Y-117865581D01*
X204985000Y-117484419D01*
X204910639Y-117110581D01*
X204845787Y-116954015D01*
X204861003Y-116938799D01*
X204890000Y-116915002D01*
X204984973Y-116799277D01*
X204995823Y-116778978D01*
X206414802Y-115360000D01*
X228060199Y-115360000D01*
X228455469Y-115755270D01*
X228355820Y-115785498D01*
X228245506Y-115844463D01*
X228148815Y-115923815D01*
X228069463Y-116020506D01*
X228010498Y-116130820D01*
X227974188Y-116250518D01*
X227961928Y-116375000D01*
X227961928Y-118975000D01*
X227974188Y-119099482D01*
X228010498Y-119219180D01*
X228069463Y-119329494D01*
X228148815Y-119426185D01*
X228245506Y-119505537D01*
X228355820Y-119564502D01*
X228475518Y-119600812D01*
X228600000Y-119613072D01*
X231200000Y-119613072D01*
X231324482Y-119600812D01*
X231444180Y-119564502D01*
X231554494Y-119505537D01*
X231651185Y-119426185D01*
X231730537Y-119329494D01*
X231789502Y-119219180D01*
X231825812Y-119099482D01*
X231838072Y-118975000D01*
X231838072Y-116375000D01*
X231825812Y-116250518D01*
X231789502Y-116130820D01*
X231730537Y-116020506D01*
X231651185Y-115923815D01*
X231554494Y-115844463D01*
X231444180Y-115785498D01*
X231324482Y-115749188D01*
X231200000Y-115736928D01*
X230554326Y-115736928D01*
X230534974Y-115700724D01*
X230440001Y-115584999D01*
X230411004Y-115561202D01*
X228938804Y-114089003D01*
X228915001Y-114059999D01*
X228799276Y-113965026D01*
X228667247Y-113894454D01*
X228523986Y-113850997D01*
X228412333Y-113840000D01*
X228412322Y-113840000D01*
X228375000Y-113836324D01*
X228337678Y-113840000D01*
X206137322Y-113840000D01*
X206099999Y-113836324D01*
X206062676Y-113840000D01*
X206062667Y-113840000D01*
X205951014Y-113850997D01*
X205807753Y-113894454D01*
X205675723Y-113965026D01*
X205643470Y-113991496D01*
X205559999Y-114059999D01*
X205536201Y-114088997D01*
X203839000Y-115786199D01*
X203809998Y-115810000D01*
X203757709Y-115873714D01*
X203614419Y-115814361D01*
X203240581Y-115740000D01*
X202859419Y-115740000D01*
X202485581Y-115814361D01*
X202133434Y-115960225D01*
X201816509Y-116171987D01*
X201546987Y-116441509D01*
X201335225Y-116758434D01*
X201189361Y-117110581D01*
X201115000Y-117484419D01*
X201115000Y-117865581D01*
X201189361Y-118239419D01*
X201335225Y-118591566D01*
X201546987Y-118908491D01*
X201816509Y-119178013D01*
X202133434Y-119389775D01*
X202290000Y-119454627D01*
X202290001Y-122780197D01*
X201470906Y-123599292D01*
X201426309Y-123585764D01*
X201215492Y-123565000D01*
X201074508Y-123565000D01*
X200863691Y-123585764D01*
X200593192Y-123667818D01*
X200343899Y-123801068D01*
X200125392Y-123980392D01*
X199946068Y-124198899D01*
X199875000Y-124331858D01*
X199803932Y-124198899D01*
X199624608Y-123980392D01*
X199406101Y-123801068D01*
X199156808Y-123667818D01*
X198886309Y-123585764D01*
X198675492Y-123565000D01*
X198534508Y-123565000D01*
X198323691Y-123585764D01*
X198053192Y-123667818D01*
X197803899Y-123801068D01*
X197585392Y-123980392D01*
X197406068Y-124198899D01*
X197335000Y-124331858D01*
X197263932Y-124198899D01*
X197084608Y-123980392D01*
X196866101Y-123801068D01*
X196616808Y-123667818D01*
X196346309Y-123585764D01*
X196135492Y-123565000D01*
X195994508Y-123565000D01*
X195783691Y-123585764D01*
X195513192Y-123667818D01*
X195263899Y-123801068D01*
X195045392Y-123980392D01*
X194952581Y-124093482D01*
X194950812Y-124075518D01*
X194914502Y-123955820D01*
X194855537Y-123845506D01*
X194776185Y-123748815D01*
X194679494Y-123669463D01*
X194569180Y-123610498D01*
X194449482Y-123574188D01*
X194325000Y-123561928D01*
X192725000Y-123561928D01*
X192600518Y-123574188D01*
X192480820Y-123610498D01*
X192370506Y-123669463D01*
X192273815Y-123748815D01*
X192194463Y-123845506D01*
X192135498Y-123955820D01*
X192099188Y-124075518D01*
X192086928Y-124200000D01*
X192086928Y-125800000D01*
X192095299Y-125885000D01*
X190200325Y-125885000D01*
X187315000Y-122999675D01*
X187315000Y-106018632D01*
X187326684Y-105900000D01*
X187315000Y-105781368D01*
X187315000Y-105781360D01*
X187280057Y-105426577D01*
X187141965Y-104971348D01*
X186917715Y-104551806D01*
X186691554Y-104276228D01*
X186691550Y-104276224D01*
X186615925Y-104184075D01*
X186523777Y-104108451D01*
X176391553Y-93976228D01*
X176315925Y-93884075D01*
X175948194Y-93582285D01*
X175528652Y-93358035D01*
X175073423Y-93219943D01*
X174718640Y-93185000D01*
X174718632Y-93185000D01*
X174600000Y-93173316D01*
X174481368Y-93185000D01*
X128300325Y-93185000D01*
X119290325Y-84175000D01*
X185606928Y-84175000D01*
X185606928Y-86775000D01*
X185619188Y-86899482D01*
X185655498Y-87019180D01*
X185714463Y-87129494D01*
X185793815Y-87226185D01*
X185890506Y-87305537D01*
X186000820Y-87364502D01*
X186120518Y-87400812D01*
X186245000Y-87413072D01*
X188845000Y-87413072D01*
X188969482Y-87400812D01*
X189089180Y-87364502D01*
X189199494Y-87305537D01*
X189296185Y-87226185D01*
X189375537Y-87129494D01*
X189434502Y-87019180D01*
X189470812Y-86899482D01*
X189483072Y-86775000D01*
X189483072Y-84175000D01*
X189470812Y-84050518D01*
X189434502Y-83930820D01*
X189375537Y-83820506D01*
X189296185Y-83723815D01*
X189199494Y-83644463D01*
X189089180Y-83585498D01*
X188969482Y-83549188D01*
X188845000Y-83536928D01*
X186245000Y-83536928D01*
X186120518Y-83549188D01*
X186000820Y-83585498D01*
X185890506Y-83644463D01*
X185793815Y-83723815D01*
X185714463Y-83820506D01*
X185655498Y-83930820D01*
X185619188Y-84050518D01*
X185606928Y-84175000D01*
X119290325Y-84175000D01*
X115015000Y-79899675D01*
X115015000Y-79234042D01*
X117015000Y-79234042D01*
X117015000Y-79565958D01*
X117079754Y-79891496D01*
X117206772Y-80198147D01*
X117391175Y-80474125D01*
X117625875Y-80708825D01*
X117901853Y-80893228D01*
X118208504Y-81020246D01*
X118534042Y-81085000D01*
X118865958Y-81085000D01*
X119191496Y-81020246D01*
X119498147Y-80893228D01*
X119774125Y-80708825D01*
X120008825Y-80474125D01*
X120193228Y-80198147D01*
X120320246Y-79891496D01*
X120385000Y-79565958D01*
X120385000Y-79234042D01*
X160015000Y-79234042D01*
X160015000Y-79565958D01*
X160079754Y-79891496D01*
X160206772Y-80198147D01*
X160391175Y-80474125D01*
X160625875Y-80708825D01*
X160901853Y-80893228D01*
X161208504Y-81020246D01*
X161534042Y-81085000D01*
X161865958Y-81085000D01*
X162191496Y-81020246D01*
X162498147Y-80893228D01*
X162774125Y-80708825D01*
X163008825Y-80474125D01*
X163193228Y-80198147D01*
X163320246Y-79891496D01*
X163385000Y-79565958D01*
X163385000Y-79234042D01*
X163320246Y-78908504D01*
X163193228Y-78601853D01*
X163008825Y-78325875D01*
X162774125Y-78091175D01*
X162498147Y-77906772D01*
X162191496Y-77779754D01*
X161865958Y-77715000D01*
X161534042Y-77715000D01*
X161208504Y-77779754D01*
X160901853Y-77906772D01*
X160625875Y-78091175D01*
X160391175Y-78325875D01*
X160206772Y-78601853D01*
X160079754Y-78908504D01*
X160015000Y-79234042D01*
X120385000Y-79234042D01*
X120320246Y-78908504D01*
X120193228Y-78601853D01*
X120008825Y-78325875D01*
X119774125Y-78091175D01*
X119498147Y-77906772D01*
X119191496Y-77779754D01*
X118865958Y-77715000D01*
X118534042Y-77715000D01*
X118208504Y-77779754D01*
X117901853Y-77906772D01*
X117625875Y-78091175D01*
X117391175Y-78325875D01*
X117206772Y-78601853D01*
X117079754Y-78908504D01*
X117015000Y-79234042D01*
X115015000Y-79234042D01*
X115015000Y-76740000D01*
X182943057Y-76740000D01*
X182970764Y-77021309D01*
X183052818Y-77291808D01*
X183186068Y-77541101D01*
X183365392Y-77759608D01*
X183583899Y-77938932D01*
X183833192Y-78072182D01*
X184103691Y-78154236D01*
X184314508Y-78175000D01*
X184455492Y-78175000D01*
X184666309Y-78154236D01*
X184936808Y-78072182D01*
X185186101Y-77938932D01*
X185404608Y-77759608D01*
X185583932Y-77541101D01*
X185655000Y-77408142D01*
X185726068Y-77541101D01*
X185905392Y-77759608D01*
X186123899Y-77938932D01*
X186373192Y-78072182D01*
X186643691Y-78154236D01*
X186854508Y-78175000D01*
X186995492Y-78175000D01*
X187206309Y-78154236D01*
X187476808Y-78072182D01*
X187726101Y-77938932D01*
X187944608Y-77759608D01*
X188123932Y-77541101D01*
X188195000Y-77408142D01*
X188266068Y-77541101D01*
X188445392Y-77759608D01*
X188663899Y-77938932D01*
X188913192Y-78072182D01*
X189183691Y-78154236D01*
X189394508Y-78175000D01*
X189535492Y-78175000D01*
X189746309Y-78154236D01*
X190016808Y-78072182D01*
X190266101Y-77938932D01*
X190484608Y-77759608D01*
X190663932Y-77541101D01*
X190735000Y-77408142D01*
X190806068Y-77541101D01*
X190985392Y-77759608D01*
X191203899Y-77938932D01*
X191453192Y-78072182D01*
X191723691Y-78154236D01*
X191934508Y-78175000D01*
X192075492Y-78175000D01*
X192286309Y-78154236D01*
X192556808Y-78072182D01*
X192806101Y-77938932D01*
X193024608Y-77759608D01*
X193203932Y-77541101D01*
X193275000Y-77408142D01*
X193346068Y-77541101D01*
X193525392Y-77759608D01*
X193743899Y-77938932D01*
X193993192Y-78072182D01*
X194263691Y-78154236D01*
X194474508Y-78175000D01*
X194615492Y-78175000D01*
X194826309Y-78154236D01*
X195096808Y-78072182D01*
X195346101Y-77938932D01*
X195564608Y-77759608D01*
X195743932Y-77541101D01*
X195815000Y-77408142D01*
X195886068Y-77541101D01*
X196065392Y-77759608D01*
X196283899Y-77938932D01*
X196533192Y-78072182D01*
X196803691Y-78154236D01*
X197014508Y-78175000D01*
X197155492Y-78175000D01*
X197366309Y-78154236D01*
X197636808Y-78072182D01*
X197886101Y-77938932D01*
X198104608Y-77759608D01*
X198283932Y-77541101D01*
X198355000Y-77408142D01*
X198426068Y-77541101D01*
X198605392Y-77759608D01*
X198823899Y-77938932D01*
X199073192Y-78072182D01*
X199343691Y-78154236D01*
X199554508Y-78175000D01*
X199695492Y-78175000D01*
X199906309Y-78154236D01*
X200176808Y-78072182D01*
X200426101Y-77938932D01*
X200644608Y-77759608D01*
X200823932Y-77541101D01*
X200895000Y-77408142D01*
X200966068Y-77541101D01*
X201145392Y-77759608D01*
X201363899Y-77938932D01*
X201613192Y-78072182D01*
X201883691Y-78154236D01*
X202094508Y-78175000D01*
X202235492Y-78175000D01*
X202446309Y-78154236D01*
X202716808Y-78072182D01*
X202966101Y-77938932D01*
X203184608Y-77759608D01*
X203363932Y-77541101D01*
X203435000Y-77408142D01*
X203506068Y-77541101D01*
X203685392Y-77759608D01*
X203903899Y-77938932D01*
X204153192Y-78072182D01*
X204423691Y-78154236D01*
X204634508Y-78175000D01*
X204775492Y-78175000D01*
X204986309Y-78154236D01*
X205256808Y-78072182D01*
X205506101Y-77938932D01*
X205724608Y-77759608D01*
X205903932Y-77541101D01*
X205975000Y-77408142D01*
X206046068Y-77541101D01*
X206225392Y-77759608D01*
X206443899Y-77938932D01*
X206693192Y-78072182D01*
X206963691Y-78154236D01*
X207174508Y-78175000D01*
X207315492Y-78175000D01*
X207526309Y-78154236D01*
X207796808Y-78072182D01*
X208046101Y-77938932D01*
X208264608Y-77759608D01*
X208443932Y-77541101D01*
X208577182Y-77291808D01*
X208659236Y-77021309D01*
X208686943Y-76740000D01*
X208659236Y-76458691D01*
X208577182Y-76188192D01*
X208443932Y-75938899D01*
X208264608Y-75720392D01*
X208046101Y-75541068D01*
X207796808Y-75407818D01*
X207526309Y-75325764D01*
X207315492Y-75305000D01*
X207174508Y-75305000D01*
X206963691Y-75325764D01*
X206693192Y-75407818D01*
X206443899Y-75541068D01*
X206225392Y-75720392D01*
X206046068Y-75938899D01*
X205975000Y-76071858D01*
X205903932Y-75938899D01*
X205724608Y-75720392D01*
X205506101Y-75541068D01*
X205256808Y-75407818D01*
X204986309Y-75325764D01*
X204775492Y-75305000D01*
X204634508Y-75305000D01*
X204423691Y-75325764D01*
X204153192Y-75407818D01*
X203903899Y-75541068D01*
X203685392Y-75720392D01*
X203506068Y-75938899D01*
X203435000Y-76071858D01*
X203363932Y-75938899D01*
X203184608Y-75720392D01*
X202966101Y-75541068D01*
X202716808Y-75407818D01*
X202446309Y-75325764D01*
X202235492Y-75305000D01*
X202094508Y-75305000D01*
X201883691Y-75325764D01*
X201613192Y-75407818D01*
X201363899Y-75541068D01*
X201145392Y-75720392D01*
X200966068Y-75938899D01*
X200895000Y-76071858D01*
X200823932Y-75938899D01*
X200644608Y-75720392D01*
X200426101Y-75541068D01*
X200176808Y-75407818D01*
X199906309Y-75325764D01*
X199695492Y-75305000D01*
X199554508Y-75305000D01*
X199343691Y-75325764D01*
X199073192Y-75407818D01*
X198823899Y-75541068D01*
X198605392Y-75720392D01*
X198426068Y-75938899D01*
X198355000Y-76071858D01*
X198283932Y-75938899D01*
X198104608Y-75720392D01*
X197886101Y-75541068D01*
X197636808Y-75407818D01*
X197366309Y-75325764D01*
X197155492Y-75305000D01*
X197014508Y-75305000D01*
X196803691Y-75325764D01*
X196533192Y-75407818D01*
X196283899Y-75541068D01*
X196065392Y-75720392D01*
X195886068Y-75938899D01*
X195815000Y-76071858D01*
X195743932Y-75938899D01*
X195564608Y-75720392D01*
X195346101Y-75541068D01*
X195096808Y-75407818D01*
X194826309Y-75325764D01*
X194615492Y-75305000D01*
X194474508Y-75305000D01*
X194263691Y-75325764D01*
X193993192Y-75407818D01*
X193743899Y-75541068D01*
X193525392Y-75720392D01*
X193346068Y-75938899D01*
X193275000Y-76071858D01*
X193203932Y-75938899D01*
X193024608Y-75720392D01*
X192806101Y-75541068D01*
X192556808Y-75407818D01*
X192286309Y-75325764D01*
X192075492Y-75305000D01*
X191934508Y-75305000D01*
X191723691Y-75325764D01*
X191453192Y-75407818D01*
X191203899Y-75541068D01*
X190985392Y-75720392D01*
X190806068Y-75938899D01*
X190735000Y-76071858D01*
X190663932Y-75938899D01*
X190484608Y-75720392D01*
X190266101Y-75541068D01*
X190016808Y-75407818D01*
X189746309Y-75325764D01*
X189535492Y-75305000D01*
X189394508Y-75305000D01*
X189183691Y-75325764D01*
X188913192Y-75407818D01*
X188663899Y-75541068D01*
X188445392Y-75720392D01*
X188266068Y-75938899D01*
X188195000Y-76071858D01*
X188123932Y-75938899D01*
X187944608Y-75720392D01*
X187726101Y-75541068D01*
X187476808Y-75407818D01*
X187206309Y-75325764D01*
X186995492Y-75305000D01*
X186854508Y-75305000D01*
X186643691Y-75325764D01*
X186373192Y-75407818D01*
X186123899Y-75541068D01*
X185905392Y-75720392D01*
X185726068Y-75938899D01*
X185655000Y-76071858D01*
X185583932Y-75938899D01*
X185404608Y-75720392D01*
X185186101Y-75541068D01*
X184936808Y-75407818D01*
X184666309Y-75325764D01*
X184455492Y-75305000D01*
X184314508Y-75305000D01*
X184103691Y-75325764D01*
X183833192Y-75407818D01*
X183583899Y-75541068D01*
X183365392Y-75720392D01*
X183186068Y-75938899D01*
X183052818Y-76188192D01*
X182970764Y-76458691D01*
X182943057Y-76740000D01*
X115015000Y-76740000D01*
X115015000Y-75626259D01*
X115026684Y-75507629D01*
X115015000Y-75389000D01*
X115015000Y-75388990D01*
X115005000Y-75287458D01*
X115005000Y-74301360D01*
X114970057Y-73946577D01*
X114831965Y-73491348D01*
X114607715Y-73071806D01*
X114305925Y-72704075D01*
X113938193Y-72402285D01*
X113518651Y-72178035D01*
X113063422Y-72039943D01*
X112590000Y-71993315D01*
X112116577Y-72039943D01*
X111661348Y-72178035D01*
X111241806Y-72402285D01*
X110874075Y-72704075D01*
X110572285Y-73071807D01*
X110348035Y-73491349D01*
X110209943Y-73946578D01*
X110175000Y-74301361D01*
X110175000Y-75378998D01*
X110163316Y-75497630D01*
X110175000Y-75616262D01*
X110175000Y-75616270D01*
X110185000Y-75717803D01*
X110185001Y-80781358D01*
X110173316Y-80900000D01*
X110219943Y-81373422D01*
X110358036Y-81828652D01*
X110582285Y-82248193D01*
X110808446Y-82523771D01*
X110808451Y-82523776D01*
X110884076Y-82615925D01*
X110976225Y-82691550D01*
X125508446Y-97223771D01*
X125584075Y-97315925D01*
X125951806Y-97617715D01*
X126371348Y-97841965D01*
X126826577Y-97980057D01*
X127181360Y-98015000D01*
X127181369Y-98015000D01*
X127299999Y-98026684D01*
X127418629Y-98015000D01*
X173599675Y-98015000D01*
X182485000Y-106900326D01*
X182485001Y-123881358D01*
X182473316Y-124000000D01*
X182519943Y-124473422D01*
X182658036Y-124928652D01*
X182882285Y-125348193D01*
X183108446Y-125623771D01*
X183108451Y-125623776D01*
X183184076Y-125715925D01*
X183276225Y-125791550D01*
X187408446Y-129923771D01*
X187484075Y-130015925D01*
X187647445Y-130150000D01*
X87020000Y-130150000D01*
X87020000Y-98467865D01*
X87025001Y-98518642D01*
X87025000Y-123538639D01*
X87059943Y-123893422D01*
X87198035Y-124348651D01*
X87422285Y-124768193D01*
X87724075Y-125135925D01*
X88091806Y-125437715D01*
X88511348Y-125661965D01*
X88966577Y-125800057D01*
X89440000Y-125846685D01*
X89761703Y-125815000D01*
X98093640Y-125815000D01*
X98448423Y-125780057D01*
X98903652Y-125641965D01*
X99323194Y-125417715D01*
X99690925Y-125115925D01*
X99992715Y-124748194D01*
X100216965Y-124328652D01*
X100355057Y-123873423D01*
X100401685Y-123400000D01*
X100355057Y-122926577D01*
X100216965Y-122471348D01*
X99992715Y-122051806D01*
X99690925Y-121684075D01*
X99323194Y-121382285D01*
X98903652Y-121158035D01*
X98448423Y-121019943D01*
X98093640Y-120985000D01*
X91855000Y-120985000D01*
X91855000Y-109900000D01*
X96873316Y-109900000D01*
X96919943Y-110373422D01*
X97058036Y-110828652D01*
X97282285Y-111248193D01*
X97508446Y-111523771D01*
X100560001Y-114575327D01*
X100560000Y-123281360D01*
X100548315Y-123400000D01*
X100594943Y-123873423D01*
X100733035Y-124328652D01*
X100957285Y-124748194D01*
X101066365Y-124881109D01*
X101085498Y-124944180D01*
X101144463Y-125054494D01*
X101223815Y-125151185D01*
X101320506Y-125230537D01*
X101430820Y-125289502D01*
X101493891Y-125308635D01*
X101626806Y-125417715D01*
X102046348Y-125641965D01*
X102501577Y-125780057D01*
X102975000Y-125826685D01*
X103093640Y-125815000D01*
X112338640Y-125815000D01*
X112693423Y-125780057D01*
X113148652Y-125641965D01*
X113568194Y-125417715D01*
X113935925Y-125115925D01*
X114237715Y-124748194D01*
X114461965Y-124328652D01*
X114600057Y-123873423D01*
X114646685Y-123400000D01*
X114603292Y-122959419D01*
X116765000Y-122959419D01*
X116765000Y-123340581D01*
X116839361Y-123714419D01*
X116985225Y-124066566D01*
X117196987Y-124383491D01*
X117466509Y-124653013D01*
X117783434Y-124864775D01*
X118135581Y-125010639D01*
X118509419Y-125085000D01*
X118890581Y-125085000D01*
X119264419Y-125010639D01*
X119616566Y-124864775D01*
X119933491Y-124653013D01*
X120203013Y-124383491D01*
X120414775Y-124066566D01*
X120560639Y-123714419D01*
X120635000Y-123340581D01*
X120635000Y-122959419D01*
X120560639Y-122585581D01*
X120414775Y-122233434D01*
X120203013Y-121916509D01*
X119933491Y-121646987D01*
X119616566Y-121435225D01*
X119264419Y-121289361D01*
X118890581Y-121215000D01*
X118509419Y-121215000D01*
X118135581Y-121289361D01*
X117783434Y-121435225D01*
X117466509Y-121646987D01*
X117196987Y-121916509D01*
X116985225Y-122233434D01*
X116839361Y-122585581D01*
X116765000Y-122959419D01*
X114603292Y-122959419D01*
X114600057Y-122926577D01*
X114461965Y-122471348D01*
X114237715Y-122051806D01*
X113935925Y-121684075D01*
X113568194Y-121382285D01*
X113148652Y-121158035D01*
X112693423Y-121019943D01*
X112338640Y-120985000D01*
X105390000Y-120985000D01*
X105390000Y-118709117D01*
X108895000Y-118709117D01*
X108895000Y-119050883D01*
X108961675Y-119386081D01*
X109092463Y-119701831D01*
X109282337Y-119985998D01*
X109524002Y-120227663D01*
X109808169Y-120417537D01*
X110123919Y-120548325D01*
X110459117Y-120615000D01*
X110800883Y-120615000D01*
X111136081Y-120548325D01*
X111451831Y-120417537D01*
X111735998Y-120227663D01*
X111977663Y-119985998D01*
X112167537Y-119701831D01*
X112298325Y-119386081D01*
X112365000Y-119050883D01*
X112365000Y-118709117D01*
X112298325Y-118373919D01*
X112167537Y-118058169D01*
X111977663Y-117774002D01*
X111735998Y-117532337D01*
X111451831Y-117342463D01*
X111136081Y-117211675D01*
X110800883Y-117145000D01*
X110459117Y-117145000D01*
X110123919Y-117211675D01*
X109808169Y-117342463D01*
X109524002Y-117532337D01*
X109282337Y-117774002D01*
X109092463Y-118058169D01*
X108961675Y-118373919D01*
X108895000Y-118709117D01*
X105390000Y-118709117D01*
X105390000Y-113693632D01*
X105401684Y-113575000D01*
X105390000Y-113456368D01*
X105390000Y-113456360D01*
X105377953Y-113334042D01*
X117015000Y-113334042D01*
X117015000Y-113665958D01*
X117079754Y-113991496D01*
X117206772Y-114298147D01*
X117391175Y-114574125D01*
X117625875Y-114808825D01*
X117901853Y-114993228D01*
X118208504Y-115120246D01*
X118534042Y-115185000D01*
X118865958Y-115185000D01*
X119191496Y-115120246D01*
X119498147Y-114993228D01*
X119774125Y-114808825D01*
X120008825Y-114574125D01*
X120193228Y-114298147D01*
X120320246Y-113991496D01*
X120385000Y-113665958D01*
X120385000Y-113334042D01*
X120320246Y-113008504D01*
X120193228Y-112701853D01*
X120008825Y-112425875D01*
X119774125Y-112191175D01*
X119498147Y-112006772D01*
X119191496Y-111879754D01*
X118865958Y-111815000D01*
X118534042Y-111815000D01*
X118208504Y-111879754D01*
X117901853Y-112006772D01*
X117625875Y-112191175D01*
X117391175Y-112425875D01*
X117206772Y-112701853D01*
X117079754Y-113008504D01*
X117015000Y-113334042D01*
X105377953Y-113334042D01*
X105355057Y-113101577D01*
X105216965Y-112646348D01*
X104992715Y-112226806D01*
X104963473Y-112191175D01*
X104766554Y-111951228D01*
X104766550Y-111951224D01*
X104690925Y-111859075D01*
X104598776Y-111783450D01*
X100923771Y-108108446D01*
X100648193Y-107882285D01*
X100228652Y-107658036D01*
X99773422Y-107519943D01*
X99300000Y-107473316D01*
X98826578Y-107519943D01*
X98371348Y-107658036D01*
X97951807Y-107882285D01*
X97584075Y-108184075D01*
X97282285Y-108551807D01*
X97058036Y-108971348D01*
X96919943Y-109426578D01*
X96873316Y-109900000D01*
X91855000Y-109900000D01*
X91855000Y-104900000D01*
X96873315Y-104900000D01*
X96919943Y-105373423D01*
X97058035Y-105828652D01*
X97282285Y-106248194D01*
X97391365Y-106381109D01*
X97410498Y-106444180D01*
X97469463Y-106554494D01*
X97548815Y-106651185D01*
X97645506Y-106730537D01*
X97755820Y-106789502D01*
X97818891Y-106808635D01*
X97951806Y-106917715D01*
X98371348Y-107141965D01*
X98826577Y-107280057D01*
X99181360Y-107315000D01*
X119599675Y-107315000D01*
X121285000Y-109000325D01*
X121285001Y-123268640D01*
X121319944Y-123623423D01*
X121458036Y-124078652D01*
X121682286Y-124498194D01*
X121984076Y-124865925D01*
X122351807Y-125167715D01*
X122771349Y-125391965D01*
X123226578Y-125530057D01*
X123700000Y-125576685D01*
X124173423Y-125530057D01*
X124628652Y-125391965D01*
X125048194Y-125167715D01*
X125415925Y-124865925D01*
X125717715Y-124498194D01*
X125743475Y-124450000D01*
X126761928Y-124450000D01*
X126774188Y-124574482D01*
X126810498Y-124694180D01*
X126869463Y-124804494D01*
X126948815Y-124901185D01*
X127045506Y-124980537D01*
X127155820Y-125039502D01*
X127275518Y-125075812D01*
X127400000Y-125088072D01*
X128414250Y-125085000D01*
X128573000Y-124926250D01*
X128573000Y-123277000D01*
X128827000Y-123277000D01*
X128827000Y-124926250D01*
X128985750Y-125085000D01*
X130000000Y-125088072D01*
X130124482Y-125075812D01*
X130244180Y-125039502D01*
X130354494Y-124980537D01*
X130451185Y-124901185D01*
X130530537Y-124804494D01*
X130589502Y-124694180D01*
X130625812Y-124574482D01*
X130638072Y-124450000D01*
X130635000Y-123435750D01*
X130476250Y-123277000D01*
X128827000Y-123277000D01*
X128573000Y-123277000D01*
X126923750Y-123277000D01*
X126765000Y-123435750D01*
X126761928Y-124450000D01*
X125743475Y-124450000D01*
X125941965Y-124078652D01*
X126080057Y-123623423D01*
X126115000Y-123268640D01*
X126115000Y-121850000D01*
X126761928Y-121850000D01*
X126765000Y-122864250D01*
X126923750Y-123023000D01*
X128573000Y-123023000D01*
X128573000Y-121373750D01*
X128827000Y-121373750D01*
X128827000Y-123023000D01*
X130476250Y-123023000D01*
X130534831Y-122964419D01*
X133465000Y-122964419D01*
X133465000Y-123345581D01*
X133539361Y-123719419D01*
X133685225Y-124071566D01*
X133896987Y-124388491D01*
X134166509Y-124658013D01*
X134483434Y-124869775D01*
X134835581Y-125015639D01*
X135209419Y-125090000D01*
X135590581Y-125090000D01*
X135964419Y-125015639D01*
X136316566Y-124869775D01*
X136633491Y-124658013D01*
X136836504Y-124455000D01*
X138461928Y-124455000D01*
X138474188Y-124579482D01*
X138510498Y-124699180D01*
X138569463Y-124809494D01*
X138648815Y-124906185D01*
X138745506Y-124985537D01*
X138855820Y-125044502D01*
X138975518Y-125080812D01*
X139100000Y-125093072D01*
X140114250Y-125090000D01*
X140273000Y-124931250D01*
X140273000Y-123282000D01*
X140527000Y-123282000D01*
X140527000Y-124931250D01*
X140685750Y-125090000D01*
X141700000Y-125093072D01*
X141824482Y-125080812D01*
X141944180Y-125044502D01*
X142054494Y-124985537D01*
X142151185Y-124906185D01*
X142230537Y-124809494D01*
X142289502Y-124699180D01*
X142325812Y-124579482D01*
X142328792Y-124549224D01*
X145530381Y-124549224D01*
X145662317Y-124844312D01*
X146003045Y-125015159D01*
X146370557Y-125116250D01*
X146750729Y-125143701D01*
X147128951Y-125096457D01*
X147490690Y-124976333D01*
X147737683Y-124844312D01*
X147869619Y-124549224D01*
X146700000Y-123379605D01*
X145530381Y-124549224D01*
X142328792Y-124549224D01*
X142338072Y-124455000D01*
X142335000Y-123440750D01*
X142176250Y-123282000D01*
X140527000Y-123282000D01*
X140273000Y-123282000D01*
X138623750Y-123282000D01*
X138465000Y-123440750D01*
X138461928Y-124455000D01*
X136836504Y-124455000D01*
X136903013Y-124388491D01*
X137114775Y-124071566D01*
X137260639Y-123719419D01*
X137335000Y-123345581D01*
X137335000Y-123250729D01*
X144756299Y-123250729D01*
X144803543Y-123628951D01*
X144923667Y-123990690D01*
X145055688Y-124237683D01*
X145350776Y-124369619D01*
X146520395Y-123200000D01*
X146879605Y-123200000D01*
X148049224Y-124369619D01*
X148344312Y-124237683D01*
X148515159Y-123896955D01*
X148616250Y-123529443D01*
X148643701Y-123149271D01*
X148626232Y-123009419D01*
X149765000Y-123009419D01*
X149765000Y-123390581D01*
X149839361Y-123764419D01*
X149985225Y-124116566D01*
X150196987Y-124433491D01*
X150466509Y-124703013D01*
X150783434Y-124914775D01*
X151135581Y-125060639D01*
X151509419Y-125135000D01*
X151890581Y-125135000D01*
X152264419Y-125060639D01*
X152616566Y-124914775D01*
X152933491Y-124703013D01*
X153203013Y-124433491D01*
X153414775Y-124116566D01*
X153560639Y-123764419D01*
X153635000Y-123390581D01*
X153635000Y-123009419D01*
X153560639Y-122635581D01*
X153414775Y-122283434D01*
X153203013Y-121966509D01*
X153136504Y-121900000D01*
X154761928Y-121900000D01*
X154761928Y-124500000D01*
X154774188Y-124624482D01*
X154810498Y-124744180D01*
X154869463Y-124854494D01*
X154948815Y-124951185D01*
X155045506Y-125030537D01*
X155155820Y-125089502D01*
X155275518Y-125125812D01*
X155400000Y-125138072D01*
X158000000Y-125138072D01*
X158124482Y-125125812D01*
X158244180Y-125089502D01*
X158354494Y-125030537D01*
X158451185Y-124951185D01*
X158530537Y-124854494D01*
X158589502Y-124744180D01*
X158625812Y-124624482D01*
X158638072Y-124500000D01*
X158638072Y-123960000D01*
X167062678Y-123960000D01*
X167100000Y-123963676D01*
X167137322Y-123960000D01*
X167137333Y-123960000D01*
X167248986Y-123949003D01*
X167392247Y-123905546D01*
X167524276Y-123834974D01*
X167640001Y-123740001D01*
X167663804Y-123710997D01*
X168559245Y-122815557D01*
X168592247Y-122805546D01*
X168724276Y-122734974D01*
X168840001Y-122640001D01*
X168934974Y-122524275D01*
X169005546Y-122392246D01*
X169049003Y-122248985D01*
X169060000Y-122137332D01*
X169060000Y-122037324D01*
X169063676Y-122000001D01*
X169060000Y-121962678D01*
X169060000Y-117403711D01*
X169103937Y-117359774D01*
X169217205Y-117190256D01*
X169295226Y-117001898D01*
X169335000Y-116801939D01*
X169335000Y-116598061D01*
X169295226Y-116398102D01*
X169217205Y-116209744D01*
X169103937Y-116040226D01*
X168959774Y-115896063D01*
X168790256Y-115782795D01*
X168601898Y-115704774D01*
X168401939Y-115665000D01*
X168198061Y-115665000D01*
X167998102Y-115704774D01*
X167809744Y-115782795D01*
X167640226Y-115896063D01*
X167496063Y-116040226D01*
X167382795Y-116209744D01*
X167304774Y-116398102D01*
X167265000Y-116598061D01*
X167265000Y-116801939D01*
X167304774Y-117001898D01*
X167382795Y-117190256D01*
X167496063Y-117359774D01*
X167540000Y-117403711D01*
X167540001Y-121685197D01*
X166785199Y-122440000D01*
X158638072Y-122440000D01*
X158638072Y-121900000D01*
X158625812Y-121775518D01*
X158589502Y-121655820D01*
X158530537Y-121545506D01*
X158451185Y-121448815D01*
X158354494Y-121369463D01*
X158244180Y-121310498D01*
X158124482Y-121274188D01*
X158000000Y-121261928D01*
X155400000Y-121261928D01*
X155275518Y-121274188D01*
X155155820Y-121310498D01*
X155045506Y-121369463D01*
X154948815Y-121448815D01*
X154869463Y-121545506D01*
X154810498Y-121655820D01*
X154774188Y-121775518D01*
X154761928Y-121900000D01*
X153136504Y-121900000D01*
X152933491Y-121696987D01*
X152616566Y-121485225D01*
X152264419Y-121339361D01*
X151890581Y-121265000D01*
X151509419Y-121265000D01*
X151135581Y-121339361D01*
X150783434Y-121485225D01*
X150466509Y-121696987D01*
X150196987Y-121966509D01*
X149985225Y-122283434D01*
X149839361Y-122635581D01*
X149765000Y-123009419D01*
X148626232Y-123009419D01*
X148596457Y-122771049D01*
X148476333Y-122409310D01*
X148344312Y-122162317D01*
X148049224Y-122030381D01*
X146879605Y-123200000D01*
X146520395Y-123200000D01*
X145350776Y-122030381D01*
X145055688Y-122162317D01*
X144884841Y-122503045D01*
X144783750Y-122870557D01*
X144756299Y-123250729D01*
X137335000Y-123250729D01*
X137335000Y-122964419D01*
X137260639Y-122590581D01*
X137114775Y-122238434D01*
X136903013Y-121921509D01*
X136836504Y-121855000D01*
X138461928Y-121855000D01*
X138465000Y-122869250D01*
X138623750Y-123028000D01*
X140273000Y-123028000D01*
X140273000Y-121378750D01*
X140527000Y-121378750D01*
X140527000Y-123028000D01*
X142176250Y-123028000D01*
X142335000Y-122869250D01*
X142338072Y-121855000D01*
X142337656Y-121850776D01*
X145530381Y-121850776D01*
X146700000Y-123020395D01*
X147869619Y-121850776D01*
X147737683Y-121555688D01*
X147396955Y-121384841D01*
X147029443Y-121283750D01*
X146649271Y-121256299D01*
X146271049Y-121303543D01*
X145909310Y-121423667D01*
X145662317Y-121555688D01*
X145530381Y-121850776D01*
X142337656Y-121850776D01*
X142325812Y-121730518D01*
X142289502Y-121610820D01*
X142230537Y-121500506D01*
X142151185Y-121403815D01*
X142054494Y-121324463D01*
X141944180Y-121265498D01*
X141824482Y-121229188D01*
X141700000Y-121216928D01*
X140685750Y-121220000D01*
X140527000Y-121378750D01*
X140273000Y-121378750D01*
X140114250Y-121220000D01*
X139100000Y-121216928D01*
X138975518Y-121229188D01*
X138855820Y-121265498D01*
X138745506Y-121324463D01*
X138648815Y-121403815D01*
X138569463Y-121500506D01*
X138510498Y-121610820D01*
X138474188Y-121730518D01*
X138461928Y-121855000D01*
X136836504Y-121855000D01*
X136633491Y-121651987D01*
X136316566Y-121440225D01*
X135964419Y-121294361D01*
X135590581Y-121220000D01*
X135209419Y-121220000D01*
X134835581Y-121294361D01*
X134483434Y-121440225D01*
X134166509Y-121651987D01*
X133896987Y-121921509D01*
X133685225Y-122238434D01*
X133539361Y-122590581D01*
X133465000Y-122964419D01*
X130534831Y-122964419D01*
X130635000Y-122864250D01*
X130638072Y-121850000D01*
X130625812Y-121725518D01*
X130589502Y-121605820D01*
X130530537Y-121495506D01*
X130451185Y-121398815D01*
X130354494Y-121319463D01*
X130244180Y-121260498D01*
X130124482Y-121224188D01*
X130000000Y-121211928D01*
X128985750Y-121215000D01*
X128827000Y-121373750D01*
X128573000Y-121373750D01*
X128414250Y-121215000D01*
X127400000Y-121211928D01*
X127275518Y-121224188D01*
X127155820Y-121260498D01*
X127045506Y-121319463D01*
X126948815Y-121398815D01*
X126869463Y-121495506D01*
X126810498Y-121605820D01*
X126774188Y-121725518D01*
X126761928Y-121850000D01*
X126115000Y-121850000D01*
X126115000Y-113234042D01*
X160015000Y-113234042D01*
X160015000Y-113565958D01*
X160079754Y-113891496D01*
X160206772Y-114198147D01*
X160391175Y-114474125D01*
X160625875Y-114708825D01*
X160901853Y-114893228D01*
X161208504Y-115020246D01*
X161534042Y-115085000D01*
X161865958Y-115085000D01*
X162191496Y-115020246D01*
X162498147Y-114893228D01*
X162774125Y-114708825D01*
X163008825Y-114474125D01*
X163193228Y-114198147D01*
X163320246Y-113891496D01*
X163385000Y-113565958D01*
X163385000Y-113234042D01*
X163320246Y-112908504D01*
X163193228Y-112601853D01*
X163008825Y-112325875D01*
X162774125Y-112091175D01*
X162498147Y-111906772D01*
X162191496Y-111779754D01*
X161865958Y-111715000D01*
X161534042Y-111715000D01*
X161208504Y-111779754D01*
X160901853Y-111906772D01*
X160625875Y-112091175D01*
X160391175Y-112325875D01*
X160206772Y-112601853D01*
X160079754Y-112908504D01*
X160015000Y-113234042D01*
X126115000Y-113234042D01*
X126115000Y-108118631D01*
X126126684Y-107999999D01*
X126115000Y-107881367D01*
X126115000Y-107881360D01*
X126080057Y-107526577D01*
X125941965Y-107071348D01*
X125717715Y-106651806D01*
X125415925Y-106284075D01*
X125323772Y-106208447D01*
X124035325Y-104920000D01*
X169507815Y-104920000D01*
X169536487Y-105211111D01*
X169621401Y-105491034D01*
X169759294Y-105749014D01*
X169944866Y-105975134D01*
X170170986Y-106160706D01*
X170225791Y-106190000D01*
X170170986Y-106219294D01*
X169944866Y-106404866D01*
X169759294Y-106630986D01*
X169621401Y-106888966D01*
X169536487Y-107168889D01*
X169507815Y-107460000D01*
X169536487Y-107751111D01*
X169621401Y-108031034D01*
X169759294Y-108289014D01*
X169944866Y-108515134D01*
X169974687Y-108539607D01*
X169905820Y-108560498D01*
X169795506Y-108619463D01*
X169698815Y-108698815D01*
X169619463Y-108795506D01*
X169560498Y-108905820D01*
X169524188Y-109025518D01*
X169511928Y-109150000D01*
X169511928Y-110850000D01*
X169524188Y-110974482D01*
X169560498Y-111094180D01*
X169619463Y-111204494D01*
X169698815Y-111301185D01*
X169795506Y-111380537D01*
X169905820Y-111439502D01*
X170025518Y-111475812D01*
X170150000Y-111488072D01*
X171850000Y-111488072D01*
X171974482Y-111475812D01*
X172094180Y-111439502D01*
X172204494Y-111380537D01*
X172301185Y-111301185D01*
X172380537Y-111204494D01*
X172439502Y-111094180D01*
X172475812Y-110974482D01*
X172488072Y-110850000D01*
X172488072Y-109150000D01*
X172475812Y-109025518D01*
X172439502Y-108905820D01*
X172380537Y-108795506D01*
X172301185Y-108698815D01*
X172204494Y-108619463D01*
X172094180Y-108560498D01*
X172025313Y-108539607D01*
X172055134Y-108515134D01*
X172240706Y-108289014D01*
X172378599Y-108031034D01*
X172463513Y-107751111D01*
X172492185Y-107460000D01*
X172463513Y-107168889D01*
X172378599Y-106888966D01*
X172240706Y-106630986D01*
X172055134Y-106404866D01*
X171829014Y-106219294D01*
X171774209Y-106190000D01*
X171829014Y-106160706D01*
X172055134Y-105975134D01*
X172240706Y-105749014D01*
X172378599Y-105491034D01*
X172463513Y-105211111D01*
X172492185Y-104920000D01*
X172463513Y-104628889D01*
X172378599Y-104348966D01*
X172240706Y-104090986D01*
X172055134Y-103864866D01*
X171829014Y-103679294D01*
X171764477Y-103644799D01*
X171881355Y-103575178D01*
X172097588Y-103380269D01*
X172271641Y-103146920D01*
X172396825Y-102884099D01*
X172441476Y-102736890D01*
X172320155Y-102507000D01*
X171127000Y-102507000D01*
X171127000Y-102527000D01*
X170873000Y-102527000D01*
X170873000Y-102507000D01*
X169679845Y-102507000D01*
X169558524Y-102736890D01*
X169603175Y-102884099D01*
X169728359Y-103146920D01*
X169902412Y-103380269D01*
X170118645Y-103575178D01*
X170235523Y-103644799D01*
X170170986Y-103679294D01*
X169944866Y-103864866D01*
X169759294Y-104090986D01*
X169621401Y-104348966D01*
X169536487Y-104628889D01*
X169507815Y-104920000D01*
X124035325Y-104920000D01*
X122391554Y-103276229D01*
X122315925Y-103184075D01*
X121948194Y-102882285D01*
X121528652Y-102658035D01*
X121073423Y-102519943D01*
X120718640Y-102485000D01*
X120718632Y-102485000D01*
X120600000Y-102473316D01*
X120481368Y-102485000D01*
X99181360Y-102485000D01*
X98826577Y-102519943D01*
X98371348Y-102658035D01*
X97951806Y-102882285D01*
X97818891Y-102991365D01*
X97755820Y-103010498D01*
X97645506Y-103069463D01*
X97548815Y-103148815D01*
X97469463Y-103245506D01*
X97410498Y-103355820D01*
X97391365Y-103418891D01*
X97282285Y-103551806D01*
X97058035Y-103971348D01*
X96919943Y-104426577D01*
X96873315Y-104900000D01*
X91855000Y-104900000D01*
X91855000Y-102023110D01*
X169558524Y-102023110D01*
X169679845Y-102253000D01*
X170873000Y-102253000D01*
X170873000Y-101059186D01*
X171127000Y-101059186D01*
X171127000Y-102253000D01*
X172320155Y-102253000D01*
X172441476Y-102023110D01*
X172396825Y-101875901D01*
X172271641Y-101613080D01*
X172097588Y-101379731D01*
X171881355Y-101184822D01*
X171631252Y-101035843D01*
X171356891Y-100938519D01*
X171127000Y-101059186D01*
X170873000Y-101059186D01*
X170643109Y-100938519D01*
X170368748Y-101035843D01*
X170118645Y-101184822D01*
X169902412Y-101379731D01*
X169728359Y-101613080D01*
X169603175Y-101875901D01*
X169558524Y-102023110D01*
X91855000Y-102023110D01*
X91855000Y-99400325D01*
X93045906Y-98209419D01*
X97365000Y-98209419D01*
X97365000Y-98590581D01*
X97439361Y-98964419D01*
X97585225Y-99316566D01*
X97796987Y-99633491D01*
X98066509Y-99903013D01*
X98383434Y-100114775D01*
X98735581Y-100260639D01*
X99109419Y-100335000D01*
X99490581Y-100335000D01*
X99864419Y-100260639D01*
X100216566Y-100114775D01*
X100533491Y-99903013D01*
X100803013Y-99633491D01*
X101014775Y-99316566D01*
X101160639Y-98964419D01*
X101235000Y-98590581D01*
X101235000Y-98209419D01*
X101160639Y-97835581D01*
X101014775Y-97483434D01*
X100803013Y-97166509D01*
X100533491Y-96896987D01*
X100216566Y-96685225D01*
X99864419Y-96539361D01*
X99490581Y-96465000D01*
X99109419Y-96465000D01*
X98735581Y-96539361D01*
X98383434Y-96685225D01*
X98066509Y-96896987D01*
X97796987Y-97166509D01*
X97585225Y-97483434D01*
X97439361Y-97835581D01*
X97365000Y-98209419D01*
X93045906Y-98209419D01*
X95440326Y-95815000D01*
X99418640Y-95815000D01*
X99773423Y-95780057D01*
X100228652Y-95641965D01*
X100648194Y-95417715D01*
X100781109Y-95308635D01*
X100844180Y-95289502D01*
X100954494Y-95230537D01*
X101051185Y-95151185D01*
X101130537Y-95054494D01*
X101189502Y-94944180D01*
X101208635Y-94881109D01*
X101317715Y-94748194D01*
X101541965Y-94328652D01*
X101680057Y-93873423D01*
X101726685Y-93400000D01*
X101680057Y-92926577D01*
X101541965Y-92471348D01*
X101317715Y-92051806D01*
X101208635Y-91918891D01*
X101189502Y-91855820D01*
X101130537Y-91745506D01*
X101051185Y-91648815D01*
X100954494Y-91569463D01*
X100844180Y-91510498D01*
X100781109Y-91491365D01*
X100648194Y-91382285D01*
X100228652Y-91158035D01*
X99773423Y-91019943D01*
X99418640Y-90985000D01*
X94558632Y-90985000D01*
X94440000Y-90973316D01*
X94321368Y-90985000D01*
X94321360Y-90985000D01*
X93966577Y-91019943D01*
X93511348Y-91158035D01*
X93091806Y-91382285D01*
X92816228Y-91608446D01*
X92816224Y-91608450D01*
X92724075Y-91684075D01*
X92648450Y-91776224D01*
X87816225Y-96608450D01*
X87724076Y-96684075D01*
X87648451Y-96776224D01*
X87648446Y-96776229D01*
X87422285Y-97051807D01*
X87198036Y-97471348D01*
X87059943Y-97926578D01*
X87020000Y-98332135D01*
X87020000Y-88550000D01*
X97561928Y-88550000D01*
X97574188Y-88674482D01*
X97610498Y-88794180D01*
X97669463Y-88904494D01*
X97748815Y-89001185D01*
X97845506Y-89080537D01*
X97955820Y-89139502D01*
X98075518Y-89175812D01*
X98200000Y-89188072D01*
X99214250Y-89185000D01*
X99373000Y-89026250D01*
X99373000Y-87377000D01*
X99627000Y-87377000D01*
X99627000Y-89026250D01*
X99785750Y-89185000D01*
X100800000Y-89188072D01*
X100924482Y-89175812D01*
X101044180Y-89139502D01*
X101154494Y-89080537D01*
X101251185Y-89001185D01*
X101330537Y-88904494D01*
X101389502Y-88794180D01*
X101425812Y-88674482D01*
X101438072Y-88550000D01*
X101435000Y-87535750D01*
X101276250Y-87377000D01*
X99627000Y-87377000D01*
X99373000Y-87377000D01*
X97723750Y-87377000D01*
X97565000Y-87535750D01*
X97561928Y-88550000D01*
X87020000Y-88550000D01*
X87020000Y-85950000D01*
X97561928Y-85950000D01*
X97565000Y-86964250D01*
X97723750Y-87123000D01*
X99373000Y-87123000D01*
X99373000Y-85473750D01*
X99627000Y-85473750D01*
X99627000Y-87123000D01*
X101276250Y-87123000D01*
X101435000Y-86964250D01*
X101438072Y-85950000D01*
X101425812Y-85825518D01*
X101389502Y-85705820D01*
X101330537Y-85595506D01*
X101251185Y-85498815D01*
X101154494Y-85419463D01*
X101044180Y-85360498D01*
X100924482Y-85324188D01*
X100800000Y-85311928D01*
X99785750Y-85315000D01*
X99627000Y-85473750D01*
X99373000Y-85473750D01*
X99214250Y-85315000D01*
X98200000Y-85311928D01*
X98075518Y-85324188D01*
X97955820Y-85360498D01*
X97845506Y-85419463D01*
X97748815Y-85498815D01*
X97669463Y-85595506D01*
X97610498Y-85705820D01*
X97574188Y-85825518D01*
X97561928Y-85950000D01*
X87020000Y-85950000D01*
X87020000Y-82059419D01*
X97565000Y-82059419D01*
X97565000Y-82440581D01*
X97639361Y-82814419D01*
X97785225Y-83166566D01*
X97996987Y-83483491D01*
X98266509Y-83753013D01*
X98583434Y-83964775D01*
X98935581Y-84110639D01*
X99309419Y-84185000D01*
X99690581Y-84185000D01*
X100064419Y-84110639D01*
X100416566Y-83964775D01*
X100733491Y-83753013D01*
X101003013Y-83483491D01*
X101214775Y-83166566D01*
X101360639Y-82814419D01*
X101435000Y-82440581D01*
X101435000Y-82059419D01*
X101360639Y-81685581D01*
X101214775Y-81333434D01*
X101003013Y-81016509D01*
X100733491Y-80746987D01*
X100416566Y-80535225D01*
X100064419Y-80389361D01*
X99690581Y-80315000D01*
X99309419Y-80315000D01*
X98935581Y-80389361D01*
X98583434Y-80535225D01*
X98266509Y-80746987D01*
X97996987Y-81016509D01*
X97785225Y-81333434D01*
X97639361Y-81685581D01*
X97565000Y-82059419D01*
X87020000Y-82059419D01*
X87020000Y-77769117D01*
X89815000Y-77769117D01*
X89815000Y-78110883D01*
X89881675Y-78446081D01*
X90012463Y-78761831D01*
X90202337Y-79045998D01*
X90444002Y-79287663D01*
X90728169Y-79477537D01*
X91043919Y-79608325D01*
X91379117Y-79675000D01*
X91720883Y-79675000D01*
X92056081Y-79608325D01*
X92371831Y-79477537D01*
X92655998Y-79287663D01*
X92897663Y-79045998D01*
X93087537Y-78761831D01*
X93218325Y-78446081D01*
X93285000Y-78110883D01*
X93285000Y-77769117D01*
X93218325Y-77433919D01*
X93087537Y-77118169D01*
X93048282Y-77059419D01*
X97565000Y-77059419D01*
X97565000Y-77440581D01*
X97639361Y-77814419D01*
X97785225Y-78166566D01*
X97996987Y-78483491D01*
X98266509Y-78753013D01*
X98583434Y-78964775D01*
X98935581Y-79110639D01*
X99309419Y-79185000D01*
X99690581Y-79185000D01*
X100064419Y-79110639D01*
X100416566Y-78964775D01*
X100733491Y-78753013D01*
X101003013Y-78483491D01*
X101214775Y-78166566D01*
X101360639Y-77814419D01*
X101435000Y-77440581D01*
X101435000Y-77059419D01*
X101360639Y-76685581D01*
X101214775Y-76333434D01*
X101003013Y-76016509D01*
X100733491Y-75746987D01*
X100416566Y-75535225D01*
X100064419Y-75389361D01*
X99690581Y-75315000D01*
X99309419Y-75315000D01*
X98935581Y-75389361D01*
X98583434Y-75535225D01*
X98266509Y-75746987D01*
X97996987Y-76016509D01*
X97785225Y-76333434D01*
X97639361Y-76685581D01*
X97565000Y-77059419D01*
X93048282Y-77059419D01*
X92897663Y-76834002D01*
X92655998Y-76592337D01*
X92371831Y-76402463D01*
X92056081Y-76271675D01*
X91720883Y-76205000D01*
X91379117Y-76205000D01*
X91043919Y-76271675D01*
X90728169Y-76402463D01*
X90444002Y-76592337D01*
X90202337Y-76834002D01*
X90012463Y-77118169D01*
X89881675Y-77433919D01*
X89815000Y-77769117D01*
X87020000Y-77769117D01*
X87020000Y-74372408D01*
X88173000Y-74372408D01*
X88173000Y-74647592D01*
X88226686Y-74917490D01*
X88331995Y-75171727D01*
X88484880Y-75400535D01*
X88679465Y-75595120D01*
X88908273Y-75748005D01*
X89162510Y-75853314D01*
X89432408Y-75907000D01*
X89707592Y-75907000D01*
X89977490Y-75853314D01*
X90231727Y-75748005D01*
X90460535Y-75595120D01*
X90655120Y-75400535D01*
X90808005Y-75171727D01*
X90913314Y-74917490D01*
X90967000Y-74647592D01*
X90967000Y-74372408D01*
X90913314Y-74102510D01*
X90808005Y-73848273D01*
X90655120Y-73619465D01*
X90460535Y-73424880D01*
X90231727Y-73271995D01*
X89977490Y-73166686D01*
X89707592Y-73113000D01*
X89432408Y-73113000D01*
X89162510Y-73166686D01*
X88908273Y-73271995D01*
X88679465Y-73424880D01*
X88484880Y-73619465D01*
X88331995Y-73848273D01*
X88226686Y-74102510D01*
X88173000Y-74372408D01*
X87020000Y-74372408D01*
X87020000Y-70670000D01*
X236830001Y-70670000D01*
X236830001Y-75453415D01*
X236830001Y-75453415D01*
G37*
X236830001Y-75453415D02*
X236778599Y-75283966D01*
X236640706Y-75025986D01*
X236455134Y-74799866D01*
X236229014Y-74614294D01*
X235971034Y-74476401D01*
X235691111Y-74391487D01*
X235472950Y-74370000D01*
X235327050Y-74370000D01*
X235108889Y-74391487D01*
X234828966Y-74476401D01*
X234570986Y-74614294D01*
X234344866Y-74799866D01*
X234159294Y-75025986D01*
X234021401Y-75283966D01*
X233936487Y-75563889D01*
X233907815Y-75855000D01*
X233936487Y-76146111D01*
X234021401Y-76426034D01*
X234159294Y-76684014D01*
X234344866Y-76910134D01*
X234570986Y-77095706D01*
X234625791Y-77125000D01*
X234570986Y-77154294D01*
X234344866Y-77339866D01*
X234159294Y-77565986D01*
X234021401Y-77823966D01*
X233936487Y-78103889D01*
X233907815Y-78395000D01*
X233936487Y-78686111D01*
X234021401Y-78966034D01*
X234159294Y-79224014D01*
X234344866Y-79450134D01*
X234570986Y-79635706D01*
X234625791Y-79665000D01*
X234570986Y-79694294D01*
X234344866Y-79879866D01*
X234159294Y-80105986D01*
X234021401Y-80363966D01*
X233936487Y-80643889D01*
X233907815Y-80935000D01*
X233936487Y-81226111D01*
X234021401Y-81506034D01*
X234159294Y-81764014D01*
X234344866Y-81990134D01*
X234374687Y-82014607D01*
X234305820Y-82035498D01*
X234230336Y-82075846D01*
X234205546Y-81994123D01*
X234134975Y-81862095D01*
X234134974Y-81862093D01*
X234063799Y-81775367D01*
X234040001Y-81746369D01*
X234011004Y-81722572D01*
X230073538Y-77785107D01*
X230104608Y-77759608D01*
X230283932Y-77541101D01*
X230417182Y-77291808D01*
X230499236Y-77021309D01*
X230526943Y-76740000D01*
X230499236Y-76458691D01*
X230417182Y-76188192D01*
X230283932Y-75938899D01*
X230104608Y-75720392D01*
X229886101Y-75541068D01*
X229636808Y-75407818D01*
X229366309Y-75325764D01*
X229155492Y-75305000D01*
X229014508Y-75305000D01*
X228803691Y-75325764D01*
X228533192Y-75407818D01*
X228283899Y-75541068D01*
X228065392Y-75720392D01*
X227886068Y-75938899D01*
X227815000Y-76071858D01*
X227743932Y-75938899D01*
X227564608Y-75720392D01*
X227346101Y-75541068D01*
X227096808Y-75407818D01*
X226826309Y-75325764D01*
X226615492Y-75305000D01*
X226474508Y-75305000D01*
X226263691Y-75325764D01*
X225993192Y-75407818D01*
X225743899Y-75541068D01*
X225525392Y-75720392D01*
X225346068Y-75938899D01*
X225275000Y-76071858D01*
X225203932Y-75938899D01*
X225024608Y-75720392D01*
X224806101Y-75541068D01*
X224556808Y-75407818D01*
X224286309Y-75325764D01*
X224075492Y-75305000D01*
X223934508Y-75305000D01*
X223723691Y-75325764D01*
X223453192Y-75407818D01*
X223203899Y-75541068D01*
X222985392Y-75720392D01*
X222806068Y-75938899D01*
X222735000Y-76071858D01*
X222663932Y-75938899D01*
X222484608Y-75720392D01*
X222266101Y-75541068D01*
X222016808Y-75407818D01*
X221746309Y-75325764D01*
X221535492Y-75305000D01*
X221394508Y-75305000D01*
X221183691Y-75325764D01*
X220913192Y-75407818D01*
X220663899Y-75541068D01*
X220445392Y-75720392D01*
X220266068Y-75938899D01*
X220195000Y-76071858D01*
X220123932Y-75938899D01*
X219944608Y-75720392D01*
X219726101Y-75541068D01*
X219476808Y-75407818D01*
X219206309Y-75325764D01*
X218995492Y-75305000D01*
X218854508Y-75305000D01*
X218643691Y-75325764D01*
X218373192Y-75407818D01*
X218123899Y-75541068D01*
X217905392Y-75720392D01*
X217726068Y-75938899D01*
X217655000Y-76071858D01*
X217583932Y-75938899D01*
X217404608Y-75720392D01*
X217186101Y-75541068D01*
X216936808Y-75407818D01*
X216666309Y-75325764D01*
X216455492Y-75305000D01*
X216314508Y-75305000D01*
X216103691Y-75325764D01*
X215833192Y-75407818D01*
X215583899Y-75541068D01*
X215365392Y-75720392D01*
X215186068Y-75938899D01*
X215115000Y-76071858D01*
X215043932Y-75938899D01*
X214864608Y-75720392D01*
X214646101Y-75541068D01*
X214396808Y-75407818D01*
X214126309Y-75325764D01*
X213915492Y-75305000D01*
X213774508Y-75305000D01*
X213563691Y-75325764D01*
X213293192Y-75407818D01*
X213043899Y-75541068D01*
X212825392Y-75720392D01*
X212646068Y-75938899D01*
X212575000Y-76071858D01*
X212503932Y-75938899D01*
X212324608Y-75720392D01*
X212106101Y-75541068D01*
X211856808Y-75407818D01*
X211586309Y-75325764D01*
X211375492Y-75305000D01*
X211234508Y-75305000D01*
X211023691Y-75325764D01*
X210753192Y-75407818D01*
X210503899Y-75541068D01*
X210285392Y-75720392D01*
X210106068Y-75938899D01*
X209972818Y-76188192D01*
X209890764Y-76458691D01*
X209863057Y-76740000D01*
X209890764Y-77021309D01*
X209904292Y-77065906D01*
X204730199Y-82240000D01*
X195057333Y-82240000D01*
X195020000Y-82236323D01*
X194982667Y-82240000D01*
X194871014Y-82250997D01*
X194727753Y-82294454D01*
X194595724Y-82365026D01*
X194479999Y-82459999D01*
X194456201Y-82488997D01*
X193265986Y-83679213D01*
X193109419Y-83614361D01*
X192735581Y-83540000D01*
X192354419Y-83540000D01*
X191980581Y-83614361D01*
X191628434Y-83760225D01*
X191311509Y-83971987D01*
X191041987Y-84241509D01*
X190830225Y-84558434D01*
X190684361Y-84910581D01*
X190610000Y-85284419D01*
X190610000Y-85665581D01*
X190684361Y-86039419D01*
X190830225Y-86391566D01*
X191041987Y-86708491D01*
X191311509Y-86978013D01*
X191628434Y-87189775D01*
X191980581Y-87335639D01*
X192354419Y-87410000D01*
X192735581Y-87410000D01*
X193109419Y-87335639D01*
X193461566Y-87189775D01*
X193778491Y-86978013D01*
X194048013Y-86708491D01*
X194259775Y-86391566D01*
X194405639Y-86039419D01*
X194480000Y-85665581D01*
X194480000Y-85284419D01*
X194405639Y-84910581D01*
X194340787Y-84754014D01*
X195334802Y-83760000D01*
X197719119Y-83760000D01*
X197669463Y-83820506D01*
X197610498Y-83930820D01*
X197574188Y-84050518D01*
X197561928Y-84175000D01*
X197561928Y-86775000D01*
X197574188Y-86899482D01*
X197610498Y-87019180D01*
X197669463Y-87129494D01*
X197748815Y-87226185D01*
X197845506Y-87305537D01*
X197955820Y-87364502D01*
X198075518Y-87400812D01*
X198200000Y-87413072D01*
X200800000Y-87413072D01*
X200924482Y-87400812D01*
X201044180Y-87364502D01*
X201154494Y-87305537D01*
X201251185Y-87226185D01*
X201330537Y-87129494D01*
X201389502Y-87019180D01*
X201425812Y-86899482D01*
X201438072Y-86775000D01*
X201438072Y-84175000D01*
X201425812Y-84050518D01*
X201389502Y-83930820D01*
X201330537Y-83820506D01*
X201280881Y-83760000D01*
X203583977Y-83760000D01*
X203583434Y-83760225D01*
X203266509Y-83971987D01*
X202996987Y-84241509D01*
X202785225Y-84558434D01*
X202639361Y-84910581D01*
X202565000Y-85284419D01*
X202565000Y-85665581D01*
X202639361Y-86039419D01*
X202785225Y-86391566D01*
X202996987Y-86708491D01*
X203266509Y-86978013D01*
X203583434Y-87189775D01*
X203935581Y-87335639D01*
X204309419Y-87410000D01*
X204690581Y-87410000D01*
X205064419Y-87335639D01*
X205416566Y-87189775D01*
X205733491Y-86978013D01*
X205936504Y-86775000D01*
X214361928Y-86775000D01*
X214374188Y-86899482D01*
X214410498Y-87019180D01*
X214469463Y-87129494D01*
X214548815Y-87226185D01*
X214645506Y-87305537D01*
X214755820Y-87364502D01*
X214875518Y-87400812D01*
X215000000Y-87413072D01*
X216014250Y-87410000D01*
X216173000Y-87251250D01*
X216173000Y-85602000D01*
X214523750Y-85602000D01*
X214365000Y-85760750D01*
X214361928Y-86775000D01*
X205936504Y-86775000D01*
X206003013Y-86708491D01*
X206214775Y-86391566D01*
X206360639Y-86039419D01*
X206435000Y-85665581D01*
X206435000Y-85284419D01*
X206360639Y-84910581D01*
X206295787Y-84754015D01*
X206789802Y-84260000D01*
X207047678Y-84260000D01*
X207085000Y-84263676D01*
X207122322Y-84260000D01*
X207122333Y-84260000D01*
X207233986Y-84249003D01*
X207377247Y-84205546D01*
X207434393Y-84175000D01*
X214361928Y-84175000D01*
X214365000Y-85189250D01*
X214523750Y-85348000D01*
X216173000Y-85348000D01*
X216173000Y-83698750D01*
X216014250Y-83540000D01*
X215000000Y-83536928D01*
X214875518Y-83549188D01*
X214755820Y-83585498D01*
X214645506Y-83644463D01*
X214548815Y-83723815D01*
X214469463Y-83820506D01*
X214410498Y-83930820D01*
X214374188Y-84050518D01*
X214361928Y-84175000D01*
X207434393Y-84175000D01*
X207509276Y-84134974D01*
X207625001Y-84040001D01*
X207648804Y-84010997D01*
X213519094Y-78140708D01*
X213563691Y-78154236D01*
X213774508Y-78175000D01*
X213915492Y-78175000D01*
X214126309Y-78154236D01*
X214396808Y-78072182D01*
X214646101Y-77938932D01*
X214864608Y-77759608D01*
X215043932Y-77541101D01*
X215115000Y-77408142D01*
X215186068Y-77541101D01*
X215365392Y-77759608D01*
X215583899Y-77938932D01*
X215833192Y-78072182D01*
X216103691Y-78154236D01*
X216314508Y-78175000D01*
X216455492Y-78175000D01*
X216666309Y-78154236D01*
X216710906Y-78140708D01*
X217990000Y-79419802D01*
X217990001Y-83673602D01*
X217954494Y-83644463D01*
X217844180Y-83585498D01*
X217724482Y-83549188D01*
X217600000Y-83536928D01*
X216585750Y-83540000D01*
X216427000Y-83698750D01*
X216427000Y-85348000D01*
X216447000Y-85348000D01*
X216447000Y-85602000D01*
X216427000Y-85602000D01*
X216427000Y-87251250D01*
X216585750Y-87410000D01*
X217600000Y-87413072D01*
X217724482Y-87400812D01*
X217844180Y-87364502D01*
X217954494Y-87305537D01*
X218051185Y-87226185D01*
X218130537Y-87129494D01*
X218189502Y-87019180D01*
X218225812Y-86899482D01*
X218238072Y-86775000D01*
X218236669Y-86311888D01*
X218238998Y-86313799D01*
X228976201Y-97051003D01*
X228999999Y-97080001D01*
X229115724Y-97174974D01*
X229247753Y-97245546D01*
X229391014Y-97289003D01*
X229502667Y-97300000D01*
X229502676Y-97300000D01*
X229539999Y-97303676D01*
X229577322Y-97300000D01*
X230722405Y-97300000D01*
X230759294Y-97369014D01*
X230944866Y-97595134D01*
X231170986Y-97780706D01*
X231225791Y-97810000D01*
X231170986Y-97839294D01*
X230944866Y-98024866D01*
X230759294Y-98250986D01*
X230621401Y-98508966D01*
X230536487Y-98788889D01*
X230507815Y-99080000D01*
X230536487Y-99371111D01*
X230621401Y-99651034D01*
X230759294Y-99909014D01*
X230944866Y-100135134D01*
X231170986Y-100320706D01*
X231225791Y-100350000D01*
X231170986Y-100379294D01*
X230944866Y-100564866D01*
X230759294Y-100790986D01*
X230621401Y-101048966D01*
X230536487Y-101328889D01*
X230507815Y-101620000D01*
X230536487Y-101911111D01*
X230621401Y-102191034D01*
X230759294Y-102449014D01*
X230944866Y-102675134D01*
X231170986Y-102860706D01*
X231225791Y-102890000D01*
X231170986Y-102919294D01*
X230944866Y-103104866D01*
X230759294Y-103330986D01*
X230621401Y-103588966D01*
X230536487Y-103868889D01*
X230507815Y-104160000D01*
X230536487Y-104451111D01*
X230621401Y-104731034D01*
X230759294Y-104989014D01*
X230944866Y-105215134D01*
X231170986Y-105400706D01*
X231225791Y-105430000D01*
X231170986Y-105459294D01*
X230944866Y-105644866D01*
X230759294Y-105870986D01*
X230621401Y-106128966D01*
X230536487Y-106408889D01*
X230507815Y-106700000D01*
X230536487Y-106991111D01*
X230621401Y-107271034D01*
X230759294Y-107529014D01*
X230944866Y-107755134D01*
X231170986Y-107940706D01*
X231428966Y-108078599D01*
X231708889Y-108163513D01*
X231927050Y-108185000D01*
X232072950Y-108185000D01*
X232291111Y-108163513D01*
X232571034Y-108078599D01*
X232829014Y-107940706D01*
X233055134Y-107755134D01*
X233240706Y-107529014D01*
X233378599Y-107271034D01*
X233463513Y-106991111D01*
X233492185Y-106700000D01*
X233463513Y-106408889D01*
X233378599Y-106128966D01*
X233240706Y-105870986D01*
X233055134Y-105644866D01*
X232829014Y-105459294D01*
X232774209Y-105430000D01*
X232829014Y-105400706D01*
X233055134Y-105215134D01*
X233240706Y-104989014D01*
X233378599Y-104731034D01*
X233463513Y-104451111D01*
X233492185Y-104160000D01*
X233463513Y-103868889D01*
X233378599Y-103588966D01*
X233240706Y-103330986D01*
X233055134Y-103104866D01*
X232829014Y-102919294D01*
X232774209Y-102890000D01*
X232829014Y-102860706D01*
X233055134Y-102675134D01*
X233240706Y-102449014D01*
X233378599Y-102191034D01*
X233463513Y-101911111D01*
X233492185Y-101620000D01*
X233463513Y-101328889D01*
X233440797Y-101254005D01*
X234011003Y-100683799D01*
X234040001Y-100660001D01*
X234134974Y-100544276D01*
X234205546Y-100412247D01*
X234249003Y-100268986D01*
X234260000Y-100157333D01*
X234260000Y-100157324D01*
X234263676Y-100120001D01*
X234260000Y-100082678D01*
X234260000Y-84890010D01*
X234305820Y-84914502D01*
X234425518Y-84950812D01*
X234550000Y-84963072D01*
X235114250Y-84960000D01*
X235273000Y-84801250D01*
X235273000Y-83602000D01*
X235253000Y-83602000D01*
X235253000Y-83348000D01*
X235273000Y-83348000D01*
X235273000Y-83328000D01*
X235527000Y-83328000D01*
X235527000Y-83348000D01*
X235547000Y-83348000D01*
X235547000Y-83602000D01*
X235527000Y-83602000D01*
X235527000Y-84801250D01*
X235685750Y-84960000D01*
X236250000Y-84963072D01*
X236374482Y-84950812D01*
X236494180Y-84914502D01*
X236604494Y-84855537D01*
X236701185Y-84776185D01*
X236780537Y-84679494D01*
X236830001Y-84586955D01*
X236830000Y-119666289D01*
X236759774Y-119596063D01*
X236590256Y-119482795D01*
X236401898Y-119404774D01*
X236201939Y-119365000D01*
X235998061Y-119365000D01*
X235798102Y-119404774D01*
X235609744Y-119482795D01*
X235440226Y-119596063D01*
X235296063Y-119740226D01*
X235182795Y-119909744D01*
X235104774Y-120098102D01*
X235065000Y-120298061D01*
X235065000Y-120360198D01*
X233985199Y-121440000D01*
X228250952Y-121440000D01*
X228213629Y-121436324D01*
X228176306Y-121440000D01*
X228176297Y-121440000D01*
X228064644Y-121450997D01*
X227921383Y-121494454D01*
X227789354Y-121565026D01*
X227673629Y-121659999D01*
X227649831Y-121688997D01*
X226033998Y-123304831D01*
X226005000Y-123328629D01*
X225981202Y-123357627D01*
X225981201Y-123357628D01*
X225910026Y-123444354D01*
X225839454Y-123576384D01*
X225821353Y-123636059D01*
X225795998Y-123719644D01*
X225790428Y-123776198D01*
X225743899Y-123801068D01*
X225525392Y-123980392D01*
X225346068Y-124198899D01*
X225275000Y-124331858D01*
X225203932Y-124198899D01*
X225024608Y-123980392D01*
X224806101Y-123801068D01*
X224556808Y-123667818D01*
X224286309Y-123585764D01*
X224075492Y-123565000D01*
X223934508Y-123565000D01*
X223723691Y-123585764D01*
X223679094Y-123599292D01*
X220660000Y-120580199D01*
X220660000Y-119454627D01*
X220816566Y-119389775D01*
X221133491Y-119178013D01*
X221403013Y-118908491D01*
X221614775Y-118591566D01*
X221760639Y-118239419D01*
X221835000Y-117865581D01*
X221835000Y-117484419D01*
X222965000Y-117484419D01*
X222965000Y-117865581D01*
X223039361Y-118239419D01*
X223185225Y-118591566D01*
X223396987Y-118908491D01*
X223666509Y-119178013D01*
X223983434Y-119389775D01*
X224335581Y-119535639D01*
X224709419Y-119610000D01*
X225090581Y-119610000D01*
X225464419Y-119535639D01*
X225816566Y-119389775D01*
X226133491Y-119178013D01*
X226403013Y-118908491D01*
X226614775Y-118591566D01*
X226760639Y-118239419D01*
X226835000Y-117865581D01*
X226835000Y-117484419D01*
X226760639Y-117110581D01*
X226614775Y-116758434D01*
X226403013Y-116441509D01*
X226133491Y-116171987D01*
X225816566Y-115960225D01*
X225464419Y-115814361D01*
X225090581Y-115740000D01*
X224709419Y-115740000D01*
X224335581Y-115814361D01*
X223983434Y-115960225D01*
X223666509Y-116171987D01*
X223396987Y-116441509D01*
X223185225Y-116758434D01*
X223039361Y-117110581D01*
X222965000Y-117484419D01*
X221835000Y-117484419D01*
X221760639Y-117110581D01*
X221614775Y-116758434D01*
X221403013Y-116441509D01*
X221133491Y-116171987D01*
X220816566Y-115960225D01*
X220464419Y-115814361D01*
X220090581Y-115740000D01*
X219709419Y-115740000D01*
X219335581Y-115814361D01*
X218983434Y-115960225D01*
X218666509Y-116171987D01*
X218396987Y-116441509D01*
X218185225Y-116758434D01*
X218039361Y-117110581D01*
X217965000Y-117484419D01*
X217965000Y-117865581D01*
X218039361Y-118239419D01*
X218185225Y-118591566D01*
X218396987Y-118908491D01*
X218666509Y-119178013D01*
X218983434Y-119389775D01*
X219140001Y-119454627D01*
X219140001Y-120857668D01*
X219136324Y-120895000D01*
X219150998Y-121043985D01*
X219194454Y-121187246D01*
X219265026Y-121319276D01*
X219330303Y-121398815D01*
X219360000Y-121435001D01*
X219388998Y-121458799D01*
X221495198Y-123565000D01*
X221394508Y-123565000D01*
X221183691Y-123585764D01*
X221139094Y-123599292D01*
X219028804Y-121489003D01*
X219005001Y-121459999D01*
X218889276Y-121365026D01*
X218757247Y-121294454D01*
X218613986Y-121250997D01*
X218502333Y-121240000D01*
X218502322Y-121240000D01*
X218465000Y-121236324D01*
X218427678Y-121240000D01*
X212689802Y-121240000D01*
X209845787Y-118395986D01*
X209910639Y-118239419D01*
X209985000Y-117865581D01*
X209985000Y-117484419D01*
X209910639Y-117110581D01*
X209764775Y-116758434D01*
X209553013Y-116441509D01*
X209486504Y-116375000D01*
X211111928Y-116375000D01*
X211111928Y-118975000D01*
X211124188Y-119099482D01*
X211160498Y-119219180D01*
X211219463Y-119329494D01*
X211298815Y-119426185D01*
X211395506Y-119505537D01*
X211505820Y-119564502D01*
X211625518Y-119600812D01*
X211750000Y-119613072D01*
X214350000Y-119613072D01*
X214474482Y-119600812D01*
X214594180Y-119564502D01*
X214704494Y-119505537D01*
X214801185Y-119426185D01*
X214880537Y-119329494D01*
X214939502Y-119219180D01*
X214975812Y-119099482D01*
X214988072Y-118975000D01*
X214988072Y-116375000D01*
X214975812Y-116250518D01*
X214939502Y-116130820D01*
X214880537Y-116020506D01*
X214801185Y-115923815D01*
X214704494Y-115844463D01*
X214594180Y-115785498D01*
X214474482Y-115749188D01*
X214350000Y-115736928D01*
X211750000Y-115736928D01*
X211625518Y-115749188D01*
X211505820Y-115785498D01*
X211395506Y-115844463D01*
X211298815Y-115923815D01*
X211219463Y-116020506D01*
X211160498Y-116130820D01*
X211124188Y-116250518D01*
X211111928Y-116375000D01*
X209486504Y-116375000D01*
X209283491Y-116171987D01*
X208966566Y-115960225D01*
X208614419Y-115814361D01*
X208240581Y-115740000D01*
X207859419Y-115740000D01*
X207485581Y-115814361D01*
X207133434Y-115960225D01*
X206816509Y-116171987D01*
X206546987Y-116441509D01*
X206335225Y-116758434D01*
X206189361Y-117110581D01*
X206115000Y-117484419D01*
X206115000Y-117865581D01*
X206189361Y-118239419D01*
X206335225Y-118591566D01*
X206546987Y-118908491D01*
X206816509Y-119178013D01*
X207133434Y-119389775D01*
X207485581Y-119535639D01*
X207859419Y-119610000D01*
X208240581Y-119610000D01*
X208614419Y-119535639D01*
X208770986Y-119470787D01*
X211811200Y-122511002D01*
X211834999Y-122540001D01*
X211920678Y-122610316D01*
X211545001Y-122573315D01*
X211071579Y-122619943D01*
X210616350Y-122758035D01*
X210196808Y-122982285D01*
X209829077Y-123284075D01*
X209527287Y-123651806D01*
X209473858Y-123751763D01*
X209316808Y-123667818D01*
X209046309Y-123585764D01*
X208835492Y-123565000D01*
X208694508Y-123565000D01*
X208483691Y-123585764D01*
X208213192Y-123667818D01*
X207963899Y-123801068D01*
X207745392Y-123980392D01*
X207566068Y-124198899D01*
X207495000Y-124331858D01*
X207423932Y-124198899D01*
X207244608Y-123980392D01*
X207026101Y-123801068D01*
X206776808Y-123667818D01*
X206506309Y-123585764D01*
X206295492Y-123565000D01*
X206154508Y-123565000D01*
X205943691Y-123585764D01*
X205673192Y-123667818D01*
X205423899Y-123801068D01*
X205205392Y-123980392D01*
X205026068Y-124198899D01*
X204952421Y-124336682D01*
X204837385Y-124144869D01*
X204648414Y-123936481D01*
X204422420Y-123768963D01*
X204168087Y-123648754D01*
X204034039Y-123608096D01*
X203812000Y-123730085D01*
X203812000Y-124873000D01*
X203832000Y-124873000D01*
X203832000Y-125127000D01*
X203812000Y-125127000D01*
X203812000Y-125147000D01*
X203558000Y-125147000D01*
X203558000Y-125127000D01*
X203538000Y-125127000D01*
X203538000Y-124873000D01*
X203558000Y-124873000D01*
X203558000Y-123730085D01*
X203513929Y-123705872D01*
X203561003Y-123658799D01*
X203590001Y-123635001D01*
X203684974Y-123519276D01*
X203755546Y-123387247D01*
X203799003Y-123243986D01*
X203810000Y-123132333D01*
X203810000Y-123132323D01*
X203813676Y-123095000D01*
X203810000Y-123057677D01*
X203810000Y-119454627D01*
X203966566Y-119389775D01*
X204283491Y-119178013D01*
X204553013Y-118908491D01*
X204764775Y-118591566D01*
X204910639Y-118239419D01*
X204985000Y-117865581D01*
X204985000Y-117484419D01*
X204910639Y-117110581D01*
X204845787Y-116954015D01*
X204861003Y-116938799D01*
X204890000Y-116915002D01*
X204984973Y-116799277D01*
X204995823Y-116778978D01*
X206414802Y-115360000D01*
X228060199Y-115360000D01*
X228455469Y-115755270D01*
X228355820Y-115785498D01*
X228245506Y-115844463D01*
X228148815Y-115923815D01*
X228069463Y-116020506D01*
X228010498Y-116130820D01*
X227974188Y-116250518D01*
X227961928Y-116375000D01*
X227961928Y-118975000D01*
X227974188Y-119099482D01*
X228010498Y-119219180D01*
X228069463Y-119329494D01*
X228148815Y-119426185D01*
X228245506Y-119505537D01*
X228355820Y-119564502D01*
X228475518Y-119600812D01*
X228600000Y-119613072D01*
X231200000Y-119613072D01*
X231324482Y-119600812D01*
X231444180Y-119564502D01*
X231554494Y-119505537D01*
X231651185Y-119426185D01*
X231730537Y-119329494D01*
X231789502Y-119219180D01*
X231825812Y-119099482D01*
X231838072Y-118975000D01*
X231838072Y-116375000D01*
X231825812Y-116250518D01*
X231789502Y-116130820D01*
X231730537Y-116020506D01*
X231651185Y-115923815D01*
X231554494Y-115844463D01*
X231444180Y-115785498D01*
X231324482Y-115749188D01*
X231200000Y-115736928D01*
X230554326Y-115736928D01*
X230534974Y-115700724D01*
X230440001Y-115584999D01*
X230411004Y-115561202D01*
X228938804Y-114089003D01*
X228915001Y-114059999D01*
X228799276Y-113965026D01*
X228667247Y-113894454D01*
X228523986Y-113850997D01*
X228412333Y-113840000D01*
X228412322Y-113840000D01*
X228375000Y-113836324D01*
X228337678Y-113840000D01*
X206137322Y-113840000D01*
X206099999Y-113836324D01*
X206062676Y-113840000D01*
X206062667Y-113840000D01*
X205951014Y-113850997D01*
X205807753Y-113894454D01*
X205675723Y-113965026D01*
X205643470Y-113991496D01*
X205559999Y-114059999D01*
X205536201Y-114088997D01*
X203839000Y-115786199D01*
X203809998Y-115810000D01*
X203757709Y-115873714D01*
X203614419Y-115814361D01*
X203240581Y-115740000D01*
X202859419Y-115740000D01*
X202485581Y-115814361D01*
X202133434Y-115960225D01*
X201816509Y-116171987D01*
X201546987Y-116441509D01*
X201335225Y-116758434D01*
X201189361Y-117110581D01*
X201115000Y-117484419D01*
X201115000Y-117865581D01*
X201189361Y-118239419D01*
X201335225Y-118591566D01*
X201546987Y-118908491D01*
X201816509Y-119178013D01*
X202133434Y-119389775D01*
X202290000Y-119454627D01*
X202290001Y-122780197D01*
X201470906Y-123599292D01*
X201426309Y-123585764D01*
X201215492Y-123565000D01*
X201074508Y-123565000D01*
X200863691Y-123585764D01*
X200593192Y-123667818D01*
X200343899Y-123801068D01*
X200125392Y-123980392D01*
X199946068Y-124198899D01*
X199875000Y-124331858D01*
X199803932Y-124198899D01*
X199624608Y-123980392D01*
X199406101Y-123801068D01*
X199156808Y-123667818D01*
X198886309Y-123585764D01*
X198675492Y-123565000D01*
X198534508Y-123565000D01*
X198323691Y-123585764D01*
X198053192Y-123667818D01*
X197803899Y-123801068D01*
X197585392Y-123980392D01*
X197406068Y-124198899D01*
X197335000Y-124331858D01*
X197263932Y-124198899D01*
X197084608Y-123980392D01*
X196866101Y-123801068D01*
X196616808Y-123667818D01*
X196346309Y-123585764D01*
X196135492Y-123565000D01*
X195994508Y-123565000D01*
X195783691Y-123585764D01*
X195513192Y-123667818D01*
X195263899Y-123801068D01*
X195045392Y-123980392D01*
X194952581Y-124093482D01*
X194950812Y-124075518D01*
X194914502Y-123955820D01*
X194855537Y-123845506D01*
X194776185Y-123748815D01*
X194679494Y-123669463D01*
X194569180Y-123610498D01*
X194449482Y-123574188D01*
X194325000Y-123561928D01*
X192725000Y-123561928D01*
X192600518Y-123574188D01*
X192480820Y-123610498D01*
X192370506Y-123669463D01*
X192273815Y-123748815D01*
X192194463Y-123845506D01*
X192135498Y-123955820D01*
X192099188Y-124075518D01*
X192086928Y-124200000D01*
X192086928Y-125800000D01*
X192095299Y-125885000D01*
X190200325Y-125885000D01*
X187315000Y-122999675D01*
X187315000Y-106018632D01*
X187326684Y-105900000D01*
X187315000Y-105781368D01*
X187315000Y-105781360D01*
X187280057Y-105426577D01*
X187141965Y-104971348D01*
X186917715Y-104551806D01*
X186691554Y-104276228D01*
X186691550Y-104276224D01*
X186615925Y-104184075D01*
X186523777Y-104108451D01*
X176391553Y-93976228D01*
X176315925Y-93884075D01*
X175948194Y-93582285D01*
X175528652Y-93358035D01*
X175073423Y-93219943D01*
X174718640Y-93185000D01*
X174718632Y-93185000D01*
X174600000Y-93173316D01*
X174481368Y-93185000D01*
X128300325Y-93185000D01*
X119290325Y-84175000D01*
X185606928Y-84175000D01*
X185606928Y-86775000D01*
X185619188Y-86899482D01*
X185655498Y-87019180D01*
X185714463Y-87129494D01*
X185793815Y-87226185D01*
X185890506Y-87305537D01*
X186000820Y-87364502D01*
X186120518Y-87400812D01*
X186245000Y-87413072D01*
X188845000Y-87413072D01*
X188969482Y-87400812D01*
X189089180Y-87364502D01*
X189199494Y-87305537D01*
X189296185Y-87226185D01*
X189375537Y-87129494D01*
X189434502Y-87019180D01*
X189470812Y-86899482D01*
X189483072Y-86775000D01*
X189483072Y-84175000D01*
X189470812Y-84050518D01*
X189434502Y-83930820D01*
X189375537Y-83820506D01*
X189296185Y-83723815D01*
X189199494Y-83644463D01*
X189089180Y-83585498D01*
X188969482Y-83549188D01*
X188845000Y-83536928D01*
X186245000Y-83536928D01*
X186120518Y-83549188D01*
X186000820Y-83585498D01*
X185890506Y-83644463D01*
X185793815Y-83723815D01*
X185714463Y-83820506D01*
X185655498Y-83930820D01*
X185619188Y-84050518D01*
X185606928Y-84175000D01*
X119290325Y-84175000D01*
X115015000Y-79899675D01*
X115015000Y-79234042D01*
X117015000Y-79234042D01*
X117015000Y-79565958D01*
X117079754Y-79891496D01*
X117206772Y-80198147D01*
X117391175Y-80474125D01*
X117625875Y-80708825D01*
X117901853Y-80893228D01*
X118208504Y-81020246D01*
X118534042Y-81085000D01*
X118865958Y-81085000D01*
X119191496Y-81020246D01*
X119498147Y-80893228D01*
X119774125Y-80708825D01*
X120008825Y-80474125D01*
X120193228Y-80198147D01*
X120320246Y-79891496D01*
X120385000Y-79565958D01*
X120385000Y-79234042D01*
X160015000Y-79234042D01*
X160015000Y-79565958D01*
X160079754Y-79891496D01*
X160206772Y-80198147D01*
X160391175Y-80474125D01*
X160625875Y-80708825D01*
X160901853Y-80893228D01*
X161208504Y-81020246D01*
X161534042Y-81085000D01*
X161865958Y-81085000D01*
X162191496Y-81020246D01*
X162498147Y-80893228D01*
X162774125Y-80708825D01*
X163008825Y-80474125D01*
X163193228Y-80198147D01*
X163320246Y-79891496D01*
X163385000Y-79565958D01*
X163385000Y-79234042D01*
X163320246Y-78908504D01*
X163193228Y-78601853D01*
X163008825Y-78325875D01*
X162774125Y-78091175D01*
X162498147Y-77906772D01*
X162191496Y-77779754D01*
X161865958Y-77715000D01*
X161534042Y-77715000D01*
X161208504Y-77779754D01*
X160901853Y-77906772D01*
X160625875Y-78091175D01*
X160391175Y-78325875D01*
X160206772Y-78601853D01*
X160079754Y-78908504D01*
X160015000Y-79234042D01*
X120385000Y-79234042D01*
X120320246Y-78908504D01*
X120193228Y-78601853D01*
X120008825Y-78325875D01*
X119774125Y-78091175D01*
X119498147Y-77906772D01*
X119191496Y-77779754D01*
X118865958Y-77715000D01*
X118534042Y-77715000D01*
X118208504Y-77779754D01*
X117901853Y-77906772D01*
X117625875Y-78091175D01*
X117391175Y-78325875D01*
X117206772Y-78601853D01*
X117079754Y-78908504D01*
X117015000Y-79234042D01*
X115015000Y-79234042D01*
X115015000Y-76740000D01*
X182943057Y-76740000D01*
X182970764Y-77021309D01*
X183052818Y-77291808D01*
X183186068Y-77541101D01*
X183365392Y-77759608D01*
X183583899Y-77938932D01*
X183833192Y-78072182D01*
X184103691Y-78154236D01*
X184314508Y-78175000D01*
X184455492Y-78175000D01*
X184666309Y-78154236D01*
X184936808Y-78072182D01*
X185186101Y-77938932D01*
X185404608Y-77759608D01*
X185583932Y-77541101D01*
X185655000Y-77408142D01*
X185726068Y-77541101D01*
X185905392Y-77759608D01*
X186123899Y-77938932D01*
X186373192Y-78072182D01*
X186643691Y-78154236D01*
X186854508Y-78175000D01*
X186995492Y-78175000D01*
X187206309Y-78154236D01*
X187476808Y-78072182D01*
X187726101Y-77938932D01*
X187944608Y-77759608D01*
X188123932Y-77541101D01*
X188195000Y-77408142D01*
X188266068Y-77541101D01*
X188445392Y-77759608D01*
X188663899Y-77938932D01*
X188913192Y-78072182D01*
X189183691Y-78154236D01*
X189394508Y-78175000D01*
X189535492Y-78175000D01*
X189746309Y-78154236D01*
X190016808Y-78072182D01*
X190266101Y-77938932D01*
X190484608Y-77759608D01*
X190663932Y-77541101D01*
X190735000Y-77408142D01*
X190806068Y-77541101D01*
X190985392Y-77759608D01*
X191203899Y-77938932D01*
X191453192Y-78072182D01*
X191723691Y-78154236D01*
X191934508Y-78175000D01*
X192075492Y-78175000D01*
X192286309Y-78154236D01*
X192556808Y-78072182D01*
X192806101Y-77938932D01*
X193024608Y-77759608D01*
X193203932Y-77541101D01*
X193275000Y-77408142D01*
X193346068Y-77541101D01*
X193525392Y-77759608D01*
X193743899Y-77938932D01*
X193993192Y-78072182D01*
X194263691Y-78154236D01*
X194474508Y-78175000D01*
X194615492Y-78175000D01*
X194826309Y-78154236D01*
X195096808Y-78072182D01*
X195346101Y-77938932D01*
X195564608Y-77759608D01*
X195743932Y-77541101D01*
X195815000Y-77408142D01*
X195886068Y-77541101D01*
X196065392Y-77759608D01*
X196283899Y-77938932D01*
X196533192Y-78072182D01*
X196803691Y-78154236D01*
X197014508Y-78175000D01*
X197155492Y-78175000D01*
X197366309Y-78154236D01*
X197636808Y-78072182D01*
X197886101Y-77938932D01*
X198104608Y-77759608D01*
X198283932Y-77541101D01*
X198355000Y-77408142D01*
X198426068Y-77541101D01*
X198605392Y-77759608D01*
X198823899Y-77938932D01*
X199073192Y-78072182D01*
X199343691Y-78154236D01*
X199554508Y-78175000D01*
X199695492Y-78175000D01*
X199906309Y-78154236D01*
X200176808Y-78072182D01*
X200426101Y-77938932D01*
X200644608Y-77759608D01*
X200823932Y-77541101D01*
X200895000Y-77408142D01*
X200966068Y-77541101D01*
X201145392Y-77759608D01*
X201363899Y-77938932D01*
X201613192Y-78072182D01*
X201883691Y-78154236D01*
X202094508Y-78175000D01*
X202235492Y-78175000D01*
X202446309Y-78154236D01*
X202716808Y-78072182D01*
X202966101Y-77938932D01*
X203184608Y-77759608D01*
X203363932Y-77541101D01*
X203435000Y-77408142D01*
X203506068Y-77541101D01*
X203685392Y-77759608D01*
X203903899Y-77938932D01*
X204153192Y-78072182D01*
X204423691Y-78154236D01*
X204634508Y-78175000D01*
X204775492Y-78175000D01*
X204986309Y-78154236D01*
X205256808Y-78072182D01*
X205506101Y-77938932D01*
X205724608Y-77759608D01*
X205903932Y-77541101D01*
X205975000Y-77408142D01*
X206046068Y-77541101D01*
X206225392Y-77759608D01*
X206443899Y-77938932D01*
X206693192Y-78072182D01*
X206963691Y-78154236D01*
X207174508Y-78175000D01*
X207315492Y-78175000D01*
X207526309Y-78154236D01*
X207796808Y-78072182D01*
X208046101Y-77938932D01*
X208264608Y-77759608D01*
X208443932Y-77541101D01*
X208577182Y-77291808D01*
X208659236Y-77021309D01*
X208686943Y-76740000D01*
X208659236Y-76458691D01*
X208577182Y-76188192D01*
X208443932Y-75938899D01*
X208264608Y-75720392D01*
X208046101Y-75541068D01*
X207796808Y-75407818D01*
X207526309Y-75325764D01*
X207315492Y-75305000D01*
X207174508Y-75305000D01*
X206963691Y-75325764D01*
X206693192Y-75407818D01*
X206443899Y-75541068D01*
X206225392Y-75720392D01*
X206046068Y-75938899D01*
X205975000Y-76071858D01*
X205903932Y-75938899D01*
X205724608Y-75720392D01*
X205506101Y-75541068D01*
X205256808Y-75407818D01*
X204986309Y-75325764D01*
X204775492Y-75305000D01*
X204634508Y-75305000D01*
X204423691Y-75325764D01*
X204153192Y-75407818D01*
X203903899Y-75541068D01*
X203685392Y-75720392D01*
X203506068Y-75938899D01*
X203435000Y-76071858D01*
X203363932Y-75938899D01*
X203184608Y-75720392D01*
X202966101Y-75541068D01*
X202716808Y-75407818D01*
X202446309Y-75325764D01*
X202235492Y-75305000D01*
X202094508Y-75305000D01*
X201883691Y-75325764D01*
X201613192Y-75407818D01*
X201363899Y-75541068D01*
X201145392Y-75720392D01*
X200966068Y-75938899D01*
X200895000Y-76071858D01*
X200823932Y-75938899D01*
X200644608Y-75720392D01*
X200426101Y-75541068D01*
X200176808Y-75407818D01*
X199906309Y-75325764D01*
X199695492Y-75305000D01*
X199554508Y-75305000D01*
X199343691Y-75325764D01*
X199073192Y-75407818D01*
X198823899Y-75541068D01*
X198605392Y-75720392D01*
X198426068Y-75938899D01*
X198355000Y-76071858D01*
X198283932Y-75938899D01*
X198104608Y-75720392D01*
X197886101Y-75541068D01*
X197636808Y-75407818D01*
X197366309Y-75325764D01*
X197155492Y-75305000D01*
X197014508Y-75305000D01*
X196803691Y-75325764D01*
X196533192Y-75407818D01*
X196283899Y-75541068D01*
X196065392Y-75720392D01*
X195886068Y-75938899D01*
X195815000Y-76071858D01*
X195743932Y-75938899D01*
X195564608Y-75720392D01*
X195346101Y-75541068D01*
X195096808Y-75407818D01*
X194826309Y-75325764D01*
X194615492Y-75305000D01*
X194474508Y-75305000D01*
X194263691Y-75325764D01*
X193993192Y-75407818D01*
X193743899Y-75541068D01*
X193525392Y-75720392D01*
X193346068Y-75938899D01*
X193275000Y-76071858D01*
X193203932Y-75938899D01*
X193024608Y-75720392D01*
X192806101Y-75541068D01*
X192556808Y-75407818D01*
X192286309Y-75325764D01*
X192075492Y-75305000D01*
X191934508Y-75305000D01*
X191723691Y-75325764D01*
X191453192Y-75407818D01*
X191203899Y-75541068D01*
X190985392Y-75720392D01*
X190806068Y-75938899D01*
X190735000Y-76071858D01*
X190663932Y-75938899D01*
X190484608Y-75720392D01*
X190266101Y-75541068D01*
X190016808Y-75407818D01*
X189746309Y-75325764D01*
X189535492Y-75305000D01*
X189394508Y-75305000D01*
X189183691Y-75325764D01*
X188913192Y-75407818D01*
X188663899Y-75541068D01*
X188445392Y-75720392D01*
X188266068Y-75938899D01*
X188195000Y-76071858D01*
X188123932Y-75938899D01*
X187944608Y-75720392D01*
X187726101Y-75541068D01*
X187476808Y-75407818D01*
X187206309Y-75325764D01*
X186995492Y-75305000D01*
X186854508Y-75305000D01*
X186643691Y-75325764D01*
X186373192Y-75407818D01*
X186123899Y-75541068D01*
X185905392Y-75720392D01*
X185726068Y-75938899D01*
X185655000Y-76071858D01*
X185583932Y-75938899D01*
X185404608Y-75720392D01*
X185186101Y-75541068D01*
X184936808Y-75407818D01*
X184666309Y-75325764D01*
X184455492Y-75305000D01*
X184314508Y-75305000D01*
X184103691Y-75325764D01*
X183833192Y-75407818D01*
X183583899Y-75541068D01*
X183365392Y-75720392D01*
X183186068Y-75938899D01*
X183052818Y-76188192D01*
X182970764Y-76458691D01*
X182943057Y-76740000D01*
X115015000Y-76740000D01*
X115015000Y-75626259D01*
X115026684Y-75507629D01*
X115015000Y-75389000D01*
X115015000Y-75388990D01*
X115005000Y-75287458D01*
X115005000Y-74301360D01*
X114970057Y-73946577D01*
X114831965Y-73491348D01*
X114607715Y-73071806D01*
X114305925Y-72704075D01*
X113938193Y-72402285D01*
X113518651Y-72178035D01*
X113063422Y-72039943D01*
X112590000Y-71993315D01*
X112116577Y-72039943D01*
X111661348Y-72178035D01*
X111241806Y-72402285D01*
X110874075Y-72704075D01*
X110572285Y-73071807D01*
X110348035Y-73491349D01*
X110209943Y-73946578D01*
X110175000Y-74301361D01*
X110175000Y-75378998D01*
X110163316Y-75497630D01*
X110175000Y-75616262D01*
X110175000Y-75616270D01*
X110185000Y-75717803D01*
X110185001Y-80781358D01*
X110173316Y-80900000D01*
X110219943Y-81373422D01*
X110358036Y-81828652D01*
X110582285Y-82248193D01*
X110808446Y-82523771D01*
X110808451Y-82523776D01*
X110884076Y-82615925D01*
X110976225Y-82691550D01*
X125508446Y-97223771D01*
X125584075Y-97315925D01*
X125951806Y-97617715D01*
X126371348Y-97841965D01*
X126826577Y-97980057D01*
X127181360Y-98015000D01*
X127181369Y-98015000D01*
X127299999Y-98026684D01*
X127418629Y-98015000D01*
X173599675Y-98015000D01*
X182485000Y-106900326D01*
X182485001Y-123881358D01*
X182473316Y-124000000D01*
X182519943Y-124473422D01*
X182658036Y-124928652D01*
X182882285Y-125348193D01*
X183108446Y-125623771D01*
X183108451Y-125623776D01*
X183184076Y-125715925D01*
X183276225Y-125791550D01*
X187408446Y-129923771D01*
X187484075Y-130015925D01*
X187647445Y-130150000D01*
X87020000Y-130150000D01*
X87020000Y-98467865D01*
X87025001Y-98518642D01*
X87025000Y-123538639D01*
X87059943Y-123893422D01*
X87198035Y-124348651D01*
X87422285Y-124768193D01*
X87724075Y-125135925D01*
X88091806Y-125437715D01*
X88511348Y-125661965D01*
X88966577Y-125800057D01*
X89440000Y-125846685D01*
X89761703Y-125815000D01*
X98093640Y-125815000D01*
X98448423Y-125780057D01*
X98903652Y-125641965D01*
X99323194Y-125417715D01*
X99690925Y-125115925D01*
X99992715Y-124748194D01*
X100216965Y-124328652D01*
X100355057Y-123873423D01*
X100401685Y-123400000D01*
X100355057Y-122926577D01*
X100216965Y-122471348D01*
X99992715Y-122051806D01*
X99690925Y-121684075D01*
X99323194Y-121382285D01*
X98903652Y-121158035D01*
X98448423Y-121019943D01*
X98093640Y-120985000D01*
X91855000Y-120985000D01*
X91855000Y-109900000D01*
X96873316Y-109900000D01*
X96919943Y-110373422D01*
X97058036Y-110828652D01*
X97282285Y-111248193D01*
X97508446Y-111523771D01*
X100560001Y-114575327D01*
X100560000Y-123281360D01*
X100548315Y-123400000D01*
X100594943Y-123873423D01*
X100733035Y-124328652D01*
X100957285Y-124748194D01*
X101066365Y-124881109D01*
X101085498Y-124944180D01*
X101144463Y-125054494D01*
X101223815Y-125151185D01*
X101320506Y-125230537D01*
X101430820Y-125289502D01*
X101493891Y-125308635D01*
X101626806Y-125417715D01*
X102046348Y-125641965D01*
X102501577Y-125780057D01*
X102975000Y-125826685D01*
X103093640Y-125815000D01*
X112338640Y-125815000D01*
X112693423Y-125780057D01*
X113148652Y-125641965D01*
X113568194Y-125417715D01*
X113935925Y-125115925D01*
X114237715Y-124748194D01*
X114461965Y-124328652D01*
X114600057Y-123873423D01*
X114646685Y-123400000D01*
X114603292Y-122959419D01*
X116765000Y-122959419D01*
X116765000Y-123340581D01*
X116839361Y-123714419D01*
X116985225Y-124066566D01*
X117196987Y-124383491D01*
X117466509Y-124653013D01*
X117783434Y-124864775D01*
X118135581Y-125010639D01*
X118509419Y-125085000D01*
X118890581Y-125085000D01*
X119264419Y-125010639D01*
X119616566Y-124864775D01*
X119933491Y-124653013D01*
X120203013Y-124383491D01*
X120414775Y-124066566D01*
X120560639Y-123714419D01*
X120635000Y-123340581D01*
X120635000Y-122959419D01*
X120560639Y-122585581D01*
X120414775Y-122233434D01*
X120203013Y-121916509D01*
X119933491Y-121646987D01*
X119616566Y-121435225D01*
X119264419Y-121289361D01*
X118890581Y-121215000D01*
X118509419Y-121215000D01*
X118135581Y-121289361D01*
X117783434Y-121435225D01*
X117466509Y-121646987D01*
X117196987Y-121916509D01*
X116985225Y-122233434D01*
X116839361Y-122585581D01*
X116765000Y-122959419D01*
X114603292Y-122959419D01*
X114600057Y-122926577D01*
X114461965Y-122471348D01*
X114237715Y-122051806D01*
X113935925Y-121684075D01*
X113568194Y-121382285D01*
X113148652Y-121158035D01*
X112693423Y-121019943D01*
X112338640Y-120985000D01*
X105390000Y-120985000D01*
X105390000Y-118709117D01*
X108895000Y-118709117D01*
X108895000Y-119050883D01*
X108961675Y-119386081D01*
X109092463Y-119701831D01*
X109282337Y-119985998D01*
X109524002Y-120227663D01*
X109808169Y-120417537D01*
X110123919Y-120548325D01*
X110459117Y-120615000D01*
X110800883Y-120615000D01*
X111136081Y-120548325D01*
X111451831Y-120417537D01*
X111735998Y-120227663D01*
X111977663Y-119985998D01*
X112167537Y-119701831D01*
X112298325Y-119386081D01*
X112365000Y-119050883D01*
X112365000Y-118709117D01*
X112298325Y-118373919D01*
X112167537Y-118058169D01*
X111977663Y-117774002D01*
X111735998Y-117532337D01*
X111451831Y-117342463D01*
X111136081Y-117211675D01*
X110800883Y-117145000D01*
X110459117Y-117145000D01*
X110123919Y-117211675D01*
X109808169Y-117342463D01*
X109524002Y-117532337D01*
X109282337Y-117774002D01*
X109092463Y-118058169D01*
X108961675Y-118373919D01*
X108895000Y-118709117D01*
X105390000Y-118709117D01*
X105390000Y-113693632D01*
X105401684Y-113575000D01*
X105390000Y-113456368D01*
X105390000Y-113456360D01*
X105377953Y-113334042D01*
X117015000Y-113334042D01*
X117015000Y-113665958D01*
X117079754Y-113991496D01*
X117206772Y-114298147D01*
X117391175Y-114574125D01*
X117625875Y-114808825D01*
X117901853Y-114993228D01*
X118208504Y-115120246D01*
X118534042Y-115185000D01*
X118865958Y-115185000D01*
X119191496Y-115120246D01*
X119498147Y-114993228D01*
X119774125Y-114808825D01*
X120008825Y-114574125D01*
X120193228Y-114298147D01*
X120320246Y-113991496D01*
X120385000Y-113665958D01*
X120385000Y-113334042D01*
X120320246Y-113008504D01*
X120193228Y-112701853D01*
X120008825Y-112425875D01*
X119774125Y-112191175D01*
X119498147Y-112006772D01*
X119191496Y-111879754D01*
X118865958Y-111815000D01*
X118534042Y-111815000D01*
X118208504Y-111879754D01*
X117901853Y-112006772D01*
X117625875Y-112191175D01*
X117391175Y-112425875D01*
X117206772Y-112701853D01*
X117079754Y-113008504D01*
X117015000Y-113334042D01*
X105377953Y-113334042D01*
X105355057Y-113101577D01*
X105216965Y-112646348D01*
X104992715Y-112226806D01*
X104963473Y-112191175D01*
X104766554Y-111951228D01*
X104766550Y-111951224D01*
X104690925Y-111859075D01*
X104598776Y-111783450D01*
X100923771Y-108108446D01*
X100648193Y-107882285D01*
X100228652Y-107658036D01*
X99773422Y-107519943D01*
X99300000Y-107473316D01*
X98826578Y-107519943D01*
X98371348Y-107658036D01*
X97951807Y-107882285D01*
X97584075Y-108184075D01*
X97282285Y-108551807D01*
X97058036Y-108971348D01*
X96919943Y-109426578D01*
X96873316Y-109900000D01*
X91855000Y-109900000D01*
X91855000Y-104900000D01*
X96873315Y-104900000D01*
X96919943Y-105373423D01*
X97058035Y-105828652D01*
X97282285Y-106248194D01*
X97391365Y-106381109D01*
X97410498Y-106444180D01*
X97469463Y-106554494D01*
X97548815Y-106651185D01*
X97645506Y-106730537D01*
X97755820Y-106789502D01*
X97818891Y-106808635D01*
X97951806Y-106917715D01*
X98371348Y-107141965D01*
X98826577Y-107280057D01*
X99181360Y-107315000D01*
X119599675Y-107315000D01*
X121285000Y-109000325D01*
X121285001Y-123268640D01*
X121319944Y-123623423D01*
X121458036Y-124078652D01*
X121682286Y-124498194D01*
X121984076Y-124865925D01*
X122351807Y-125167715D01*
X122771349Y-125391965D01*
X123226578Y-125530057D01*
X123700000Y-125576685D01*
X124173423Y-125530057D01*
X124628652Y-125391965D01*
X125048194Y-125167715D01*
X125415925Y-124865925D01*
X125717715Y-124498194D01*
X125743475Y-124450000D01*
X126761928Y-124450000D01*
X126774188Y-124574482D01*
X126810498Y-124694180D01*
X126869463Y-124804494D01*
X126948815Y-124901185D01*
X127045506Y-124980537D01*
X127155820Y-125039502D01*
X127275518Y-125075812D01*
X127400000Y-125088072D01*
X128414250Y-125085000D01*
X128573000Y-124926250D01*
X128573000Y-123277000D01*
X128827000Y-123277000D01*
X128827000Y-124926250D01*
X128985750Y-125085000D01*
X130000000Y-125088072D01*
X130124482Y-125075812D01*
X130244180Y-125039502D01*
X130354494Y-124980537D01*
X130451185Y-124901185D01*
X130530537Y-124804494D01*
X130589502Y-124694180D01*
X130625812Y-124574482D01*
X130638072Y-124450000D01*
X130635000Y-123435750D01*
X130476250Y-123277000D01*
X128827000Y-123277000D01*
X128573000Y-123277000D01*
X126923750Y-123277000D01*
X126765000Y-123435750D01*
X126761928Y-124450000D01*
X125743475Y-124450000D01*
X125941965Y-124078652D01*
X126080057Y-123623423D01*
X126115000Y-123268640D01*
X126115000Y-121850000D01*
X126761928Y-121850000D01*
X126765000Y-122864250D01*
X126923750Y-123023000D01*
X128573000Y-123023000D01*
X128573000Y-121373750D01*
X128827000Y-121373750D01*
X128827000Y-123023000D01*
X130476250Y-123023000D01*
X130534831Y-122964419D01*
X133465000Y-122964419D01*
X133465000Y-123345581D01*
X133539361Y-123719419D01*
X133685225Y-124071566D01*
X133896987Y-124388491D01*
X134166509Y-124658013D01*
X134483434Y-124869775D01*
X134835581Y-125015639D01*
X135209419Y-125090000D01*
X135590581Y-125090000D01*
X135964419Y-125015639D01*
X136316566Y-124869775D01*
X136633491Y-124658013D01*
X136836504Y-124455000D01*
X138461928Y-124455000D01*
X138474188Y-124579482D01*
X138510498Y-124699180D01*
X138569463Y-124809494D01*
X138648815Y-124906185D01*
X138745506Y-124985537D01*
X138855820Y-125044502D01*
X138975518Y-125080812D01*
X139100000Y-125093072D01*
X140114250Y-125090000D01*
X140273000Y-124931250D01*
X140273000Y-123282000D01*
X140527000Y-123282000D01*
X140527000Y-124931250D01*
X140685750Y-125090000D01*
X141700000Y-125093072D01*
X141824482Y-125080812D01*
X141944180Y-125044502D01*
X142054494Y-124985537D01*
X142151185Y-124906185D01*
X142230537Y-124809494D01*
X142289502Y-124699180D01*
X142325812Y-124579482D01*
X142328792Y-124549224D01*
X145530381Y-124549224D01*
X145662317Y-124844312D01*
X146003045Y-125015159D01*
X146370557Y-125116250D01*
X146750729Y-125143701D01*
X147128951Y-125096457D01*
X147490690Y-124976333D01*
X147737683Y-124844312D01*
X147869619Y-124549224D01*
X146700000Y-123379605D01*
X145530381Y-124549224D01*
X142328792Y-124549224D01*
X142338072Y-124455000D01*
X142335000Y-123440750D01*
X142176250Y-123282000D01*
X140527000Y-123282000D01*
X140273000Y-123282000D01*
X138623750Y-123282000D01*
X138465000Y-123440750D01*
X138461928Y-124455000D01*
X136836504Y-124455000D01*
X136903013Y-124388491D01*
X137114775Y-124071566D01*
X137260639Y-123719419D01*
X137335000Y-123345581D01*
X137335000Y-123250729D01*
X144756299Y-123250729D01*
X144803543Y-123628951D01*
X144923667Y-123990690D01*
X145055688Y-124237683D01*
X145350776Y-124369619D01*
X146520395Y-123200000D01*
X146879605Y-123200000D01*
X148049224Y-124369619D01*
X148344312Y-124237683D01*
X148515159Y-123896955D01*
X148616250Y-123529443D01*
X148643701Y-123149271D01*
X148626232Y-123009419D01*
X149765000Y-123009419D01*
X149765000Y-123390581D01*
X149839361Y-123764419D01*
X149985225Y-124116566D01*
X150196987Y-124433491D01*
X150466509Y-124703013D01*
X150783434Y-124914775D01*
X151135581Y-125060639D01*
X151509419Y-125135000D01*
X151890581Y-125135000D01*
X152264419Y-125060639D01*
X152616566Y-124914775D01*
X152933491Y-124703013D01*
X153203013Y-124433491D01*
X153414775Y-124116566D01*
X153560639Y-123764419D01*
X153635000Y-123390581D01*
X153635000Y-123009419D01*
X153560639Y-122635581D01*
X153414775Y-122283434D01*
X153203013Y-121966509D01*
X153136504Y-121900000D01*
X154761928Y-121900000D01*
X154761928Y-124500000D01*
X154774188Y-124624482D01*
X154810498Y-124744180D01*
X154869463Y-124854494D01*
X154948815Y-124951185D01*
X155045506Y-125030537D01*
X155155820Y-125089502D01*
X155275518Y-125125812D01*
X155400000Y-125138072D01*
X158000000Y-125138072D01*
X158124482Y-125125812D01*
X158244180Y-125089502D01*
X158354494Y-125030537D01*
X158451185Y-124951185D01*
X158530537Y-124854494D01*
X158589502Y-124744180D01*
X158625812Y-124624482D01*
X158638072Y-124500000D01*
X158638072Y-123960000D01*
X167062678Y-123960000D01*
X167100000Y-123963676D01*
X167137322Y-123960000D01*
X167137333Y-123960000D01*
X167248986Y-123949003D01*
X167392247Y-123905546D01*
X167524276Y-123834974D01*
X167640001Y-123740001D01*
X167663804Y-123710997D01*
X168559245Y-122815557D01*
X168592247Y-122805546D01*
X168724276Y-122734974D01*
X168840001Y-122640001D01*
X168934974Y-122524275D01*
X169005546Y-122392246D01*
X169049003Y-122248985D01*
X169060000Y-122137332D01*
X169060000Y-122037324D01*
X169063676Y-122000001D01*
X169060000Y-121962678D01*
X169060000Y-117403711D01*
X169103937Y-117359774D01*
X169217205Y-117190256D01*
X169295226Y-117001898D01*
X169335000Y-116801939D01*
X169335000Y-116598061D01*
X169295226Y-116398102D01*
X169217205Y-116209744D01*
X169103937Y-116040226D01*
X168959774Y-115896063D01*
X168790256Y-115782795D01*
X168601898Y-115704774D01*
X168401939Y-115665000D01*
X168198061Y-115665000D01*
X167998102Y-115704774D01*
X167809744Y-115782795D01*
X167640226Y-115896063D01*
X167496063Y-116040226D01*
X167382795Y-116209744D01*
X167304774Y-116398102D01*
X167265000Y-116598061D01*
X167265000Y-116801939D01*
X167304774Y-117001898D01*
X167382795Y-117190256D01*
X167496063Y-117359774D01*
X167540000Y-117403711D01*
X167540001Y-121685197D01*
X166785199Y-122440000D01*
X158638072Y-122440000D01*
X158638072Y-121900000D01*
X158625812Y-121775518D01*
X158589502Y-121655820D01*
X158530537Y-121545506D01*
X158451185Y-121448815D01*
X158354494Y-121369463D01*
X158244180Y-121310498D01*
X158124482Y-121274188D01*
X158000000Y-121261928D01*
X155400000Y-121261928D01*
X155275518Y-121274188D01*
X155155820Y-121310498D01*
X155045506Y-121369463D01*
X154948815Y-121448815D01*
X154869463Y-121545506D01*
X154810498Y-121655820D01*
X154774188Y-121775518D01*
X154761928Y-121900000D01*
X153136504Y-121900000D01*
X152933491Y-121696987D01*
X152616566Y-121485225D01*
X152264419Y-121339361D01*
X151890581Y-121265000D01*
X151509419Y-121265000D01*
X151135581Y-121339361D01*
X150783434Y-121485225D01*
X150466509Y-121696987D01*
X150196987Y-121966509D01*
X149985225Y-122283434D01*
X149839361Y-122635581D01*
X149765000Y-123009419D01*
X148626232Y-123009419D01*
X148596457Y-122771049D01*
X148476333Y-122409310D01*
X148344312Y-122162317D01*
X148049224Y-122030381D01*
X146879605Y-123200000D01*
X146520395Y-123200000D01*
X145350776Y-122030381D01*
X145055688Y-122162317D01*
X144884841Y-122503045D01*
X144783750Y-122870557D01*
X144756299Y-123250729D01*
X137335000Y-123250729D01*
X137335000Y-122964419D01*
X137260639Y-122590581D01*
X137114775Y-122238434D01*
X136903013Y-121921509D01*
X136836504Y-121855000D01*
X138461928Y-121855000D01*
X138465000Y-122869250D01*
X138623750Y-123028000D01*
X140273000Y-123028000D01*
X140273000Y-121378750D01*
X140527000Y-121378750D01*
X140527000Y-123028000D01*
X142176250Y-123028000D01*
X142335000Y-122869250D01*
X142338072Y-121855000D01*
X142337656Y-121850776D01*
X145530381Y-121850776D01*
X146700000Y-123020395D01*
X147869619Y-121850776D01*
X147737683Y-121555688D01*
X147396955Y-121384841D01*
X147029443Y-121283750D01*
X146649271Y-121256299D01*
X146271049Y-121303543D01*
X145909310Y-121423667D01*
X145662317Y-121555688D01*
X145530381Y-121850776D01*
X142337656Y-121850776D01*
X142325812Y-121730518D01*
X142289502Y-121610820D01*
X142230537Y-121500506D01*
X142151185Y-121403815D01*
X142054494Y-121324463D01*
X141944180Y-121265498D01*
X141824482Y-121229188D01*
X141700000Y-121216928D01*
X140685750Y-121220000D01*
X140527000Y-121378750D01*
X140273000Y-121378750D01*
X140114250Y-121220000D01*
X139100000Y-121216928D01*
X138975518Y-121229188D01*
X138855820Y-121265498D01*
X138745506Y-121324463D01*
X138648815Y-121403815D01*
X138569463Y-121500506D01*
X138510498Y-121610820D01*
X138474188Y-121730518D01*
X138461928Y-121855000D01*
X136836504Y-121855000D01*
X136633491Y-121651987D01*
X136316566Y-121440225D01*
X135964419Y-121294361D01*
X135590581Y-121220000D01*
X135209419Y-121220000D01*
X134835581Y-121294361D01*
X134483434Y-121440225D01*
X134166509Y-121651987D01*
X133896987Y-121921509D01*
X133685225Y-122238434D01*
X133539361Y-122590581D01*
X133465000Y-122964419D01*
X130534831Y-122964419D01*
X130635000Y-122864250D01*
X130638072Y-121850000D01*
X130625812Y-121725518D01*
X130589502Y-121605820D01*
X130530537Y-121495506D01*
X130451185Y-121398815D01*
X130354494Y-121319463D01*
X130244180Y-121260498D01*
X130124482Y-121224188D01*
X130000000Y-121211928D01*
X128985750Y-121215000D01*
X128827000Y-121373750D01*
X128573000Y-121373750D01*
X128414250Y-121215000D01*
X127400000Y-121211928D01*
X127275518Y-121224188D01*
X127155820Y-121260498D01*
X127045506Y-121319463D01*
X126948815Y-121398815D01*
X126869463Y-121495506D01*
X126810498Y-121605820D01*
X126774188Y-121725518D01*
X126761928Y-121850000D01*
X126115000Y-121850000D01*
X126115000Y-113234042D01*
X160015000Y-113234042D01*
X160015000Y-113565958D01*
X160079754Y-113891496D01*
X160206772Y-114198147D01*
X160391175Y-114474125D01*
X160625875Y-114708825D01*
X160901853Y-114893228D01*
X161208504Y-115020246D01*
X161534042Y-115085000D01*
X161865958Y-115085000D01*
X162191496Y-115020246D01*
X162498147Y-114893228D01*
X162774125Y-114708825D01*
X163008825Y-114474125D01*
X163193228Y-114198147D01*
X163320246Y-113891496D01*
X163385000Y-113565958D01*
X163385000Y-113234042D01*
X163320246Y-112908504D01*
X163193228Y-112601853D01*
X163008825Y-112325875D01*
X162774125Y-112091175D01*
X162498147Y-111906772D01*
X162191496Y-111779754D01*
X161865958Y-111715000D01*
X161534042Y-111715000D01*
X161208504Y-111779754D01*
X160901853Y-111906772D01*
X160625875Y-112091175D01*
X160391175Y-112325875D01*
X160206772Y-112601853D01*
X160079754Y-112908504D01*
X160015000Y-113234042D01*
X126115000Y-113234042D01*
X126115000Y-108118631D01*
X126126684Y-107999999D01*
X126115000Y-107881367D01*
X126115000Y-107881360D01*
X126080057Y-107526577D01*
X125941965Y-107071348D01*
X125717715Y-106651806D01*
X125415925Y-106284075D01*
X125323772Y-106208447D01*
X124035325Y-104920000D01*
X169507815Y-104920000D01*
X169536487Y-105211111D01*
X169621401Y-105491034D01*
X169759294Y-105749014D01*
X169944866Y-105975134D01*
X170170986Y-106160706D01*
X170225791Y-106190000D01*
X170170986Y-106219294D01*
X169944866Y-106404866D01*
X169759294Y-106630986D01*
X169621401Y-106888966D01*
X169536487Y-107168889D01*
X169507815Y-107460000D01*
X169536487Y-107751111D01*
X169621401Y-108031034D01*
X169759294Y-108289014D01*
X169944866Y-108515134D01*
X169974687Y-108539607D01*
X169905820Y-108560498D01*
X169795506Y-108619463D01*
X169698815Y-108698815D01*
X169619463Y-108795506D01*
X169560498Y-108905820D01*
X169524188Y-109025518D01*
X169511928Y-109150000D01*
X169511928Y-110850000D01*
X169524188Y-110974482D01*
X169560498Y-111094180D01*
X169619463Y-111204494D01*
X169698815Y-111301185D01*
X169795506Y-111380537D01*
X169905820Y-111439502D01*
X170025518Y-111475812D01*
X170150000Y-111488072D01*
X171850000Y-111488072D01*
X171974482Y-111475812D01*
X172094180Y-111439502D01*
X172204494Y-111380537D01*
X172301185Y-111301185D01*
X172380537Y-111204494D01*
X172439502Y-111094180D01*
X172475812Y-110974482D01*
X172488072Y-110850000D01*
X172488072Y-109150000D01*
X172475812Y-109025518D01*
X172439502Y-108905820D01*
X172380537Y-108795506D01*
X172301185Y-108698815D01*
X172204494Y-108619463D01*
X172094180Y-108560498D01*
X172025313Y-108539607D01*
X172055134Y-108515134D01*
X172240706Y-108289014D01*
X172378599Y-108031034D01*
X172463513Y-107751111D01*
X172492185Y-107460000D01*
X172463513Y-107168889D01*
X172378599Y-106888966D01*
X172240706Y-106630986D01*
X172055134Y-106404866D01*
X171829014Y-106219294D01*
X171774209Y-106190000D01*
X171829014Y-106160706D01*
X172055134Y-105975134D01*
X172240706Y-105749014D01*
X172378599Y-105491034D01*
X172463513Y-105211111D01*
X172492185Y-104920000D01*
X172463513Y-104628889D01*
X172378599Y-104348966D01*
X172240706Y-104090986D01*
X172055134Y-103864866D01*
X171829014Y-103679294D01*
X171764477Y-103644799D01*
X171881355Y-103575178D01*
X172097588Y-103380269D01*
X172271641Y-103146920D01*
X172396825Y-102884099D01*
X172441476Y-102736890D01*
X172320155Y-102507000D01*
X171127000Y-102507000D01*
X171127000Y-102527000D01*
X170873000Y-102527000D01*
X170873000Y-102507000D01*
X169679845Y-102507000D01*
X169558524Y-102736890D01*
X169603175Y-102884099D01*
X169728359Y-103146920D01*
X169902412Y-103380269D01*
X170118645Y-103575178D01*
X170235523Y-103644799D01*
X170170986Y-103679294D01*
X169944866Y-103864866D01*
X169759294Y-104090986D01*
X169621401Y-104348966D01*
X169536487Y-104628889D01*
X169507815Y-104920000D01*
X124035325Y-104920000D01*
X122391554Y-103276229D01*
X122315925Y-103184075D01*
X121948194Y-102882285D01*
X121528652Y-102658035D01*
X121073423Y-102519943D01*
X120718640Y-102485000D01*
X120718632Y-102485000D01*
X120600000Y-102473316D01*
X120481368Y-102485000D01*
X99181360Y-102485000D01*
X98826577Y-102519943D01*
X98371348Y-102658035D01*
X97951806Y-102882285D01*
X97818891Y-102991365D01*
X97755820Y-103010498D01*
X97645506Y-103069463D01*
X97548815Y-103148815D01*
X97469463Y-103245506D01*
X97410498Y-103355820D01*
X97391365Y-103418891D01*
X97282285Y-103551806D01*
X97058035Y-103971348D01*
X96919943Y-104426577D01*
X96873315Y-104900000D01*
X91855000Y-104900000D01*
X91855000Y-102023110D01*
X169558524Y-102023110D01*
X169679845Y-102253000D01*
X170873000Y-102253000D01*
X170873000Y-101059186D01*
X171127000Y-101059186D01*
X171127000Y-102253000D01*
X172320155Y-102253000D01*
X172441476Y-102023110D01*
X172396825Y-101875901D01*
X172271641Y-101613080D01*
X172097588Y-101379731D01*
X171881355Y-101184822D01*
X171631252Y-101035843D01*
X171356891Y-100938519D01*
X171127000Y-101059186D01*
X170873000Y-101059186D01*
X170643109Y-100938519D01*
X170368748Y-101035843D01*
X170118645Y-101184822D01*
X169902412Y-101379731D01*
X169728359Y-101613080D01*
X169603175Y-101875901D01*
X169558524Y-102023110D01*
X91855000Y-102023110D01*
X91855000Y-99400325D01*
X93045906Y-98209419D01*
X97365000Y-98209419D01*
X97365000Y-98590581D01*
X97439361Y-98964419D01*
X97585225Y-99316566D01*
X97796987Y-99633491D01*
X98066509Y-99903013D01*
X98383434Y-100114775D01*
X98735581Y-100260639D01*
X99109419Y-100335000D01*
X99490581Y-100335000D01*
X99864419Y-100260639D01*
X100216566Y-100114775D01*
X100533491Y-99903013D01*
X100803013Y-99633491D01*
X101014775Y-99316566D01*
X101160639Y-98964419D01*
X101235000Y-98590581D01*
X101235000Y-98209419D01*
X101160639Y-97835581D01*
X101014775Y-97483434D01*
X100803013Y-97166509D01*
X100533491Y-96896987D01*
X100216566Y-96685225D01*
X99864419Y-96539361D01*
X99490581Y-96465000D01*
X99109419Y-96465000D01*
X98735581Y-96539361D01*
X98383434Y-96685225D01*
X98066509Y-96896987D01*
X97796987Y-97166509D01*
X97585225Y-97483434D01*
X97439361Y-97835581D01*
X97365000Y-98209419D01*
X93045906Y-98209419D01*
X95440326Y-95815000D01*
X99418640Y-95815000D01*
X99773423Y-95780057D01*
X100228652Y-95641965D01*
X100648194Y-95417715D01*
X100781109Y-95308635D01*
X100844180Y-95289502D01*
X100954494Y-95230537D01*
X101051185Y-95151185D01*
X101130537Y-95054494D01*
X101189502Y-94944180D01*
X101208635Y-94881109D01*
X101317715Y-94748194D01*
X101541965Y-94328652D01*
X101680057Y-93873423D01*
X101726685Y-93400000D01*
X101680057Y-92926577D01*
X101541965Y-92471348D01*
X101317715Y-92051806D01*
X101208635Y-91918891D01*
X101189502Y-91855820D01*
X101130537Y-91745506D01*
X101051185Y-91648815D01*
X100954494Y-91569463D01*
X100844180Y-91510498D01*
X100781109Y-91491365D01*
X100648194Y-91382285D01*
X100228652Y-91158035D01*
X99773423Y-91019943D01*
X99418640Y-90985000D01*
X94558632Y-90985000D01*
X94440000Y-90973316D01*
X94321368Y-90985000D01*
X94321360Y-90985000D01*
X93966577Y-91019943D01*
X93511348Y-91158035D01*
X93091806Y-91382285D01*
X92816228Y-91608446D01*
X92816224Y-91608450D01*
X92724075Y-91684075D01*
X92648450Y-91776224D01*
X87816225Y-96608450D01*
X87724076Y-96684075D01*
X87648451Y-96776224D01*
X87648446Y-96776229D01*
X87422285Y-97051807D01*
X87198036Y-97471348D01*
X87059943Y-97926578D01*
X87020000Y-98332135D01*
X87020000Y-88550000D01*
X97561928Y-88550000D01*
X97574188Y-88674482D01*
X97610498Y-88794180D01*
X97669463Y-88904494D01*
X97748815Y-89001185D01*
X97845506Y-89080537D01*
X97955820Y-89139502D01*
X98075518Y-89175812D01*
X98200000Y-89188072D01*
X99214250Y-89185000D01*
X99373000Y-89026250D01*
X99373000Y-87377000D01*
X99627000Y-87377000D01*
X99627000Y-89026250D01*
X99785750Y-89185000D01*
X100800000Y-89188072D01*
X100924482Y-89175812D01*
X101044180Y-89139502D01*
X101154494Y-89080537D01*
X101251185Y-89001185D01*
X101330537Y-88904494D01*
X101389502Y-88794180D01*
X101425812Y-88674482D01*
X101438072Y-88550000D01*
X101435000Y-87535750D01*
X101276250Y-87377000D01*
X99627000Y-87377000D01*
X99373000Y-87377000D01*
X97723750Y-87377000D01*
X97565000Y-87535750D01*
X97561928Y-88550000D01*
X87020000Y-88550000D01*
X87020000Y-85950000D01*
X97561928Y-85950000D01*
X97565000Y-86964250D01*
X97723750Y-87123000D01*
X99373000Y-87123000D01*
X99373000Y-85473750D01*
X99627000Y-85473750D01*
X99627000Y-87123000D01*
X101276250Y-87123000D01*
X101435000Y-86964250D01*
X101438072Y-85950000D01*
X101425812Y-85825518D01*
X101389502Y-85705820D01*
X101330537Y-85595506D01*
X101251185Y-85498815D01*
X101154494Y-85419463D01*
X101044180Y-85360498D01*
X100924482Y-85324188D01*
X100800000Y-85311928D01*
X99785750Y-85315000D01*
X99627000Y-85473750D01*
X99373000Y-85473750D01*
X99214250Y-85315000D01*
X98200000Y-85311928D01*
X98075518Y-85324188D01*
X97955820Y-85360498D01*
X97845506Y-85419463D01*
X97748815Y-85498815D01*
X97669463Y-85595506D01*
X97610498Y-85705820D01*
X97574188Y-85825518D01*
X97561928Y-85950000D01*
X87020000Y-85950000D01*
X87020000Y-82059419D01*
X97565000Y-82059419D01*
X97565000Y-82440581D01*
X97639361Y-82814419D01*
X97785225Y-83166566D01*
X97996987Y-83483491D01*
X98266509Y-83753013D01*
X98583434Y-83964775D01*
X98935581Y-84110639D01*
X99309419Y-84185000D01*
X99690581Y-84185000D01*
X100064419Y-84110639D01*
X100416566Y-83964775D01*
X100733491Y-83753013D01*
X101003013Y-83483491D01*
X101214775Y-83166566D01*
X101360639Y-82814419D01*
X101435000Y-82440581D01*
X101435000Y-82059419D01*
X101360639Y-81685581D01*
X101214775Y-81333434D01*
X101003013Y-81016509D01*
X100733491Y-80746987D01*
X100416566Y-80535225D01*
X100064419Y-80389361D01*
X99690581Y-80315000D01*
X99309419Y-80315000D01*
X98935581Y-80389361D01*
X98583434Y-80535225D01*
X98266509Y-80746987D01*
X97996987Y-81016509D01*
X97785225Y-81333434D01*
X97639361Y-81685581D01*
X97565000Y-82059419D01*
X87020000Y-82059419D01*
X87020000Y-77769117D01*
X89815000Y-77769117D01*
X89815000Y-78110883D01*
X89881675Y-78446081D01*
X90012463Y-78761831D01*
X90202337Y-79045998D01*
X90444002Y-79287663D01*
X90728169Y-79477537D01*
X91043919Y-79608325D01*
X91379117Y-79675000D01*
X91720883Y-79675000D01*
X92056081Y-79608325D01*
X92371831Y-79477537D01*
X92655998Y-79287663D01*
X92897663Y-79045998D01*
X93087537Y-78761831D01*
X93218325Y-78446081D01*
X93285000Y-78110883D01*
X93285000Y-77769117D01*
X93218325Y-77433919D01*
X93087537Y-77118169D01*
X93048282Y-77059419D01*
X97565000Y-77059419D01*
X97565000Y-77440581D01*
X97639361Y-77814419D01*
X97785225Y-78166566D01*
X97996987Y-78483491D01*
X98266509Y-78753013D01*
X98583434Y-78964775D01*
X98935581Y-79110639D01*
X99309419Y-79185000D01*
X99690581Y-79185000D01*
X100064419Y-79110639D01*
X100416566Y-78964775D01*
X100733491Y-78753013D01*
X101003013Y-78483491D01*
X101214775Y-78166566D01*
X101360639Y-77814419D01*
X101435000Y-77440581D01*
X101435000Y-77059419D01*
X101360639Y-76685581D01*
X101214775Y-76333434D01*
X101003013Y-76016509D01*
X100733491Y-75746987D01*
X100416566Y-75535225D01*
X100064419Y-75389361D01*
X99690581Y-75315000D01*
X99309419Y-75315000D01*
X98935581Y-75389361D01*
X98583434Y-75535225D01*
X98266509Y-75746987D01*
X97996987Y-76016509D01*
X97785225Y-76333434D01*
X97639361Y-76685581D01*
X97565000Y-77059419D01*
X93048282Y-77059419D01*
X92897663Y-76834002D01*
X92655998Y-76592337D01*
X92371831Y-76402463D01*
X92056081Y-76271675D01*
X91720883Y-76205000D01*
X91379117Y-76205000D01*
X91043919Y-76271675D01*
X90728169Y-76402463D01*
X90444002Y-76592337D01*
X90202337Y-76834002D01*
X90012463Y-77118169D01*
X89881675Y-77433919D01*
X89815000Y-77769117D01*
X87020000Y-77769117D01*
X87020000Y-74372408D01*
X88173000Y-74372408D01*
X88173000Y-74647592D01*
X88226686Y-74917490D01*
X88331995Y-75171727D01*
X88484880Y-75400535D01*
X88679465Y-75595120D01*
X88908273Y-75748005D01*
X89162510Y-75853314D01*
X89432408Y-75907000D01*
X89707592Y-75907000D01*
X89977490Y-75853314D01*
X90231727Y-75748005D01*
X90460535Y-75595120D01*
X90655120Y-75400535D01*
X90808005Y-75171727D01*
X90913314Y-74917490D01*
X90967000Y-74647592D01*
X90967000Y-74372408D01*
X90913314Y-74102510D01*
X90808005Y-73848273D01*
X90655120Y-73619465D01*
X90460535Y-73424880D01*
X90231727Y-73271995D01*
X89977490Y-73166686D01*
X89707592Y-73113000D01*
X89432408Y-73113000D01*
X89162510Y-73166686D01*
X88908273Y-73271995D01*
X88679465Y-73424880D01*
X88484880Y-73619465D01*
X88331995Y-73848273D01*
X88226686Y-74102510D01*
X88173000Y-74372408D01*
X87020000Y-74372408D01*
X87020000Y-70670000D01*
X236830001Y-70670000D01*
X236830001Y-75453415D01*
G36*
X227886068Y-77541101D02*
G01*
X228065392Y-77759608D01*
X228283899Y-77938932D01*
X228330428Y-77963802D01*
X228335998Y-78020355D01*
X228379454Y-78163616D01*
X228450026Y-78295646D01*
X228521201Y-78382372D01*
X228545000Y-78411371D01*
X228573998Y-78435169D01*
X232740000Y-82601172D01*
X232740001Y-92512527D01*
X232285750Y-92515000D01*
X232127000Y-92673750D01*
X232127000Y-93873000D01*
X232147000Y-93873000D01*
X232147000Y-94127000D01*
X232127000Y-94127000D01*
X232127000Y-94147000D01*
X231873000Y-94147000D01*
X231873000Y-94127000D01*
X230673750Y-94127000D01*
X230515000Y-94285750D01*
X230511928Y-94850000D01*
X230524188Y-94974482D01*
X230560498Y-95094180D01*
X230619463Y-95204494D01*
X230698815Y-95301185D01*
X230795506Y-95380537D01*
X230905820Y-95439502D01*
X230974687Y-95460393D01*
X230944866Y-95484866D01*
X230759294Y-95710986D01*
X230722405Y-95780000D01*
X229854802Y-95780000D01*
X227224802Y-93150000D01*
X230511928Y-93150000D01*
X230515000Y-93714250D01*
X230673750Y-93873000D01*
X231873000Y-93873000D01*
X231873000Y-92673750D01*
X231714250Y-92515000D01*
X231150000Y-92511928D01*
X231025518Y-92524188D01*
X230905820Y-92560498D01*
X230795506Y-92619463D01*
X230698815Y-92698815D01*
X230619463Y-92795506D01*
X230560498Y-92905820D01*
X230524188Y-93025518D01*
X230511928Y-93150000D01*
X227224802Y-93150000D01*
X221484801Y-87410000D01*
X221490581Y-87410000D01*
X221864419Y-87335639D01*
X222216566Y-87189775D01*
X222533491Y-86978013D01*
X222803013Y-86708491D01*
X223014775Y-86391566D01*
X223160639Y-86039419D01*
X223235000Y-85665581D01*
X223235000Y-85284419D01*
X223160639Y-84910581D01*
X223014775Y-84558434D01*
X222803013Y-84241509D01*
X222533491Y-83971987D01*
X222216566Y-83760225D01*
X221864419Y-83614361D01*
X221490581Y-83540000D01*
X221109419Y-83540000D01*
X220735581Y-83614361D01*
X220383434Y-83760225D01*
X220066509Y-83971987D01*
X219796987Y-84241509D01*
X219585225Y-84558434D01*
X219510000Y-84740043D01*
X219510000Y-79759801D01*
X224504213Y-84754015D01*
X224439361Y-84910581D01*
X224365000Y-85284419D01*
X224365000Y-85665581D01*
X224439361Y-86039419D01*
X224585225Y-86391566D01*
X224796987Y-86708491D01*
X225066509Y-86978013D01*
X225383434Y-87189775D01*
X225735581Y-87335639D01*
X226109419Y-87410000D01*
X226490581Y-87410000D01*
X226864419Y-87335639D01*
X227216566Y-87189775D01*
X227533491Y-86978013D01*
X227803013Y-86708491D01*
X228014775Y-86391566D01*
X228160639Y-86039419D01*
X228235000Y-85665581D01*
X228235000Y-85284419D01*
X228160639Y-84910581D01*
X228014775Y-84558434D01*
X227803013Y-84241509D01*
X227533491Y-83971987D01*
X227216566Y-83760225D01*
X226864419Y-83614361D01*
X226490581Y-83540000D01*
X226109419Y-83540000D01*
X225735581Y-83614361D01*
X225579015Y-83679213D01*
X219787964Y-77888163D01*
X219944608Y-77759608D01*
X220123932Y-77541101D01*
X220195000Y-77408142D01*
X220266068Y-77541101D01*
X220445392Y-77759608D01*
X220663899Y-77938932D01*
X220913192Y-78072182D01*
X221183691Y-78154236D01*
X221394508Y-78175000D01*
X221535492Y-78175000D01*
X221746309Y-78154236D01*
X222016808Y-78072182D01*
X222266101Y-77938932D01*
X222484608Y-77759608D01*
X222663932Y-77541101D01*
X222735000Y-77408142D01*
X222806068Y-77541101D01*
X222985392Y-77759608D01*
X223203899Y-77938932D01*
X223453192Y-78072182D01*
X223723691Y-78154236D01*
X223934508Y-78175000D01*
X224075492Y-78175000D01*
X224286309Y-78154236D01*
X224556808Y-78072182D01*
X224806101Y-77938932D01*
X225024608Y-77759608D01*
X225203932Y-77541101D01*
X225275000Y-77408142D01*
X225346068Y-77541101D01*
X225525392Y-77759608D01*
X225743899Y-77938932D01*
X225993192Y-78072182D01*
X226263691Y-78154236D01*
X226474508Y-78175000D01*
X226615492Y-78175000D01*
X226826309Y-78154236D01*
X227096808Y-78072182D01*
X227346101Y-77938932D01*
X227564608Y-77759608D01*
X227743932Y-77541101D01*
X227815000Y-77408142D01*
X227886068Y-77541101D01*
X227886068Y-77541101D01*
G37*
X227886068Y-77541101D02*
X228065392Y-77759608D01*
X228283899Y-77938932D01*
X228330428Y-77963802D01*
X228335998Y-78020355D01*
X228379454Y-78163616D01*
X228450026Y-78295646D01*
X228521201Y-78382372D01*
X228545000Y-78411371D01*
X228573998Y-78435169D01*
X232740000Y-82601172D01*
X232740001Y-92512527D01*
X232285750Y-92515000D01*
X232127000Y-92673750D01*
X232127000Y-93873000D01*
X232147000Y-93873000D01*
X232147000Y-94127000D01*
X232127000Y-94127000D01*
X232127000Y-94147000D01*
X231873000Y-94147000D01*
X231873000Y-94127000D01*
X230673750Y-94127000D01*
X230515000Y-94285750D01*
X230511928Y-94850000D01*
X230524188Y-94974482D01*
X230560498Y-95094180D01*
X230619463Y-95204494D01*
X230698815Y-95301185D01*
X230795506Y-95380537D01*
X230905820Y-95439502D01*
X230974687Y-95460393D01*
X230944866Y-95484866D01*
X230759294Y-95710986D01*
X230722405Y-95780000D01*
X229854802Y-95780000D01*
X227224802Y-93150000D01*
X230511928Y-93150000D01*
X230515000Y-93714250D01*
X230673750Y-93873000D01*
X231873000Y-93873000D01*
X231873000Y-92673750D01*
X231714250Y-92515000D01*
X231150000Y-92511928D01*
X231025518Y-92524188D01*
X230905820Y-92560498D01*
X230795506Y-92619463D01*
X230698815Y-92698815D01*
X230619463Y-92795506D01*
X230560498Y-92905820D01*
X230524188Y-93025518D01*
X230511928Y-93150000D01*
X227224802Y-93150000D01*
X221484801Y-87410000D01*
X221490581Y-87410000D01*
X221864419Y-87335639D01*
X222216566Y-87189775D01*
X222533491Y-86978013D01*
X222803013Y-86708491D01*
X223014775Y-86391566D01*
X223160639Y-86039419D01*
X223235000Y-85665581D01*
X223235000Y-85284419D01*
X223160639Y-84910581D01*
X223014775Y-84558434D01*
X222803013Y-84241509D01*
X222533491Y-83971987D01*
X222216566Y-83760225D01*
X221864419Y-83614361D01*
X221490581Y-83540000D01*
X221109419Y-83540000D01*
X220735581Y-83614361D01*
X220383434Y-83760225D01*
X220066509Y-83971987D01*
X219796987Y-84241509D01*
X219585225Y-84558434D01*
X219510000Y-84740043D01*
X219510000Y-79759801D01*
X224504213Y-84754015D01*
X224439361Y-84910581D01*
X224365000Y-85284419D01*
X224365000Y-85665581D01*
X224439361Y-86039419D01*
X224585225Y-86391566D01*
X224796987Y-86708491D01*
X225066509Y-86978013D01*
X225383434Y-87189775D01*
X225735581Y-87335639D01*
X226109419Y-87410000D01*
X226490581Y-87410000D01*
X226864419Y-87335639D01*
X227216566Y-87189775D01*
X227533491Y-86978013D01*
X227803013Y-86708491D01*
X228014775Y-86391566D01*
X228160639Y-86039419D01*
X228235000Y-85665581D01*
X228235000Y-85284419D01*
X228160639Y-84910581D01*
X228014775Y-84558434D01*
X227803013Y-84241509D01*
X227533491Y-83971987D01*
X227216566Y-83760225D01*
X226864419Y-83614361D01*
X226490581Y-83540000D01*
X226109419Y-83540000D01*
X225735581Y-83614361D01*
X225579015Y-83679213D01*
X219787964Y-77888163D01*
X219944608Y-77759608D01*
X220123932Y-77541101D01*
X220195000Y-77408142D01*
X220266068Y-77541101D01*
X220445392Y-77759608D01*
X220663899Y-77938932D01*
X220913192Y-78072182D01*
X221183691Y-78154236D01*
X221394508Y-78175000D01*
X221535492Y-78175000D01*
X221746309Y-78154236D01*
X222016808Y-78072182D01*
X222266101Y-77938932D01*
X222484608Y-77759608D01*
X222663932Y-77541101D01*
X222735000Y-77408142D01*
X222806068Y-77541101D01*
X222985392Y-77759608D01*
X223203899Y-77938932D01*
X223453192Y-78072182D01*
X223723691Y-78154236D01*
X223934508Y-78175000D01*
X224075492Y-78175000D01*
X224286309Y-78154236D01*
X224556808Y-78072182D01*
X224806101Y-77938932D01*
X225024608Y-77759608D01*
X225203932Y-77541101D01*
X225275000Y-77408142D01*
X225346068Y-77541101D01*
X225525392Y-77759608D01*
X225743899Y-77938932D01*
X225993192Y-78072182D01*
X226263691Y-78154236D01*
X226474508Y-78175000D01*
X226615492Y-78175000D01*
X226826309Y-78154236D01*
X227096808Y-78072182D01*
X227346101Y-77938932D01*
X227564608Y-77759608D01*
X227743932Y-77541101D01*
X227815000Y-77408142D01*
X227886068Y-77541101D01*
M02*
