G04 #@! TF.GenerationSoftware,KiCad,Pcbnew,(5.1.4)-1*
G04 #@! TF.CreationDate,2019-11-14T07:41:03-05:00*
G04 #@! TF.ProjectId,CapstoneSchematic,43617073-746f-46e6-9553-6368656d6174,rev?*
G04 #@! TF.SameCoordinates,Original*
G04 #@! TF.FileFunction,Legend,Bot*
G04 #@! TF.FilePolarity,Positive*
%FSLAX46Y46*%
G04 Gerber Fmt 4.6, Leading zero omitted, Abs format (unit mm)*
G04 Created by KiCad (PCBNEW (5.1.4)-1) date 2019-11-14 07:41:03*
%MOMM*%
%LPD*%
G04 APERTURE LIST*
%ADD10C,0.150000*%
%ADD11C,0.120000*%
G04 APERTURE END LIST*
D10*
X226428571Y-80254761D02*
X226285714Y-80302380D01*
X226047619Y-80302380D01*
X225952380Y-80254761D01*
X225904761Y-80207142D01*
X225857142Y-80111904D01*
X225857142Y-80016666D01*
X225904761Y-79921428D01*
X225952380Y-79873809D01*
X226047619Y-79826190D01*
X226238095Y-79778571D01*
X226333333Y-79730952D01*
X226380952Y-79683333D01*
X226428571Y-79588095D01*
X226428571Y-79492857D01*
X226380952Y-79397619D01*
X226333333Y-79350000D01*
X226238095Y-79302380D01*
X226000000Y-79302380D01*
X225857142Y-79350000D01*
X225000000Y-79635714D02*
X225000000Y-80302380D01*
X225428571Y-79635714D02*
X225428571Y-80159523D01*
X225380952Y-80254761D01*
X225285714Y-80302380D01*
X225142857Y-80302380D01*
X225047619Y-80254761D01*
X225000000Y-80207142D01*
X224523809Y-79635714D02*
X224523809Y-80635714D01*
X224523809Y-79683333D02*
X224428571Y-79635714D01*
X224238095Y-79635714D01*
X224142857Y-79683333D01*
X224095238Y-79730952D01*
X224047619Y-79826190D01*
X224047619Y-80111904D01*
X224095238Y-80207142D01*
X224142857Y-80254761D01*
X224238095Y-80302380D01*
X224428571Y-80302380D01*
X224523809Y-80254761D01*
X223238095Y-80254761D02*
X223333333Y-80302380D01*
X223523809Y-80302380D01*
X223619047Y-80254761D01*
X223666666Y-80159523D01*
X223666666Y-79778571D01*
X223619047Y-79683333D01*
X223523809Y-79635714D01*
X223333333Y-79635714D01*
X223238095Y-79683333D01*
X223190476Y-79778571D01*
X223190476Y-79873809D01*
X223666666Y-79969047D01*
X222761904Y-80302380D02*
X222761904Y-79635714D01*
X222761904Y-79826190D02*
X222714285Y-79730952D01*
X222666666Y-79683333D01*
X222571428Y-79635714D01*
X222476190Y-79635714D01*
X228238095Y-81952380D02*
X228238095Y-81285714D01*
X228238095Y-80952380D02*
X228285714Y-81000000D01*
X228238095Y-81047619D01*
X228190476Y-81000000D01*
X228238095Y-80952380D01*
X228238095Y-81047619D01*
X227761904Y-81952380D02*
X227761904Y-81285714D01*
X227761904Y-81380952D02*
X227714285Y-81333333D01*
X227619047Y-81285714D01*
X227476190Y-81285714D01*
X227380952Y-81333333D01*
X227333333Y-81428571D01*
X227333333Y-81952380D01*
X227333333Y-81428571D02*
X227285714Y-81333333D01*
X227190476Y-81285714D01*
X227047619Y-81285714D01*
X226952380Y-81333333D01*
X226904761Y-81428571D01*
X226904761Y-81952380D01*
X226428571Y-81285714D02*
X226428571Y-82285714D01*
X226428571Y-81333333D02*
X226333333Y-81285714D01*
X226142857Y-81285714D01*
X226047619Y-81333333D01*
X226000000Y-81380952D01*
X225952380Y-81476190D01*
X225952380Y-81761904D01*
X226000000Y-81857142D01*
X226047619Y-81904761D01*
X226142857Y-81952380D01*
X226333333Y-81952380D01*
X226428571Y-81904761D01*
X225380952Y-81952380D02*
X225476190Y-81904761D01*
X225523809Y-81857142D01*
X225571428Y-81761904D01*
X225571428Y-81476190D01*
X225523809Y-81380952D01*
X225476190Y-81333333D01*
X225380952Y-81285714D01*
X225238095Y-81285714D01*
X225142857Y-81333333D01*
X225095238Y-81380952D01*
X225047619Y-81476190D01*
X225047619Y-81761904D01*
X225095238Y-81857142D01*
X225142857Y-81904761D01*
X225238095Y-81952380D01*
X225380952Y-81952380D01*
X224619047Y-81952380D02*
X224619047Y-81285714D01*
X224619047Y-81476190D02*
X224571428Y-81380952D01*
X224523809Y-81333333D01*
X224428571Y-81285714D01*
X224333333Y-81285714D01*
X224142857Y-81285714D02*
X223761904Y-81285714D01*
X224000000Y-80952380D02*
X224000000Y-81809523D01*
X223952380Y-81904761D01*
X223857142Y-81952380D01*
X223761904Y-81952380D01*
X223000000Y-81952380D02*
X223000000Y-81428571D01*
X223047619Y-81333333D01*
X223142857Y-81285714D01*
X223333333Y-81285714D01*
X223428571Y-81333333D01*
X223000000Y-81904761D02*
X223095238Y-81952380D01*
X223333333Y-81952380D01*
X223428571Y-81904761D01*
X223476190Y-81809523D01*
X223476190Y-81714285D01*
X223428571Y-81619047D01*
X223333333Y-81571428D01*
X223095238Y-81571428D01*
X223000000Y-81523809D01*
X222523809Y-81285714D02*
X222523809Y-81952380D01*
X222523809Y-81380952D02*
X222476190Y-81333333D01*
X222380952Y-81285714D01*
X222238095Y-81285714D01*
X222142857Y-81333333D01*
X222095238Y-81428571D01*
X222095238Y-81952380D01*
X221761904Y-81285714D02*
X221380952Y-81285714D01*
X221619047Y-80952380D02*
X221619047Y-81809523D01*
X221571428Y-81904761D01*
X221476190Y-81952380D01*
X221380952Y-81952380D01*
X225428571Y-82935714D02*
X225190476Y-83602380D01*
X224952380Y-82935714D01*
X224571428Y-83602380D02*
X224571428Y-82935714D01*
X224571428Y-82602380D02*
X224619047Y-82650000D01*
X224571428Y-82697619D01*
X224523809Y-82650000D01*
X224571428Y-82602380D01*
X224571428Y-82697619D01*
X223666666Y-83602380D02*
X223666666Y-83078571D01*
X223714285Y-82983333D01*
X223809523Y-82935714D01*
X224000000Y-82935714D01*
X224095238Y-82983333D01*
X223666666Y-83554761D02*
X223761904Y-83602380D01*
X224000000Y-83602380D01*
X224095238Y-83554761D01*
X224142857Y-83459523D01*
X224142857Y-83364285D01*
X224095238Y-83269047D01*
X224000000Y-83221428D01*
X223761904Y-83221428D01*
X223666666Y-83173809D01*
X147333333Y-100977380D02*
X147333333Y-101691666D01*
X147380952Y-101834523D01*
X147476190Y-101929761D01*
X147619047Y-101977380D01*
X147714285Y-101977380D01*
X146428571Y-101977380D02*
X146428571Y-101453571D01*
X146476190Y-101358333D01*
X146571428Y-101310714D01*
X146761904Y-101310714D01*
X146857142Y-101358333D01*
X146428571Y-101929761D02*
X146523809Y-101977380D01*
X146761904Y-101977380D01*
X146857142Y-101929761D01*
X146904761Y-101834523D01*
X146904761Y-101739285D01*
X146857142Y-101644047D01*
X146761904Y-101596428D01*
X146523809Y-101596428D01*
X146428571Y-101548809D01*
X145523809Y-101929761D02*
X145619047Y-101977380D01*
X145809523Y-101977380D01*
X145904761Y-101929761D01*
X145952380Y-101882142D01*
X146000000Y-101786904D01*
X146000000Y-101501190D01*
X145952380Y-101405952D01*
X145904761Y-101358333D01*
X145809523Y-101310714D01*
X145619047Y-101310714D01*
X145523809Y-101358333D01*
X144952380Y-101977380D02*
X145047619Y-101929761D01*
X145095238Y-101882142D01*
X145142857Y-101786904D01*
X145142857Y-101501190D01*
X145095238Y-101405952D01*
X145047619Y-101358333D01*
X144952380Y-101310714D01*
X144809523Y-101310714D01*
X144714285Y-101358333D01*
X144666666Y-101405952D01*
X144619047Y-101501190D01*
X144619047Y-101786904D01*
X144666666Y-101882142D01*
X144714285Y-101929761D01*
X144809523Y-101977380D01*
X144952380Y-101977380D01*
X144190476Y-101977380D02*
X144190476Y-100977380D01*
X144190476Y-101358333D02*
X144095238Y-101310714D01*
X143904761Y-101310714D01*
X143809523Y-101358333D01*
X143761904Y-101405952D01*
X143714285Y-101501190D01*
X143714285Y-101786904D01*
X143761904Y-101882142D01*
X143809523Y-101929761D01*
X143904761Y-101977380D01*
X144095238Y-101977380D01*
X144190476Y-101929761D01*
X142190476Y-101453571D02*
X142047619Y-101501190D01*
X142000000Y-101548809D01*
X141952380Y-101644047D01*
X141952380Y-101786904D01*
X142000000Y-101882142D01*
X142047619Y-101929761D01*
X142142857Y-101977380D01*
X142523809Y-101977380D01*
X142523809Y-100977380D01*
X142190476Y-100977380D01*
X142095238Y-101025000D01*
X142047619Y-101072619D01*
X142000000Y-101167857D01*
X142000000Y-101263095D01*
X142047619Y-101358333D01*
X142095238Y-101405952D01*
X142190476Y-101453571D01*
X142523809Y-101453571D01*
X141142857Y-101929761D02*
X141238095Y-101977380D01*
X141428571Y-101977380D01*
X141523809Y-101929761D01*
X141571428Y-101834523D01*
X141571428Y-101453571D01*
X141523809Y-101358333D01*
X141428571Y-101310714D01*
X141238095Y-101310714D01*
X141142857Y-101358333D01*
X141095238Y-101453571D01*
X141095238Y-101548809D01*
X141571428Y-101644047D01*
X140666666Y-101977380D02*
X140666666Y-101310714D01*
X140666666Y-101501190D02*
X140619047Y-101405952D01*
X140571428Y-101358333D01*
X140476190Y-101310714D01*
X140380952Y-101310714D01*
X139619047Y-101977380D02*
X139619047Y-100977380D01*
X139619047Y-101929761D02*
X139714285Y-101977380D01*
X139904761Y-101977380D01*
X140000000Y-101929761D01*
X140047619Y-101882142D01*
X140095238Y-101786904D01*
X140095238Y-101501190D01*
X140047619Y-101405952D01*
X140000000Y-101358333D01*
X139904761Y-101310714D01*
X139714285Y-101310714D01*
X139619047Y-101358333D01*
X139142857Y-101977380D02*
X139142857Y-101310714D01*
X139142857Y-100977380D02*
X139190476Y-101025000D01*
X139142857Y-101072619D01*
X139095238Y-101025000D01*
X139142857Y-100977380D01*
X139142857Y-101072619D01*
X138238095Y-101929761D02*
X138333333Y-101977380D01*
X138523809Y-101977380D01*
X138619047Y-101929761D01*
X138666666Y-101882142D01*
X138714285Y-101786904D01*
X138714285Y-101501190D01*
X138666666Y-101405952D01*
X138619047Y-101358333D01*
X138523809Y-101310714D01*
X138333333Y-101310714D01*
X138238095Y-101358333D01*
X137809523Y-101977380D02*
X137809523Y-100977380D01*
X137380952Y-101977380D02*
X137380952Y-101453571D01*
X137428571Y-101358333D01*
X137523809Y-101310714D01*
X137666666Y-101310714D01*
X137761904Y-101358333D01*
X137809523Y-101405952D01*
X136523809Y-101929761D02*
X136619047Y-101977380D01*
X136809523Y-101977380D01*
X136904761Y-101929761D01*
X136952380Y-101834523D01*
X136952380Y-101453571D01*
X136904761Y-101358333D01*
X136809523Y-101310714D01*
X136619047Y-101310714D01*
X136523809Y-101358333D01*
X136476190Y-101453571D01*
X136476190Y-101548809D01*
X136952380Y-101644047D01*
X136142857Y-101310714D02*
X135904761Y-101977380D01*
X135666666Y-101310714D01*
X135333333Y-101929761D02*
X135238095Y-101977380D01*
X135047619Y-101977380D01*
X134952380Y-101929761D01*
X134904761Y-101834523D01*
X134904761Y-101786904D01*
X134952380Y-101691666D01*
X135047619Y-101644047D01*
X135190476Y-101644047D01*
X135285714Y-101596428D01*
X135333333Y-101501190D01*
X135333333Y-101453571D01*
X135285714Y-101358333D01*
X135190476Y-101310714D01*
X135047619Y-101310714D01*
X134952380Y-101358333D01*
X134476190Y-101977380D02*
X134476190Y-100977380D01*
X134380952Y-101596428D02*
X134095238Y-101977380D01*
X134095238Y-101310714D02*
X134476190Y-101691666D01*
X133761904Y-101310714D02*
X133523809Y-101977380D01*
X133285714Y-101310714D02*
X133523809Y-101977380D01*
X133619047Y-102215476D01*
X133666666Y-102263095D01*
X133761904Y-102310714D01*
X146261904Y-103627380D02*
X146261904Y-102627380D01*
X145690476Y-103627380D01*
X145690476Y-102627380D01*
X144785714Y-103627380D02*
X144785714Y-103103571D01*
X144833333Y-103008333D01*
X144928571Y-102960714D01*
X145119047Y-102960714D01*
X145214285Y-103008333D01*
X144785714Y-103579761D02*
X144880952Y-103627380D01*
X145119047Y-103627380D01*
X145214285Y-103579761D01*
X145261904Y-103484523D01*
X145261904Y-103389285D01*
X145214285Y-103294047D01*
X145119047Y-103246428D01*
X144880952Y-103246428D01*
X144785714Y-103198809D01*
X144452380Y-102960714D02*
X144071428Y-102960714D01*
X144309523Y-102627380D02*
X144309523Y-103484523D01*
X144261904Y-103579761D01*
X144166666Y-103627380D01*
X144071428Y-103627380D01*
X143738095Y-103627380D02*
X143738095Y-102627380D01*
X143309523Y-103627380D02*
X143309523Y-103103571D01*
X143357142Y-103008333D01*
X143452380Y-102960714D01*
X143595238Y-102960714D01*
X143690476Y-103008333D01*
X143738095Y-103055952D01*
X142404761Y-103627380D02*
X142404761Y-103103571D01*
X142452380Y-103008333D01*
X142547619Y-102960714D01*
X142738095Y-102960714D01*
X142833333Y-103008333D01*
X142404761Y-103579761D02*
X142500000Y-103627380D01*
X142738095Y-103627380D01*
X142833333Y-103579761D01*
X142880952Y-103484523D01*
X142880952Y-103389285D01*
X142833333Y-103294047D01*
X142738095Y-103246428D01*
X142500000Y-103246428D01*
X142404761Y-103198809D01*
X141928571Y-102960714D02*
X141928571Y-103627380D01*
X141928571Y-103055952D02*
X141880952Y-103008333D01*
X141785714Y-102960714D01*
X141642857Y-102960714D01*
X141547619Y-103008333D01*
X141500000Y-103103571D01*
X141500000Y-103627380D01*
X140309523Y-103579761D02*
X140166666Y-103627380D01*
X139928571Y-103627380D01*
X139833333Y-103579761D01*
X139785714Y-103532142D01*
X139738095Y-103436904D01*
X139738095Y-103341666D01*
X139785714Y-103246428D01*
X139833333Y-103198809D01*
X139928571Y-103151190D01*
X140119047Y-103103571D01*
X140214285Y-103055952D01*
X140261904Y-103008333D01*
X140309523Y-102913095D01*
X140309523Y-102817857D01*
X140261904Y-102722619D01*
X140214285Y-102675000D01*
X140119047Y-102627380D01*
X139880952Y-102627380D01*
X139738095Y-102675000D01*
X138880952Y-103579761D02*
X138976190Y-103627380D01*
X139166666Y-103627380D01*
X139261904Y-103579761D01*
X139309523Y-103532142D01*
X139357142Y-103436904D01*
X139357142Y-103151190D01*
X139309523Y-103055952D01*
X139261904Y-103008333D01*
X139166666Y-102960714D01*
X138976190Y-102960714D01*
X138880952Y-103008333D01*
X138452380Y-103627380D02*
X138452380Y-102627380D01*
X138023809Y-103627380D02*
X138023809Y-103103571D01*
X138071428Y-103008333D01*
X138166666Y-102960714D01*
X138309523Y-102960714D01*
X138404761Y-103008333D01*
X138452380Y-103055952D01*
X137547619Y-103627380D02*
X137547619Y-102960714D01*
X137547619Y-102627380D02*
X137595238Y-102675000D01*
X137547619Y-102722619D01*
X137500000Y-102675000D01*
X137547619Y-102627380D01*
X137547619Y-102722619D01*
X137071428Y-103627380D02*
X137071428Y-102960714D01*
X137071428Y-103055952D02*
X137023809Y-103008333D01*
X136928571Y-102960714D01*
X136785714Y-102960714D01*
X136690476Y-103008333D01*
X136642857Y-103103571D01*
X136642857Y-103627380D01*
X136642857Y-103103571D02*
X136595238Y-103008333D01*
X136500000Y-102960714D01*
X136357142Y-102960714D01*
X136261904Y-103008333D01*
X136214285Y-103103571D01*
X136214285Y-103627380D01*
X135738095Y-102960714D02*
X135738095Y-103960714D01*
X135738095Y-103008333D02*
X135642857Y-102960714D01*
X135452380Y-102960714D01*
X135357142Y-103008333D01*
X135309523Y-103055952D01*
X135261904Y-103151190D01*
X135261904Y-103436904D01*
X135309523Y-103532142D01*
X135357142Y-103579761D01*
X135452380Y-103627380D01*
X135642857Y-103627380D01*
X135738095Y-103579761D01*
X134976190Y-102960714D02*
X134595238Y-102960714D01*
X134833333Y-103627380D02*
X134833333Y-102770238D01*
X134785714Y-102675000D01*
X134690476Y-102627380D01*
X134595238Y-102627380D01*
X146238095Y-105277380D02*
X146238095Y-104277380D01*
X145904761Y-104991666D01*
X145571428Y-104277380D01*
X145571428Y-105277380D01*
X145095238Y-105277380D02*
X145095238Y-104610714D01*
X145095238Y-104277380D02*
X145142857Y-104325000D01*
X145095238Y-104372619D01*
X145047619Y-104325000D01*
X145095238Y-104277380D01*
X145095238Y-104372619D01*
X144190476Y-105229761D02*
X144285714Y-105277380D01*
X144476190Y-105277380D01*
X144571428Y-105229761D01*
X144619047Y-105182142D01*
X144666666Y-105086904D01*
X144666666Y-104801190D01*
X144619047Y-104705952D01*
X144571428Y-104658333D01*
X144476190Y-104610714D01*
X144285714Y-104610714D01*
X144190476Y-104658333D01*
X143761904Y-105277380D02*
X143761904Y-104277380D01*
X143333333Y-105277380D02*
X143333333Y-104753571D01*
X143380952Y-104658333D01*
X143476190Y-104610714D01*
X143619047Y-104610714D01*
X143714285Y-104658333D01*
X143761904Y-104705952D01*
X142428571Y-105277380D02*
X142428571Y-104753571D01*
X142476190Y-104658333D01*
X142571428Y-104610714D01*
X142761904Y-104610714D01*
X142857142Y-104658333D01*
X142428571Y-105229761D02*
X142523809Y-105277380D01*
X142761904Y-105277380D01*
X142857142Y-105229761D01*
X142904761Y-105134523D01*
X142904761Y-105039285D01*
X142857142Y-104944047D01*
X142761904Y-104896428D01*
X142523809Y-104896428D01*
X142428571Y-104848809D01*
X141571428Y-105229761D02*
X141666666Y-105277380D01*
X141857142Y-105277380D01*
X141952380Y-105229761D01*
X142000000Y-105134523D01*
X142000000Y-104753571D01*
X141952380Y-104658333D01*
X141857142Y-104610714D01*
X141666666Y-104610714D01*
X141571428Y-104658333D01*
X141523809Y-104753571D01*
X141523809Y-104848809D01*
X142000000Y-104944047D01*
X140952380Y-105277380D02*
X141047619Y-105229761D01*
X141095238Y-105134523D01*
X141095238Y-104277380D01*
X139809523Y-105277380D02*
X139809523Y-104277380D01*
X139428571Y-104277380D01*
X139333333Y-104325000D01*
X139285714Y-104372619D01*
X139238095Y-104467857D01*
X139238095Y-104610714D01*
X139285714Y-104705952D01*
X139333333Y-104753571D01*
X139428571Y-104801190D01*
X139809523Y-104801190D01*
X138666666Y-105277380D02*
X138761904Y-105229761D01*
X138809523Y-105182142D01*
X138857142Y-105086904D01*
X138857142Y-104801190D01*
X138809523Y-104705952D01*
X138761904Y-104658333D01*
X138666666Y-104610714D01*
X138523809Y-104610714D01*
X138428571Y-104658333D01*
X138380952Y-104705952D01*
X138333333Y-104801190D01*
X138333333Y-105086904D01*
X138380952Y-105182142D01*
X138428571Y-105229761D01*
X138523809Y-105277380D01*
X138666666Y-105277380D01*
X137904761Y-105277380D02*
X137904761Y-104610714D01*
X137904761Y-104801190D02*
X137857142Y-104705952D01*
X137809523Y-104658333D01*
X137714285Y-104610714D01*
X137619047Y-104610714D01*
X137428571Y-104610714D02*
X137047619Y-104610714D01*
X137285714Y-104277380D02*
X137285714Y-105134523D01*
X137238095Y-105229761D01*
X137142857Y-105277380D01*
X137047619Y-105277380D01*
X136285714Y-105277380D02*
X136285714Y-104753571D01*
X136333333Y-104658333D01*
X136428571Y-104610714D01*
X136619047Y-104610714D01*
X136714285Y-104658333D01*
X136285714Y-105229761D02*
X136380952Y-105277380D01*
X136619047Y-105277380D01*
X136714285Y-105229761D01*
X136761904Y-105134523D01*
X136761904Y-105039285D01*
X136714285Y-104944047D01*
X136619047Y-104896428D01*
X136380952Y-104896428D01*
X136285714Y-104848809D01*
X135809523Y-105277380D02*
X135809523Y-104610714D01*
X135809523Y-104801190D02*
X135761904Y-104705952D01*
X135714285Y-104658333D01*
X135619047Y-104610714D01*
X135523809Y-104610714D01*
X135047619Y-105277380D02*
X135142857Y-105229761D01*
X135190476Y-105182142D01*
X135238095Y-105086904D01*
X135238095Y-104801190D01*
X135190476Y-104705952D01*
X135142857Y-104658333D01*
X135047619Y-104610714D01*
X134904761Y-104610714D01*
X134809523Y-104658333D01*
X134761904Y-104705952D01*
X134714285Y-104801190D01*
X134714285Y-105086904D01*
X134761904Y-105182142D01*
X134809523Y-105229761D01*
X134904761Y-105277380D01*
X135047619Y-105277380D01*
X145404761Y-106641666D02*
X144928571Y-106641666D01*
X145500000Y-106927380D02*
X145166666Y-105927380D01*
X144833333Y-106927380D01*
X144071428Y-106927380D02*
X144071428Y-105927380D01*
X144071428Y-106879761D02*
X144166666Y-106927380D01*
X144357142Y-106927380D01*
X144452380Y-106879761D01*
X144500000Y-106832142D01*
X144547619Y-106736904D01*
X144547619Y-106451190D01*
X144500000Y-106355952D01*
X144452380Y-106308333D01*
X144357142Y-106260714D01*
X144166666Y-106260714D01*
X144071428Y-106308333D01*
X143214285Y-106879761D02*
X143309523Y-106927380D01*
X143500000Y-106927380D01*
X143595238Y-106879761D01*
X143642857Y-106784523D01*
X143642857Y-106403571D01*
X143595238Y-106308333D01*
X143500000Y-106260714D01*
X143309523Y-106260714D01*
X143214285Y-106308333D01*
X143166666Y-106403571D01*
X143166666Y-106498809D01*
X143642857Y-106594047D01*
X142309523Y-106927380D02*
X142309523Y-105927380D01*
X142309523Y-106879761D02*
X142404761Y-106927380D01*
X142595238Y-106927380D01*
X142690476Y-106879761D01*
X142738095Y-106832142D01*
X142785714Y-106736904D01*
X142785714Y-106451190D01*
X142738095Y-106355952D01*
X142690476Y-106308333D01*
X142595238Y-106260714D01*
X142404761Y-106260714D01*
X142309523Y-106308333D01*
X141690476Y-106927380D02*
X141785714Y-106879761D01*
X141833333Y-106832142D01*
X141880952Y-106736904D01*
X141880952Y-106451190D01*
X141833333Y-106355952D01*
X141785714Y-106308333D01*
X141690476Y-106260714D01*
X141547619Y-106260714D01*
X141452380Y-106308333D01*
X141404761Y-106355952D01*
X141357142Y-106451190D01*
X141357142Y-106736904D01*
X141404761Y-106832142D01*
X141452380Y-106879761D01*
X141547619Y-106927380D01*
X141690476Y-106927380D01*
X141071428Y-106260714D02*
X140690476Y-106260714D01*
X140928571Y-105927380D02*
X140928571Y-106784523D01*
X140880952Y-106879761D01*
X140785714Y-106927380D01*
X140690476Y-106927380D01*
X139928571Y-106260714D02*
X139928571Y-106927380D01*
X140357142Y-106260714D02*
X140357142Y-106784523D01*
X140309523Y-106879761D01*
X140214285Y-106927380D01*
X140071428Y-106927380D01*
X139976190Y-106879761D01*
X139928571Y-106832142D01*
X139452380Y-106260714D02*
X139452380Y-106927380D01*
X139452380Y-106355952D02*
X139404761Y-106308333D01*
X139309523Y-106260714D01*
X139166666Y-106260714D01*
X139071428Y-106308333D01*
X139023809Y-106403571D01*
X139023809Y-106927380D01*
X137833333Y-106641666D02*
X137357142Y-106641666D01*
X137928571Y-106927380D02*
X137595238Y-105927380D01*
X137261904Y-106927380D01*
X136928571Y-106927380D02*
X136928571Y-105927380D01*
X136928571Y-106308333D02*
X136833333Y-106260714D01*
X136642857Y-106260714D01*
X136547619Y-106308333D01*
X136500000Y-106355952D01*
X136452380Y-106451190D01*
X136452380Y-106736904D01*
X136500000Y-106832142D01*
X136547619Y-106879761D01*
X136642857Y-106927380D01*
X136833333Y-106927380D01*
X136928571Y-106879761D01*
X135642857Y-106879761D02*
X135738095Y-106927380D01*
X135928571Y-106927380D01*
X136023809Y-106879761D01*
X136071428Y-106784523D01*
X136071428Y-106403571D01*
X136023809Y-106308333D01*
X135928571Y-106260714D01*
X135738095Y-106260714D01*
X135642857Y-106308333D01*
X135595238Y-106403571D01*
X135595238Y-106498809D01*
X136071428Y-106594047D01*
D11*
X231755000Y-87150000D02*
X234295000Y-89690000D01*
X231755000Y-75720000D02*
X231755000Y-87150000D01*
X230105000Y-74070000D02*
X231755000Y-75720000D01*
X165455000Y-74070000D02*
X230105000Y-74070000D01*
X165455000Y-83600000D02*
X165455000Y-74070000D01*
X159105000Y-83600000D02*
X165455000Y-83600000D01*
X159105000Y-95280000D02*
X159105000Y-83600000D01*
X165455000Y-95280000D02*
X159105000Y-95280000D01*
X165455000Y-115350000D02*
X165455000Y-95280000D01*
X163555000Y-115350000D02*
X165455000Y-115350000D01*
X163555000Y-124490000D02*
X163555000Y-115350000D01*
X165455000Y-124490000D02*
X163555000Y-124490000D01*
X165455000Y-127670000D02*
X165455000Y-124490000D01*
X231755000Y-127670000D02*
X165455000Y-127670000D01*
X231755000Y-125000000D02*
X231755000Y-127670000D01*
X234295000Y-122460000D02*
X231755000Y-125000000D01*
X234295000Y-89690000D02*
X234295000Y-122460000D01*
X113500000Y-73500000D02*
X88500000Y-73500000D01*
X88500000Y-124500000D02*
X88500000Y-73500000D01*
X113500000Y-124500000D02*
X88500000Y-124500000D01*
X113500000Y-124500000D02*
X113500000Y-73500000D01*
D10*
X195509285Y-128976666D02*
X195033095Y-128976666D01*
X195604523Y-129262380D02*
X195271190Y-128262380D01*
X194937857Y-129262380D01*
X194080714Y-129262380D02*
X194652142Y-129262380D01*
X194366428Y-129262380D02*
X194366428Y-128262380D01*
X194461666Y-128405238D01*
X194556904Y-128500476D01*
X194652142Y-128548095D01*
X94952380Y-99833333D02*
X94952380Y-99357142D01*
X93952380Y-99357142D01*
X94952380Y-100738095D02*
X94476190Y-100404761D01*
X94952380Y-100166666D02*
X93952380Y-100166666D01*
X93952380Y-100547619D01*
X94000000Y-100642857D01*
X94047619Y-100690476D01*
X94142857Y-100738095D01*
X94285714Y-100738095D01*
X94380952Y-100690476D01*
X94428571Y-100642857D01*
X94476190Y-100547619D01*
X94476190Y-100166666D01*
X94952380Y-101690476D02*
X94952380Y-101119047D01*
X94952380Y-101404761D02*
X93952380Y-101404761D01*
X94095238Y-101309523D01*
X94190476Y-101214285D01*
X94238095Y-101119047D01*
X108952380Y-96309523D02*
X107952380Y-96309523D01*
X107952380Y-96690476D01*
X108000000Y-96785714D01*
X108047619Y-96833333D01*
X108142857Y-96880952D01*
X108285714Y-96880952D01*
X108380952Y-96833333D01*
X108428571Y-96785714D01*
X108476190Y-96690476D01*
X108476190Y-96309523D01*
X108952380Y-97452380D02*
X108904761Y-97357142D01*
X108809523Y-97309523D01*
X107952380Y-97309523D01*
X108952380Y-98261904D02*
X108428571Y-98261904D01*
X108333333Y-98214285D01*
X108285714Y-98119047D01*
X108285714Y-97928571D01*
X108333333Y-97833333D01*
X108904761Y-98261904D02*
X108952380Y-98166666D01*
X108952380Y-97928571D01*
X108904761Y-97833333D01*
X108809523Y-97785714D01*
X108714285Y-97785714D01*
X108619047Y-97833333D01*
X108571428Y-97928571D01*
X108571428Y-98166666D01*
X108523809Y-98261904D01*
X108904761Y-99166666D02*
X108952380Y-99071428D01*
X108952380Y-98880952D01*
X108904761Y-98785714D01*
X108857142Y-98738095D01*
X108761904Y-98690476D01*
X108476190Y-98690476D01*
X108380952Y-98738095D01*
X108333333Y-98785714D01*
X108285714Y-98880952D01*
X108285714Y-99071428D01*
X108333333Y-99166666D01*
X108904761Y-99976190D02*
X108952380Y-99880952D01*
X108952380Y-99690476D01*
X108904761Y-99595238D01*
X108809523Y-99547619D01*
X108428571Y-99547619D01*
X108333333Y-99595238D01*
X108285714Y-99690476D01*
X108285714Y-99880952D01*
X108333333Y-99976190D01*
X108428571Y-100023809D01*
X108523809Y-100023809D01*
X108619047Y-99547619D01*
X108952380Y-100452380D02*
X107952380Y-100452380D01*
X108952380Y-100880952D02*
X108428571Y-100880952D01*
X108333333Y-100833333D01*
X108285714Y-100738095D01*
X108285714Y-100595238D01*
X108333333Y-100500000D01*
X108380952Y-100452380D01*
X108952380Y-101500000D02*
X108904761Y-101404761D01*
X108857142Y-101357142D01*
X108761904Y-101309523D01*
X108476190Y-101309523D01*
X108380952Y-101357142D01*
X108333333Y-101404761D01*
X108285714Y-101500000D01*
X108285714Y-101642857D01*
X108333333Y-101738095D01*
X108380952Y-101785714D01*
X108476190Y-101833333D01*
X108761904Y-101833333D01*
X108857142Y-101785714D01*
X108904761Y-101738095D01*
X108952380Y-101642857D01*
X108952380Y-101500000D01*
X108952380Y-102404761D02*
X108904761Y-102309523D01*
X108809523Y-102261904D01*
X107952380Y-102261904D01*
X108952380Y-103214285D02*
X107952380Y-103214285D01*
X108904761Y-103214285D02*
X108952380Y-103119047D01*
X108952380Y-102928571D01*
X108904761Y-102833333D01*
X108857142Y-102785714D01*
X108761904Y-102738095D01*
X108476190Y-102738095D01*
X108380952Y-102785714D01*
X108333333Y-102833333D01*
X108285714Y-102928571D01*
X108285714Y-103119047D01*
X108333333Y-103214285D01*
X108904761Y-104071428D02*
X108952380Y-103976190D01*
X108952380Y-103785714D01*
X108904761Y-103690476D01*
X108809523Y-103642857D01*
X108428571Y-103642857D01*
X108333333Y-103690476D01*
X108285714Y-103785714D01*
X108285714Y-103976190D01*
X108333333Y-104071428D01*
X108428571Y-104119047D01*
X108523809Y-104119047D01*
X108619047Y-103642857D01*
X108952380Y-104547619D02*
X108285714Y-104547619D01*
X108476190Y-104547619D02*
X108380952Y-104595238D01*
X108333333Y-104642857D01*
X108285714Y-104738095D01*
X108285714Y-104833333D01*
X90285714Y-93428571D02*
X90952380Y-93666666D01*
X90285714Y-93904761D02*
X90952380Y-93666666D01*
X91190476Y-93571428D01*
X91238095Y-93523809D01*
X91285714Y-93428571D01*
X90285714Y-95476190D02*
X90952380Y-95476190D01*
X90285714Y-95047619D02*
X90809523Y-95047619D01*
X90904761Y-95095238D01*
X90952380Y-95190476D01*
X90952380Y-95333333D01*
X90904761Y-95428571D01*
X90857142Y-95476190D01*
X90285714Y-96714285D02*
X90952380Y-96714285D01*
X90380952Y-96714285D02*
X90333333Y-96761904D01*
X90285714Y-96857142D01*
X90285714Y-97000000D01*
X90333333Y-97095238D01*
X90428571Y-97142857D01*
X90952380Y-97142857D01*
X90952380Y-97761904D02*
X90904761Y-97666666D01*
X90857142Y-97619047D01*
X90761904Y-97571428D01*
X90476190Y-97571428D01*
X90380952Y-97619047D01*
X90333333Y-97666666D01*
X90285714Y-97761904D01*
X90285714Y-97904761D01*
X90333333Y-98000000D01*
X90380952Y-98047619D01*
X90476190Y-98095238D01*
X90761904Y-98095238D01*
X90857142Y-98047619D01*
X90904761Y-98000000D01*
X90952380Y-97904761D01*
X90952380Y-97761904D01*
X90952380Y-99285714D02*
X89952380Y-99285714D01*
X90952380Y-99714285D02*
X90428571Y-99714285D01*
X90333333Y-99666666D01*
X90285714Y-99571428D01*
X90285714Y-99428571D01*
X90333333Y-99333333D01*
X90380952Y-99285714D01*
X90952380Y-100619047D02*
X90428571Y-100619047D01*
X90333333Y-100571428D01*
X90285714Y-100476190D01*
X90285714Y-100285714D01*
X90333333Y-100190476D01*
X90904761Y-100619047D02*
X90952380Y-100523809D01*
X90952380Y-100285714D01*
X90904761Y-100190476D01*
X90809523Y-100142857D01*
X90714285Y-100142857D01*
X90619047Y-100190476D01*
X90571428Y-100285714D01*
X90571428Y-100523809D01*
X90523809Y-100619047D01*
X90904761Y-101047619D02*
X90952380Y-101142857D01*
X90952380Y-101333333D01*
X90904761Y-101428571D01*
X90809523Y-101476190D01*
X90761904Y-101476190D01*
X90666666Y-101428571D01*
X90619047Y-101333333D01*
X90619047Y-101190476D01*
X90571428Y-101095238D01*
X90476190Y-101047619D01*
X90428571Y-101047619D01*
X90333333Y-101095238D01*
X90285714Y-101190476D01*
X90285714Y-101333333D01*
X90333333Y-101428571D01*
X90952380Y-103095238D02*
X89952380Y-103095238D01*
X90904761Y-103095238D02*
X90952380Y-103000000D01*
X90952380Y-102809523D01*
X90904761Y-102714285D01*
X90857142Y-102666666D01*
X90761904Y-102619047D01*
X90476190Y-102619047D01*
X90380952Y-102666666D01*
X90333333Y-102714285D01*
X90285714Y-102809523D01*
X90285714Y-103000000D01*
X90333333Y-103095238D01*
X90952380Y-104000000D02*
X90428571Y-104000000D01*
X90333333Y-103952380D01*
X90285714Y-103857142D01*
X90285714Y-103666666D01*
X90333333Y-103571428D01*
X90904761Y-104000000D02*
X90952380Y-103904761D01*
X90952380Y-103666666D01*
X90904761Y-103571428D01*
X90809523Y-103523809D01*
X90714285Y-103523809D01*
X90619047Y-103571428D01*
X90571428Y-103666666D01*
X90571428Y-103904761D01*
X90523809Y-104000000D01*
X90285714Y-104333333D02*
X90285714Y-104714285D01*
X89952380Y-104476190D02*
X90809523Y-104476190D01*
X90904761Y-104523809D01*
X90952380Y-104619047D01*
X90952380Y-104714285D01*
X90952380Y-105476190D02*
X90428571Y-105476190D01*
X90333333Y-105428571D01*
X90285714Y-105333333D01*
X90285714Y-105142857D01*
X90333333Y-105047619D01*
X90904761Y-105476190D02*
X90952380Y-105380952D01*
X90952380Y-105142857D01*
X90904761Y-105047619D01*
X90809523Y-105000000D01*
X90714285Y-105000000D01*
X90619047Y-105047619D01*
X90571428Y-105142857D01*
X90571428Y-105380952D01*
X90523809Y-105476190D01*
X90904761Y-105904761D02*
X90952380Y-106000000D01*
X90952380Y-106190476D01*
X90904761Y-106285714D01*
X90809523Y-106333333D01*
X90761904Y-106333333D01*
X90666666Y-106285714D01*
X90619047Y-106190476D01*
X90619047Y-106047619D01*
X90571428Y-105952380D01*
X90476190Y-105904761D01*
X90428571Y-105904761D01*
X90333333Y-105952380D01*
X90285714Y-106047619D01*
X90285714Y-106190476D01*
X90333333Y-106285714D01*
X90952380Y-106761904D02*
X89952380Y-106761904D01*
X90952380Y-107190476D02*
X90428571Y-107190476D01*
X90333333Y-107142857D01*
X90285714Y-107047619D01*
X90285714Y-106904761D01*
X90333333Y-106809523D01*
X90380952Y-106761904D01*
X90904761Y-108047619D02*
X90952380Y-107952380D01*
X90952380Y-107761904D01*
X90904761Y-107666666D01*
X90809523Y-107619047D01*
X90428571Y-107619047D01*
X90333333Y-107666666D01*
X90285714Y-107761904D01*
X90285714Y-107952380D01*
X90333333Y-108047619D01*
X90428571Y-108095238D01*
X90523809Y-108095238D01*
X90619047Y-107619047D01*
X90904761Y-108904761D02*
X90952380Y-108809523D01*
X90952380Y-108619047D01*
X90904761Y-108523809D01*
X90809523Y-108476190D01*
X90428571Y-108476190D01*
X90333333Y-108523809D01*
X90285714Y-108619047D01*
X90285714Y-108809523D01*
X90333333Y-108904761D01*
X90428571Y-108952380D01*
X90523809Y-108952380D01*
X90619047Y-108476190D01*
X90285714Y-109238095D02*
X90285714Y-109619047D01*
X89952380Y-109380952D02*
X90809523Y-109380952D01*
X90904761Y-109428571D01*
X90952380Y-109523809D01*
X90952380Y-109619047D01*
X114152380Y-120166666D02*
X113676190Y-119833333D01*
X114152380Y-119595238D02*
X113152380Y-119595238D01*
X113152380Y-119976190D01*
X113200000Y-120071428D01*
X113247619Y-120119047D01*
X113342857Y-120166666D01*
X113485714Y-120166666D01*
X113580952Y-120119047D01*
X113628571Y-120071428D01*
X113676190Y-119976190D01*
X113676190Y-119595238D01*
X113628571Y-120595238D02*
X113628571Y-120928571D01*
X114152380Y-121071428D02*
X114152380Y-120595238D01*
X113152380Y-120595238D01*
X113152380Y-121071428D01*
X113628571Y-121833333D02*
X113628571Y-121500000D01*
X114152380Y-121500000D02*
X113152380Y-121500000D01*
X113152380Y-121976190D01*
X113152380Y-122500000D02*
X113390476Y-122500000D01*
X113295238Y-122261904D02*
X113390476Y-122500000D01*
X113295238Y-122738095D01*
X113580952Y-122357142D02*
X113390476Y-122500000D01*
X113580952Y-122642857D01*
X113152380Y-123261904D02*
X113390476Y-123261904D01*
X113295238Y-123023809D02*
X113390476Y-123261904D01*
X113295238Y-123500000D01*
X113580952Y-123119047D02*
X113390476Y-123261904D01*
X113580952Y-123404761D01*
M02*
