M48
; DRILL file {KiCad (5.1.4)-1} date 11/14/2019 7:41:02 AM
; FORMAT={-:-/ absolute / inch / decimal}
; #@! TF.CreationDate,2019-11-14T07:41:02-05:00
; #@! TF.GenerationSoftware,Kicad,Pcbnew,(5.1.4)-1
; #@! TF.FileFunction,Plated,1,2,PTH
FMAT,2
INCH
T1C0.0157
T2C0.0300
T3C0.0315
T4C0.0394
T5C0.0512
%
G90
G05
T1
X6.626Y-4.5945
X8.563Y-3.2283
X8.6614Y-3.2283
X9.2953Y-4.7402
T2
X3.5213Y-4.8591
X3.5264Y-2.9335
X4.4224Y-4.8539
X4.4327Y-2.9299
T3
X7.2593Y-3.0213
X7.3593Y-3.0213
X7.4593Y-3.0213
X7.5593Y-3.0213
X7.6191Y-4.9213
X7.6593Y-3.0213
X7.7191Y-4.9213
X7.7593Y-3.0213
X7.8191Y-4.9213
X7.8593Y-3.0213
X7.9191Y-4.9213
X7.9593Y-3.0213
X8.0191Y-4.9213
X8.0593Y-3.0213
X8.1191Y-4.9213
X8.1593Y-3.0213
X8.2191Y-4.9213
X8.3191Y-3.0213
X8.3191Y-4.9213
X8.4191Y-3.0213
X8.5191Y-3.0213
X8.5191Y-4.9213
X8.6191Y-3.0213
X8.6191Y-4.9213
X8.7191Y-3.0213
X8.7191Y-4.9213
X8.8191Y-3.0213
X8.8191Y-4.9213
X8.9191Y-3.0213
X8.9191Y-4.9213
X9.0191Y-3.0213
X9.0191Y-4.9213
T4
X6.7323Y-4.0307
X6.7323Y-4.1307
X6.7323Y-4.2307
X6.7323Y-4.3307
X9.2677Y-2.9864
X9.2677Y-3.0864
X9.2677Y-3.1864
X9.2677Y-3.2864
X9.1339Y-3.7008
X9.1339Y-3.8008
X9.1339Y-3.9008
X9.1339Y-4.0008
X9.1339Y-4.1008
X9.1339Y-4.2008
T5
X3.9173Y-3.0413
X3.9173Y-3.2382
X3.9173Y-3.435
X3.8573Y-4.8583
X4.0541Y-4.8583
X7.9941Y-4.6329
X8.1909Y-4.6329
X8.3878Y-4.6329
X5.3307Y-4.8486
X5.5276Y-4.8486
X4.6732Y-4.8484
X4.8701Y-4.8484
X5.0669Y-4.8484
X3.9094Y-3.6772
X3.9094Y-3.874
X3.9094Y-4.1299
X3.9094Y-4.3268
X8.6575Y-4.6329
X8.8543Y-4.6329
X9.0512Y-4.6329
X7.3837Y-3.3652
X7.5805Y-3.3652
X8.5157Y-3.3652
X8.7126Y-3.3652
X8.9094Y-3.3652
X5.7756Y-4.8504
X5.9724Y-4.8504
X6.1693Y-4.8504
X7.8543Y-3.3652
X8.0512Y-3.3652
T0
M30
