G04 #@! TF.GenerationSoftware,KiCad,Pcbnew,(5.1.4)-1*
G04 #@! TF.CreationDate,2019-11-14T07:41:03-05:00*
G04 #@! TF.ProjectId,CapstoneSchematic,43617073-746f-46e6-9553-6368656d6174,rev?*
G04 #@! TF.SameCoordinates,Original*
G04 #@! TF.FileFunction,Copper,L2,Bot*
G04 #@! TF.FilePolarity,Positive*
%FSLAX46Y46*%
G04 Gerber Fmt 4.6, Leading zero omitted, Abs format (unit mm)*
G04 Created by KiCad (PCBNEW (5.1.4)-1) date 2019-11-14 07:41:03*
%MOMM*%
%LPD*%
G04 APERTURE LIST*
%ADD10C,2.600000*%
%ADD11R,2.600000X2.600000*%
%ADD12O,1.700000X1.700000*%
%ADD13R,1.700000X1.700000*%
%ADD14O,1.600000X1.600000*%
%ADD15R,1.600000X1.600000*%
%ADD16C,1.524000*%
%ADD17C,0.800000*%
%ADD18C,0.250000*%
%ADD19C,3.560000*%
%ADD20C,0.254000*%
G04 APERTURE END LIST*
D10*
X99500000Y-77250000D03*
X99500000Y-82250000D03*
D11*
X99500000Y-87250000D03*
X99300000Y-93400000D03*
D10*
X99300000Y-98400000D03*
X99300000Y-109900000D03*
D11*
X99300000Y-104900000D03*
D12*
X171000000Y-104920000D03*
X171000000Y-102380000D03*
X171000000Y-107460000D03*
D13*
X171000000Y-110000000D03*
D10*
X118700000Y-123150000D03*
X123700000Y-123150000D03*
D11*
X128700000Y-123150000D03*
D10*
X135400000Y-123155000D03*
D11*
X140400000Y-123155000D03*
D10*
X146700000Y-123200000D03*
X151700000Y-123200000D03*
D11*
X156700000Y-123200000D03*
D14*
X226545000Y-76740000D03*
X229085000Y-76740000D03*
X189465000Y-76740000D03*
X229085000Y-125000000D03*
X192005000Y-76740000D03*
X226545000Y-125000000D03*
X194545000Y-76740000D03*
X224005000Y-125000000D03*
X197085000Y-76740000D03*
X221465000Y-125000000D03*
X199625000Y-76740000D03*
X218925000Y-125000000D03*
X202165000Y-76740000D03*
X216385000Y-125000000D03*
X204705000Y-76740000D03*
X211305000Y-125000000D03*
X207245000Y-76740000D03*
X208765000Y-125000000D03*
X211305000Y-76740000D03*
X206225000Y-125000000D03*
X213845000Y-76740000D03*
X203685000Y-125000000D03*
X216385000Y-76740000D03*
X201145000Y-125000000D03*
X218925000Y-76740000D03*
X198605000Y-125000000D03*
X221465000Y-76740000D03*
X196065000Y-125000000D03*
X224005000Y-76740000D03*
D15*
X193525000Y-125000000D03*
D14*
X186925000Y-76740000D03*
X184385000Y-76740000D03*
D16*
X89440000Y-123420000D03*
X112330000Y-123290000D03*
X89570000Y-74510000D03*
X112590000Y-74420000D03*
D10*
X97975000Y-123400000D03*
D11*
X102975000Y-123400000D03*
D10*
X203050000Y-117675000D03*
X208050000Y-117675000D03*
D11*
X213050000Y-117675000D03*
D10*
X219900000Y-117675000D03*
X224900000Y-117675000D03*
D11*
X229900000Y-117675000D03*
D10*
X204500000Y-85475000D03*
D11*
X199500000Y-85475000D03*
D10*
X192545000Y-85475000D03*
D11*
X187545000Y-85475000D03*
D12*
X232000000Y-106700000D03*
X232000000Y-104160000D03*
X232000000Y-101620000D03*
X232000000Y-99080000D03*
X232000000Y-96540000D03*
D13*
X232000000Y-94000000D03*
D10*
X226300000Y-85475000D03*
X221300000Y-85475000D03*
D11*
X216300000Y-85475000D03*
D12*
X235400000Y-75855000D03*
X235400000Y-78395000D03*
X235400000Y-80935000D03*
D13*
X235400000Y-83475000D03*
D17*
X236100000Y-120400000D03*
X217500000Y-82000000D03*
X220000000Y-82000000D03*
X168300000Y-116700000D03*
D18*
X229884999Y-124200001D02*
X229085000Y-125000000D01*
X234224999Y-119860001D02*
X229884999Y-124200001D01*
X234197919Y-78395000D02*
X230770000Y-81822919D01*
X235400000Y-78395000D02*
X234197919Y-78395000D01*
X230770000Y-81822919D02*
X230770000Y-89400000D01*
X234224999Y-92854999D02*
X234224999Y-119860001D01*
X230770000Y-89400000D02*
X234224999Y-92854999D01*
X235400000Y-75855000D02*
X237100000Y-77555000D01*
X237100000Y-77555000D02*
X237100000Y-78100000D01*
X237100000Y-78100000D02*
X237100000Y-78600000D01*
X237100000Y-82200000D02*
X237139990Y-82239990D01*
X237100000Y-78600000D02*
X237100000Y-82200000D01*
X237139990Y-82239990D02*
X237139990Y-119100000D01*
X237139990Y-119100000D02*
X237139990Y-119360010D01*
X237139990Y-119360010D02*
X236100000Y-120400000D01*
X217500000Y-82000000D02*
X220000000Y-82000000D01*
X99500000Y-88800000D02*
X99500000Y-87250000D01*
X194500000Y-76785000D02*
X194545000Y-76740000D01*
X194545000Y-77871370D02*
X193116370Y-79300000D01*
X194545000Y-76740000D02*
X194545000Y-77871370D01*
X193116370Y-79300000D02*
X171100000Y-79300000D01*
X171100000Y-79300000D02*
X168300000Y-82100000D01*
X168300000Y-82100000D02*
X168300000Y-116700000D01*
X197085000Y-75608630D02*
X193576370Y-72100000D01*
X197085000Y-76740000D02*
X197085000Y-75608630D01*
X104650000Y-72100000D02*
X99500000Y-77250000D01*
X193576370Y-72100000D02*
X104650000Y-72100000D01*
X98650000Y-98250000D02*
X98300000Y-97900000D01*
D19*
X99300000Y-109900000D02*
X97461523Y-109900000D01*
X99300000Y-98400000D02*
X96100000Y-98400000D01*
X96100000Y-98400000D02*
X93750000Y-100750000D01*
X93750000Y-103826954D02*
X93811523Y-103888477D01*
X93750000Y-100750000D02*
X93750000Y-103826954D01*
X93750000Y-106188477D02*
X93750000Y-103826954D01*
X97461523Y-109900000D02*
X93750000Y-106188477D01*
D18*
X230000000Y-97080000D02*
X232000000Y-99080000D01*
X226545000Y-76740000D02*
X230000000Y-80195000D01*
X230000000Y-80195000D02*
X230000000Y-97080000D01*
X123850000Y-118000000D02*
X118700000Y-123150000D01*
X178250000Y-118000000D02*
X123850000Y-118000000D01*
X221465000Y-76740000D02*
X217955000Y-80250000D01*
X217955000Y-80250000D02*
X216000000Y-80250000D01*
X216000000Y-80250000D02*
X178250000Y-118000000D01*
X219495000Y-81250000D02*
X224005000Y-76740000D01*
X216750000Y-81250000D02*
X219495000Y-81250000D01*
X135400000Y-123155000D02*
X139305000Y-119250000D01*
X139305000Y-119250000D02*
X178750000Y-119250000D01*
X178750000Y-119250000D02*
X216750000Y-81250000D01*
X202165000Y-77871370D02*
X199436370Y-80600000D01*
X202165000Y-76740000D02*
X202165000Y-77871370D01*
X199436370Y-80600000D02*
X179800000Y-80600000D01*
X179800000Y-80600000D02*
X178100000Y-82300000D01*
X178100000Y-82300000D02*
X178100000Y-103500000D01*
X176680000Y-104920000D02*
X171000000Y-104920000D01*
X178100000Y-103500000D02*
X176680000Y-104920000D01*
X180100000Y-105600000D02*
X180100000Y-105700000D01*
X180100000Y-83700000D02*
X180100000Y-105600000D01*
X181700000Y-82100000D02*
X180100000Y-83700000D01*
X200476370Y-82100000D02*
X181700000Y-82100000D01*
X204705000Y-76740000D02*
X204705000Y-77871370D01*
X204705000Y-77871370D02*
X200476370Y-82100000D01*
X180100000Y-105600000D02*
X180100000Y-105900000D01*
X178540000Y-107460000D02*
X171000000Y-107460000D01*
X180100000Y-105900000D02*
X178540000Y-107460000D01*
D20*
G36*
X236830001Y-75453415D02*
G01*
X236778599Y-75283966D01*
X236640706Y-75025986D01*
X236455134Y-74799866D01*
X236229014Y-74614294D01*
X235971034Y-74476401D01*
X235691111Y-74391487D01*
X235472950Y-74370000D01*
X235327050Y-74370000D01*
X235108889Y-74391487D01*
X234828966Y-74476401D01*
X234570986Y-74614294D01*
X234344866Y-74799866D01*
X234159294Y-75025986D01*
X234021401Y-75283966D01*
X233936487Y-75563889D01*
X233907815Y-75855000D01*
X233936487Y-76146111D01*
X234021401Y-76426034D01*
X234159294Y-76684014D01*
X234344866Y-76910134D01*
X234570986Y-77095706D01*
X234625791Y-77125000D01*
X234570986Y-77154294D01*
X234344866Y-77339866D01*
X234159294Y-77565986D01*
X234120284Y-77638969D01*
X234048933Y-77645997D01*
X233905672Y-77689454D01*
X233773643Y-77760026D01*
X233657918Y-77854999D01*
X233634120Y-77883997D01*
X230760000Y-80758118D01*
X230760000Y-80232323D01*
X230763676Y-80195000D01*
X230760000Y-80157677D01*
X230760000Y-80157667D01*
X230749003Y-80046014D01*
X230705546Y-79902753D01*
X230634974Y-79770724D01*
X230540001Y-79654999D01*
X230511004Y-79631202D01*
X229054802Y-78175000D01*
X229155492Y-78175000D01*
X229366309Y-78154236D01*
X229636808Y-78072182D01*
X229886101Y-77938932D01*
X230104608Y-77759608D01*
X230283932Y-77541101D01*
X230417182Y-77291808D01*
X230499236Y-77021309D01*
X230526943Y-76740000D01*
X230499236Y-76458691D01*
X230417182Y-76188192D01*
X230283932Y-75938899D01*
X230104608Y-75720392D01*
X229886101Y-75541068D01*
X229636808Y-75407818D01*
X229366309Y-75325764D01*
X229155492Y-75305000D01*
X229014508Y-75305000D01*
X228803691Y-75325764D01*
X228533192Y-75407818D01*
X228283899Y-75541068D01*
X228065392Y-75720392D01*
X227886068Y-75938899D01*
X227815000Y-76071858D01*
X227743932Y-75938899D01*
X227564608Y-75720392D01*
X227346101Y-75541068D01*
X227096808Y-75407818D01*
X226826309Y-75325764D01*
X226615492Y-75305000D01*
X226474508Y-75305000D01*
X226263691Y-75325764D01*
X225993192Y-75407818D01*
X225743899Y-75541068D01*
X225525392Y-75720392D01*
X225346068Y-75938899D01*
X225275000Y-76071858D01*
X225203932Y-75938899D01*
X225024608Y-75720392D01*
X224806101Y-75541068D01*
X224556808Y-75407818D01*
X224286309Y-75325764D01*
X224075492Y-75305000D01*
X223934508Y-75305000D01*
X223723691Y-75325764D01*
X223453192Y-75407818D01*
X223203899Y-75541068D01*
X222985392Y-75720392D01*
X222806068Y-75938899D01*
X222735000Y-76071858D01*
X222663932Y-75938899D01*
X222484608Y-75720392D01*
X222266101Y-75541068D01*
X222016808Y-75407818D01*
X221746309Y-75325764D01*
X221535492Y-75305000D01*
X221394508Y-75305000D01*
X221183691Y-75325764D01*
X220913192Y-75407818D01*
X220663899Y-75541068D01*
X220445392Y-75720392D01*
X220266068Y-75938899D01*
X220195000Y-76071858D01*
X220123932Y-75938899D01*
X219944608Y-75720392D01*
X219726101Y-75541068D01*
X219476808Y-75407818D01*
X219206309Y-75325764D01*
X218995492Y-75305000D01*
X218854508Y-75305000D01*
X218643691Y-75325764D01*
X218373192Y-75407818D01*
X218123899Y-75541068D01*
X217905392Y-75720392D01*
X217726068Y-75938899D01*
X217655000Y-76071858D01*
X217583932Y-75938899D01*
X217404608Y-75720392D01*
X217186101Y-75541068D01*
X216936808Y-75407818D01*
X216666309Y-75325764D01*
X216455492Y-75305000D01*
X216314508Y-75305000D01*
X216103691Y-75325764D01*
X215833192Y-75407818D01*
X215583899Y-75541068D01*
X215365392Y-75720392D01*
X215186068Y-75938899D01*
X215115000Y-76071858D01*
X215043932Y-75938899D01*
X214864608Y-75720392D01*
X214646101Y-75541068D01*
X214396808Y-75407818D01*
X214126309Y-75325764D01*
X213915492Y-75305000D01*
X213774508Y-75305000D01*
X213563691Y-75325764D01*
X213293192Y-75407818D01*
X213043899Y-75541068D01*
X212825392Y-75720392D01*
X212646068Y-75938899D01*
X212575000Y-76071858D01*
X212503932Y-75938899D01*
X212324608Y-75720392D01*
X212106101Y-75541068D01*
X211856808Y-75407818D01*
X211586309Y-75325764D01*
X211375492Y-75305000D01*
X211234508Y-75305000D01*
X211023691Y-75325764D01*
X210753192Y-75407818D01*
X210503899Y-75541068D01*
X210285392Y-75720392D01*
X210106068Y-75938899D01*
X209972818Y-76188192D01*
X209890764Y-76458691D01*
X209863057Y-76740000D01*
X209890764Y-77021309D01*
X209972818Y-77291808D01*
X210106068Y-77541101D01*
X210285392Y-77759608D01*
X210503899Y-77938932D01*
X210753192Y-78072182D01*
X211023691Y-78154236D01*
X211234508Y-78175000D01*
X211375492Y-78175000D01*
X211586309Y-78154236D01*
X211856808Y-78072182D01*
X212106101Y-77938932D01*
X212324608Y-77759608D01*
X212503932Y-77541101D01*
X212575000Y-77408142D01*
X212646068Y-77541101D01*
X212825392Y-77759608D01*
X213043899Y-77938932D01*
X213293192Y-78072182D01*
X213563691Y-78154236D01*
X213774508Y-78175000D01*
X213915492Y-78175000D01*
X214126309Y-78154236D01*
X214396808Y-78072182D01*
X214646101Y-77938932D01*
X214864608Y-77759608D01*
X215043932Y-77541101D01*
X215115000Y-77408142D01*
X215186068Y-77541101D01*
X215365392Y-77759608D01*
X215583899Y-77938932D01*
X215833192Y-78072182D01*
X216103691Y-78154236D01*
X216314508Y-78175000D01*
X216455492Y-78175000D01*
X216666309Y-78154236D01*
X216936808Y-78072182D01*
X217186101Y-77938932D01*
X217404608Y-77759608D01*
X217583932Y-77541101D01*
X217655000Y-77408142D01*
X217726068Y-77541101D01*
X217905392Y-77759608D01*
X218123899Y-77938932D01*
X218373192Y-78072182D01*
X218643691Y-78154236D01*
X218854508Y-78175000D01*
X218955199Y-78175000D01*
X217640199Y-79490000D01*
X216037322Y-79490000D01*
X216000000Y-79486324D01*
X215962677Y-79490000D01*
X215962667Y-79490000D01*
X215851014Y-79500997D01*
X215707753Y-79544454D01*
X215575723Y-79615026D01*
X215502645Y-79675000D01*
X215459999Y-79709999D01*
X215436201Y-79738997D01*
X177935199Y-117240000D01*
X169183967Y-117240000D01*
X169217205Y-117190256D01*
X169295226Y-117001898D01*
X169335000Y-116801939D01*
X169335000Y-116598061D01*
X169295226Y-116398102D01*
X169217205Y-116209744D01*
X169103937Y-116040226D01*
X169060000Y-115996289D01*
X169060000Y-110850000D01*
X169511928Y-110850000D01*
X169524188Y-110974482D01*
X169560498Y-111094180D01*
X169619463Y-111204494D01*
X169698815Y-111301185D01*
X169795506Y-111380537D01*
X169905820Y-111439502D01*
X170025518Y-111475812D01*
X170150000Y-111488072D01*
X170714250Y-111485000D01*
X170873000Y-111326250D01*
X170873000Y-110127000D01*
X171127000Y-110127000D01*
X171127000Y-111326250D01*
X171285750Y-111485000D01*
X171850000Y-111488072D01*
X171974482Y-111475812D01*
X172094180Y-111439502D01*
X172204494Y-111380537D01*
X172301185Y-111301185D01*
X172380537Y-111204494D01*
X172439502Y-111094180D01*
X172475812Y-110974482D01*
X172488072Y-110850000D01*
X172485000Y-110285750D01*
X172326250Y-110127000D01*
X171127000Y-110127000D01*
X170873000Y-110127000D01*
X169673750Y-110127000D01*
X169515000Y-110285750D01*
X169511928Y-110850000D01*
X169060000Y-110850000D01*
X169060000Y-82414801D01*
X171414802Y-80060000D01*
X179259998Y-80060000D01*
X179236201Y-80088997D01*
X177589003Y-81736196D01*
X177559999Y-81759999D01*
X177509897Y-81821049D01*
X177465026Y-81875724D01*
X177405586Y-81986928D01*
X177394454Y-82007754D01*
X177350997Y-82151015D01*
X177340000Y-82262668D01*
X177340000Y-82262678D01*
X177336324Y-82300000D01*
X177340000Y-82337322D01*
X177340001Y-103185197D01*
X176365199Y-104160000D01*
X172277595Y-104160000D01*
X172240706Y-104090986D01*
X172055134Y-103864866D01*
X171829014Y-103679294D01*
X171774209Y-103650000D01*
X171829014Y-103620706D01*
X172055134Y-103435134D01*
X172240706Y-103209014D01*
X172378599Y-102951034D01*
X172463513Y-102671111D01*
X172492185Y-102380000D01*
X172463513Y-102088889D01*
X172378599Y-101808966D01*
X172240706Y-101550986D01*
X172055134Y-101324866D01*
X171829014Y-101139294D01*
X171571034Y-101001401D01*
X171291111Y-100916487D01*
X171072950Y-100895000D01*
X170927050Y-100895000D01*
X170708889Y-100916487D01*
X170428966Y-101001401D01*
X170170986Y-101139294D01*
X169944866Y-101324866D01*
X169759294Y-101550986D01*
X169621401Y-101808966D01*
X169536487Y-102088889D01*
X169507815Y-102380000D01*
X169536487Y-102671111D01*
X169621401Y-102951034D01*
X169759294Y-103209014D01*
X169944866Y-103435134D01*
X170170986Y-103620706D01*
X170225791Y-103650000D01*
X170170986Y-103679294D01*
X169944866Y-103864866D01*
X169759294Y-104090986D01*
X169621401Y-104348966D01*
X169536487Y-104628889D01*
X169507815Y-104920000D01*
X169536487Y-105211111D01*
X169621401Y-105491034D01*
X169759294Y-105749014D01*
X169944866Y-105975134D01*
X170170986Y-106160706D01*
X170225791Y-106190000D01*
X170170986Y-106219294D01*
X169944866Y-106404866D01*
X169759294Y-106630986D01*
X169621401Y-106888966D01*
X169536487Y-107168889D01*
X169507815Y-107460000D01*
X169536487Y-107751111D01*
X169621401Y-108031034D01*
X169759294Y-108289014D01*
X169944866Y-108515134D01*
X169974687Y-108539607D01*
X169905820Y-108560498D01*
X169795506Y-108619463D01*
X169698815Y-108698815D01*
X169619463Y-108795506D01*
X169560498Y-108905820D01*
X169524188Y-109025518D01*
X169511928Y-109150000D01*
X169515000Y-109714250D01*
X169673750Y-109873000D01*
X170873000Y-109873000D01*
X170873000Y-109853000D01*
X171127000Y-109853000D01*
X171127000Y-109873000D01*
X172326250Y-109873000D01*
X172485000Y-109714250D01*
X172488072Y-109150000D01*
X172475812Y-109025518D01*
X172439502Y-108905820D01*
X172380537Y-108795506D01*
X172301185Y-108698815D01*
X172204494Y-108619463D01*
X172094180Y-108560498D01*
X172025313Y-108539607D01*
X172055134Y-108515134D01*
X172240706Y-108289014D01*
X172277595Y-108220000D01*
X178502678Y-108220000D01*
X178540000Y-108223676D01*
X178577322Y-108220000D01*
X178577333Y-108220000D01*
X178688986Y-108209003D01*
X178832247Y-108165546D01*
X178964276Y-108094974D01*
X179080001Y-108000001D01*
X179103804Y-107970997D01*
X180611003Y-106463799D01*
X180640001Y-106440001D01*
X180668836Y-106404866D01*
X180734974Y-106324277D01*
X180805546Y-106192247D01*
X180826164Y-106124276D01*
X180849003Y-106048985D01*
X180860000Y-105937332D01*
X180860000Y-105937324D01*
X180863676Y-105900001D01*
X180860000Y-105862678D01*
X180860000Y-86775000D01*
X185606928Y-86775000D01*
X185619188Y-86899482D01*
X185655498Y-87019180D01*
X185714463Y-87129494D01*
X185793815Y-87226185D01*
X185890506Y-87305537D01*
X186000820Y-87364502D01*
X186120518Y-87400812D01*
X186245000Y-87413072D01*
X187259250Y-87410000D01*
X187418000Y-87251250D01*
X187418000Y-85602000D01*
X187672000Y-85602000D01*
X187672000Y-87251250D01*
X187830750Y-87410000D01*
X188845000Y-87413072D01*
X188969482Y-87400812D01*
X189089180Y-87364502D01*
X189199494Y-87305537D01*
X189296185Y-87226185D01*
X189375537Y-87129494D01*
X189434502Y-87019180D01*
X189470812Y-86899482D01*
X189483072Y-86775000D01*
X189480000Y-85760750D01*
X189321250Y-85602000D01*
X187672000Y-85602000D01*
X187418000Y-85602000D01*
X185768750Y-85602000D01*
X185610000Y-85760750D01*
X185606928Y-86775000D01*
X180860000Y-86775000D01*
X180860000Y-84175000D01*
X185606928Y-84175000D01*
X185610000Y-85189250D01*
X185768750Y-85348000D01*
X187418000Y-85348000D01*
X187418000Y-83698750D01*
X187672000Y-83698750D01*
X187672000Y-85348000D01*
X189321250Y-85348000D01*
X189384831Y-85284419D01*
X190610000Y-85284419D01*
X190610000Y-85665581D01*
X190684361Y-86039419D01*
X190830225Y-86391566D01*
X191041987Y-86708491D01*
X191311509Y-86978013D01*
X191628434Y-87189775D01*
X191980581Y-87335639D01*
X192354419Y-87410000D01*
X192735581Y-87410000D01*
X193109419Y-87335639D01*
X193461566Y-87189775D01*
X193778491Y-86978013D01*
X193981504Y-86775000D01*
X197561928Y-86775000D01*
X197574188Y-86899482D01*
X197610498Y-87019180D01*
X197669463Y-87129494D01*
X197748815Y-87226185D01*
X197845506Y-87305537D01*
X197955820Y-87364502D01*
X198075518Y-87400812D01*
X198200000Y-87413072D01*
X199214250Y-87410000D01*
X199373000Y-87251250D01*
X199373000Y-85602000D01*
X199627000Y-85602000D01*
X199627000Y-87251250D01*
X199785750Y-87410000D01*
X200800000Y-87413072D01*
X200924482Y-87400812D01*
X201044180Y-87364502D01*
X201154494Y-87305537D01*
X201251185Y-87226185D01*
X201330537Y-87129494D01*
X201389502Y-87019180D01*
X201425812Y-86899482D01*
X201438072Y-86775000D01*
X201435000Y-85760750D01*
X201276250Y-85602000D01*
X199627000Y-85602000D01*
X199373000Y-85602000D01*
X197723750Y-85602000D01*
X197565000Y-85760750D01*
X197561928Y-86775000D01*
X193981504Y-86775000D01*
X194048013Y-86708491D01*
X194259775Y-86391566D01*
X194405639Y-86039419D01*
X194480000Y-85665581D01*
X194480000Y-85284419D01*
X194405639Y-84910581D01*
X194259775Y-84558434D01*
X194048013Y-84241509D01*
X193981504Y-84175000D01*
X197561928Y-84175000D01*
X197565000Y-85189250D01*
X197723750Y-85348000D01*
X199373000Y-85348000D01*
X199373000Y-83698750D01*
X199627000Y-83698750D01*
X199627000Y-85348000D01*
X201276250Y-85348000D01*
X201339831Y-85284419D01*
X202565000Y-85284419D01*
X202565000Y-85665581D01*
X202639361Y-86039419D01*
X202785225Y-86391566D01*
X202996987Y-86708491D01*
X203266509Y-86978013D01*
X203583434Y-87189775D01*
X203935581Y-87335639D01*
X204309419Y-87410000D01*
X204690581Y-87410000D01*
X205064419Y-87335639D01*
X205416566Y-87189775D01*
X205733491Y-86978013D01*
X206003013Y-86708491D01*
X206214775Y-86391566D01*
X206360639Y-86039419D01*
X206435000Y-85665581D01*
X206435000Y-85284419D01*
X206360639Y-84910581D01*
X206214775Y-84558434D01*
X206003013Y-84241509D01*
X205733491Y-83971987D01*
X205416566Y-83760225D01*
X205064419Y-83614361D01*
X204690581Y-83540000D01*
X204309419Y-83540000D01*
X203935581Y-83614361D01*
X203583434Y-83760225D01*
X203266509Y-83971987D01*
X202996987Y-84241509D01*
X202785225Y-84558434D01*
X202639361Y-84910581D01*
X202565000Y-85284419D01*
X201339831Y-85284419D01*
X201435000Y-85189250D01*
X201438072Y-84175000D01*
X201425812Y-84050518D01*
X201389502Y-83930820D01*
X201330537Y-83820506D01*
X201251185Y-83723815D01*
X201154494Y-83644463D01*
X201044180Y-83585498D01*
X200924482Y-83549188D01*
X200800000Y-83536928D01*
X199785750Y-83540000D01*
X199627000Y-83698750D01*
X199373000Y-83698750D01*
X199214250Y-83540000D01*
X198200000Y-83536928D01*
X198075518Y-83549188D01*
X197955820Y-83585498D01*
X197845506Y-83644463D01*
X197748815Y-83723815D01*
X197669463Y-83820506D01*
X197610498Y-83930820D01*
X197574188Y-84050518D01*
X197561928Y-84175000D01*
X193981504Y-84175000D01*
X193778491Y-83971987D01*
X193461566Y-83760225D01*
X193109419Y-83614361D01*
X192735581Y-83540000D01*
X192354419Y-83540000D01*
X191980581Y-83614361D01*
X191628434Y-83760225D01*
X191311509Y-83971987D01*
X191041987Y-84241509D01*
X190830225Y-84558434D01*
X190684361Y-84910581D01*
X190610000Y-85284419D01*
X189384831Y-85284419D01*
X189480000Y-85189250D01*
X189483072Y-84175000D01*
X189470812Y-84050518D01*
X189434502Y-83930820D01*
X189375537Y-83820506D01*
X189296185Y-83723815D01*
X189199494Y-83644463D01*
X189089180Y-83585498D01*
X188969482Y-83549188D01*
X188845000Y-83536928D01*
X187830750Y-83540000D01*
X187672000Y-83698750D01*
X187418000Y-83698750D01*
X187259250Y-83540000D01*
X186245000Y-83536928D01*
X186120518Y-83549188D01*
X186000820Y-83585498D01*
X185890506Y-83644463D01*
X185793815Y-83723815D01*
X185714463Y-83820506D01*
X185655498Y-83930820D01*
X185619188Y-84050518D01*
X185606928Y-84175000D01*
X180860000Y-84175000D01*
X180860000Y-84014801D01*
X182014802Y-82860000D01*
X200439048Y-82860000D01*
X200476370Y-82863676D01*
X200513692Y-82860000D01*
X200513703Y-82860000D01*
X200625356Y-82849003D01*
X200768617Y-82805546D01*
X200900646Y-82734974D01*
X201016371Y-82640001D01*
X201040174Y-82610997D01*
X205216003Y-78435169D01*
X205245001Y-78411371D01*
X205321074Y-78318676D01*
X205339974Y-78295647D01*
X205410546Y-78163617D01*
X205429008Y-78102754D01*
X205454003Y-78020356D01*
X205459573Y-77963802D01*
X205506101Y-77938932D01*
X205724608Y-77759608D01*
X205903932Y-77541101D01*
X205975000Y-77408142D01*
X206046068Y-77541101D01*
X206225392Y-77759608D01*
X206443899Y-77938932D01*
X206693192Y-78072182D01*
X206963691Y-78154236D01*
X207174508Y-78175000D01*
X207315492Y-78175000D01*
X207526309Y-78154236D01*
X207796808Y-78072182D01*
X208046101Y-77938932D01*
X208264608Y-77759608D01*
X208443932Y-77541101D01*
X208577182Y-77291808D01*
X208659236Y-77021309D01*
X208686943Y-76740000D01*
X208659236Y-76458691D01*
X208577182Y-76188192D01*
X208443932Y-75938899D01*
X208264608Y-75720392D01*
X208046101Y-75541068D01*
X207796808Y-75407818D01*
X207526309Y-75325764D01*
X207315492Y-75305000D01*
X207174508Y-75305000D01*
X206963691Y-75325764D01*
X206693192Y-75407818D01*
X206443899Y-75541068D01*
X206225392Y-75720392D01*
X206046068Y-75938899D01*
X205975000Y-76071858D01*
X205903932Y-75938899D01*
X205724608Y-75720392D01*
X205506101Y-75541068D01*
X205256808Y-75407818D01*
X204986309Y-75325764D01*
X204775492Y-75305000D01*
X204634508Y-75305000D01*
X204423691Y-75325764D01*
X204153192Y-75407818D01*
X203903899Y-75541068D01*
X203685392Y-75720392D01*
X203506068Y-75938899D01*
X203435000Y-76071858D01*
X203363932Y-75938899D01*
X203184608Y-75720392D01*
X202966101Y-75541068D01*
X202716808Y-75407818D01*
X202446309Y-75325764D01*
X202235492Y-75305000D01*
X202094508Y-75305000D01*
X201883691Y-75325764D01*
X201613192Y-75407818D01*
X201363899Y-75541068D01*
X201145392Y-75720392D01*
X200966068Y-75938899D01*
X200895000Y-76071858D01*
X200823932Y-75938899D01*
X200644608Y-75720392D01*
X200426101Y-75541068D01*
X200176808Y-75407818D01*
X199906309Y-75325764D01*
X199695492Y-75305000D01*
X199554508Y-75305000D01*
X199343691Y-75325764D01*
X199073192Y-75407818D01*
X198823899Y-75541068D01*
X198605392Y-75720392D01*
X198426068Y-75938899D01*
X198355000Y-76071858D01*
X198283932Y-75938899D01*
X198104608Y-75720392D01*
X197886101Y-75541068D01*
X197839573Y-75516198D01*
X197834003Y-75459644D01*
X197790546Y-75316383D01*
X197777086Y-75291201D01*
X197719974Y-75184353D01*
X197648799Y-75097627D01*
X197625001Y-75068629D01*
X197596003Y-75044831D01*
X194140174Y-71589003D01*
X194116371Y-71559999D01*
X194000646Y-71465026D01*
X193868617Y-71394454D01*
X193725356Y-71350997D01*
X193613703Y-71340000D01*
X193613692Y-71340000D01*
X193576370Y-71336324D01*
X193539048Y-71340000D01*
X104687323Y-71340000D01*
X104650000Y-71336324D01*
X104612677Y-71340000D01*
X104612667Y-71340000D01*
X104501014Y-71350997D01*
X104357753Y-71394454D01*
X104225724Y-71465026D01*
X104109999Y-71559999D01*
X104086201Y-71588997D01*
X100220986Y-75454213D01*
X100064419Y-75389361D01*
X99690581Y-75315000D01*
X99309419Y-75315000D01*
X98935581Y-75389361D01*
X98583434Y-75535225D01*
X98266509Y-75746987D01*
X97996987Y-76016509D01*
X97785225Y-76333434D01*
X97639361Y-76685581D01*
X97565000Y-77059419D01*
X97565000Y-77440581D01*
X97639361Y-77814419D01*
X97785225Y-78166566D01*
X97996987Y-78483491D01*
X98266509Y-78753013D01*
X98583434Y-78964775D01*
X98935581Y-79110639D01*
X99309419Y-79185000D01*
X99690581Y-79185000D01*
X100064419Y-79110639D01*
X100416566Y-78964775D01*
X100733491Y-78753013D01*
X101003013Y-78483491D01*
X101214775Y-78166566D01*
X101360639Y-77814419D01*
X101435000Y-77440581D01*
X101435000Y-77059419D01*
X101360639Y-76685581D01*
X101295787Y-76529014D01*
X103542393Y-74282408D01*
X111193000Y-74282408D01*
X111193000Y-74557592D01*
X111246686Y-74827490D01*
X111351995Y-75081727D01*
X111504880Y-75310535D01*
X111699465Y-75505120D01*
X111928273Y-75658005D01*
X112182510Y-75763314D01*
X112452408Y-75817000D01*
X112727592Y-75817000D01*
X112997490Y-75763314D01*
X113251727Y-75658005D01*
X113480535Y-75505120D01*
X113675120Y-75310535D01*
X113828005Y-75081727D01*
X113933314Y-74827490D01*
X113987000Y-74557592D01*
X113987000Y-74282408D01*
X113933314Y-74012510D01*
X113828005Y-73758273D01*
X113675120Y-73529465D01*
X113480535Y-73334880D01*
X113251727Y-73181995D01*
X112997490Y-73076686D01*
X112727592Y-73023000D01*
X112452408Y-73023000D01*
X112182510Y-73076686D01*
X111928273Y-73181995D01*
X111699465Y-73334880D01*
X111504880Y-73529465D01*
X111351995Y-73758273D01*
X111246686Y-74012510D01*
X111193000Y-74282408D01*
X103542393Y-74282408D01*
X104964802Y-72860000D01*
X193261569Y-72860000D01*
X196096462Y-75694894D01*
X196065392Y-75720392D01*
X195886068Y-75938899D01*
X195815000Y-76071858D01*
X195743932Y-75938899D01*
X195564608Y-75720392D01*
X195346101Y-75541068D01*
X195096808Y-75407818D01*
X194826309Y-75325764D01*
X194615492Y-75305000D01*
X194474508Y-75305000D01*
X194263691Y-75325764D01*
X193993192Y-75407818D01*
X193743899Y-75541068D01*
X193525392Y-75720392D01*
X193346068Y-75938899D01*
X193275000Y-76071858D01*
X193203932Y-75938899D01*
X193024608Y-75720392D01*
X192806101Y-75541068D01*
X192556808Y-75407818D01*
X192286309Y-75325764D01*
X192075492Y-75305000D01*
X191934508Y-75305000D01*
X191723691Y-75325764D01*
X191453192Y-75407818D01*
X191203899Y-75541068D01*
X190985392Y-75720392D01*
X190806068Y-75938899D01*
X190735000Y-76071858D01*
X190663932Y-75938899D01*
X190484608Y-75720392D01*
X190266101Y-75541068D01*
X190016808Y-75407818D01*
X189746309Y-75325764D01*
X189535492Y-75305000D01*
X189394508Y-75305000D01*
X189183691Y-75325764D01*
X188913192Y-75407818D01*
X188663899Y-75541068D01*
X188445392Y-75720392D01*
X188266068Y-75938899D01*
X188195000Y-76071858D01*
X188123932Y-75938899D01*
X187944608Y-75720392D01*
X187726101Y-75541068D01*
X187476808Y-75407818D01*
X187206309Y-75325764D01*
X186995492Y-75305000D01*
X186854508Y-75305000D01*
X186643691Y-75325764D01*
X186373192Y-75407818D01*
X186123899Y-75541068D01*
X185905392Y-75720392D01*
X185726068Y-75938899D01*
X185655000Y-76071858D01*
X185583932Y-75938899D01*
X185404608Y-75720392D01*
X185186101Y-75541068D01*
X184936808Y-75407818D01*
X184666309Y-75325764D01*
X184455492Y-75305000D01*
X184314508Y-75305000D01*
X184103691Y-75325764D01*
X183833192Y-75407818D01*
X183583899Y-75541068D01*
X183365392Y-75720392D01*
X183186068Y-75938899D01*
X183052818Y-76188192D01*
X182970764Y-76458691D01*
X182943057Y-76740000D01*
X182970764Y-77021309D01*
X183052818Y-77291808D01*
X183186068Y-77541101D01*
X183365392Y-77759608D01*
X183583899Y-77938932D01*
X183833192Y-78072182D01*
X184103691Y-78154236D01*
X184314508Y-78175000D01*
X184455492Y-78175000D01*
X184666309Y-78154236D01*
X184936808Y-78072182D01*
X185186101Y-77938932D01*
X185404608Y-77759608D01*
X185583932Y-77541101D01*
X185655000Y-77408142D01*
X185726068Y-77541101D01*
X185905392Y-77759608D01*
X186123899Y-77938932D01*
X186373192Y-78072182D01*
X186643691Y-78154236D01*
X186854508Y-78175000D01*
X186995492Y-78175000D01*
X187206309Y-78154236D01*
X187476808Y-78072182D01*
X187726101Y-77938932D01*
X187944608Y-77759608D01*
X188123932Y-77541101D01*
X188195000Y-77408142D01*
X188266068Y-77541101D01*
X188445392Y-77759608D01*
X188663899Y-77938932D01*
X188913192Y-78072182D01*
X189183691Y-78154236D01*
X189394508Y-78175000D01*
X189535492Y-78175000D01*
X189746309Y-78154236D01*
X190016808Y-78072182D01*
X190266101Y-77938932D01*
X190484608Y-77759608D01*
X190663932Y-77541101D01*
X190735000Y-77408142D01*
X190806068Y-77541101D01*
X190985392Y-77759608D01*
X191203899Y-77938932D01*
X191453192Y-78072182D01*
X191723691Y-78154236D01*
X191934508Y-78175000D01*
X192075492Y-78175000D01*
X192286309Y-78154236D01*
X192556808Y-78072182D01*
X192806101Y-77938932D01*
X193024608Y-77759608D01*
X193203932Y-77541101D01*
X193275000Y-77408142D01*
X193346068Y-77541101D01*
X193525392Y-77759608D01*
X193556462Y-77785106D01*
X192801569Y-78540000D01*
X171137323Y-78540000D01*
X171100000Y-78536324D01*
X171062677Y-78540000D01*
X171062667Y-78540000D01*
X170951014Y-78550997D01*
X170807753Y-78594454D01*
X170675723Y-78665026D01*
X170592083Y-78733668D01*
X170559999Y-78759999D01*
X170536201Y-78788997D01*
X167789003Y-81536196D01*
X167759999Y-81559999D01*
X167731723Y-81594454D01*
X167665026Y-81675724D01*
X167653065Y-81698102D01*
X167594454Y-81807754D01*
X167550997Y-81951015D01*
X167540000Y-82062668D01*
X167540000Y-82062678D01*
X167536324Y-82100000D01*
X167540000Y-82137322D01*
X167540001Y-115996288D01*
X167496063Y-116040226D01*
X167382795Y-116209744D01*
X167304774Y-116398102D01*
X167265000Y-116598061D01*
X167265000Y-116801939D01*
X167304774Y-117001898D01*
X167382795Y-117190256D01*
X167416033Y-117240000D01*
X123887323Y-117240000D01*
X123850000Y-117236324D01*
X123812677Y-117240000D01*
X123812667Y-117240000D01*
X123701014Y-117250997D01*
X123557753Y-117294454D01*
X123425724Y-117365026D01*
X123309999Y-117459999D01*
X123286201Y-117488997D01*
X119420986Y-121354213D01*
X119264419Y-121289361D01*
X118890581Y-121215000D01*
X118509419Y-121215000D01*
X118135581Y-121289361D01*
X117783434Y-121435225D01*
X117466509Y-121646987D01*
X117196987Y-121916509D01*
X116985225Y-122233434D01*
X116839361Y-122585581D01*
X116765000Y-122959419D01*
X116765000Y-123340581D01*
X116839361Y-123714419D01*
X116985225Y-124066566D01*
X117196987Y-124383491D01*
X117466509Y-124653013D01*
X117783434Y-124864775D01*
X118135581Y-125010639D01*
X118509419Y-125085000D01*
X118890581Y-125085000D01*
X119264419Y-125010639D01*
X119616566Y-124864775D01*
X119933491Y-124653013D01*
X120203013Y-124383491D01*
X120414775Y-124066566D01*
X120560639Y-123714419D01*
X120635000Y-123340581D01*
X120635000Y-122959419D01*
X121765000Y-122959419D01*
X121765000Y-123340581D01*
X121839361Y-123714419D01*
X121985225Y-124066566D01*
X122196987Y-124383491D01*
X122466509Y-124653013D01*
X122783434Y-124864775D01*
X123135581Y-125010639D01*
X123509419Y-125085000D01*
X123890581Y-125085000D01*
X124264419Y-125010639D01*
X124616566Y-124864775D01*
X124933491Y-124653013D01*
X125203013Y-124383491D01*
X125414775Y-124066566D01*
X125560639Y-123714419D01*
X125635000Y-123340581D01*
X125635000Y-122959419D01*
X125560639Y-122585581D01*
X125414775Y-122233434D01*
X125203013Y-121916509D01*
X125136504Y-121850000D01*
X126761928Y-121850000D01*
X126761928Y-124450000D01*
X126774188Y-124574482D01*
X126810498Y-124694180D01*
X126869463Y-124804494D01*
X126948815Y-124901185D01*
X127045506Y-124980537D01*
X127155820Y-125039502D01*
X127275518Y-125075812D01*
X127400000Y-125088072D01*
X130000000Y-125088072D01*
X130124482Y-125075812D01*
X130244180Y-125039502D01*
X130354494Y-124980537D01*
X130451185Y-124901185D01*
X130530537Y-124804494D01*
X130589502Y-124694180D01*
X130625812Y-124574482D01*
X130638072Y-124450000D01*
X130638072Y-121850000D01*
X130625812Y-121725518D01*
X130589502Y-121605820D01*
X130530537Y-121495506D01*
X130451185Y-121398815D01*
X130354494Y-121319463D01*
X130244180Y-121260498D01*
X130124482Y-121224188D01*
X130000000Y-121211928D01*
X127400000Y-121211928D01*
X127275518Y-121224188D01*
X127155820Y-121260498D01*
X127045506Y-121319463D01*
X126948815Y-121398815D01*
X126869463Y-121495506D01*
X126810498Y-121605820D01*
X126774188Y-121725518D01*
X126761928Y-121850000D01*
X125136504Y-121850000D01*
X124933491Y-121646987D01*
X124616566Y-121435225D01*
X124264419Y-121289361D01*
X123890581Y-121215000D01*
X123509419Y-121215000D01*
X123135581Y-121289361D01*
X122783434Y-121435225D01*
X122466509Y-121646987D01*
X122196987Y-121916509D01*
X121985225Y-122233434D01*
X121839361Y-122585581D01*
X121765000Y-122959419D01*
X120635000Y-122959419D01*
X120560639Y-122585581D01*
X120495787Y-122429014D01*
X124164802Y-118760000D01*
X138720198Y-118760000D01*
X136120986Y-121359213D01*
X135964419Y-121294361D01*
X135590581Y-121220000D01*
X135209419Y-121220000D01*
X134835581Y-121294361D01*
X134483434Y-121440225D01*
X134166509Y-121651987D01*
X133896987Y-121921509D01*
X133685225Y-122238434D01*
X133539361Y-122590581D01*
X133465000Y-122964419D01*
X133465000Y-123345581D01*
X133539361Y-123719419D01*
X133685225Y-124071566D01*
X133896987Y-124388491D01*
X134166509Y-124658013D01*
X134483434Y-124869775D01*
X134835581Y-125015639D01*
X135209419Y-125090000D01*
X135590581Y-125090000D01*
X135964419Y-125015639D01*
X136316566Y-124869775D01*
X136633491Y-124658013D01*
X136903013Y-124388491D01*
X137114775Y-124071566D01*
X137260639Y-123719419D01*
X137335000Y-123345581D01*
X137335000Y-122964419D01*
X137260639Y-122590581D01*
X137195787Y-122434014D01*
X137774801Y-121855000D01*
X138461928Y-121855000D01*
X138461928Y-124455000D01*
X138474188Y-124579482D01*
X138510498Y-124699180D01*
X138569463Y-124809494D01*
X138648815Y-124906185D01*
X138745506Y-124985537D01*
X138855820Y-125044502D01*
X138975518Y-125080812D01*
X139100000Y-125093072D01*
X141700000Y-125093072D01*
X141824482Y-125080812D01*
X141944180Y-125044502D01*
X142054494Y-124985537D01*
X142151185Y-124906185D01*
X142230537Y-124809494D01*
X142289502Y-124699180D01*
X142325812Y-124579482D01*
X142338072Y-124455000D01*
X142338072Y-123009419D01*
X144765000Y-123009419D01*
X144765000Y-123390581D01*
X144839361Y-123764419D01*
X144985225Y-124116566D01*
X145196987Y-124433491D01*
X145466509Y-124703013D01*
X145783434Y-124914775D01*
X146135581Y-125060639D01*
X146509419Y-125135000D01*
X146890581Y-125135000D01*
X147264419Y-125060639D01*
X147616566Y-124914775D01*
X147933491Y-124703013D01*
X148087280Y-124549224D01*
X150530381Y-124549224D01*
X150662317Y-124844312D01*
X151003045Y-125015159D01*
X151370557Y-125116250D01*
X151750729Y-125143701D01*
X152128951Y-125096457D01*
X152490690Y-124976333D01*
X152737683Y-124844312D01*
X152869619Y-124549224D01*
X151700000Y-123379605D01*
X150530381Y-124549224D01*
X148087280Y-124549224D01*
X148203013Y-124433491D01*
X148414775Y-124116566D01*
X148560639Y-123764419D01*
X148635000Y-123390581D01*
X148635000Y-123250729D01*
X149756299Y-123250729D01*
X149803543Y-123628951D01*
X149923667Y-123990690D01*
X150055688Y-124237683D01*
X150350776Y-124369619D01*
X151520395Y-123200000D01*
X151879605Y-123200000D01*
X153049224Y-124369619D01*
X153344312Y-124237683D01*
X153515159Y-123896955D01*
X153616250Y-123529443D01*
X153643701Y-123149271D01*
X153596457Y-122771049D01*
X153476333Y-122409310D01*
X153344312Y-122162317D01*
X153049224Y-122030381D01*
X151879605Y-123200000D01*
X151520395Y-123200000D01*
X150350776Y-122030381D01*
X150055688Y-122162317D01*
X149884841Y-122503045D01*
X149783750Y-122870557D01*
X149756299Y-123250729D01*
X148635000Y-123250729D01*
X148635000Y-123009419D01*
X148560639Y-122635581D01*
X148414775Y-122283434D01*
X148203013Y-121966509D01*
X148087280Y-121850776D01*
X150530381Y-121850776D01*
X151700000Y-123020395D01*
X152820395Y-121900000D01*
X154761928Y-121900000D01*
X154761928Y-124500000D01*
X154774188Y-124624482D01*
X154810498Y-124744180D01*
X154869463Y-124854494D01*
X154948815Y-124951185D01*
X155045506Y-125030537D01*
X155155820Y-125089502D01*
X155275518Y-125125812D01*
X155400000Y-125138072D01*
X158000000Y-125138072D01*
X158124482Y-125125812D01*
X158244180Y-125089502D01*
X158354494Y-125030537D01*
X158451185Y-124951185D01*
X158530537Y-124854494D01*
X158589502Y-124744180D01*
X158625812Y-124624482D01*
X158638072Y-124500000D01*
X158638072Y-124200000D01*
X192086928Y-124200000D01*
X192086928Y-125800000D01*
X192099188Y-125924482D01*
X192135498Y-126044180D01*
X192194463Y-126154494D01*
X192273815Y-126251185D01*
X192370506Y-126330537D01*
X192480820Y-126389502D01*
X192600518Y-126425812D01*
X192725000Y-126438072D01*
X194325000Y-126438072D01*
X194449482Y-126425812D01*
X194569180Y-126389502D01*
X194679494Y-126330537D01*
X194776185Y-126251185D01*
X194855537Y-126154494D01*
X194914502Y-126044180D01*
X194950812Y-125924482D01*
X194952581Y-125906518D01*
X195045392Y-126019608D01*
X195263899Y-126198932D01*
X195513192Y-126332182D01*
X195783691Y-126414236D01*
X195994508Y-126435000D01*
X196135492Y-126435000D01*
X196346309Y-126414236D01*
X196616808Y-126332182D01*
X196866101Y-126198932D01*
X197084608Y-126019608D01*
X197263932Y-125801101D01*
X197335000Y-125668142D01*
X197406068Y-125801101D01*
X197585392Y-126019608D01*
X197803899Y-126198932D01*
X198053192Y-126332182D01*
X198323691Y-126414236D01*
X198534508Y-126435000D01*
X198675492Y-126435000D01*
X198886309Y-126414236D01*
X199156808Y-126332182D01*
X199406101Y-126198932D01*
X199624608Y-126019608D01*
X199803932Y-125801101D01*
X199875000Y-125668142D01*
X199946068Y-125801101D01*
X200125392Y-126019608D01*
X200343899Y-126198932D01*
X200593192Y-126332182D01*
X200863691Y-126414236D01*
X201074508Y-126435000D01*
X201215492Y-126435000D01*
X201426309Y-126414236D01*
X201696808Y-126332182D01*
X201946101Y-126198932D01*
X202164608Y-126019608D01*
X202343932Y-125801101D01*
X202415000Y-125668142D01*
X202486068Y-125801101D01*
X202665392Y-126019608D01*
X202883899Y-126198932D01*
X203133192Y-126332182D01*
X203403691Y-126414236D01*
X203614508Y-126435000D01*
X203755492Y-126435000D01*
X203966309Y-126414236D01*
X204236808Y-126332182D01*
X204486101Y-126198932D01*
X204704608Y-126019608D01*
X204883932Y-125801101D01*
X204955000Y-125668142D01*
X205026068Y-125801101D01*
X205205392Y-126019608D01*
X205423899Y-126198932D01*
X205673192Y-126332182D01*
X205943691Y-126414236D01*
X206154508Y-126435000D01*
X206295492Y-126435000D01*
X206506309Y-126414236D01*
X206776808Y-126332182D01*
X207026101Y-126198932D01*
X207244608Y-126019608D01*
X207423932Y-125801101D01*
X207497579Y-125663318D01*
X207612615Y-125855131D01*
X207801586Y-126063519D01*
X208027580Y-126231037D01*
X208281913Y-126351246D01*
X208415961Y-126391904D01*
X208638000Y-126269915D01*
X208638000Y-125127000D01*
X208618000Y-125127000D01*
X208618000Y-124873000D01*
X208638000Y-124873000D01*
X208638000Y-123730085D01*
X208892000Y-123730085D01*
X208892000Y-124873000D01*
X208912000Y-124873000D01*
X208912000Y-125127000D01*
X208892000Y-125127000D01*
X208892000Y-126269915D01*
X209114039Y-126391904D01*
X209248087Y-126351246D01*
X209502420Y-126231037D01*
X209728414Y-126063519D01*
X209917385Y-125855131D01*
X210032421Y-125663318D01*
X210106068Y-125801101D01*
X210285392Y-126019608D01*
X210503899Y-126198932D01*
X210753192Y-126332182D01*
X211023691Y-126414236D01*
X211234508Y-126435000D01*
X211375492Y-126435000D01*
X211586309Y-126414236D01*
X211856808Y-126332182D01*
X212106101Y-126198932D01*
X212324608Y-126019608D01*
X212503932Y-125801101D01*
X212637182Y-125551808D01*
X212719236Y-125281309D01*
X212746943Y-125000000D01*
X212719236Y-124718691D01*
X212637182Y-124448192D01*
X212503932Y-124198899D01*
X212324608Y-123980392D01*
X212106101Y-123801068D01*
X211856808Y-123667818D01*
X211586309Y-123585764D01*
X211375492Y-123565000D01*
X211234508Y-123565000D01*
X211023691Y-123585764D01*
X210753192Y-123667818D01*
X210503899Y-123801068D01*
X210285392Y-123980392D01*
X210106068Y-124198899D01*
X210032421Y-124336682D01*
X209917385Y-124144869D01*
X209728414Y-123936481D01*
X209502420Y-123768963D01*
X209248087Y-123648754D01*
X209114039Y-123608096D01*
X208892000Y-123730085D01*
X208638000Y-123730085D01*
X208415961Y-123608096D01*
X208281913Y-123648754D01*
X208027580Y-123768963D01*
X207801586Y-123936481D01*
X207612615Y-124144869D01*
X207497579Y-124336682D01*
X207423932Y-124198899D01*
X207244608Y-123980392D01*
X207026101Y-123801068D01*
X206776808Y-123667818D01*
X206506309Y-123585764D01*
X206295492Y-123565000D01*
X206154508Y-123565000D01*
X205943691Y-123585764D01*
X205673192Y-123667818D01*
X205423899Y-123801068D01*
X205205392Y-123980392D01*
X205026068Y-124198899D01*
X204955000Y-124331858D01*
X204883932Y-124198899D01*
X204704608Y-123980392D01*
X204486101Y-123801068D01*
X204236808Y-123667818D01*
X203966309Y-123585764D01*
X203755492Y-123565000D01*
X203614508Y-123565000D01*
X203403691Y-123585764D01*
X203133192Y-123667818D01*
X202883899Y-123801068D01*
X202665392Y-123980392D01*
X202486068Y-124198899D01*
X202415000Y-124331858D01*
X202343932Y-124198899D01*
X202164608Y-123980392D01*
X201946101Y-123801068D01*
X201696808Y-123667818D01*
X201426309Y-123585764D01*
X201215492Y-123565000D01*
X201074508Y-123565000D01*
X200863691Y-123585764D01*
X200593192Y-123667818D01*
X200343899Y-123801068D01*
X200125392Y-123980392D01*
X199946068Y-124198899D01*
X199875000Y-124331858D01*
X199803932Y-124198899D01*
X199624608Y-123980392D01*
X199406101Y-123801068D01*
X199156808Y-123667818D01*
X198886309Y-123585764D01*
X198675492Y-123565000D01*
X198534508Y-123565000D01*
X198323691Y-123585764D01*
X198053192Y-123667818D01*
X197803899Y-123801068D01*
X197585392Y-123980392D01*
X197406068Y-124198899D01*
X197335000Y-124331858D01*
X197263932Y-124198899D01*
X197084608Y-123980392D01*
X196866101Y-123801068D01*
X196616808Y-123667818D01*
X196346309Y-123585764D01*
X196135492Y-123565000D01*
X195994508Y-123565000D01*
X195783691Y-123585764D01*
X195513192Y-123667818D01*
X195263899Y-123801068D01*
X195045392Y-123980392D01*
X194952581Y-124093482D01*
X194950812Y-124075518D01*
X194914502Y-123955820D01*
X194855537Y-123845506D01*
X194776185Y-123748815D01*
X194679494Y-123669463D01*
X194569180Y-123610498D01*
X194449482Y-123574188D01*
X194325000Y-123561928D01*
X192725000Y-123561928D01*
X192600518Y-123574188D01*
X192480820Y-123610498D01*
X192370506Y-123669463D01*
X192273815Y-123748815D01*
X192194463Y-123845506D01*
X192135498Y-123955820D01*
X192099188Y-124075518D01*
X192086928Y-124200000D01*
X158638072Y-124200000D01*
X158638072Y-121900000D01*
X158625812Y-121775518D01*
X158589502Y-121655820D01*
X158530537Y-121545506D01*
X158451185Y-121448815D01*
X158354494Y-121369463D01*
X158244180Y-121310498D01*
X158124482Y-121274188D01*
X158000000Y-121261928D01*
X155400000Y-121261928D01*
X155275518Y-121274188D01*
X155155820Y-121310498D01*
X155045506Y-121369463D01*
X154948815Y-121448815D01*
X154869463Y-121545506D01*
X154810498Y-121655820D01*
X154774188Y-121775518D01*
X154761928Y-121900000D01*
X152820395Y-121900000D01*
X152869619Y-121850776D01*
X152737683Y-121555688D01*
X152396955Y-121384841D01*
X152029443Y-121283750D01*
X151649271Y-121256299D01*
X151271049Y-121303543D01*
X150909310Y-121423667D01*
X150662317Y-121555688D01*
X150530381Y-121850776D01*
X148087280Y-121850776D01*
X147933491Y-121696987D01*
X147616566Y-121485225D01*
X147264419Y-121339361D01*
X146890581Y-121265000D01*
X146509419Y-121265000D01*
X146135581Y-121339361D01*
X145783434Y-121485225D01*
X145466509Y-121696987D01*
X145196987Y-121966509D01*
X144985225Y-122283434D01*
X144839361Y-122635581D01*
X144765000Y-123009419D01*
X142338072Y-123009419D01*
X142338072Y-121855000D01*
X142325812Y-121730518D01*
X142289502Y-121610820D01*
X142230537Y-121500506D01*
X142151185Y-121403815D01*
X142054494Y-121324463D01*
X141944180Y-121265498D01*
X141824482Y-121229188D01*
X141700000Y-121216928D01*
X139100000Y-121216928D01*
X138975518Y-121229188D01*
X138855820Y-121265498D01*
X138745506Y-121324463D01*
X138648815Y-121403815D01*
X138569463Y-121500506D01*
X138510498Y-121610820D01*
X138474188Y-121730518D01*
X138461928Y-121855000D01*
X137774801Y-121855000D01*
X139619802Y-120010000D01*
X178712678Y-120010000D01*
X178750000Y-120013676D01*
X178787322Y-120010000D01*
X178787333Y-120010000D01*
X178898986Y-119999003D01*
X179042247Y-119955546D01*
X179174276Y-119884974D01*
X179290001Y-119790001D01*
X179313804Y-119760997D01*
X181590382Y-117484419D01*
X201115000Y-117484419D01*
X201115000Y-117865581D01*
X201189361Y-118239419D01*
X201335225Y-118591566D01*
X201546987Y-118908491D01*
X201816509Y-119178013D01*
X202133434Y-119389775D01*
X202485581Y-119535639D01*
X202859419Y-119610000D01*
X203240581Y-119610000D01*
X203614419Y-119535639D01*
X203966566Y-119389775D01*
X204283491Y-119178013D01*
X204553013Y-118908491D01*
X204764775Y-118591566D01*
X204910639Y-118239419D01*
X204985000Y-117865581D01*
X204985000Y-117484419D01*
X206115000Y-117484419D01*
X206115000Y-117865581D01*
X206189361Y-118239419D01*
X206335225Y-118591566D01*
X206546987Y-118908491D01*
X206816509Y-119178013D01*
X207133434Y-119389775D01*
X207485581Y-119535639D01*
X207859419Y-119610000D01*
X208240581Y-119610000D01*
X208614419Y-119535639D01*
X208966566Y-119389775D01*
X209283491Y-119178013D01*
X209486504Y-118975000D01*
X211111928Y-118975000D01*
X211124188Y-119099482D01*
X211160498Y-119219180D01*
X211219463Y-119329494D01*
X211298815Y-119426185D01*
X211395506Y-119505537D01*
X211505820Y-119564502D01*
X211625518Y-119600812D01*
X211750000Y-119613072D01*
X212764250Y-119610000D01*
X212923000Y-119451250D01*
X212923000Y-117802000D01*
X213177000Y-117802000D01*
X213177000Y-119451250D01*
X213335750Y-119610000D01*
X214350000Y-119613072D01*
X214474482Y-119600812D01*
X214594180Y-119564502D01*
X214704494Y-119505537D01*
X214801185Y-119426185D01*
X214880537Y-119329494D01*
X214939502Y-119219180D01*
X214975812Y-119099482D01*
X214988072Y-118975000D01*
X214985000Y-117960750D01*
X214826250Y-117802000D01*
X213177000Y-117802000D01*
X212923000Y-117802000D01*
X211273750Y-117802000D01*
X211115000Y-117960750D01*
X211111928Y-118975000D01*
X209486504Y-118975000D01*
X209553013Y-118908491D01*
X209764775Y-118591566D01*
X209910639Y-118239419D01*
X209985000Y-117865581D01*
X209985000Y-117484419D01*
X209910639Y-117110581D01*
X209764775Y-116758434D01*
X209553013Y-116441509D01*
X209486504Y-116375000D01*
X211111928Y-116375000D01*
X211115000Y-117389250D01*
X211273750Y-117548000D01*
X212923000Y-117548000D01*
X212923000Y-115898750D01*
X213177000Y-115898750D01*
X213177000Y-117548000D01*
X214826250Y-117548000D01*
X214889831Y-117484419D01*
X217965000Y-117484419D01*
X217965000Y-117865581D01*
X218039361Y-118239419D01*
X218185225Y-118591566D01*
X218396987Y-118908491D01*
X218666509Y-119178013D01*
X218983434Y-119389775D01*
X219335581Y-119535639D01*
X219709419Y-119610000D01*
X220090581Y-119610000D01*
X220464419Y-119535639D01*
X220816566Y-119389775D01*
X221133491Y-119178013D01*
X221287280Y-119024224D01*
X223730381Y-119024224D01*
X223862317Y-119319312D01*
X224203045Y-119490159D01*
X224570557Y-119591250D01*
X224950729Y-119618701D01*
X225328951Y-119571457D01*
X225690690Y-119451333D01*
X225937683Y-119319312D01*
X226069619Y-119024224D01*
X224900000Y-117854605D01*
X223730381Y-119024224D01*
X221287280Y-119024224D01*
X221403013Y-118908491D01*
X221614775Y-118591566D01*
X221760639Y-118239419D01*
X221835000Y-117865581D01*
X221835000Y-117725729D01*
X222956299Y-117725729D01*
X223003543Y-118103951D01*
X223123667Y-118465690D01*
X223255688Y-118712683D01*
X223550776Y-118844619D01*
X224720395Y-117675000D01*
X225079605Y-117675000D01*
X226249224Y-118844619D01*
X226544312Y-118712683D01*
X226715159Y-118371955D01*
X226816250Y-118004443D01*
X226843701Y-117624271D01*
X226796457Y-117246049D01*
X226676333Y-116884310D01*
X226544312Y-116637317D01*
X226249224Y-116505381D01*
X225079605Y-117675000D01*
X224720395Y-117675000D01*
X223550776Y-116505381D01*
X223255688Y-116637317D01*
X223084841Y-116978045D01*
X222983750Y-117345557D01*
X222956299Y-117725729D01*
X221835000Y-117725729D01*
X221835000Y-117484419D01*
X221760639Y-117110581D01*
X221614775Y-116758434D01*
X221403013Y-116441509D01*
X221287280Y-116325776D01*
X223730381Y-116325776D01*
X224900000Y-117495395D01*
X226020395Y-116375000D01*
X227961928Y-116375000D01*
X227961928Y-118975000D01*
X227974188Y-119099482D01*
X228010498Y-119219180D01*
X228069463Y-119329494D01*
X228148815Y-119426185D01*
X228245506Y-119505537D01*
X228355820Y-119564502D01*
X228475518Y-119600812D01*
X228600000Y-119613072D01*
X231200000Y-119613072D01*
X231324482Y-119600812D01*
X231444180Y-119564502D01*
X231554494Y-119505537D01*
X231651185Y-119426185D01*
X231730537Y-119329494D01*
X231789502Y-119219180D01*
X231825812Y-119099482D01*
X231838072Y-118975000D01*
X231838072Y-116375000D01*
X231825812Y-116250518D01*
X231789502Y-116130820D01*
X231730537Y-116020506D01*
X231651185Y-115923815D01*
X231554494Y-115844463D01*
X231444180Y-115785498D01*
X231324482Y-115749188D01*
X231200000Y-115736928D01*
X228600000Y-115736928D01*
X228475518Y-115749188D01*
X228355820Y-115785498D01*
X228245506Y-115844463D01*
X228148815Y-115923815D01*
X228069463Y-116020506D01*
X228010498Y-116130820D01*
X227974188Y-116250518D01*
X227961928Y-116375000D01*
X226020395Y-116375000D01*
X226069619Y-116325776D01*
X225937683Y-116030688D01*
X225596955Y-115859841D01*
X225229443Y-115758750D01*
X224849271Y-115731299D01*
X224471049Y-115778543D01*
X224109310Y-115898667D01*
X223862317Y-116030688D01*
X223730381Y-116325776D01*
X221287280Y-116325776D01*
X221133491Y-116171987D01*
X220816566Y-115960225D01*
X220464419Y-115814361D01*
X220090581Y-115740000D01*
X219709419Y-115740000D01*
X219335581Y-115814361D01*
X218983434Y-115960225D01*
X218666509Y-116171987D01*
X218396987Y-116441509D01*
X218185225Y-116758434D01*
X218039361Y-117110581D01*
X217965000Y-117484419D01*
X214889831Y-117484419D01*
X214985000Y-117389250D01*
X214988072Y-116375000D01*
X214975812Y-116250518D01*
X214939502Y-116130820D01*
X214880537Y-116020506D01*
X214801185Y-115923815D01*
X214704494Y-115844463D01*
X214594180Y-115785498D01*
X214474482Y-115749188D01*
X214350000Y-115736928D01*
X213335750Y-115740000D01*
X213177000Y-115898750D01*
X212923000Y-115898750D01*
X212764250Y-115740000D01*
X211750000Y-115736928D01*
X211625518Y-115749188D01*
X211505820Y-115785498D01*
X211395506Y-115844463D01*
X211298815Y-115923815D01*
X211219463Y-116020506D01*
X211160498Y-116130820D01*
X211124188Y-116250518D01*
X211111928Y-116375000D01*
X209486504Y-116375000D01*
X209283491Y-116171987D01*
X208966566Y-115960225D01*
X208614419Y-115814361D01*
X208240581Y-115740000D01*
X207859419Y-115740000D01*
X207485581Y-115814361D01*
X207133434Y-115960225D01*
X206816509Y-116171987D01*
X206546987Y-116441509D01*
X206335225Y-116758434D01*
X206189361Y-117110581D01*
X206115000Y-117484419D01*
X204985000Y-117484419D01*
X204910639Y-117110581D01*
X204764775Y-116758434D01*
X204553013Y-116441509D01*
X204283491Y-116171987D01*
X203966566Y-115960225D01*
X203614419Y-115814361D01*
X203240581Y-115740000D01*
X202859419Y-115740000D01*
X202485581Y-115814361D01*
X202133434Y-115960225D01*
X201816509Y-116171987D01*
X201546987Y-116441509D01*
X201335225Y-116758434D01*
X201189361Y-117110581D01*
X201115000Y-117484419D01*
X181590382Y-117484419D01*
X192017911Y-107056890D01*
X230558524Y-107056890D01*
X230603175Y-107204099D01*
X230728359Y-107466920D01*
X230902412Y-107700269D01*
X231118645Y-107895178D01*
X231368748Y-108044157D01*
X231643109Y-108141481D01*
X231873000Y-108020814D01*
X231873000Y-106827000D01*
X230679845Y-106827000D01*
X230558524Y-107056890D01*
X192017911Y-107056890D01*
X214361928Y-84712874D01*
X214361928Y-86775000D01*
X214374188Y-86899482D01*
X214410498Y-87019180D01*
X214469463Y-87129494D01*
X214548815Y-87226185D01*
X214645506Y-87305537D01*
X214755820Y-87364502D01*
X214875518Y-87400812D01*
X215000000Y-87413072D01*
X217600000Y-87413072D01*
X217724482Y-87400812D01*
X217844180Y-87364502D01*
X217954494Y-87305537D01*
X218051185Y-87226185D01*
X218130537Y-87129494D01*
X218189502Y-87019180D01*
X218225812Y-86899482D01*
X218233224Y-86824224D01*
X220130381Y-86824224D01*
X220262317Y-87119312D01*
X220603045Y-87290159D01*
X220970557Y-87391250D01*
X221350729Y-87418701D01*
X221728951Y-87371457D01*
X222090690Y-87251333D01*
X222337683Y-87119312D01*
X222469619Y-86824224D01*
X221300000Y-85654605D01*
X220130381Y-86824224D01*
X218233224Y-86824224D01*
X218238072Y-86775000D01*
X218238072Y-85525729D01*
X219356299Y-85525729D01*
X219403543Y-85903951D01*
X219523667Y-86265690D01*
X219655688Y-86512683D01*
X219950776Y-86644619D01*
X221120395Y-85475000D01*
X221479605Y-85475000D01*
X222649224Y-86644619D01*
X222944312Y-86512683D01*
X223115159Y-86171955D01*
X223216250Y-85804443D01*
X223243701Y-85424271D01*
X223226232Y-85284419D01*
X224365000Y-85284419D01*
X224365000Y-85665581D01*
X224439361Y-86039419D01*
X224585225Y-86391566D01*
X224796987Y-86708491D01*
X225066509Y-86978013D01*
X225383434Y-87189775D01*
X225735581Y-87335639D01*
X226109419Y-87410000D01*
X226490581Y-87410000D01*
X226864419Y-87335639D01*
X227216566Y-87189775D01*
X227533491Y-86978013D01*
X227803013Y-86708491D01*
X228014775Y-86391566D01*
X228160639Y-86039419D01*
X228235000Y-85665581D01*
X228235000Y-85284419D01*
X228160639Y-84910581D01*
X228014775Y-84558434D01*
X227803013Y-84241509D01*
X227533491Y-83971987D01*
X227216566Y-83760225D01*
X226864419Y-83614361D01*
X226490581Y-83540000D01*
X226109419Y-83540000D01*
X225735581Y-83614361D01*
X225383434Y-83760225D01*
X225066509Y-83971987D01*
X224796987Y-84241509D01*
X224585225Y-84558434D01*
X224439361Y-84910581D01*
X224365000Y-85284419D01*
X223226232Y-85284419D01*
X223196457Y-85046049D01*
X223076333Y-84684310D01*
X222944312Y-84437317D01*
X222649224Y-84305381D01*
X221479605Y-85475000D01*
X221120395Y-85475000D01*
X219950776Y-84305381D01*
X219655688Y-84437317D01*
X219484841Y-84778045D01*
X219383750Y-85145557D01*
X219356299Y-85525729D01*
X218238072Y-85525729D01*
X218238072Y-84175000D01*
X218233225Y-84125776D01*
X220130381Y-84125776D01*
X221300000Y-85295395D01*
X222469619Y-84125776D01*
X222337683Y-83830688D01*
X221996955Y-83659841D01*
X221629443Y-83558750D01*
X221249271Y-83531299D01*
X220871049Y-83578543D01*
X220509310Y-83698667D01*
X220262317Y-83830688D01*
X220130381Y-84125776D01*
X218233225Y-84125776D01*
X218225812Y-84050518D01*
X218189502Y-83930820D01*
X218130537Y-83820506D01*
X218051185Y-83723815D01*
X217954494Y-83644463D01*
X217844180Y-83585498D01*
X217724482Y-83549188D01*
X217600000Y-83536928D01*
X215537874Y-83536928D01*
X216583496Y-82491306D01*
X216696063Y-82659774D01*
X216840226Y-82803937D01*
X217009744Y-82917205D01*
X217198102Y-82995226D01*
X217398061Y-83035000D01*
X217601939Y-83035000D01*
X217801898Y-82995226D01*
X217990256Y-82917205D01*
X218159774Y-82803937D01*
X218203711Y-82760000D01*
X219296289Y-82760000D01*
X219340226Y-82803937D01*
X219509744Y-82917205D01*
X219698102Y-82995226D01*
X219898061Y-83035000D01*
X220101939Y-83035000D01*
X220301898Y-82995226D01*
X220490256Y-82917205D01*
X220659774Y-82803937D01*
X220803937Y-82659774D01*
X220917205Y-82490256D01*
X220995226Y-82301898D01*
X221035000Y-82101939D01*
X221035000Y-81898061D01*
X220995226Y-81698102D01*
X220917205Y-81509744D01*
X220803937Y-81340226D01*
X220659774Y-81196063D01*
X220638172Y-81181629D01*
X223679094Y-78140708D01*
X223723691Y-78154236D01*
X223934508Y-78175000D01*
X224075492Y-78175000D01*
X224286309Y-78154236D01*
X224556808Y-78072182D01*
X224806101Y-77938932D01*
X225024608Y-77759608D01*
X225203932Y-77541101D01*
X225275000Y-77408142D01*
X225346068Y-77541101D01*
X225525392Y-77759608D01*
X225743899Y-77938932D01*
X225993192Y-78072182D01*
X226263691Y-78154236D01*
X226474508Y-78175000D01*
X226615492Y-78175000D01*
X226826309Y-78154236D01*
X226870906Y-78140708D01*
X229240000Y-80509802D01*
X229240001Y-97042667D01*
X229236324Y-97080000D01*
X229240001Y-97117333D01*
X229244845Y-97166509D01*
X229250998Y-97228985D01*
X229294454Y-97372246D01*
X229365026Y-97504276D01*
X229436201Y-97591002D01*
X229460000Y-97620001D01*
X229488998Y-97643799D01*
X230559203Y-98714005D01*
X230536487Y-98788889D01*
X230507815Y-99080000D01*
X230536487Y-99371111D01*
X230621401Y-99651034D01*
X230759294Y-99909014D01*
X230944866Y-100135134D01*
X231170986Y-100320706D01*
X231225791Y-100350000D01*
X231170986Y-100379294D01*
X230944866Y-100564866D01*
X230759294Y-100790986D01*
X230621401Y-101048966D01*
X230536487Y-101328889D01*
X230507815Y-101620000D01*
X230536487Y-101911111D01*
X230621401Y-102191034D01*
X230759294Y-102449014D01*
X230944866Y-102675134D01*
X231170986Y-102860706D01*
X231225791Y-102890000D01*
X231170986Y-102919294D01*
X230944866Y-103104866D01*
X230759294Y-103330986D01*
X230621401Y-103588966D01*
X230536487Y-103868889D01*
X230507815Y-104160000D01*
X230536487Y-104451111D01*
X230621401Y-104731034D01*
X230759294Y-104989014D01*
X230944866Y-105215134D01*
X231170986Y-105400706D01*
X231235523Y-105435201D01*
X231118645Y-105504822D01*
X230902412Y-105699731D01*
X230728359Y-105933080D01*
X230603175Y-106195901D01*
X230558524Y-106343110D01*
X230679845Y-106573000D01*
X231873000Y-106573000D01*
X231873000Y-106553000D01*
X232127000Y-106553000D01*
X232127000Y-106573000D01*
X232147000Y-106573000D01*
X232147000Y-106827000D01*
X232127000Y-106827000D01*
X232127000Y-108020814D01*
X232356891Y-108141481D01*
X232631252Y-108044157D01*
X232881355Y-107895178D01*
X233097588Y-107700269D01*
X233271641Y-107466920D01*
X233396825Y-107204099D01*
X233441476Y-107056890D01*
X233320156Y-106827002D01*
X233464999Y-106827002D01*
X233465000Y-119545198D01*
X229410907Y-123599292D01*
X229366309Y-123585764D01*
X229155492Y-123565000D01*
X229014508Y-123565000D01*
X228803691Y-123585764D01*
X228533192Y-123667818D01*
X228283899Y-123801068D01*
X228065392Y-123980392D01*
X227886068Y-124198899D01*
X227815000Y-124331858D01*
X227743932Y-124198899D01*
X227564608Y-123980392D01*
X227346101Y-123801068D01*
X227096808Y-123667818D01*
X226826309Y-123585764D01*
X226615492Y-123565000D01*
X226474508Y-123565000D01*
X226263691Y-123585764D01*
X225993192Y-123667818D01*
X225743899Y-123801068D01*
X225525392Y-123980392D01*
X225346068Y-124198899D01*
X225275000Y-124331858D01*
X225203932Y-124198899D01*
X225024608Y-123980392D01*
X224806101Y-123801068D01*
X224556808Y-123667818D01*
X224286309Y-123585764D01*
X224075492Y-123565000D01*
X223934508Y-123565000D01*
X223723691Y-123585764D01*
X223453192Y-123667818D01*
X223203899Y-123801068D01*
X222985392Y-123980392D01*
X222806068Y-124198899D01*
X222735000Y-124331858D01*
X222663932Y-124198899D01*
X222484608Y-123980392D01*
X222266101Y-123801068D01*
X222016808Y-123667818D01*
X221746309Y-123585764D01*
X221535492Y-123565000D01*
X221394508Y-123565000D01*
X221183691Y-123585764D01*
X220913192Y-123667818D01*
X220663899Y-123801068D01*
X220445392Y-123980392D01*
X220266068Y-124198899D01*
X220195000Y-124331858D01*
X220123932Y-124198899D01*
X219944608Y-123980392D01*
X219726101Y-123801068D01*
X219476808Y-123667818D01*
X219206309Y-123585764D01*
X218995492Y-123565000D01*
X218854508Y-123565000D01*
X218643691Y-123585764D01*
X218373192Y-123667818D01*
X218123899Y-123801068D01*
X217905392Y-123980392D01*
X217726068Y-124198899D01*
X217655000Y-124331858D01*
X217583932Y-124198899D01*
X217404608Y-123980392D01*
X217186101Y-123801068D01*
X216936808Y-123667818D01*
X216666309Y-123585764D01*
X216455492Y-123565000D01*
X216314508Y-123565000D01*
X216103691Y-123585764D01*
X215833192Y-123667818D01*
X215583899Y-123801068D01*
X215365392Y-123980392D01*
X215186068Y-124198899D01*
X215052818Y-124448192D01*
X214970764Y-124718691D01*
X214943057Y-125000000D01*
X214970764Y-125281309D01*
X215052818Y-125551808D01*
X215186068Y-125801101D01*
X215365392Y-126019608D01*
X215583899Y-126198932D01*
X215833192Y-126332182D01*
X216103691Y-126414236D01*
X216314508Y-126435000D01*
X216455492Y-126435000D01*
X216666309Y-126414236D01*
X216936808Y-126332182D01*
X217186101Y-126198932D01*
X217404608Y-126019608D01*
X217583932Y-125801101D01*
X217655000Y-125668142D01*
X217726068Y-125801101D01*
X217905392Y-126019608D01*
X218123899Y-126198932D01*
X218373192Y-126332182D01*
X218643691Y-126414236D01*
X218854508Y-126435000D01*
X218995492Y-126435000D01*
X219206309Y-126414236D01*
X219476808Y-126332182D01*
X219726101Y-126198932D01*
X219944608Y-126019608D01*
X220123932Y-125801101D01*
X220195000Y-125668142D01*
X220266068Y-125801101D01*
X220445392Y-126019608D01*
X220663899Y-126198932D01*
X220913192Y-126332182D01*
X221183691Y-126414236D01*
X221394508Y-126435000D01*
X221535492Y-126435000D01*
X221746309Y-126414236D01*
X222016808Y-126332182D01*
X222266101Y-126198932D01*
X222484608Y-126019608D01*
X222663932Y-125801101D01*
X222735000Y-125668142D01*
X222806068Y-125801101D01*
X222985392Y-126019608D01*
X223203899Y-126198932D01*
X223453192Y-126332182D01*
X223723691Y-126414236D01*
X223934508Y-126435000D01*
X224075492Y-126435000D01*
X224286309Y-126414236D01*
X224556808Y-126332182D01*
X224806101Y-126198932D01*
X225024608Y-126019608D01*
X225203932Y-125801101D01*
X225275000Y-125668142D01*
X225346068Y-125801101D01*
X225525392Y-126019608D01*
X225743899Y-126198932D01*
X225993192Y-126332182D01*
X226263691Y-126414236D01*
X226474508Y-126435000D01*
X226615492Y-126435000D01*
X226826309Y-126414236D01*
X227096808Y-126332182D01*
X227346101Y-126198932D01*
X227564608Y-126019608D01*
X227743932Y-125801101D01*
X227815000Y-125668142D01*
X227886068Y-125801101D01*
X228065392Y-126019608D01*
X228283899Y-126198932D01*
X228533192Y-126332182D01*
X228803691Y-126414236D01*
X229014508Y-126435000D01*
X229155492Y-126435000D01*
X229366309Y-126414236D01*
X229636808Y-126332182D01*
X229886101Y-126198932D01*
X230104608Y-126019608D01*
X230283932Y-125801101D01*
X230417182Y-125551808D01*
X230499236Y-125281309D01*
X230526943Y-125000000D01*
X230499236Y-124718691D01*
X230485708Y-124674093D01*
X234736002Y-120423800D01*
X234765000Y-120400002D01*
X234859973Y-120284277D01*
X234930545Y-120152248D01*
X234974002Y-120008987D01*
X234984999Y-119897334D01*
X234984999Y-119897324D01*
X234988675Y-119860001D01*
X234984999Y-119822678D01*
X234984999Y-92892321D01*
X234988675Y-92854998D01*
X234984999Y-92817675D01*
X234984999Y-92817666D01*
X234974002Y-92706013D01*
X234930545Y-92562752D01*
X234859973Y-92430723D01*
X234846810Y-92414684D01*
X234788798Y-92343995D01*
X234788794Y-92343991D01*
X234765000Y-92314998D01*
X234736008Y-92291205D01*
X231530000Y-89085199D01*
X231530000Y-82137720D01*
X234287494Y-79380227D01*
X234344866Y-79450134D01*
X234570986Y-79635706D01*
X234635523Y-79670201D01*
X234518645Y-79739822D01*
X234302412Y-79934731D01*
X234128359Y-80168080D01*
X234003175Y-80430901D01*
X233958524Y-80578110D01*
X234079845Y-80808000D01*
X235273000Y-80808000D01*
X235273000Y-80788000D01*
X235527000Y-80788000D01*
X235527000Y-80808000D01*
X235547000Y-80808000D01*
X235547000Y-81062000D01*
X235527000Y-81062000D01*
X235527000Y-81082000D01*
X235273000Y-81082000D01*
X235273000Y-81062000D01*
X234079845Y-81062000D01*
X233958524Y-81291890D01*
X234003175Y-81439099D01*
X234128359Y-81701920D01*
X234302412Y-81935269D01*
X234386466Y-82011034D01*
X234305820Y-82035498D01*
X234195506Y-82094463D01*
X234098815Y-82173815D01*
X234019463Y-82270506D01*
X233960498Y-82380820D01*
X233924188Y-82500518D01*
X233911928Y-82625000D01*
X233911928Y-84325000D01*
X233924188Y-84449482D01*
X233960498Y-84569180D01*
X234019463Y-84679494D01*
X234098815Y-84776185D01*
X234195506Y-84855537D01*
X234305820Y-84914502D01*
X234425518Y-84950812D01*
X234550000Y-84963072D01*
X236250000Y-84963072D01*
X236374482Y-84950812D01*
X236379990Y-84949141D01*
X236379991Y-119045207D01*
X236060199Y-119365000D01*
X235998061Y-119365000D01*
X235798102Y-119404774D01*
X235609744Y-119482795D01*
X235440226Y-119596063D01*
X235296063Y-119740226D01*
X235182795Y-119909744D01*
X235104774Y-120098102D01*
X235065000Y-120298061D01*
X235065000Y-120501939D01*
X235104774Y-120701898D01*
X235182795Y-120890256D01*
X235296063Y-121059774D01*
X235440226Y-121203937D01*
X235609744Y-121317205D01*
X235798102Y-121395226D01*
X235998061Y-121435000D01*
X236201939Y-121435000D01*
X236401898Y-121395226D01*
X236590256Y-121317205D01*
X236759774Y-121203937D01*
X236830000Y-121133711D01*
X236830000Y-130150000D01*
X87020000Y-130150000D01*
X87020000Y-123282408D01*
X88043000Y-123282408D01*
X88043000Y-123557592D01*
X88096686Y-123827490D01*
X88201995Y-124081727D01*
X88354880Y-124310535D01*
X88549465Y-124505120D01*
X88778273Y-124658005D01*
X89032510Y-124763314D01*
X89302408Y-124817000D01*
X89577592Y-124817000D01*
X89847490Y-124763314D01*
X90101727Y-124658005D01*
X90330535Y-124505120D01*
X90525120Y-124310535D01*
X90678005Y-124081727D01*
X90783314Y-123827490D01*
X90837000Y-123557592D01*
X90837000Y-123282408D01*
X90822482Y-123209419D01*
X96040000Y-123209419D01*
X96040000Y-123590581D01*
X96114361Y-123964419D01*
X96260225Y-124316566D01*
X96471987Y-124633491D01*
X96741509Y-124903013D01*
X97058434Y-125114775D01*
X97410581Y-125260639D01*
X97784419Y-125335000D01*
X98165581Y-125335000D01*
X98539419Y-125260639D01*
X98891566Y-125114775D01*
X99208491Y-124903013D01*
X99478013Y-124633491D01*
X99689775Y-124316566D01*
X99835639Y-123964419D01*
X99910000Y-123590581D01*
X99910000Y-123209419D01*
X99835639Y-122835581D01*
X99689775Y-122483434D01*
X99478013Y-122166509D01*
X99411504Y-122100000D01*
X101036928Y-122100000D01*
X101036928Y-124700000D01*
X101049188Y-124824482D01*
X101085498Y-124944180D01*
X101144463Y-125054494D01*
X101223815Y-125151185D01*
X101320506Y-125230537D01*
X101430820Y-125289502D01*
X101550518Y-125325812D01*
X101675000Y-125338072D01*
X104275000Y-125338072D01*
X104399482Y-125325812D01*
X104519180Y-125289502D01*
X104629494Y-125230537D01*
X104726185Y-125151185D01*
X104805537Y-125054494D01*
X104864502Y-124944180D01*
X104900812Y-124824482D01*
X104913072Y-124700000D01*
X104913072Y-123152408D01*
X110933000Y-123152408D01*
X110933000Y-123427592D01*
X110986686Y-123697490D01*
X111091995Y-123951727D01*
X111244880Y-124180535D01*
X111439465Y-124375120D01*
X111668273Y-124528005D01*
X111922510Y-124633314D01*
X112192408Y-124687000D01*
X112467592Y-124687000D01*
X112737490Y-124633314D01*
X112991727Y-124528005D01*
X113220535Y-124375120D01*
X113415120Y-124180535D01*
X113568005Y-123951727D01*
X113673314Y-123697490D01*
X113727000Y-123427592D01*
X113727000Y-123152408D01*
X113673314Y-122882510D01*
X113568005Y-122628273D01*
X113415120Y-122399465D01*
X113220535Y-122204880D01*
X112991727Y-122051995D01*
X112737490Y-121946686D01*
X112467592Y-121893000D01*
X112192408Y-121893000D01*
X111922510Y-121946686D01*
X111668273Y-122051995D01*
X111439465Y-122204880D01*
X111244880Y-122399465D01*
X111091995Y-122628273D01*
X110986686Y-122882510D01*
X110933000Y-123152408D01*
X104913072Y-123152408D01*
X104913072Y-122100000D01*
X104900812Y-121975518D01*
X104864502Y-121855820D01*
X104805537Y-121745506D01*
X104726185Y-121648815D01*
X104629494Y-121569463D01*
X104519180Y-121510498D01*
X104399482Y-121474188D01*
X104275000Y-121461928D01*
X101675000Y-121461928D01*
X101550518Y-121474188D01*
X101430820Y-121510498D01*
X101320506Y-121569463D01*
X101223815Y-121648815D01*
X101144463Y-121745506D01*
X101085498Y-121855820D01*
X101049188Y-121975518D01*
X101036928Y-122100000D01*
X99411504Y-122100000D01*
X99208491Y-121896987D01*
X98891566Y-121685225D01*
X98539419Y-121539361D01*
X98165581Y-121465000D01*
X97784419Y-121465000D01*
X97410581Y-121539361D01*
X97058434Y-121685225D01*
X96741509Y-121896987D01*
X96471987Y-122166509D01*
X96260225Y-122483434D01*
X96114361Y-122835581D01*
X96040000Y-123209419D01*
X90822482Y-123209419D01*
X90783314Y-123012510D01*
X90678005Y-122758273D01*
X90525120Y-122529465D01*
X90330535Y-122334880D01*
X90101727Y-122181995D01*
X89847490Y-122076686D01*
X89577592Y-122023000D01*
X89302408Y-122023000D01*
X89032510Y-122076686D01*
X88778273Y-122181995D01*
X88549465Y-122334880D01*
X88354880Y-122529465D01*
X88201995Y-122758273D01*
X88096686Y-123012510D01*
X88043000Y-123282408D01*
X87020000Y-123282408D01*
X87020000Y-118709117D01*
X108895000Y-118709117D01*
X108895000Y-119050883D01*
X108961675Y-119386081D01*
X109092463Y-119701831D01*
X109282337Y-119985998D01*
X109524002Y-120227663D01*
X109808169Y-120417537D01*
X110123919Y-120548325D01*
X110459117Y-120615000D01*
X110800883Y-120615000D01*
X111136081Y-120548325D01*
X111451831Y-120417537D01*
X111735998Y-120227663D01*
X111977663Y-119985998D01*
X112167537Y-119701831D01*
X112298325Y-119386081D01*
X112365000Y-119050883D01*
X112365000Y-118709117D01*
X112298325Y-118373919D01*
X112167537Y-118058169D01*
X111977663Y-117774002D01*
X111735998Y-117532337D01*
X111451831Y-117342463D01*
X111136081Y-117211675D01*
X110800883Y-117145000D01*
X110459117Y-117145000D01*
X110123919Y-117211675D01*
X109808169Y-117342463D01*
X109524002Y-117532337D01*
X109282337Y-117774002D01*
X109092463Y-118058169D01*
X108961675Y-118373919D01*
X108895000Y-118709117D01*
X87020000Y-118709117D01*
X87020000Y-113334042D01*
X117015000Y-113334042D01*
X117015000Y-113665958D01*
X117079754Y-113991496D01*
X117206772Y-114298147D01*
X117391175Y-114574125D01*
X117625875Y-114808825D01*
X117901853Y-114993228D01*
X118208504Y-115120246D01*
X118534042Y-115185000D01*
X118865958Y-115185000D01*
X119191496Y-115120246D01*
X119498147Y-114993228D01*
X119774125Y-114808825D01*
X120008825Y-114574125D01*
X120193228Y-114298147D01*
X120320246Y-113991496D01*
X120385000Y-113665958D01*
X120385000Y-113334042D01*
X120365109Y-113234042D01*
X160015000Y-113234042D01*
X160015000Y-113565958D01*
X160079754Y-113891496D01*
X160206772Y-114198147D01*
X160391175Y-114474125D01*
X160625875Y-114708825D01*
X160901853Y-114893228D01*
X161208504Y-115020246D01*
X161534042Y-115085000D01*
X161865958Y-115085000D01*
X162191496Y-115020246D01*
X162498147Y-114893228D01*
X162774125Y-114708825D01*
X163008825Y-114474125D01*
X163193228Y-114198147D01*
X163320246Y-113891496D01*
X163385000Y-113565958D01*
X163385000Y-113234042D01*
X163320246Y-112908504D01*
X163193228Y-112601853D01*
X163008825Y-112325875D01*
X162774125Y-112091175D01*
X162498147Y-111906772D01*
X162191496Y-111779754D01*
X161865958Y-111715000D01*
X161534042Y-111715000D01*
X161208504Y-111779754D01*
X160901853Y-111906772D01*
X160625875Y-112091175D01*
X160391175Y-112325875D01*
X160206772Y-112601853D01*
X160079754Y-112908504D01*
X160015000Y-113234042D01*
X120365109Y-113234042D01*
X120320246Y-113008504D01*
X120193228Y-112701853D01*
X120008825Y-112425875D01*
X119774125Y-112191175D01*
X119498147Y-112006772D01*
X119191496Y-111879754D01*
X118865958Y-111815000D01*
X118534042Y-111815000D01*
X118208504Y-111879754D01*
X117901853Y-112006772D01*
X117625875Y-112191175D01*
X117391175Y-112425875D01*
X117206772Y-112701853D01*
X117079754Y-113008504D01*
X117015000Y-113334042D01*
X87020000Y-113334042D01*
X87020000Y-100750000D01*
X91323316Y-100750000D01*
X91335000Y-100868632D01*
X91335000Y-103708322D01*
X91323316Y-103826954D01*
X91335000Y-103945586D01*
X91335000Y-106069845D01*
X91323316Y-106188477D01*
X91335000Y-106307109D01*
X91335000Y-106307116D01*
X91369943Y-106661899D01*
X91508035Y-107117128D01*
X91611670Y-107311015D01*
X91732285Y-107536670D01*
X91909205Y-107752247D01*
X92034075Y-107904402D01*
X92126229Y-107980031D01*
X95669969Y-111523771D01*
X95745598Y-111615925D01*
X96113329Y-111917715D01*
X96532871Y-112141965D01*
X96988100Y-112280057D01*
X97342883Y-112315000D01*
X97342892Y-112315000D01*
X97461522Y-112326684D01*
X97580152Y-112315000D01*
X99418640Y-112315000D01*
X99773423Y-112280057D01*
X100228652Y-112141965D01*
X100648194Y-111917715D01*
X101015925Y-111615925D01*
X101317715Y-111248194D01*
X101541965Y-110828652D01*
X101680057Y-110373423D01*
X101726685Y-109900000D01*
X101680057Y-109426577D01*
X101541965Y-108971348D01*
X101317715Y-108551806D01*
X101015925Y-108184075D01*
X100648194Y-107882285D01*
X100228652Y-107658035D01*
X99773423Y-107519943D01*
X99418640Y-107485000D01*
X98461848Y-107485000D01*
X97770935Y-106794087D01*
X97875518Y-106825812D01*
X98000000Y-106838072D01*
X100600000Y-106838072D01*
X100724482Y-106825812D01*
X100844180Y-106789502D01*
X100954494Y-106730537D01*
X101051185Y-106651185D01*
X101130537Y-106554494D01*
X101189502Y-106444180D01*
X101225812Y-106324482D01*
X101238072Y-106200000D01*
X101238072Y-103600000D01*
X101225812Y-103475518D01*
X101189502Y-103355820D01*
X101130537Y-103245506D01*
X101051185Y-103148815D01*
X100954494Y-103069463D01*
X100844180Y-103010498D01*
X100724482Y-102974188D01*
X100600000Y-102961928D01*
X98000000Y-102961928D01*
X97875518Y-102974188D01*
X97755820Y-103010498D01*
X97645506Y-103069463D01*
X97548815Y-103148815D01*
X97469463Y-103245506D01*
X97410498Y-103355820D01*
X97374188Y-103475518D01*
X97361928Y-103600000D01*
X97361928Y-106200000D01*
X97374188Y-106324482D01*
X97405913Y-106429065D01*
X96165000Y-105188152D01*
X96165000Y-104449523D01*
X96191580Y-104361900D01*
X96238207Y-103888477D01*
X96191580Y-103415055D01*
X96165000Y-103327432D01*
X96165000Y-101750325D01*
X97100326Y-100815000D01*
X99418640Y-100815000D01*
X99773423Y-100780057D01*
X100228652Y-100641965D01*
X100648194Y-100417715D01*
X101015925Y-100115925D01*
X101317715Y-99748194D01*
X101541965Y-99328652D01*
X101680057Y-98873423D01*
X101726685Y-98400000D01*
X101680057Y-97926577D01*
X101541965Y-97471348D01*
X101317715Y-97051806D01*
X101015925Y-96684075D01*
X100648194Y-96382285D01*
X100228652Y-96158035D01*
X99773423Y-96019943D01*
X99418640Y-95985000D01*
X96218632Y-95985000D01*
X96100000Y-95973316D01*
X95981368Y-95985000D01*
X95981360Y-95985000D01*
X95626577Y-96019943D01*
X95171348Y-96158035D01*
X94847757Y-96330998D01*
X94751806Y-96382285D01*
X94476228Y-96608446D01*
X94476224Y-96608450D01*
X94384075Y-96684075D01*
X94308450Y-96776224D01*
X92126229Y-98958446D01*
X92034075Y-99034075D01*
X91958447Y-99126228D01*
X91958446Y-99126229D01*
X91792322Y-99328652D01*
X91732285Y-99401807D01*
X91508035Y-99821349D01*
X91369943Y-100276578D01*
X91335000Y-100631361D01*
X91335000Y-100631368D01*
X91323316Y-100750000D01*
X87020000Y-100750000D01*
X87020000Y-92100000D01*
X97361928Y-92100000D01*
X97361928Y-94700000D01*
X97374188Y-94824482D01*
X97410498Y-94944180D01*
X97469463Y-95054494D01*
X97548815Y-95151185D01*
X97645506Y-95230537D01*
X97755820Y-95289502D01*
X97875518Y-95325812D01*
X98000000Y-95338072D01*
X100600000Y-95338072D01*
X100724482Y-95325812D01*
X100844180Y-95289502D01*
X100954494Y-95230537D01*
X101051185Y-95151185D01*
X101130537Y-95054494D01*
X101189502Y-94944180D01*
X101225812Y-94824482D01*
X101238072Y-94700000D01*
X101238072Y-92100000D01*
X101225812Y-91975518D01*
X101189502Y-91855820D01*
X101130537Y-91745506D01*
X101051185Y-91648815D01*
X100954494Y-91569463D01*
X100844180Y-91510498D01*
X100724482Y-91474188D01*
X100600000Y-91461928D01*
X98000000Y-91461928D01*
X97875518Y-91474188D01*
X97755820Y-91510498D01*
X97645506Y-91569463D01*
X97548815Y-91648815D01*
X97469463Y-91745506D01*
X97410498Y-91855820D01*
X97374188Y-91975518D01*
X97361928Y-92100000D01*
X87020000Y-92100000D01*
X87020000Y-85950000D01*
X97561928Y-85950000D01*
X97561928Y-88550000D01*
X97574188Y-88674482D01*
X97610498Y-88794180D01*
X97669463Y-88904494D01*
X97748815Y-89001185D01*
X97845506Y-89080537D01*
X97955820Y-89139502D01*
X98075518Y-89175812D01*
X98200000Y-89188072D01*
X98845675Y-89188072D01*
X98865026Y-89224275D01*
X98959999Y-89340001D01*
X99075724Y-89434974D01*
X99207753Y-89505546D01*
X99351014Y-89549003D01*
X99500000Y-89563677D01*
X99648985Y-89549003D01*
X99792246Y-89505546D01*
X99924275Y-89434974D01*
X100040001Y-89340001D01*
X100134974Y-89224276D01*
X100154326Y-89188072D01*
X100800000Y-89188072D01*
X100924482Y-89175812D01*
X101044180Y-89139502D01*
X101154494Y-89080537D01*
X101251185Y-89001185D01*
X101330537Y-88904494D01*
X101389502Y-88794180D01*
X101425812Y-88674482D01*
X101438072Y-88550000D01*
X101438072Y-85950000D01*
X101425812Y-85825518D01*
X101389502Y-85705820D01*
X101330537Y-85595506D01*
X101251185Y-85498815D01*
X101154494Y-85419463D01*
X101044180Y-85360498D01*
X100924482Y-85324188D01*
X100800000Y-85311928D01*
X98200000Y-85311928D01*
X98075518Y-85324188D01*
X97955820Y-85360498D01*
X97845506Y-85419463D01*
X97748815Y-85498815D01*
X97669463Y-85595506D01*
X97610498Y-85705820D01*
X97574188Y-85825518D01*
X97561928Y-85950000D01*
X87020000Y-85950000D01*
X87020000Y-83599224D01*
X98330381Y-83599224D01*
X98462317Y-83894312D01*
X98803045Y-84065159D01*
X99170557Y-84166250D01*
X99550729Y-84193701D01*
X99928951Y-84146457D01*
X100290690Y-84026333D01*
X100537683Y-83894312D01*
X100669619Y-83599224D01*
X99500000Y-82429605D01*
X98330381Y-83599224D01*
X87020000Y-83599224D01*
X87020000Y-82300729D01*
X97556299Y-82300729D01*
X97603543Y-82678951D01*
X97723667Y-83040690D01*
X97855688Y-83287683D01*
X98150776Y-83419619D01*
X99320395Y-82250000D01*
X99679605Y-82250000D01*
X100849224Y-83419619D01*
X101144312Y-83287683D01*
X101315159Y-82946955D01*
X101416250Y-82579443D01*
X101443701Y-82199271D01*
X101396457Y-81821049D01*
X101276333Y-81459310D01*
X101144312Y-81212317D01*
X100849224Y-81080381D01*
X99679605Y-82250000D01*
X99320395Y-82250000D01*
X98150776Y-81080381D01*
X97855688Y-81212317D01*
X97684841Y-81553045D01*
X97583750Y-81920557D01*
X97556299Y-82300729D01*
X87020000Y-82300729D01*
X87020000Y-80900776D01*
X98330381Y-80900776D01*
X99500000Y-82070395D01*
X100669619Y-80900776D01*
X100537683Y-80605688D01*
X100196955Y-80434841D01*
X99829443Y-80333750D01*
X99449271Y-80306299D01*
X99071049Y-80353543D01*
X98709310Y-80473667D01*
X98462317Y-80605688D01*
X98330381Y-80900776D01*
X87020000Y-80900776D01*
X87020000Y-77769117D01*
X89815000Y-77769117D01*
X89815000Y-78110883D01*
X89881675Y-78446081D01*
X90012463Y-78761831D01*
X90202337Y-79045998D01*
X90444002Y-79287663D01*
X90728169Y-79477537D01*
X91043919Y-79608325D01*
X91379117Y-79675000D01*
X91720883Y-79675000D01*
X92056081Y-79608325D01*
X92371831Y-79477537D01*
X92655998Y-79287663D01*
X92709619Y-79234042D01*
X117015000Y-79234042D01*
X117015000Y-79565958D01*
X117079754Y-79891496D01*
X117206772Y-80198147D01*
X117391175Y-80474125D01*
X117625875Y-80708825D01*
X117901853Y-80893228D01*
X118208504Y-81020246D01*
X118534042Y-81085000D01*
X118865958Y-81085000D01*
X119191496Y-81020246D01*
X119498147Y-80893228D01*
X119774125Y-80708825D01*
X120008825Y-80474125D01*
X120193228Y-80198147D01*
X120320246Y-79891496D01*
X120385000Y-79565958D01*
X120385000Y-79234042D01*
X160015000Y-79234042D01*
X160015000Y-79565958D01*
X160079754Y-79891496D01*
X160206772Y-80198147D01*
X160391175Y-80474125D01*
X160625875Y-80708825D01*
X160901853Y-80893228D01*
X161208504Y-81020246D01*
X161534042Y-81085000D01*
X161865958Y-81085000D01*
X162191496Y-81020246D01*
X162498147Y-80893228D01*
X162774125Y-80708825D01*
X163008825Y-80474125D01*
X163193228Y-80198147D01*
X163320246Y-79891496D01*
X163385000Y-79565958D01*
X163385000Y-79234042D01*
X163320246Y-78908504D01*
X163193228Y-78601853D01*
X163008825Y-78325875D01*
X162774125Y-78091175D01*
X162498147Y-77906772D01*
X162191496Y-77779754D01*
X161865958Y-77715000D01*
X161534042Y-77715000D01*
X161208504Y-77779754D01*
X160901853Y-77906772D01*
X160625875Y-78091175D01*
X160391175Y-78325875D01*
X160206772Y-78601853D01*
X160079754Y-78908504D01*
X160015000Y-79234042D01*
X120385000Y-79234042D01*
X120320246Y-78908504D01*
X120193228Y-78601853D01*
X120008825Y-78325875D01*
X119774125Y-78091175D01*
X119498147Y-77906772D01*
X119191496Y-77779754D01*
X118865958Y-77715000D01*
X118534042Y-77715000D01*
X118208504Y-77779754D01*
X117901853Y-77906772D01*
X117625875Y-78091175D01*
X117391175Y-78325875D01*
X117206772Y-78601853D01*
X117079754Y-78908504D01*
X117015000Y-79234042D01*
X92709619Y-79234042D01*
X92897663Y-79045998D01*
X93087537Y-78761831D01*
X93218325Y-78446081D01*
X93285000Y-78110883D01*
X93285000Y-77769117D01*
X93218325Y-77433919D01*
X93087537Y-77118169D01*
X92897663Y-76834002D01*
X92655998Y-76592337D01*
X92371831Y-76402463D01*
X92056081Y-76271675D01*
X91720883Y-76205000D01*
X91379117Y-76205000D01*
X91043919Y-76271675D01*
X90728169Y-76402463D01*
X90444002Y-76592337D01*
X90202337Y-76834002D01*
X90012463Y-77118169D01*
X89881675Y-77433919D01*
X89815000Y-77769117D01*
X87020000Y-77769117D01*
X87020000Y-75475565D01*
X88784040Y-75475565D01*
X88851020Y-75715656D01*
X89100048Y-75832756D01*
X89367135Y-75899023D01*
X89642017Y-75911910D01*
X89914133Y-75870922D01*
X90173023Y-75777636D01*
X90288980Y-75715656D01*
X90355960Y-75475565D01*
X89570000Y-74689605D01*
X88784040Y-75475565D01*
X87020000Y-75475565D01*
X87020000Y-74582017D01*
X88168090Y-74582017D01*
X88209078Y-74854133D01*
X88302364Y-75113023D01*
X88364344Y-75228980D01*
X88604435Y-75295960D01*
X89390395Y-74510000D01*
X89749605Y-74510000D01*
X90535565Y-75295960D01*
X90775656Y-75228980D01*
X90892756Y-74979952D01*
X90959023Y-74712865D01*
X90971910Y-74437983D01*
X90930922Y-74165867D01*
X90837636Y-73906977D01*
X90775656Y-73791020D01*
X90535565Y-73724040D01*
X89749605Y-74510000D01*
X89390395Y-74510000D01*
X88604435Y-73724040D01*
X88364344Y-73791020D01*
X88247244Y-74040048D01*
X88180977Y-74307135D01*
X88168090Y-74582017D01*
X87020000Y-74582017D01*
X87020000Y-73544435D01*
X88784040Y-73544435D01*
X89570000Y-74330395D01*
X90355960Y-73544435D01*
X90288980Y-73304344D01*
X90039952Y-73187244D01*
X89772865Y-73120977D01*
X89497983Y-73108090D01*
X89225867Y-73149078D01*
X88966977Y-73242364D01*
X88851020Y-73304344D01*
X88784040Y-73544435D01*
X87020000Y-73544435D01*
X87020000Y-70670000D01*
X236830001Y-70670000D01*
X236830001Y-75453415D01*
X236830001Y-75453415D01*
G37*
X236830001Y-75453415D02*
X236778599Y-75283966D01*
X236640706Y-75025986D01*
X236455134Y-74799866D01*
X236229014Y-74614294D01*
X235971034Y-74476401D01*
X235691111Y-74391487D01*
X235472950Y-74370000D01*
X235327050Y-74370000D01*
X235108889Y-74391487D01*
X234828966Y-74476401D01*
X234570986Y-74614294D01*
X234344866Y-74799866D01*
X234159294Y-75025986D01*
X234021401Y-75283966D01*
X233936487Y-75563889D01*
X233907815Y-75855000D01*
X233936487Y-76146111D01*
X234021401Y-76426034D01*
X234159294Y-76684014D01*
X234344866Y-76910134D01*
X234570986Y-77095706D01*
X234625791Y-77125000D01*
X234570986Y-77154294D01*
X234344866Y-77339866D01*
X234159294Y-77565986D01*
X234120284Y-77638969D01*
X234048933Y-77645997D01*
X233905672Y-77689454D01*
X233773643Y-77760026D01*
X233657918Y-77854999D01*
X233634120Y-77883997D01*
X230760000Y-80758118D01*
X230760000Y-80232323D01*
X230763676Y-80195000D01*
X230760000Y-80157677D01*
X230760000Y-80157667D01*
X230749003Y-80046014D01*
X230705546Y-79902753D01*
X230634974Y-79770724D01*
X230540001Y-79654999D01*
X230511004Y-79631202D01*
X229054802Y-78175000D01*
X229155492Y-78175000D01*
X229366309Y-78154236D01*
X229636808Y-78072182D01*
X229886101Y-77938932D01*
X230104608Y-77759608D01*
X230283932Y-77541101D01*
X230417182Y-77291808D01*
X230499236Y-77021309D01*
X230526943Y-76740000D01*
X230499236Y-76458691D01*
X230417182Y-76188192D01*
X230283932Y-75938899D01*
X230104608Y-75720392D01*
X229886101Y-75541068D01*
X229636808Y-75407818D01*
X229366309Y-75325764D01*
X229155492Y-75305000D01*
X229014508Y-75305000D01*
X228803691Y-75325764D01*
X228533192Y-75407818D01*
X228283899Y-75541068D01*
X228065392Y-75720392D01*
X227886068Y-75938899D01*
X227815000Y-76071858D01*
X227743932Y-75938899D01*
X227564608Y-75720392D01*
X227346101Y-75541068D01*
X227096808Y-75407818D01*
X226826309Y-75325764D01*
X226615492Y-75305000D01*
X226474508Y-75305000D01*
X226263691Y-75325764D01*
X225993192Y-75407818D01*
X225743899Y-75541068D01*
X225525392Y-75720392D01*
X225346068Y-75938899D01*
X225275000Y-76071858D01*
X225203932Y-75938899D01*
X225024608Y-75720392D01*
X224806101Y-75541068D01*
X224556808Y-75407818D01*
X224286309Y-75325764D01*
X224075492Y-75305000D01*
X223934508Y-75305000D01*
X223723691Y-75325764D01*
X223453192Y-75407818D01*
X223203899Y-75541068D01*
X222985392Y-75720392D01*
X222806068Y-75938899D01*
X222735000Y-76071858D01*
X222663932Y-75938899D01*
X222484608Y-75720392D01*
X222266101Y-75541068D01*
X222016808Y-75407818D01*
X221746309Y-75325764D01*
X221535492Y-75305000D01*
X221394508Y-75305000D01*
X221183691Y-75325764D01*
X220913192Y-75407818D01*
X220663899Y-75541068D01*
X220445392Y-75720392D01*
X220266068Y-75938899D01*
X220195000Y-76071858D01*
X220123932Y-75938899D01*
X219944608Y-75720392D01*
X219726101Y-75541068D01*
X219476808Y-75407818D01*
X219206309Y-75325764D01*
X218995492Y-75305000D01*
X218854508Y-75305000D01*
X218643691Y-75325764D01*
X218373192Y-75407818D01*
X218123899Y-75541068D01*
X217905392Y-75720392D01*
X217726068Y-75938899D01*
X217655000Y-76071858D01*
X217583932Y-75938899D01*
X217404608Y-75720392D01*
X217186101Y-75541068D01*
X216936808Y-75407818D01*
X216666309Y-75325764D01*
X216455492Y-75305000D01*
X216314508Y-75305000D01*
X216103691Y-75325764D01*
X215833192Y-75407818D01*
X215583899Y-75541068D01*
X215365392Y-75720392D01*
X215186068Y-75938899D01*
X215115000Y-76071858D01*
X215043932Y-75938899D01*
X214864608Y-75720392D01*
X214646101Y-75541068D01*
X214396808Y-75407818D01*
X214126309Y-75325764D01*
X213915492Y-75305000D01*
X213774508Y-75305000D01*
X213563691Y-75325764D01*
X213293192Y-75407818D01*
X213043899Y-75541068D01*
X212825392Y-75720392D01*
X212646068Y-75938899D01*
X212575000Y-76071858D01*
X212503932Y-75938899D01*
X212324608Y-75720392D01*
X212106101Y-75541068D01*
X211856808Y-75407818D01*
X211586309Y-75325764D01*
X211375492Y-75305000D01*
X211234508Y-75305000D01*
X211023691Y-75325764D01*
X210753192Y-75407818D01*
X210503899Y-75541068D01*
X210285392Y-75720392D01*
X210106068Y-75938899D01*
X209972818Y-76188192D01*
X209890764Y-76458691D01*
X209863057Y-76740000D01*
X209890764Y-77021309D01*
X209972818Y-77291808D01*
X210106068Y-77541101D01*
X210285392Y-77759608D01*
X210503899Y-77938932D01*
X210753192Y-78072182D01*
X211023691Y-78154236D01*
X211234508Y-78175000D01*
X211375492Y-78175000D01*
X211586309Y-78154236D01*
X211856808Y-78072182D01*
X212106101Y-77938932D01*
X212324608Y-77759608D01*
X212503932Y-77541101D01*
X212575000Y-77408142D01*
X212646068Y-77541101D01*
X212825392Y-77759608D01*
X213043899Y-77938932D01*
X213293192Y-78072182D01*
X213563691Y-78154236D01*
X213774508Y-78175000D01*
X213915492Y-78175000D01*
X214126309Y-78154236D01*
X214396808Y-78072182D01*
X214646101Y-77938932D01*
X214864608Y-77759608D01*
X215043932Y-77541101D01*
X215115000Y-77408142D01*
X215186068Y-77541101D01*
X215365392Y-77759608D01*
X215583899Y-77938932D01*
X215833192Y-78072182D01*
X216103691Y-78154236D01*
X216314508Y-78175000D01*
X216455492Y-78175000D01*
X216666309Y-78154236D01*
X216936808Y-78072182D01*
X217186101Y-77938932D01*
X217404608Y-77759608D01*
X217583932Y-77541101D01*
X217655000Y-77408142D01*
X217726068Y-77541101D01*
X217905392Y-77759608D01*
X218123899Y-77938932D01*
X218373192Y-78072182D01*
X218643691Y-78154236D01*
X218854508Y-78175000D01*
X218955199Y-78175000D01*
X217640199Y-79490000D01*
X216037322Y-79490000D01*
X216000000Y-79486324D01*
X215962677Y-79490000D01*
X215962667Y-79490000D01*
X215851014Y-79500997D01*
X215707753Y-79544454D01*
X215575723Y-79615026D01*
X215502645Y-79675000D01*
X215459999Y-79709999D01*
X215436201Y-79738997D01*
X177935199Y-117240000D01*
X169183967Y-117240000D01*
X169217205Y-117190256D01*
X169295226Y-117001898D01*
X169335000Y-116801939D01*
X169335000Y-116598061D01*
X169295226Y-116398102D01*
X169217205Y-116209744D01*
X169103937Y-116040226D01*
X169060000Y-115996289D01*
X169060000Y-110850000D01*
X169511928Y-110850000D01*
X169524188Y-110974482D01*
X169560498Y-111094180D01*
X169619463Y-111204494D01*
X169698815Y-111301185D01*
X169795506Y-111380537D01*
X169905820Y-111439502D01*
X170025518Y-111475812D01*
X170150000Y-111488072D01*
X170714250Y-111485000D01*
X170873000Y-111326250D01*
X170873000Y-110127000D01*
X171127000Y-110127000D01*
X171127000Y-111326250D01*
X171285750Y-111485000D01*
X171850000Y-111488072D01*
X171974482Y-111475812D01*
X172094180Y-111439502D01*
X172204494Y-111380537D01*
X172301185Y-111301185D01*
X172380537Y-111204494D01*
X172439502Y-111094180D01*
X172475812Y-110974482D01*
X172488072Y-110850000D01*
X172485000Y-110285750D01*
X172326250Y-110127000D01*
X171127000Y-110127000D01*
X170873000Y-110127000D01*
X169673750Y-110127000D01*
X169515000Y-110285750D01*
X169511928Y-110850000D01*
X169060000Y-110850000D01*
X169060000Y-82414801D01*
X171414802Y-80060000D01*
X179259998Y-80060000D01*
X179236201Y-80088997D01*
X177589003Y-81736196D01*
X177559999Y-81759999D01*
X177509897Y-81821049D01*
X177465026Y-81875724D01*
X177405586Y-81986928D01*
X177394454Y-82007754D01*
X177350997Y-82151015D01*
X177340000Y-82262668D01*
X177340000Y-82262678D01*
X177336324Y-82300000D01*
X177340000Y-82337322D01*
X177340001Y-103185197D01*
X176365199Y-104160000D01*
X172277595Y-104160000D01*
X172240706Y-104090986D01*
X172055134Y-103864866D01*
X171829014Y-103679294D01*
X171774209Y-103650000D01*
X171829014Y-103620706D01*
X172055134Y-103435134D01*
X172240706Y-103209014D01*
X172378599Y-102951034D01*
X172463513Y-102671111D01*
X172492185Y-102380000D01*
X172463513Y-102088889D01*
X172378599Y-101808966D01*
X172240706Y-101550986D01*
X172055134Y-101324866D01*
X171829014Y-101139294D01*
X171571034Y-101001401D01*
X171291111Y-100916487D01*
X171072950Y-100895000D01*
X170927050Y-100895000D01*
X170708889Y-100916487D01*
X170428966Y-101001401D01*
X170170986Y-101139294D01*
X169944866Y-101324866D01*
X169759294Y-101550986D01*
X169621401Y-101808966D01*
X169536487Y-102088889D01*
X169507815Y-102380000D01*
X169536487Y-102671111D01*
X169621401Y-102951034D01*
X169759294Y-103209014D01*
X169944866Y-103435134D01*
X170170986Y-103620706D01*
X170225791Y-103650000D01*
X170170986Y-103679294D01*
X169944866Y-103864866D01*
X169759294Y-104090986D01*
X169621401Y-104348966D01*
X169536487Y-104628889D01*
X169507815Y-104920000D01*
X169536487Y-105211111D01*
X169621401Y-105491034D01*
X169759294Y-105749014D01*
X169944866Y-105975134D01*
X170170986Y-106160706D01*
X170225791Y-106190000D01*
X170170986Y-106219294D01*
X169944866Y-106404866D01*
X169759294Y-106630986D01*
X169621401Y-106888966D01*
X169536487Y-107168889D01*
X169507815Y-107460000D01*
X169536487Y-107751111D01*
X169621401Y-108031034D01*
X169759294Y-108289014D01*
X169944866Y-108515134D01*
X169974687Y-108539607D01*
X169905820Y-108560498D01*
X169795506Y-108619463D01*
X169698815Y-108698815D01*
X169619463Y-108795506D01*
X169560498Y-108905820D01*
X169524188Y-109025518D01*
X169511928Y-109150000D01*
X169515000Y-109714250D01*
X169673750Y-109873000D01*
X170873000Y-109873000D01*
X170873000Y-109853000D01*
X171127000Y-109853000D01*
X171127000Y-109873000D01*
X172326250Y-109873000D01*
X172485000Y-109714250D01*
X172488072Y-109150000D01*
X172475812Y-109025518D01*
X172439502Y-108905820D01*
X172380537Y-108795506D01*
X172301185Y-108698815D01*
X172204494Y-108619463D01*
X172094180Y-108560498D01*
X172025313Y-108539607D01*
X172055134Y-108515134D01*
X172240706Y-108289014D01*
X172277595Y-108220000D01*
X178502678Y-108220000D01*
X178540000Y-108223676D01*
X178577322Y-108220000D01*
X178577333Y-108220000D01*
X178688986Y-108209003D01*
X178832247Y-108165546D01*
X178964276Y-108094974D01*
X179080001Y-108000001D01*
X179103804Y-107970997D01*
X180611003Y-106463799D01*
X180640001Y-106440001D01*
X180668836Y-106404866D01*
X180734974Y-106324277D01*
X180805546Y-106192247D01*
X180826164Y-106124276D01*
X180849003Y-106048985D01*
X180860000Y-105937332D01*
X180860000Y-105937324D01*
X180863676Y-105900001D01*
X180860000Y-105862678D01*
X180860000Y-86775000D01*
X185606928Y-86775000D01*
X185619188Y-86899482D01*
X185655498Y-87019180D01*
X185714463Y-87129494D01*
X185793815Y-87226185D01*
X185890506Y-87305537D01*
X186000820Y-87364502D01*
X186120518Y-87400812D01*
X186245000Y-87413072D01*
X187259250Y-87410000D01*
X187418000Y-87251250D01*
X187418000Y-85602000D01*
X187672000Y-85602000D01*
X187672000Y-87251250D01*
X187830750Y-87410000D01*
X188845000Y-87413072D01*
X188969482Y-87400812D01*
X189089180Y-87364502D01*
X189199494Y-87305537D01*
X189296185Y-87226185D01*
X189375537Y-87129494D01*
X189434502Y-87019180D01*
X189470812Y-86899482D01*
X189483072Y-86775000D01*
X189480000Y-85760750D01*
X189321250Y-85602000D01*
X187672000Y-85602000D01*
X187418000Y-85602000D01*
X185768750Y-85602000D01*
X185610000Y-85760750D01*
X185606928Y-86775000D01*
X180860000Y-86775000D01*
X180860000Y-84175000D01*
X185606928Y-84175000D01*
X185610000Y-85189250D01*
X185768750Y-85348000D01*
X187418000Y-85348000D01*
X187418000Y-83698750D01*
X187672000Y-83698750D01*
X187672000Y-85348000D01*
X189321250Y-85348000D01*
X189384831Y-85284419D01*
X190610000Y-85284419D01*
X190610000Y-85665581D01*
X190684361Y-86039419D01*
X190830225Y-86391566D01*
X191041987Y-86708491D01*
X191311509Y-86978013D01*
X191628434Y-87189775D01*
X191980581Y-87335639D01*
X192354419Y-87410000D01*
X192735581Y-87410000D01*
X193109419Y-87335639D01*
X193461566Y-87189775D01*
X193778491Y-86978013D01*
X193981504Y-86775000D01*
X197561928Y-86775000D01*
X197574188Y-86899482D01*
X197610498Y-87019180D01*
X197669463Y-87129494D01*
X197748815Y-87226185D01*
X197845506Y-87305537D01*
X197955820Y-87364502D01*
X198075518Y-87400812D01*
X198200000Y-87413072D01*
X199214250Y-87410000D01*
X199373000Y-87251250D01*
X199373000Y-85602000D01*
X199627000Y-85602000D01*
X199627000Y-87251250D01*
X199785750Y-87410000D01*
X200800000Y-87413072D01*
X200924482Y-87400812D01*
X201044180Y-87364502D01*
X201154494Y-87305537D01*
X201251185Y-87226185D01*
X201330537Y-87129494D01*
X201389502Y-87019180D01*
X201425812Y-86899482D01*
X201438072Y-86775000D01*
X201435000Y-85760750D01*
X201276250Y-85602000D01*
X199627000Y-85602000D01*
X199373000Y-85602000D01*
X197723750Y-85602000D01*
X197565000Y-85760750D01*
X197561928Y-86775000D01*
X193981504Y-86775000D01*
X194048013Y-86708491D01*
X194259775Y-86391566D01*
X194405639Y-86039419D01*
X194480000Y-85665581D01*
X194480000Y-85284419D01*
X194405639Y-84910581D01*
X194259775Y-84558434D01*
X194048013Y-84241509D01*
X193981504Y-84175000D01*
X197561928Y-84175000D01*
X197565000Y-85189250D01*
X197723750Y-85348000D01*
X199373000Y-85348000D01*
X199373000Y-83698750D01*
X199627000Y-83698750D01*
X199627000Y-85348000D01*
X201276250Y-85348000D01*
X201339831Y-85284419D01*
X202565000Y-85284419D01*
X202565000Y-85665581D01*
X202639361Y-86039419D01*
X202785225Y-86391566D01*
X202996987Y-86708491D01*
X203266509Y-86978013D01*
X203583434Y-87189775D01*
X203935581Y-87335639D01*
X204309419Y-87410000D01*
X204690581Y-87410000D01*
X205064419Y-87335639D01*
X205416566Y-87189775D01*
X205733491Y-86978013D01*
X206003013Y-86708491D01*
X206214775Y-86391566D01*
X206360639Y-86039419D01*
X206435000Y-85665581D01*
X206435000Y-85284419D01*
X206360639Y-84910581D01*
X206214775Y-84558434D01*
X206003013Y-84241509D01*
X205733491Y-83971987D01*
X205416566Y-83760225D01*
X205064419Y-83614361D01*
X204690581Y-83540000D01*
X204309419Y-83540000D01*
X203935581Y-83614361D01*
X203583434Y-83760225D01*
X203266509Y-83971987D01*
X202996987Y-84241509D01*
X202785225Y-84558434D01*
X202639361Y-84910581D01*
X202565000Y-85284419D01*
X201339831Y-85284419D01*
X201435000Y-85189250D01*
X201438072Y-84175000D01*
X201425812Y-84050518D01*
X201389502Y-83930820D01*
X201330537Y-83820506D01*
X201251185Y-83723815D01*
X201154494Y-83644463D01*
X201044180Y-83585498D01*
X200924482Y-83549188D01*
X200800000Y-83536928D01*
X199785750Y-83540000D01*
X199627000Y-83698750D01*
X199373000Y-83698750D01*
X199214250Y-83540000D01*
X198200000Y-83536928D01*
X198075518Y-83549188D01*
X197955820Y-83585498D01*
X197845506Y-83644463D01*
X197748815Y-83723815D01*
X197669463Y-83820506D01*
X197610498Y-83930820D01*
X197574188Y-84050518D01*
X197561928Y-84175000D01*
X193981504Y-84175000D01*
X193778491Y-83971987D01*
X193461566Y-83760225D01*
X193109419Y-83614361D01*
X192735581Y-83540000D01*
X192354419Y-83540000D01*
X191980581Y-83614361D01*
X191628434Y-83760225D01*
X191311509Y-83971987D01*
X191041987Y-84241509D01*
X190830225Y-84558434D01*
X190684361Y-84910581D01*
X190610000Y-85284419D01*
X189384831Y-85284419D01*
X189480000Y-85189250D01*
X189483072Y-84175000D01*
X189470812Y-84050518D01*
X189434502Y-83930820D01*
X189375537Y-83820506D01*
X189296185Y-83723815D01*
X189199494Y-83644463D01*
X189089180Y-83585498D01*
X188969482Y-83549188D01*
X188845000Y-83536928D01*
X187830750Y-83540000D01*
X187672000Y-83698750D01*
X187418000Y-83698750D01*
X187259250Y-83540000D01*
X186245000Y-83536928D01*
X186120518Y-83549188D01*
X186000820Y-83585498D01*
X185890506Y-83644463D01*
X185793815Y-83723815D01*
X185714463Y-83820506D01*
X185655498Y-83930820D01*
X185619188Y-84050518D01*
X185606928Y-84175000D01*
X180860000Y-84175000D01*
X180860000Y-84014801D01*
X182014802Y-82860000D01*
X200439048Y-82860000D01*
X200476370Y-82863676D01*
X200513692Y-82860000D01*
X200513703Y-82860000D01*
X200625356Y-82849003D01*
X200768617Y-82805546D01*
X200900646Y-82734974D01*
X201016371Y-82640001D01*
X201040174Y-82610997D01*
X205216003Y-78435169D01*
X205245001Y-78411371D01*
X205321074Y-78318676D01*
X205339974Y-78295647D01*
X205410546Y-78163617D01*
X205429008Y-78102754D01*
X205454003Y-78020356D01*
X205459573Y-77963802D01*
X205506101Y-77938932D01*
X205724608Y-77759608D01*
X205903932Y-77541101D01*
X205975000Y-77408142D01*
X206046068Y-77541101D01*
X206225392Y-77759608D01*
X206443899Y-77938932D01*
X206693192Y-78072182D01*
X206963691Y-78154236D01*
X207174508Y-78175000D01*
X207315492Y-78175000D01*
X207526309Y-78154236D01*
X207796808Y-78072182D01*
X208046101Y-77938932D01*
X208264608Y-77759608D01*
X208443932Y-77541101D01*
X208577182Y-77291808D01*
X208659236Y-77021309D01*
X208686943Y-76740000D01*
X208659236Y-76458691D01*
X208577182Y-76188192D01*
X208443932Y-75938899D01*
X208264608Y-75720392D01*
X208046101Y-75541068D01*
X207796808Y-75407818D01*
X207526309Y-75325764D01*
X207315492Y-75305000D01*
X207174508Y-75305000D01*
X206963691Y-75325764D01*
X206693192Y-75407818D01*
X206443899Y-75541068D01*
X206225392Y-75720392D01*
X206046068Y-75938899D01*
X205975000Y-76071858D01*
X205903932Y-75938899D01*
X205724608Y-75720392D01*
X205506101Y-75541068D01*
X205256808Y-75407818D01*
X204986309Y-75325764D01*
X204775492Y-75305000D01*
X204634508Y-75305000D01*
X204423691Y-75325764D01*
X204153192Y-75407818D01*
X203903899Y-75541068D01*
X203685392Y-75720392D01*
X203506068Y-75938899D01*
X203435000Y-76071858D01*
X203363932Y-75938899D01*
X203184608Y-75720392D01*
X202966101Y-75541068D01*
X202716808Y-75407818D01*
X202446309Y-75325764D01*
X202235492Y-75305000D01*
X202094508Y-75305000D01*
X201883691Y-75325764D01*
X201613192Y-75407818D01*
X201363899Y-75541068D01*
X201145392Y-75720392D01*
X200966068Y-75938899D01*
X200895000Y-76071858D01*
X200823932Y-75938899D01*
X200644608Y-75720392D01*
X200426101Y-75541068D01*
X200176808Y-75407818D01*
X199906309Y-75325764D01*
X199695492Y-75305000D01*
X199554508Y-75305000D01*
X199343691Y-75325764D01*
X199073192Y-75407818D01*
X198823899Y-75541068D01*
X198605392Y-75720392D01*
X198426068Y-75938899D01*
X198355000Y-76071858D01*
X198283932Y-75938899D01*
X198104608Y-75720392D01*
X197886101Y-75541068D01*
X197839573Y-75516198D01*
X197834003Y-75459644D01*
X197790546Y-75316383D01*
X197777086Y-75291201D01*
X197719974Y-75184353D01*
X197648799Y-75097627D01*
X197625001Y-75068629D01*
X197596003Y-75044831D01*
X194140174Y-71589003D01*
X194116371Y-71559999D01*
X194000646Y-71465026D01*
X193868617Y-71394454D01*
X193725356Y-71350997D01*
X193613703Y-71340000D01*
X193613692Y-71340000D01*
X193576370Y-71336324D01*
X193539048Y-71340000D01*
X104687323Y-71340000D01*
X104650000Y-71336324D01*
X104612677Y-71340000D01*
X104612667Y-71340000D01*
X104501014Y-71350997D01*
X104357753Y-71394454D01*
X104225724Y-71465026D01*
X104109999Y-71559999D01*
X104086201Y-71588997D01*
X100220986Y-75454213D01*
X100064419Y-75389361D01*
X99690581Y-75315000D01*
X99309419Y-75315000D01*
X98935581Y-75389361D01*
X98583434Y-75535225D01*
X98266509Y-75746987D01*
X97996987Y-76016509D01*
X97785225Y-76333434D01*
X97639361Y-76685581D01*
X97565000Y-77059419D01*
X97565000Y-77440581D01*
X97639361Y-77814419D01*
X97785225Y-78166566D01*
X97996987Y-78483491D01*
X98266509Y-78753013D01*
X98583434Y-78964775D01*
X98935581Y-79110639D01*
X99309419Y-79185000D01*
X99690581Y-79185000D01*
X100064419Y-79110639D01*
X100416566Y-78964775D01*
X100733491Y-78753013D01*
X101003013Y-78483491D01*
X101214775Y-78166566D01*
X101360639Y-77814419D01*
X101435000Y-77440581D01*
X101435000Y-77059419D01*
X101360639Y-76685581D01*
X101295787Y-76529014D01*
X103542393Y-74282408D01*
X111193000Y-74282408D01*
X111193000Y-74557592D01*
X111246686Y-74827490D01*
X111351995Y-75081727D01*
X111504880Y-75310535D01*
X111699465Y-75505120D01*
X111928273Y-75658005D01*
X112182510Y-75763314D01*
X112452408Y-75817000D01*
X112727592Y-75817000D01*
X112997490Y-75763314D01*
X113251727Y-75658005D01*
X113480535Y-75505120D01*
X113675120Y-75310535D01*
X113828005Y-75081727D01*
X113933314Y-74827490D01*
X113987000Y-74557592D01*
X113987000Y-74282408D01*
X113933314Y-74012510D01*
X113828005Y-73758273D01*
X113675120Y-73529465D01*
X113480535Y-73334880D01*
X113251727Y-73181995D01*
X112997490Y-73076686D01*
X112727592Y-73023000D01*
X112452408Y-73023000D01*
X112182510Y-73076686D01*
X111928273Y-73181995D01*
X111699465Y-73334880D01*
X111504880Y-73529465D01*
X111351995Y-73758273D01*
X111246686Y-74012510D01*
X111193000Y-74282408D01*
X103542393Y-74282408D01*
X104964802Y-72860000D01*
X193261569Y-72860000D01*
X196096462Y-75694894D01*
X196065392Y-75720392D01*
X195886068Y-75938899D01*
X195815000Y-76071858D01*
X195743932Y-75938899D01*
X195564608Y-75720392D01*
X195346101Y-75541068D01*
X195096808Y-75407818D01*
X194826309Y-75325764D01*
X194615492Y-75305000D01*
X194474508Y-75305000D01*
X194263691Y-75325764D01*
X193993192Y-75407818D01*
X193743899Y-75541068D01*
X193525392Y-75720392D01*
X193346068Y-75938899D01*
X193275000Y-76071858D01*
X193203932Y-75938899D01*
X193024608Y-75720392D01*
X192806101Y-75541068D01*
X192556808Y-75407818D01*
X192286309Y-75325764D01*
X192075492Y-75305000D01*
X191934508Y-75305000D01*
X191723691Y-75325764D01*
X191453192Y-75407818D01*
X191203899Y-75541068D01*
X190985392Y-75720392D01*
X190806068Y-75938899D01*
X190735000Y-76071858D01*
X190663932Y-75938899D01*
X190484608Y-75720392D01*
X190266101Y-75541068D01*
X190016808Y-75407818D01*
X189746309Y-75325764D01*
X189535492Y-75305000D01*
X189394508Y-75305000D01*
X189183691Y-75325764D01*
X188913192Y-75407818D01*
X188663899Y-75541068D01*
X188445392Y-75720392D01*
X188266068Y-75938899D01*
X188195000Y-76071858D01*
X188123932Y-75938899D01*
X187944608Y-75720392D01*
X187726101Y-75541068D01*
X187476808Y-75407818D01*
X187206309Y-75325764D01*
X186995492Y-75305000D01*
X186854508Y-75305000D01*
X186643691Y-75325764D01*
X186373192Y-75407818D01*
X186123899Y-75541068D01*
X185905392Y-75720392D01*
X185726068Y-75938899D01*
X185655000Y-76071858D01*
X185583932Y-75938899D01*
X185404608Y-75720392D01*
X185186101Y-75541068D01*
X184936808Y-75407818D01*
X184666309Y-75325764D01*
X184455492Y-75305000D01*
X184314508Y-75305000D01*
X184103691Y-75325764D01*
X183833192Y-75407818D01*
X183583899Y-75541068D01*
X183365392Y-75720392D01*
X183186068Y-75938899D01*
X183052818Y-76188192D01*
X182970764Y-76458691D01*
X182943057Y-76740000D01*
X182970764Y-77021309D01*
X183052818Y-77291808D01*
X183186068Y-77541101D01*
X183365392Y-77759608D01*
X183583899Y-77938932D01*
X183833192Y-78072182D01*
X184103691Y-78154236D01*
X184314508Y-78175000D01*
X184455492Y-78175000D01*
X184666309Y-78154236D01*
X184936808Y-78072182D01*
X185186101Y-77938932D01*
X185404608Y-77759608D01*
X185583932Y-77541101D01*
X185655000Y-77408142D01*
X185726068Y-77541101D01*
X185905392Y-77759608D01*
X186123899Y-77938932D01*
X186373192Y-78072182D01*
X186643691Y-78154236D01*
X186854508Y-78175000D01*
X186995492Y-78175000D01*
X187206309Y-78154236D01*
X187476808Y-78072182D01*
X187726101Y-77938932D01*
X187944608Y-77759608D01*
X188123932Y-77541101D01*
X188195000Y-77408142D01*
X188266068Y-77541101D01*
X188445392Y-77759608D01*
X188663899Y-77938932D01*
X188913192Y-78072182D01*
X189183691Y-78154236D01*
X189394508Y-78175000D01*
X189535492Y-78175000D01*
X189746309Y-78154236D01*
X190016808Y-78072182D01*
X190266101Y-77938932D01*
X190484608Y-77759608D01*
X190663932Y-77541101D01*
X190735000Y-77408142D01*
X190806068Y-77541101D01*
X190985392Y-77759608D01*
X191203899Y-77938932D01*
X191453192Y-78072182D01*
X191723691Y-78154236D01*
X191934508Y-78175000D01*
X192075492Y-78175000D01*
X192286309Y-78154236D01*
X192556808Y-78072182D01*
X192806101Y-77938932D01*
X193024608Y-77759608D01*
X193203932Y-77541101D01*
X193275000Y-77408142D01*
X193346068Y-77541101D01*
X193525392Y-77759608D01*
X193556462Y-77785106D01*
X192801569Y-78540000D01*
X171137323Y-78540000D01*
X171100000Y-78536324D01*
X171062677Y-78540000D01*
X171062667Y-78540000D01*
X170951014Y-78550997D01*
X170807753Y-78594454D01*
X170675723Y-78665026D01*
X170592083Y-78733668D01*
X170559999Y-78759999D01*
X170536201Y-78788997D01*
X167789003Y-81536196D01*
X167759999Y-81559999D01*
X167731723Y-81594454D01*
X167665026Y-81675724D01*
X167653065Y-81698102D01*
X167594454Y-81807754D01*
X167550997Y-81951015D01*
X167540000Y-82062668D01*
X167540000Y-82062678D01*
X167536324Y-82100000D01*
X167540000Y-82137322D01*
X167540001Y-115996288D01*
X167496063Y-116040226D01*
X167382795Y-116209744D01*
X167304774Y-116398102D01*
X167265000Y-116598061D01*
X167265000Y-116801939D01*
X167304774Y-117001898D01*
X167382795Y-117190256D01*
X167416033Y-117240000D01*
X123887323Y-117240000D01*
X123850000Y-117236324D01*
X123812677Y-117240000D01*
X123812667Y-117240000D01*
X123701014Y-117250997D01*
X123557753Y-117294454D01*
X123425724Y-117365026D01*
X123309999Y-117459999D01*
X123286201Y-117488997D01*
X119420986Y-121354213D01*
X119264419Y-121289361D01*
X118890581Y-121215000D01*
X118509419Y-121215000D01*
X118135581Y-121289361D01*
X117783434Y-121435225D01*
X117466509Y-121646987D01*
X117196987Y-121916509D01*
X116985225Y-122233434D01*
X116839361Y-122585581D01*
X116765000Y-122959419D01*
X116765000Y-123340581D01*
X116839361Y-123714419D01*
X116985225Y-124066566D01*
X117196987Y-124383491D01*
X117466509Y-124653013D01*
X117783434Y-124864775D01*
X118135581Y-125010639D01*
X118509419Y-125085000D01*
X118890581Y-125085000D01*
X119264419Y-125010639D01*
X119616566Y-124864775D01*
X119933491Y-124653013D01*
X120203013Y-124383491D01*
X120414775Y-124066566D01*
X120560639Y-123714419D01*
X120635000Y-123340581D01*
X120635000Y-122959419D01*
X121765000Y-122959419D01*
X121765000Y-123340581D01*
X121839361Y-123714419D01*
X121985225Y-124066566D01*
X122196987Y-124383491D01*
X122466509Y-124653013D01*
X122783434Y-124864775D01*
X123135581Y-125010639D01*
X123509419Y-125085000D01*
X123890581Y-125085000D01*
X124264419Y-125010639D01*
X124616566Y-124864775D01*
X124933491Y-124653013D01*
X125203013Y-124383491D01*
X125414775Y-124066566D01*
X125560639Y-123714419D01*
X125635000Y-123340581D01*
X125635000Y-122959419D01*
X125560639Y-122585581D01*
X125414775Y-122233434D01*
X125203013Y-121916509D01*
X125136504Y-121850000D01*
X126761928Y-121850000D01*
X126761928Y-124450000D01*
X126774188Y-124574482D01*
X126810498Y-124694180D01*
X126869463Y-124804494D01*
X126948815Y-124901185D01*
X127045506Y-124980537D01*
X127155820Y-125039502D01*
X127275518Y-125075812D01*
X127400000Y-125088072D01*
X130000000Y-125088072D01*
X130124482Y-125075812D01*
X130244180Y-125039502D01*
X130354494Y-124980537D01*
X130451185Y-124901185D01*
X130530537Y-124804494D01*
X130589502Y-124694180D01*
X130625812Y-124574482D01*
X130638072Y-124450000D01*
X130638072Y-121850000D01*
X130625812Y-121725518D01*
X130589502Y-121605820D01*
X130530537Y-121495506D01*
X130451185Y-121398815D01*
X130354494Y-121319463D01*
X130244180Y-121260498D01*
X130124482Y-121224188D01*
X130000000Y-121211928D01*
X127400000Y-121211928D01*
X127275518Y-121224188D01*
X127155820Y-121260498D01*
X127045506Y-121319463D01*
X126948815Y-121398815D01*
X126869463Y-121495506D01*
X126810498Y-121605820D01*
X126774188Y-121725518D01*
X126761928Y-121850000D01*
X125136504Y-121850000D01*
X124933491Y-121646987D01*
X124616566Y-121435225D01*
X124264419Y-121289361D01*
X123890581Y-121215000D01*
X123509419Y-121215000D01*
X123135581Y-121289361D01*
X122783434Y-121435225D01*
X122466509Y-121646987D01*
X122196987Y-121916509D01*
X121985225Y-122233434D01*
X121839361Y-122585581D01*
X121765000Y-122959419D01*
X120635000Y-122959419D01*
X120560639Y-122585581D01*
X120495787Y-122429014D01*
X124164802Y-118760000D01*
X138720198Y-118760000D01*
X136120986Y-121359213D01*
X135964419Y-121294361D01*
X135590581Y-121220000D01*
X135209419Y-121220000D01*
X134835581Y-121294361D01*
X134483434Y-121440225D01*
X134166509Y-121651987D01*
X133896987Y-121921509D01*
X133685225Y-122238434D01*
X133539361Y-122590581D01*
X133465000Y-122964419D01*
X133465000Y-123345581D01*
X133539361Y-123719419D01*
X133685225Y-124071566D01*
X133896987Y-124388491D01*
X134166509Y-124658013D01*
X134483434Y-124869775D01*
X134835581Y-125015639D01*
X135209419Y-125090000D01*
X135590581Y-125090000D01*
X135964419Y-125015639D01*
X136316566Y-124869775D01*
X136633491Y-124658013D01*
X136903013Y-124388491D01*
X137114775Y-124071566D01*
X137260639Y-123719419D01*
X137335000Y-123345581D01*
X137335000Y-122964419D01*
X137260639Y-122590581D01*
X137195787Y-122434014D01*
X137774801Y-121855000D01*
X138461928Y-121855000D01*
X138461928Y-124455000D01*
X138474188Y-124579482D01*
X138510498Y-124699180D01*
X138569463Y-124809494D01*
X138648815Y-124906185D01*
X138745506Y-124985537D01*
X138855820Y-125044502D01*
X138975518Y-125080812D01*
X139100000Y-125093072D01*
X141700000Y-125093072D01*
X141824482Y-125080812D01*
X141944180Y-125044502D01*
X142054494Y-124985537D01*
X142151185Y-124906185D01*
X142230537Y-124809494D01*
X142289502Y-124699180D01*
X142325812Y-124579482D01*
X142338072Y-124455000D01*
X142338072Y-123009419D01*
X144765000Y-123009419D01*
X144765000Y-123390581D01*
X144839361Y-123764419D01*
X144985225Y-124116566D01*
X145196987Y-124433491D01*
X145466509Y-124703013D01*
X145783434Y-124914775D01*
X146135581Y-125060639D01*
X146509419Y-125135000D01*
X146890581Y-125135000D01*
X147264419Y-125060639D01*
X147616566Y-124914775D01*
X147933491Y-124703013D01*
X148087280Y-124549224D01*
X150530381Y-124549224D01*
X150662317Y-124844312D01*
X151003045Y-125015159D01*
X151370557Y-125116250D01*
X151750729Y-125143701D01*
X152128951Y-125096457D01*
X152490690Y-124976333D01*
X152737683Y-124844312D01*
X152869619Y-124549224D01*
X151700000Y-123379605D01*
X150530381Y-124549224D01*
X148087280Y-124549224D01*
X148203013Y-124433491D01*
X148414775Y-124116566D01*
X148560639Y-123764419D01*
X148635000Y-123390581D01*
X148635000Y-123250729D01*
X149756299Y-123250729D01*
X149803543Y-123628951D01*
X149923667Y-123990690D01*
X150055688Y-124237683D01*
X150350776Y-124369619D01*
X151520395Y-123200000D01*
X151879605Y-123200000D01*
X153049224Y-124369619D01*
X153344312Y-124237683D01*
X153515159Y-123896955D01*
X153616250Y-123529443D01*
X153643701Y-123149271D01*
X153596457Y-122771049D01*
X153476333Y-122409310D01*
X153344312Y-122162317D01*
X153049224Y-122030381D01*
X151879605Y-123200000D01*
X151520395Y-123200000D01*
X150350776Y-122030381D01*
X150055688Y-122162317D01*
X149884841Y-122503045D01*
X149783750Y-122870557D01*
X149756299Y-123250729D01*
X148635000Y-123250729D01*
X148635000Y-123009419D01*
X148560639Y-122635581D01*
X148414775Y-122283434D01*
X148203013Y-121966509D01*
X148087280Y-121850776D01*
X150530381Y-121850776D01*
X151700000Y-123020395D01*
X152820395Y-121900000D01*
X154761928Y-121900000D01*
X154761928Y-124500000D01*
X154774188Y-124624482D01*
X154810498Y-124744180D01*
X154869463Y-124854494D01*
X154948815Y-124951185D01*
X155045506Y-125030537D01*
X155155820Y-125089502D01*
X155275518Y-125125812D01*
X155400000Y-125138072D01*
X158000000Y-125138072D01*
X158124482Y-125125812D01*
X158244180Y-125089502D01*
X158354494Y-125030537D01*
X158451185Y-124951185D01*
X158530537Y-124854494D01*
X158589502Y-124744180D01*
X158625812Y-124624482D01*
X158638072Y-124500000D01*
X158638072Y-124200000D01*
X192086928Y-124200000D01*
X192086928Y-125800000D01*
X192099188Y-125924482D01*
X192135498Y-126044180D01*
X192194463Y-126154494D01*
X192273815Y-126251185D01*
X192370506Y-126330537D01*
X192480820Y-126389502D01*
X192600518Y-126425812D01*
X192725000Y-126438072D01*
X194325000Y-126438072D01*
X194449482Y-126425812D01*
X194569180Y-126389502D01*
X194679494Y-126330537D01*
X194776185Y-126251185D01*
X194855537Y-126154494D01*
X194914502Y-126044180D01*
X194950812Y-125924482D01*
X194952581Y-125906518D01*
X195045392Y-126019608D01*
X195263899Y-126198932D01*
X195513192Y-126332182D01*
X195783691Y-126414236D01*
X195994508Y-126435000D01*
X196135492Y-126435000D01*
X196346309Y-126414236D01*
X196616808Y-126332182D01*
X196866101Y-126198932D01*
X197084608Y-126019608D01*
X197263932Y-125801101D01*
X197335000Y-125668142D01*
X197406068Y-125801101D01*
X197585392Y-126019608D01*
X197803899Y-126198932D01*
X198053192Y-126332182D01*
X198323691Y-126414236D01*
X198534508Y-126435000D01*
X198675492Y-126435000D01*
X198886309Y-126414236D01*
X199156808Y-126332182D01*
X199406101Y-126198932D01*
X199624608Y-126019608D01*
X199803932Y-125801101D01*
X199875000Y-125668142D01*
X199946068Y-125801101D01*
X200125392Y-126019608D01*
X200343899Y-126198932D01*
X200593192Y-126332182D01*
X200863691Y-126414236D01*
X201074508Y-126435000D01*
X201215492Y-126435000D01*
X201426309Y-126414236D01*
X201696808Y-126332182D01*
X201946101Y-126198932D01*
X202164608Y-126019608D01*
X202343932Y-125801101D01*
X202415000Y-125668142D01*
X202486068Y-125801101D01*
X202665392Y-126019608D01*
X202883899Y-126198932D01*
X203133192Y-126332182D01*
X203403691Y-126414236D01*
X203614508Y-126435000D01*
X203755492Y-126435000D01*
X203966309Y-126414236D01*
X204236808Y-126332182D01*
X204486101Y-126198932D01*
X204704608Y-126019608D01*
X204883932Y-125801101D01*
X204955000Y-125668142D01*
X205026068Y-125801101D01*
X205205392Y-126019608D01*
X205423899Y-126198932D01*
X205673192Y-126332182D01*
X205943691Y-126414236D01*
X206154508Y-126435000D01*
X206295492Y-126435000D01*
X206506309Y-126414236D01*
X206776808Y-126332182D01*
X207026101Y-126198932D01*
X207244608Y-126019608D01*
X207423932Y-125801101D01*
X207497579Y-125663318D01*
X207612615Y-125855131D01*
X207801586Y-126063519D01*
X208027580Y-126231037D01*
X208281913Y-126351246D01*
X208415961Y-126391904D01*
X208638000Y-126269915D01*
X208638000Y-125127000D01*
X208618000Y-125127000D01*
X208618000Y-124873000D01*
X208638000Y-124873000D01*
X208638000Y-123730085D01*
X208892000Y-123730085D01*
X208892000Y-124873000D01*
X208912000Y-124873000D01*
X208912000Y-125127000D01*
X208892000Y-125127000D01*
X208892000Y-126269915D01*
X209114039Y-126391904D01*
X209248087Y-126351246D01*
X209502420Y-126231037D01*
X209728414Y-126063519D01*
X209917385Y-125855131D01*
X210032421Y-125663318D01*
X210106068Y-125801101D01*
X210285392Y-126019608D01*
X210503899Y-126198932D01*
X210753192Y-126332182D01*
X211023691Y-126414236D01*
X211234508Y-126435000D01*
X211375492Y-126435000D01*
X211586309Y-126414236D01*
X211856808Y-126332182D01*
X212106101Y-126198932D01*
X212324608Y-126019608D01*
X212503932Y-125801101D01*
X212637182Y-125551808D01*
X212719236Y-125281309D01*
X212746943Y-125000000D01*
X212719236Y-124718691D01*
X212637182Y-124448192D01*
X212503932Y-124198899D01*
X212324608Y-123980392D01*
X212106101Y-123801068D01*
X211856808Y-123667818D01*
X211586309Y-123585764D01*
X211375492Y-123565000D01*
X211234508Y-123565000D01*
X211023691Y-123585764D01*
X210753192Y-123667818D01*
X210503899Y-123801068D01*
X210285392Y-123980392D01*
X210106068Y-124198899D01*
X210032421Y-124336682D01*
X209917385Y-124144869D01*
X209728414Y-123936481D01*
X209502420Y-123768963D01*
X209248087Y-123648754D01*
X209114039Y-123608096D01*
X208892000Y-123730085D01*
X208638000Y-123730085D01*
X208415961Y-123608096D01*
X208281913Y-123648754D01*
X208027580Y-123768963D01*
X207801586Y-123936481D01*
X207612615Y-124144869D01*
X207497579Y-124336682D01*
X207423932Y-124198899D01*
X207244608Y-123980392D01*
X207026101Y-123801068D01*
X206776808Y-123667818D01*
X206506309Y-123585764D01*
X206295492Y-123565000D01*
X206154508Y-123565000D01*
X205943691Y-123585764D01*
X205673192Y-123667818D01*
X205423899Y-123801068D01*
X205205392Y-123980392D01*
X205026068Y-124198899D01*
X204955000Y-124331858D01*
X204883932Y-124198899D01*
X204704608Y-123980392D01*
X204486101Y-123801068D01*
X204236808Y-123667818D01*
X203966309Y-123585764D01*
X203755492Y-123565000D01*
X203614508Y-123565000D01*
X203403691Y-123585764D01*
X203133192Y-123667818D01*
X202883899Y-123801068D01*
X202665392Y-123980392D01*
X202486068Y-124198899D01*
X202415000Y-124331858D01*
X202343932Y-124198899D01*
X202164608Y-123980392D01*
X201946101Y-123801068D01*
X201696808Y-123667818D01*
X201426309Y-123585764D01*
X201215492Y-123565000D01*
X201074508Y-123565000D01*
X200863691Y-123585764D01*
X200593192Y-123667818D01*
X200343899Y-123801068D01*
X200125392Y-123980392D01*
X199946068Y-124198899D01*
X199875000Y-124331858D01*
X199803932Y-124198899D01*
X199624608Y-123980392D01*
X199406101Y-123801068D01*
X199156808Y-123667818D01*
X198886309Y-123585764D01*
X198675492Y-123565000D01*
X198534508Y-123565000D01*
X198323691Y-123585764D01*
X198053192Y-123667818D01*
X197803899Y-123801068D01*
X197585392Y-123980392D01*
X197406068Y-124198899D01*
X197335000Y-124331858D01*
X197263932Y-124198899D01*
X197084608Y-123980392D01*
X196866101Y-123801068D01*
X196616808Y-123667818D01*
X196346309Y-123585764D01*
X196135492Y-123565000D01*
X195994508Y-123565000D01*
X195783691Y-123585764D01*
X195513192Y-123667818D01*
X195263899Y-123801068D01*
X195045392Y-123980392D01*
X194952581Y-124093482D01*
X194950812Y-124075518D01*
X194914502Y-123955820D01*
X194855537Y-123845506D01*
X194776185Y-123748815D01*
X194679494Y-123669463D01*
X194569180Y-123610498D01*
X194449482Y-123574188D01*
X194325000Y-123561928D01*
X192725000Y-123561928D01*
X192600518Y-123574188D01*
X192480820Y-123610498D01*
X192370506Y-123669463D01*
X192273815Y-123748815D01*
X192194463Y-123845506D01*
X192135498Y-123955820D01*
X192099188Y-124075518D01*
X192086928Y-124200000D01*
X158638072Y-124200000D01*
X158638072Y-121900000D01*
X158625812Y-121775518D01*
X158589502Y-121655820D01*
X158530537Y-121545506D01*
X158451185Y-121448815D01*
X158354494Y-121369463D01*
X158244180Y-121310498D01*
X158124482Y-121274188D01*
X158000000Y-121261928D01*
X155400000Y-121261928D01*
X155275518Y-121274188D01*
X155155820Y-121310498D01*
X155045506Y-121369463D01*
X154948815Y-121448815D01*
X154869463Y-121545506D01*
X154810498Y-121655820D01*
X154774188Y-121775518D01*
X154761928Y-121900000D01*
X152820395Y-121900000D01*
X152869619Y-121850776D01*
X152737683Y-121555688D01*
X152396955Y-121384841D01*
X152029443Y-121283750D01*
X151649271Y-121256299D01*
X151271049Y-121303543D01*
X150909310Y-121423667D01*
X150662317Y-121555688D01*
X150530381Y-121850776D01*
X148087280Y-121850776D01*
X147933491Y-121696987D01*
X147616566Y-121485225D01*
X147264419Y-121339361D01*
X146890581Y-121265000D01*
X146509419Y-121265000D01*
X146135581Y-121339361D01*
X145783434Y-121485225D01*
X145466509Y-121696987D01*
X145196987Y-121966509D01*
X144985225Y-122283434D01*
X144839361Y-122635581D01*
X144765000Y-123009419D01*
X142338072Y-123009419D01*
X142338072Y-121855000D01*
X142325812Y-121730518D01*
X142289502Y-121610820D01*
X142230537Y-121500506D01*
X142151185Y-121403815D01*
X142054494Y-121324463D01*
X141944180Y-121265498D01*
X141824482Y-121229188D01*
X141700000Y-121216928D01*
X139100000Y-121216928D01*
X138975518Y-121229188D01*
X138855820Y-121265498D01*
X138745506Y-121324463D01*
X138648815Y-121403815D01*
X138569463Y-121500506D01*
X138510498Y-121610820D01*
X138474188Y-121730518D01*
X138461928Y-121855000D01*
X137774801Y-121855000D01*
X139619802Y-120010000D01*
X178712678Y-120010000D01*
X178750000Y-120013676D01*
X178787322Y-120010000D01*
X178787333Y-120010000D01*
X178898986Y-119999003D01*
X179042247Y-119955546D01*
X179174276Y-119884974D01*
X179290001Y-119790001D01*
X179313804Y-119760997D01*
X181590382Y-117484419D01*
X201115000Y-117484419D01*
X201115000Y-117865581D01*
X201189361Y-118239419D01*
X201335225Y-118591566D01*
X201546987Y-118908491D01*
X201816509Y-119178013D01*
X202133434Y-119389775D01*
X202485581Y-119535639D01*
X202859419Y-119610000D01*
X203240581Y-119610000D01*
X203614419Y-119535639D01*
X203966566Y-119389775D01*
X204283491Y-119178013D01*
X204553013Y-118908491D01*
X204764775Y-118591566D01*
X204910639Y-118239419D01*
X204985000Y-117865581D01*
X204985000Y-117484419D01*
X206115000Y-117484419D01*
X206115000Y-117865581D01*
X206189361Y-118239419D01*
X206335225Y-118591566D01*
X206546987Y-118908491D01*
X206816509Y-119178013D01*
X207133434Y-119389775D01*
X207485581Y-119535639D01*
X207859419Y-119610000D01*
X208240581Y-119610000D01*
X208614419Y-119535639D01*
X208966566Y-119389775D01*
X209283491Y-119178013D01*
X209486504Y-118975000D01*
X211111928Y-118975000D01*
X211124188Y-119099482D01*
X211160498Y-119219180D01*
X211219463Y-119329494D01*
X211298815Y-119426185D01*
X211395506Y-119505537D01*
X211505820Y-119564502D01*
X211625518Y-119600812D01*
X211750000Y-119613072D01*
X212764250Y-119610000D01*
X212923000Y-119451250D01*
X212923000Y-117802000D01*
X213177000Y-117802000D01*
X213177000Y-119451250D01*
X213335750Y-119610000D01*
X214350000Y-119613072D01*
X214474482Y-119600812D01*
X214594180Y-119564502D01*
X214704494Y-119505537D01*
X214801185Y-119426185D01*
X214880537Y-119329494D01*
X214939502Y-119219180D01*
X214975812Y-119099482D01*
X214988072Y-118975000D01*
X214985000Y-117960750D01*
X214826250Y-117802000D01*
X213177000Y-117802000D01*
X212923000Y-117802000D01*
X211273750Y-117802000D01*
X211115000Y-117960750D01*
X211111928Y-118975000D01*
X209486504Y-118975000D01*
X209553013Y-118908491D01*
X209764775Y-118591566D01*
X209910639Y-118239419D01*
X209985000Y-117865581D01*
X209985000Y-117484419D01*
X209910639Y-117110581D01*
X209764775Y-116758434D01*
X209553013Y-116441509D01*
X209486504Y-116375000D01*
X211111928Y-116375000D01*
X211115000Y-117389250D01*
X211273750Y-117548000D01*
X212923000Y-117548000D01*
X212923000Y-115898750D01*
X213177000Y-115898750D01*
X213177000Y-117548000D01*
X214826250Y-117548000D01*
X214889831Y-117484419D01*
X217965000Y-117484419D01*
X217965000Y-117865581D01*
X218039361Y-118239419D01*
X218185225Y-118591566D01*
X218396987Y-118908491D01*
X218666509Y-119178013D01*
X218983434Y-119389775D01*
X219335581Y-119535639D01*
X219709419Y-119610000D01*
X220090581Y-119610000D01*
X220464419Y-119535639D01*
X220816566Y-119389775D01*
X221133491Y-119178013D01*
X221287280Y-119024224D01*
X223730381Y-119024224D01*
X223862317Y-119319312D01*
X224203045Y-119490159D01*
X224570557Y-119591250D01*
X224950729Y-119618701D01*
X225328951Y-119571457D01*
X225690690Y-119451333D01*
X225937683Y-119319312D01*
X226069619Y-119024224D01*
X224900000Y-117854605D01*
X223730381Y-119024224D01*
X221287280Y-119024224D01*
X221403013Y-118908491D01*
X221614775Y-118591566D01*
X221760639Y-118239419D01*
X221835000Y-117865581D01*
X221835000Y-117725729D01*
X222956299Y-117725729D01*
X223003543Y-118103951D01*
X223123667Y-118465690D01*
X223255688Y-118712683D01*
X223550776Y-118844619D01*
X224720395Y-117675000D01*
X225079605Y-117675000D01*
X226249224Y-118844619D01*
X226544312Y-118712683D01*
X226715159Y-118371955D01*
X226816250Y-118004443D01*
X226843701Y-117624271D01*
X226796457Y-117246049D01*
X226676333Y-116884310D01*
X226544312Y-116637317D01*
X226249224Y-116505381D01*
X225079605Y-117675000D01*
X224720395Y-117675000D01*
X223550776Y-116505381D01*
X223255688Y-116637317D01*
X223084841Y-116978045D01*
X222983750Y-117345557D01*
X222956299Y-117725729D01*
X221835000Y-117725729D01*
X221835000Y-117484419D01*
X221760639Y-117110581D01*
X221614775Y-116758434D01*
X221403013Y-116441509D01*
X221287280Y-116325776D01*
X223730381Y-116325776D01*
X224900000Y-117495395D01*
X226020395Y-116375000D01*
X227961928Y-116375000D01*
X227961928Y-118975000D01*
X227974188Y-119099482D01*
X228010498Y-119219180D01*
X228069463Y-119329494D01*
X228148815Y-119426185D01*
X228245506Y-119505537D01*
X228355820Y-119564502D01*
X228475518Y-119600812D01*
X228600000Y-119613072D01*
X231200000Y-119613072D01*
X231324482Y-119600812D01*
X231444180Y-119564502D01*
X231554494Y-119505537D01*
X231651185Y-119426185D01*
X231730537Y-119329494D01*
X231789502Y-119219180D01*
X231825812Y-119099482D01*
X231838072Y-118975000D01*
X231838072Y-116375000D01*
X231825812Y-116250518D01*
X231789502Y-116130820D01*
X231730537Y-116020506D01*
X231651185Y-115923815D01*
X231554494Y-115844463D01*
X231444180Y-115785498D01*
X231324482Y-115749188D01*
X231200000Y-115736928D01*
X228600000Y-115736928D01*
X228475518Y-115749188D01*
X228355820Y-115785498D01*
X228245506Y-115844463D01*
X228148815Y-115923815D01*
X228069463Y-116020506D01*
X228010498Y-116130820D01*
X227974188Y-116250518D01*
X227961928Y-116375000D01*
X226020395Y-116375000D01*
X226069619Y-116325776D01*
X225937683Y-116030688D01*
X225596955Y-115859841D01*
X225229443Y-115758750D01*
X224849271Y-115731299D01*
X224471049Y-115778543D01*
X224109310Y-115898667D01*
X223862317Y-116030688D01*
X223730381Y-116325776D01*
X221287280Y-116325776D01*
X221133491Y-116171987D01*
X220816566Y-115960225D01*
X220464419Y-115814361D01*
X220090581Y-115740000D01*
X219709419Y-115740000D01*
X219335581Y-115814361D01*
X218983434Y-115960225D01*
X218666509Y-116171987D01*
X218396987Y-116441509D01*
X218185225Y-116758434D01*
X218039361Y-117110581D01*
X217965000Y-117484419D01*
X214889831Y-117484419D01*
X214985000Y-117389250D01*
X214988072Y-116375000D01*
X214975812Y-116250518D01*
X214939502Y-116130820D01*
X214880537Y-116020506D01*
X214801185Y-115923815D01*
X214704494Y-115844463D01*
X214594180Y-115785498D01*
X214474482Y-115749188D01*
X214350000Y-115736928D01*
X213335750Y-115740000D01*
X213177000Y-115898750D01*
X212923000Y-115898750D01*
X212764250Y-115740000D01*
X211750000Y-115736928D01*
X211625518Y-115749188D01*
X211505820Y-115785498D01*
X211395506Y-115844463D01*
X211298815Y-115923815D01*
X211219463Y-116020506D01*
X211160498Y-116130820D01*
X211124188Y-116250518D01*
X211111928Y-116375000D01*
X209486504Y-116375000D01*
X209283491Y-116171987D01*
X208966566Y-115960225D01*
X208614419Y-115814361D01*
X208240581Y-115740000D01*
X207859419Y-115740000D01*
X207485581Y-115814361D01*
X207133434Y-115960225D01*
X206816509Y-116171987D01*
X206546987Y-116441509D01*
X206335225Y-116758434D01*
X206189361Y-117110581D01*
X206115000Y-117484419D01*
X204985000Y-117484419D01*
X204910639Y-117110581D01*
X204764775Y-116758434D01*
X204553013Y-116441509D01*
X204283491Y-116171987D01*
X203966566Y-115960225D01*
X203614419Y-115814361D01*
X203240581Y-115740000D01*
X202859419Y-115740000D01*
X202485581Y-115814361D01*
X202133434Y-115960225D01*
X201816509Y-116171987D01*
X201546987Y-116441509D01*
X201335225Y-116758434D01*
X201189361Y-117110581D01*
X201115000Y-117484419D01*
X181590382Y-117484419D01*
X192017911Y-107056890D01*
X230558524Y-107056890D01*
X230603175Y-107204099D01*
X230728359Y-107466920D01*
X230902412Y-107700269D01*
X231118645Y-107895178D01*
X231368748Y-108044157D01*
X231643109Y-108141481D01*
X231873000Y-108020814D01*
X231873000Y-106827000D01*
X230679845Y-106827000D01*
X230558524Y-107056890D01*
X192017911Y-107056890D01*
X214361928Y-84712874D01*
X214361928Y-86775000D01*
X214374188Y-86899482D01*
X214410498Y-87019180D01*
X214469463Y-87129494D01*
X214548815Y-87226185D01*
X214645506Y-87305537D01*
X214755820Y-87364502D01*
X214875518Y-87400812D01*
X215000000Y-87413072D01*
X217600000Y-87413072D01*
X217724482Y-87400812D01*
X217844180Y-87364502D01*
X217954494Y-87305537D01*
X218051185Y-87226185D01*
X218130537Y-87129494D01*
X218189502Y-87019180D01*
X218225812Y-86899482D01*
X218233224Y-86824224D01*
X220130381Y-86824224D01*
X220262317Y-87119312D01*
X220603045Y-87290159D01*
X220970557Y-87391250D01*
X221350729Y-87418701D01*
X221728951Y-87371457D01*
X222090690Y-87251333D01*
X222337683Y-87119312D01*
X222469619Y-86824224D01*
X221300000Y-85654605D01*
X220130381Y-86824224D01*
X218233224Y-86824224D01*
X218238072Y-86775000D01*
X218238072Y-85525729D01*
X219356299Y-85525729D01*
X219403543Y-85903951D01*
X219523667Y-86265690D01*
X219655688Y-86512683D01*
X219950776Y-86644619D01*
X221120395Y-85475000D01*
X221479605Y-85475000D01*
X222649224Y-86644619D01*
X222944312Y-86512683D01*
X223115159Y-86171955D01*
X223216250Y-85804443D01*
X223243701Y-85424271D01*
X223226232Y-85284419D01*
X224365000Y-85284419D01*
X224365000Y-85665581D01*
X224439361Y-86039419D01*
X224585225Y-86391566D01*
X224796987Y-86708491D01*
X225066509Y-86978013D01*
X225383434Y-87189775D01*
X225735581Y-87335639D01*
X226109419Y-87410000D01*
X226490581Y-87410000D01*
X226864419Y-87335639D01*
X227216566Y-87189775D01*
X227533491Y-86978013D01*
X227803013Y-86708491D01*
X228014775Y-86391566D01*
X228160639Y-86039419D01*
X228235000Y-85665581D01*
X228235000Y-85284419D01*
X228160639Y-84910581D01*
X228014775Y-84558434D01*
X227803013Y-84241509D01*
X227533491Y-83971987D01*
X227216566Y-83760225D01*
X226864419Y-83614361D01*
X226490581Y-83540000D01*
X226109419Y-83540000D01*
X225735581Y-83614361D01*
X225383434Y-83760225D01*
X225066509Y-83971987D01*
X224796987Y-84241509D01*
X224585225Y-84558434D01*
X224439361Y-84910581D01*
X224365000Y-85284419D01*
X223226232Y-85284419D01*
X223196457Y-85046049D01*
X223076333Y-84684310D01*
X222944312Y-84437317D01*
X222649224Y-84305381D01*
X221479605Y-85475000D01*
X221120395Y-85475000D01*
X219950776Y-84305381D01*
X219655688Y-84437317D01*
X219484841Y-84778045D01*
X219383750Y-85145557D01*
X219356299Y-85525729D01*
X218238072Y-85525729D01*
X218238072Y-84175000D01*
X218233225Y-84125776D01*
X220130381Y-84125776D01*
X221300000Y-85295395D01*
X222469619Y-84125776D01*
X222337683Y-83830688D01*
X221996955Y-83659841D01*
X221629443Y-83558750D01*
X221249271Y-83531299D01*
X220871049Y-83578543D01*
X220509310Y-83698667D01*
X220262317Y-83830688D01*
X220130381Y-84125776D01*
X218233225Y-84125776D01*
X218225812Y-84050518D01*
X218189502Y-83930820D01*
X218130537Y-83820506D01*
X218051185Y-83723815D01*
X217954494Y-83644463D01*
X217844180Y-83585498D01*
X217724482Y-83549188D01*
X217600000Y-83536928D01*
X215537874Y-83536928D01*
X216583496Y-82491306D01*
X216696063Y-82659774D01*
X216840226Y-82803937D01*
X217009744Y-82917205D01*
X217198102Y-82995226D01*
X217398061Y-83035000D01*
X217601939Y-83035000D01*
X217801898Y-82995226D01*
X217990256Y-82917205D01*
X218159774Y-82803937D01*
X218203711Y-82760000D01*
X219296289Y-82760000D01*
X219340226Y-82803937D01*
X219509744Y-82917205D01*
X219698102Y-82995226D01*
X219898061Y-83035000D01*
X220101939Y-83035000D01*
X220301898Y-82995226D01*
X220490256Y-82917205D01*
X220659774Y-82803937D01*
X220803937Y-82659774D01*
X220917205Y-82490256D01*
X220995226Y-82301898D01*
X221035000Y-82101939D01*
X221035000Y-81898061D01*
X220995226Y-81698102D01*
X220917205Y-81509744D01*
X220803937Y-81340226D01*
X220659774Y-81196063D01*
X220638172Y-81181629D01*
X223679094Y-78140708D01*
X223723691Y-78154236D01*
X223934508Y-78175000D01*
X224075492Y-78175000D01*
X224286309Y-78154236D01*
X224556808Y-78072182D01*
X224806101Y-77938932D01*
X225024608Y-77759608D01*
X225203932Y-77541101D01*
X225275000Y-77408142D01*
X225346068Y-77541101D01*
X225525392Y-77759608D01*
X225743899Y-77938932D01*
X225993192Y-78072182D01*
X226263691Y-78154236D01*
X226474508Y-78175000D01*
X226615492Y-78175000D01*
X226826309Y-78154236D01*
X226870906Y-78140708D01*
X229240000Y-80509802D01*
X229240001Y-97042667D01*
X229236324Y-97080000D01*
X229240001Y-97117333D01*
X229244845Y-97166509D01*
X229250998Y-97228985D01*
X229294454Y-97372246D01*
X229365026Y-97504276D01*
X229436201Y-97591002D01*
X229460000Y-97620001D01*
X229488998Y-97643799D01*
X230559203Y-98714005D01*
X230536487Y-98788889D01*
X230507815Y-99080000D01*
X230536487Y-99371111D01*
X230621401Y-99651034D01*
X230759294Y-99909014D01*
X230944866Y-100135134D01*
X231170986Y-100320706D01*
X231225791Y-100350000D01*
X231170986Y-100379294D01*
X230944866Y-100564866D01*
X230759294Y-100790986D01*
X230621401Y-101048966D01*
X230536487Y-101328889D01*
X230507815Y-101620000D01*
X230536487Y-101911111D01*
X230621401Y-102191034D01*
X230759294Y-102449014D01*
X230944866Y-102675134D01*
X231170986Y-102860706D01*
X231225791Y-102890000D01*
X231170986Y-102919294D01*
X230944866Y-103104866D01*
X230759294Y-103330986D01*
X230621401Y-103588966D01*
X230536487Y-103868889D01*
X230507815Y-104160000D01*
X230536487Y-104451111D01*
X230621401Y-104731034D01*
X230759294Y-104989014D01*
X230944866Y-105215134D01*
X231170986Y-105400706D01*
X231235523Y-105435201D01*
X231118645Y-105504822D01*
X230902412Y-105699731D01*
X230728359Y-105933080D01*
X230603175Y-106195901D01*
X230558524Y-106343110D01*
X230679845Y-106573000D01*
X231873000Y-106573000D01*
X231873000Y-106553000D01*
X232127000Y-106553000D01*
X232127000Y-106573000D01*
X232147000Y-106573000D01*
X232147000Y-106827000D01*
X232127000Y-106827000D01*
X232127000Y-108020814D01*
X232356891Y-108141481D01*
X232631252Y-108044157D01*
X232881355Y-107895178D01*
X233097588Y-107700269D01*
X233271641Y-107466920D01*
X233396825Y-107204099D01*
X233441476Y-107056890D01*
X233320156Y-106827002D01*
X233464999Y-106827002D01*
X233465000Y-119545198D01*
X229410907Y-123599292D01*
X229366309Y-123585764D01*
X229155492Y-123565000D01*
X229014508Y-123565000D01*
X228803691Y-123585764D01*
X228533192Y-123667818D01*
X228283899Y-123801068D01*
X228065392Y-123980392D01*
X227886068Y-124198899D01*
X227815000Y-124331858D01*
X227743932Y-124198899D01*
X227564608Y-123980392D01*
X227346101Y-123801068D01*
X227096808Y-123667818D01*
X226826309Y-123585764D01*
X226615492Y-123565000D01*
X226474508Y-123565000D01*
X226263691Y-123585764D01*
X225993192Y-123667818D01*
X225743899Y-123801068D01*
X225525392Y-123980392D01*
X225346068Y-124198899D01*
X225275000Y-124331858D01*
X225203932Y-124198899D01*
X225024608Y-123980392D01*
X224806101Y-123801068D01*
X224556808Y-123667818D01*
X224286309Y-123585764D01*
X224075492Y-123565000D01*
X223934508Y-123565000D01*
X223723691Y-123585764D01*
X223453192Y-123667818D01*
X223203899Y-123801068D01*
X222985392Y-123980392D01*
X222806068Y-124198899D01*
X222735000Y-124331858D01*
X222663932Y-124198899D01*
X222484608Y-123980392D01*
X222266101Y-123801068D01*
X222016808Y-123667818D01*
X221746309Y-123585764D01*
X221535492Y-123565000D01*
X221394508Y-123565000D01*
X221183691Y-123585764D01*
X220913192Y-123667818D01*
X220663899Y-123801068D01*
X220445392Y-123980392D01*
X220266068Y-124198899D01*
X220195000Y-124331858D01*
X220123932Y-124198899D01*
X219944608Y-123980392D01*
X219726101Y-123801068D01*
X219476808Y-123667818D01*
X219206309Y-123585764D01*
X218995492Y-123565000D01*
X218854508Y-123565000D01*
X218643691Y-123585764D01*
X218373192Y-123667818D01*
X218123899Y-123801068D01*
X217905392Y-123980392D01*
X217726068Y-124198899D01*
X217655000Y-124331858D01*
X217583932Y-124198899D01*
X217404608Y-123980392D01*
X217186101Y-123801068D01*
X216936808Y-123667818D01*
X216666309Y-123585764D01*
X216455492Y-123565000D01*
X216314508Y-123565000D01*
X216103691Y-123585764D01*
X215833192Y-123667818D01*
X215583899Y-123801068D01*
X215365392Y-123980392D01*
X215186068Y-124198899D01*
X215052818Y-124448192D01*
X214970764Y-124718691D01*
X214943057Y-125000000D01*
X214970764Y-125281309D01*
X215052818Y-125551808D01*
X215186068Y-125801101D01*
X215365392Y-126019608D01*
X215583899Y-126198932D01*
X215833192Y-126332182D01*
X216103691Y-126414236D01*
X216314508Y-126435000D01*
X216455492Y-126435000D01*
X216666309Y-126414236D01*
X216936808Y-126332182D01*
X217186101Y-126198932D01*
X217404608Y-126019608D01*
X217583932Y-125801101D01*
X217655000Y-125668142D01*
X217726068Y-125801101D01*
X217905392Y-126019608D01*
X218123899Y-126198932D01*
X218373192Y-126332182D01*
X218643691Y-126414236D01*
X218854508Y-126435000D01*
X218995492Y-126435000D01*
X219206309Y-126414236D01*
X219476808Y-126332182D01*
X219726101Y-126198932D01*
X219944608Y-126019608D01*
X220123932Y-125801101D01*
X220195000Y-125668142D01*
X220266068Y-125801101D01*
X220445392Y-126019608D01*
X220663899Y-126198932D01*
X220913192Y-126332182D01*
X221183691Y-126414236D01*
X221394508Y-126435000D01*
X221535492Y-126435000D01*
X221746309Y-126414236D01*
X222016808Y-126332182D01*
X222266101Y-126198932D01*
X222484608Y-126019608D01*
X222663932Y-125801101D01*
X222735000Y-125668142D01*
X222806068Y-125801101D01*
X222985392Y-126019608D01*
X223203899Y-126198932D01*
X223453192Y-126332182D01*
X223723691Y-126414236D01*
X223934508Y-126435000D01*
X224075492Y-126435000D01*
X224286309Y-126414236D01*
X224556808Y-126332182D01*
X224806101Y-126198932D01*
X225024608Y-126019608D01*
X225203932Y-125801101D01*
X225275000Y-125668142D01*
X225346068Y-125801101D01*
X225525392Y-126019608D01*
X225743899Y-126198932D01*
X225993192Y-126332182D01*
X226263691Y-126414236D01*
X226474508Y-126435000D01*
X226615492Y-126435000D01*
X226826309Y-126414236D01*
X227096808Y-126332182D01*
X227346101Y-126198932D01*
X227564608Y-126019608D01*
X227743932Y-125801101D01*
X227815000Y-125668142D01*
X227886068Y-125801101D01*
X228065392Y-126019608D01*
X228283899Y-126198932D01*
X228533192Y-126332182D01*
X228803691Y-126414236D01*
X229014508Y-126435000D01*
X229155492Y-126435000D01*
X229366309Y-126414236D01*
X229636808Y-126332182D01*
X229886101Y-126198932D01*
X230104608Y-126019608D01*
X230283932Y-125801101D01*
X230417182Y-125551808D01*
X230499236Y-125281309D01*
X230526943Y-125000000D01*
X230499236Y-124718691D01*
X230485708Y-124674093D01*
X234736002Y-120423800D01*
X234765000Y-120400002D01*
X234859973Y-120284277D01*
X234930545Y-120152248D01*
X234974002Y-120008987D01*
X234984999Y-119897334D01*
X234984999Y-119897324D01*
X234988675Y-119860001D01*
X234984999Y-119822678D01*
X234984999Y-92892321D01*
X234988675Y-92854998D01*
X234984999Y-92817675D01*
X234984999Y-92817666D01*
X234974002Y-92706013D01*
X234930545Y-92562752D01*
X234859973Y-92430723D01*
X234846810Y-92414684D01*
X234788798Y-92343995D01*
X234788794Y-92343991D01*
X234765000Y-92314998D01*
X234736008Y-92291205D01*
X231530000Y-89085199D01*
X231530000Y-82137720D01*
X234287494Y-79380227D01*
X234344866Y-79450134D01*
X234570986Y-79635706D01*
X234635523Y-79670201D01*
X234518645Y-79739822D01*
X234302412Y-79934731D01*
X234128359Y-80168080D01*
X234003175Y-80430901D01*
X233958524Y-80578110D01*
X234079845Y-80808000D01*
X235273000Y-80808000D01*
X235273000Y-80788000D01*
X235527000Y-80788000D01*
X235527000Y-80808000D01*
X235547000Y-80808000D01*
X235547000Y-81062000D01*
X235527000Y-81062000D01*
X235527000Y-81082000D01*
X235273000Y-81082000D01*
X235273000Y-81062000D01*
X234079845Y-81062000D01*
X233958524Y-81291890D01*
X234003175Y-81439099D01*
X234128359Y-81701920D01*
X234302412Y-81935269D01*
X234386466Y-82011034D01*
X234305820Y-82035498D01*
X234195506Y-82094463D01*
X234098815Y-82173815D01*
X234019463Y-82270506D01*
X233960498Y-82380820D01*
X233924188Y-82500518D01*
X233911928Y-82625000D01*
X233911928Y-84325000D01*
X233924188Y-84449482D01*
X233960498Y-84569180D01*
X234019463Y-84679494D01*
X234098815Y-84776185D01*
X234195506Y-84855537D01*
X234305820Y-84914502D01*
X234425518Y-84950812D01*
X234550000Y-84963072D01*
X236250000Y-84963072D01*
X236374482Y-84950812D01*
X236379990Y-84949141D01*
X236379991Y-119045207D01*
X236060199Y-119365000D01*
X235998061Y-119365000D01*
X235798102Y-119404774D01*
X235609744Y-119482795D01*
X235440226Y-119596063D01*
X235296063Y-119740226D01*
X235182795Y-119909744D01*
X235104774Y-120098102D01*
X235065000Y-120298061D01*
X235065000Y-120501939D01*
X235104774Y-120701898D01*
X235182795Y-120890256D01*
X235296063Y-121059774D01*
X235440226Y-121203937D01*
X235609744Y-121317205D01*
X235798102Y-121395226D01*
X235998061Y-121435000D01*
X236201939Y-121435000D01*
X236401898Y-121395226D01*
X236590256Y-121317205D01*
X236759774Y-121203937D01*
X236830000Y-121133711D01*
X236830000Y-130150000D01*
X87020000Y-130150000D01*
X87020000Y-123282408D01*
X88043000Y-123282408D01*
X88043000Y-123557592D01*
X88096686Y-123827490D01*
X88201995Y-124081727D01*
X88354880Y-124310535D01*
X88549465Y-124505120D01*
X88778273Y-124658005D01*
X89032510Y-124763314D01*
X89302408Y-124817000D01*
X89577592Y-124817000D01*
X89847490Y-124763314D01*
X90101727Y-124658005D01*
X90330535Y-124505120D01*
X90525120Y-124310535D01*
X90678005Y-124081727D01*
X90783314Y-123827490D01*
X90837000Y-123557592D01*
X90837000Y-123282408D01*
X90822482Y-123209419D01*
X96040000Y-123209419D01*
X96040000Y-123590581D01*
X96114361Y-123964419D01*
X96260225Y-124316566D01*
X96471987Y-124633491D01*
X96741509Y-124903013D01*
X97058434Y-125114775D01*
X97410581Y-125260639D01*
X97784419Y-125335000D01*
X98165581Y-125335000D01*
X98539419Y-125260639D01*
X98891566Y-125114775D01*
X99208491Y-124903013D01*
X99478013Y-124633491D01*
X99689775Y-124316566D01*
X99835639Y-123964419D01*
X99910000Y-123590581D01*
X99910000Y-123209419D01*
X99835639Y-122835581D01*
X99689775Y-122483434D01*
X99478013Y-122166509D01*
X99411504Y-122100000D01*
X101036928Y-122100000D01*
X101036928Y-124700000D01*
X101049188Y-124824482D01*
X101085498Y-124944180D01*
X101144463Y-125054494D01*
X101223815Y-125151185D01*
X101320506Y-125230537D01*
X101430820Y-125289502D01*
X101550518Y-125325812D01*
X101675000Y-125338072D01*
X104275000Y-125338072D01*
X104399482Y-125325812D01*
X104519180Y-125289502D01*
X104629494Y-125230537D01*
X104726185Y-125151185D01*
X104805537Y-125054494D01*
X104864502Y-124944180D01*
X104900812Y-124824482D01*
X104913072Y-124700000D01*
X104913072Y-123152408D01*
X110933000Y-123152408D01*
X110933000Y-123427592D01*
X110986686Y-123697490D01*
X111091995Y-123951727D01*
X111244880Y-124180535D01*
X111439465Y-124375120D01*
X111668273Y-124528005D01*
X111922510Y-124633314D01*
X112192408Y-124687000D01*
X112467592Y-124687000D01*
X112737490Y-124633314D01*
X112991727Y-124528005D01*
X113220535Y-124375120D01*
X113415120Y-124180535D01*
X113568005Y-123951727D01*
X113673314Y-123697490D01*
X113727000Y-123427592D01*
X113727000Y-123152408D01*
X113673314Y-122882510D01*
X113568005Y-122628273D01*
X113415120Y-122399465D01*
X113220535Y-122204880D01*
X112991727Y-122051995D01*
X112737490Y-121946686D01*
X112467592Y-121893000D01*
X112192408Y-121893000D01*
X111922510Y-121946686D01*
X111668273Y-122051995D01*
X111439465Y-122204880D01*
X111244880Y-122399465D01*
X111091995Y-122628273D01*
X110986686Y-122882510D01*
X110933000Y-123152408D01*
X104913072Y-123152408D01*
X104913072Y-122100000D01*
X104900812Y-121975518D01*
X104864502Y-121855820D01*
X104805537Y-121745506D01*
X104726185Y-121648815D01*
X104629494Y-121569463D01*
X104519180Y-121510498D01*
X104399482Y-121474188D01*
X104275000Y-121461928D01*
X101675000Y-121461928D01*
X101550518Y-121474188D01*
X101430820Y-121510498D01*
X101320506Y-121569463D01*
X101223815Y-121648815D01*
X101144463Y-121745506D01*
X101085498Y-121855820D01*
X101049188Y-121975518D01*
X101036928Y-122100000D01*
X99411504Y-122100000D01*
X99208491Y-121896987D01*
X98891566Y-121685225D01*
X98539419Y-121539361D01*
X98165581Y-121465000D01*
X97784419Y-121465000D01*
X97410581Y-121539361D01*
X97058434Y-121685225D01*
X96741509Y-121896987D01*
X96471987Y-122166509D01*
X96260225Y-122483434D01*
X96114361Y-122835581D01*
X96040000Y-123209419D01*
X90822482Y-123209419D01*
X90783314Y-123012510D01*
X90678005Y-122758273D01*
X90525120Y-122529465D01*
X90330535Y-122334880D01*
X90101727Y-122181995D01*
X89847490Y-122076686D01*
X89577592Y-122023000D01*
X89302408Y-122023000D01*
X89032510Y-122076686D01*
X88778273Y-122181995D01*
X88549465Y-122334880D01*
X88354880Y-122529465D01*
X88201995Y-122758273D01*
X88096686Y-123012510D01*
X88043000Y-123282408D01*
X87020000Y-123282408D01*
X87020000Y-118709117D01*
X108895000Y-118709117D01*
X108895000Y-119050883D01*
X108961675Y-119386081D01*
X109092463Y-119701831D01*
X109282337Y-119985998D01*
X109524002Y-120227663D01*
X109808169Y-120417537D01*
X110123919Y-120548325D01*
X110459117Y-120615000D01*
X110800883Y-120615000D01*
X111136081Y-120548325D01*
X111451831Y-120417537D01*
X111735998Y-120227663D01*
X111977663Y-119985998D01*
X112167537Y-119701831D01*
X112298325Y-119386081D01*
X112365000Y-119050883D01*
X112365000Y-118709117D01*
X112298325Y-118373919D01*
X112167537Y-118058169D01*
X111977663Y-117774002D01*
X111735998Y-117532337D01*
X111451831Y-117342463D01*
X111136081Y-117211675D01*
X110800883Y-117145000D01*
X110459117Y-117145000D01*
X110123919Y-117211675D01*
X109808169Y-117342463D01*
X109524002Y-117532337D01*
X109282337Y-117774002D01*
X109092463Y-118058169D01*
X108961675Y-118373919D01*
X108895000Y-118709117D01*
X87020000Y-118709117D01*
X87020000Y-113334042D01*
X117015000Y-113334042D01*
X117015000Y-113665958D01*
X117079754Y-113991496D01*
X117206772Y-114298147D01*
X117391175Y-114574125D01*
X117625875Y-114808825D01*
X117901853Y-114993228D01*
X118208504Y-115120246D01*
X118534042Y-115185000D01*
X118865958Y-115185000D01*
X119191496Y-115120246D01*
X119498147Y-114993228D01*
X119774125Y-114808825D01*
X120008825Y-114574125D01*
X120193228Y-114298147D01*
X120320246Y-113991496D01*
X120385000Y-113665958D01*
X120385000Y-113334042D01*
X120365109Y-113234042D01*
X160015000Y-113234042D01*
X160015000Y-113565958D01*
X160079754Y-113891496D01*
X160206772Y-114198147D01*
X160391175Y-114474125D01*
X160625875Y-114708825D01*
X160901853Y-114893228D01*
X161208504Y-115020246D01*
X161534042Y-115085000D01*
X161865958Y-115085000D01*
X162191496Y-115020246D01*
X162498147Y-114893228D01*
X162774125Y-114708825D01*
X163008825Y-114474125D01*
X163193228Y-114198147D01*
X163320246Y-113891496D01*
X163385000Y-113565958D01*
X163385000Y-113234042D01*
X163320246Y-112908504D01*
X163193228Y-112601853D01*
X163008825Y-112325875D01*
X162774125Y-112091175D01*
X162498147Y-111906772D01*
X162191496Y-111779754D01*
X161865958Y-111715000D01*
X161534042Y-111715000D01*
X161208504Y-111779754D01*
X160901853Y-111906772D01*
X160625875Y-112091175D01*
X160391175Y-112325875D01*
X160206772Y-112601853D01*
X160079754Y-112908504D01*
X160015000Y-113234042D01*
X120365109Y-113234042D01*
X120320246Y-113008504D01*
X120193228Y-112701853D01*
X120008825Y-112425875D01*
X119774125Y-112191175D01*
X119498147Y-112006772D01*
X119191496Y-111879754D01*
X118865958Y-111815000D01*
X118534042Y-111815000D01*
X118208504Y-111879754D01*
X117901853Y-112006772D01*
X117625875Y-112191175D01*
X117391175Y-112425875D01*
X117206772Y-112701853D01*
X117079754Y-113008504D01*
X117015000Y-113334042D01*
X87020000Y-113334042D01*
X87020000Y-100750000D01*
X91323316Y-100750000D01*
X91335000Y-100868632D01*
X91335000Y-103708322D01*
X91323316Y-103826954D01*
X91335000Y-103945586D01*
X91335000Y-106069845D01*
X91323316Y-106188477D01*
X91335000Y-106307109D01*
X91335000Y-106307116D01*
X91369943Y-106661899D01*
X91508035Y-107117128D01*
X91611670Y-107311015D01*
X91732285Y-107536670D01*
X91909205Y-107752247D01*
X92034075Y-107904402D01*
X92126229Y-107980031D01*
X95669969Y-111523771D01*
X95745598Y-111615925D01*
X96113329Y-111917715D01*
X96532871Y-112141965D01*
X96988100Y-112280057D01*
X97342883Y-112315000D01*
X97342892Y-112315000D01*
X97461522Y-112326684D01*
X97580152Y-112315000D01*
X99418640Y-112315000D01*
X99773423Y-112280057D01*
X100228652Y-112141965D01*
X100648194Y-111917715D01*
X101015925Y-111615925D01*
X101317715Y-111248194D01*
X101541965Y-110828652D01*
X101680057Y-110373423D01*
X101726685Y-109900000D01*
X101680057Y-109426577D01*
X101541965Y-108971348D01*
X101317715Y-108551806D01*
X101015925Y-108184075D01*
X100648194Y-107882285D01*
X100228652Y-107658035D01*
X99773423Y-107519943D01*
X99418640Y-107485000D01*
X98461848Y-107485000D01*
X97770935Y-106794087D01*
X97875518Y-106825812D01*
X98000000Y-106838072D01*
X100600000Y-106838072D01*
X100724482Y-106825812D01*
X100844180Y-106789502D01*
X100954494Y-106730537D01*
X101051185Y-106651185D01*
X101130537Y-106554494D01*
X101189502Y-106444180D01*
X101225812Y-106324482D01*
X101238072Y-106200000D01*
X101238072Y-103600000D01*
X101225812Y-103475518D01*
X101189502Y-103355820D01*
X101130537Y-103245506D01*
X101051185Y-103148815D01*
X100954494Y-103069463D01*
X100844180Y-103010498D01*
X100724482Y-102974188D01*
X100600000Y-102961928D01*
X98000000Y-102961928D01*
X97875518Y-102974188D01*
X97755820Y-103010498D01*
X97645506Y-103069463D01*
X97548815Y-103148815D01*
X97469463Y-103245506D01*
X97410498Y-103355820D01*
X97374188Y-103475518D01*
X97361928Y-103600000D01*
X97361928Y-106200000D01*
X97374188Y-106324482D01*
X97405913Y-106429065D01*
X96165000Y-105188152D01*
X96165000Y-104449523D01*
X96191580Y-104361900D01*
X96238207Y-103888477D01*
X96191580Y-103415055D01*
X96165000Y-103327432D01*
X96165000Y-101750325D01*
X97100326Y-100815000D01*
X99418640Y-100815000D01*
X99773423Y-100780057D01*
X100228652Y-100641965D01*
X100648194Y-100417715D01*
X101015925Y-100115925D01*
X101317715Y-99748194D01*
X101541965Y-99328652D01*
X101680057Y-98873423D01*
X101726685Y-98400000D01*
X101680057Y-97926577D01*
X101541965Y-97471348D01*
X101317715Y-97051806D01*
X101015925Y-96684075D01*
X100648194Y-96382285D01*
X100228652Y-96158035D01*
X99773423Y-96019943D01*
X99418640Y-95985000D01*
X96218632Y-95985000D01*
X96100000Y-95973316D01*
X95981368Y-95985000D01*
X95981360Y-95985000D01*
X95626577Y-96019943D01*
X95171348Y-96158035D01*
X94847757Y-96330998D01*
X94751806Y-96382285D01*
X94476228Y-96608446D01*
X94476224Y-96608450D01*
X94384075Y-96684075D01*
X94308450Y-96776224D01*
X92126229Y-98958446D01*
X92034075Y-99034075D01*
X91958447Y-99126228D01*
X91958446Y-99126229D01*
X91792322Y-99328652D01*
X91732285Y-99401807D01*
X91508035Y-99821349D01*
X91369943Y-100276578D01*
X91335000Y-100631361D01*
X91335000Y-100631368D01*
X91323316Y-100750000D01*
X87020000Y-100750000D01*
X87020000Y-92100000D01*
X97361928Y-92100000D01*
X97361928Y-94700000D01*
X97374188Y-94824482D01*
X97410498Y-94944180D01*
X97469463Y-95054494D01*
X97548815Y-95151185D01*
X97645506Y-95230537D01*
X97755820Y-95289502D01*
X97875518Y-95325812D01*
X98000000Y-95338072D01*
X100600000Y-95338072D01*
X100724482Y-95325812D01*
X100844180Y-95289502D01*
X100954494Y-95230537D01*
X101051185Y-95151185D01*
X101130537Y-95054494D01*
X101189502Y-94944180D01*
X101225812Y-94824482D01*
X101238072Y-94700000D01*
X101238072Y-92100000D01*
X101225812Y-91975518D01*
X101189502Y-91855820D01*
X101130537Y-91745506D01*
X101051185Y-91648815D01*
X100954494Y-91569463D01*
X100844180Y-91510498D01*
X100724482Y-91474188D01*
X100600000Y-91461928D01*
X98000000Y-91461928D01*
X97875518Y-91474188D01*
X97755820Y-91510498D01*
X97645506Y-91569463D01*
X97548815Y-91648815D01*
X97469463Y-91745506D01*
X97410498Y-91855820D01*
X97374188Y-91975518D01*
X97361928Y-92100000D01*
X87020000Y-92100000D01*
X87020000Y-85950000D01*
X97561928Y-85950000D01*
X97561928Y-88550000D01*
X97574188Y-88674482D01*
X97610498Y-88794180D01*
X97669463Y-88904494D01*
X97748815Y-89001185D01*
X97845506Y-89080537D01*
X97955820Y-89139502D01*
X98075518Y-89175812D01*
X98200000Y-89188072D01*
X98845675Y-89188072D01*
X98865026Y-89224275D01*
X98959999Y-89340001D01*
X99075724Y-89434974D01*
X99207753Y-89505546D01*
X99351014Y-89549003D01*
X99500000Y-89563677D01*
X99648985Y-89549003D01*
X99792246Y-89505546D01*
X99924275Y-89434974D01*
X100040001Y-89340001D01*
X100134974Y-89224276D01*
X100154326Y-89188072D01*
X100800000Y-89188072D01*
X100924482Y-89175812D01*
X101044180Y-89139502D01*
X101154494Y-89080537D01*
X101251185Y-89001185D01*
X101330537Y-88904494D01*
X101389502Y-88794180D01*
X101425812Y-88674482D01*
X101438072Y-88550000D01*
X101438072Y-85950000D01*
X101425812Y-85825518D01*
X101389502Y-85705820D01*
X101330537Y-85595506D01*
X101251185Y-85498815D01*
X101154494Y-85419463D01*
X101044180Y-85360498D01*
X100924482Y-85324188D01*
X100800000Y-85311928D01*
X98200000Y-85311928D01*
X98075518Y-85324188D01*
X97955820Y-85360498D01*
X97845506Y-85419463D01*
X97748815Y-85498815D01*
X97669463Y-85595506D01*
X97610498Y-85705820D01*
X97574188Y-85825518D01*
X97561928Y-85950000D01*
X87020000Y-85950000D01*
X87020000Y-83599224D01*
X98330381Y-83599224D01*
X98462317Y-83894312D01*
X98803045Y-84065159D01*
X99170557Y-84166250D01*
X99550729Y-84193701D01*
X99928951Y-84146457D01*
X100290690Y-84026333D01*
X100537683Y-83894312D01*
X100669619Y-83599224D01*
X99500000Y-82429605D01*
X98330381Y-83599224D01*
X87020000Y-83599224D01*
X87020000Y-82300729D01*
X97556299Y-82300729D01*
X97603543Y-82678951D01*
X97723667Y-83040690D01*
X97855688Y-83287683D01*
X98150776Y-83419619D01*
X99320395Y-82250000D01*
X99679605Y-82250000D01*
X100849224Y-83419619D01*
X101144312Y-83287683D01*
X101315159Y-82946955D01*
X101416250Y-82579443D01*
X101443701Y-82199271D01*
X101396457Y-81821049D01*
X101276333Y-81459310D01*
X101144312Y-81212317D01*
X100849224Y-81080381D01*
X99679605Y-82250000D01*
X99320395Y-82250000D01*
X98150776Y-81080381D01*
X97855688Y-81212317D01*
X97684841Y-81553045D01*
X97583750Y-81920557D01*
X97556299Y-82300729D01*
X87020000Y-82300729D01*
X87020000Y-80900776D01*
X98330381Y-80900776D01*
X99500000Y-82070395D01*
X100669619Y-80900776D01*
X100537683Y-80605688D01*
X100196955Y-80434841D01*
X99829443Y-80333750D01*
X99449271Y-80306299D01*
X99071049Y-80353543D01*
X98709310Y-80473667D01*
X98462317Y-80605688D01*
X98330381Y-80900776D01*
X87020000Y-80900776D01*
X87020000Y-77769117D01*
X89815000Y-77769117D01*
X89815000Y-78110883D01*
X89881675Y-78446081D01*
X90012463Y-78761831D01*
X90202337Y-79045998D01*
X90444002Y-79287663D01*
X90728169Y-79477537D01*
X91043919Y-79608325D01*
X91379117Y-79675000D01*
X91720883Y-79675000D01*
X92056081Y-79608325D01*
X92371831Y-79477537D01*
X92655998Y-79287663D01*
X92709619Y-79234042D01*
X117015000Y-79234042D01*
X117015000Y-79565958D01*
X117079754Y-79891496D01*
X117206772Y-80198147D01*
X117391175Y-80474125D01*
X117625875Y-80708825D01*
X117901853Y-80893228D01*
X118208504Y-81020246D01*
X118534042Y-81085000D01*
X118865958Y-81085000D01*
X119191496Y-81020246D01*
X119498147Y-80893228D01*
X119774125Y-80708825D01*
X120008825Y-80474125D01*
X120193228Y-80198147D01*
X120320246Y-79891496D01*
X120385000Y-79565958D01*
X120385000Y-79234042D01*
X160015000Y-79234042D01*
X160015000Y-79565958D01*
X160079754Y-79891496D01*
X160206772Y-80198147D01*
X160391175Y-80474125D01*
X160625875Y-80708825D01*
X160901853Y-80893228D01*
X161208504Y-81020246D01*
X161534042Y-81085000D01*
X161865958Y-81085000D01*
X162191496Y-81020246D01*
X162498147Y-80893228D01*
X162774125Y-80708825D01*
X163008825Y-80474125D01*
X163193228Y-80198147D01*
X163320246Y-79891496D01*
X163385000Y-79565958D01*
X163385000Y-79234042D01*
X163320246Y-78908504D01*
X163193228Y-78601853D01*
X163008825Y-78325875D01*
X162774125Y-78091175D01*
X162498147Y-77906772D01*
X162191496Y-77779754D01*
X161865958Y-77715000D01*
X161534042Y-77715000D01*
X161208504Y-77779754D01*
X160901853Y-77906772D01*
X160625875Y-78091175D01*
X160391175Y-78325875D01*
X160206772Y-78601853D01*
X160079754Y-78908504D01*
X160015000Y-79234042D01*
X120385000Y-79234042D01*
X120320246Y-78908504D01*
X120193228Y-78601853D01*
X120008825Y-78325875D01*
X119774125Y-78091175D01*
X119498147Y-77906772D01*
X119191496Y-77779754D01*
X118865958Y-77715000D01*
X118534042Y-77715000D01*
X118208504Y-77779754D01*
X117901853Y-77906772D01*
X117625875Y-78091175D01*
X117391175Y-78325875D01*
X117206772Y-78601853D01*
X117079754Y-78908504D01*
X117015000Y-79234042D01*
X92709619Y-79234042D01*
X92897663Y-79045998D01*
X93087537Y-78761831D01*
X93218325Y-78446081D01*
X93285000Y-78110883D01*
X93285000Y-77769117D01*
X93218325Y-77433919D01*
X93087537Y-77118169D01*
X92897663Y-76834002D01*
X92655998Y-76592337D01*
X92371831Y-76402463D01*
X92056081Y-76271675D01*
X91720883Y-76205000D01*
X91379117Y-76205000D01*
X91043919Y-76271675D01*
X90728169Y-76402463D01*
X90444002Y-76592337D01*
X90202337Y-76834002D01*
X90012463Y-77118169D01*
X89881675Y-77433919D01*
X89815000Y-77769117D01*
X87020000Y-77769117D01*
X87020000Y-75475565D01*
X88784040Y-75475565D01*
X88851020Y-75715656D01*
X89100048Y-75832756D01*
X89367135Y-75899023D01*
X89642017Y-75911910D01*
X89914133Y-75870922D01*
X90173023Y-75777636D01*
X90288980Y-75715656D01*
X90355960Y-75475565D01*
X89570000Y-74689605D01*
X88784040Y-75475565D01*
X87020000Y-75475565D01*
X87020000Y-74582017D01*
X88168090Y-74582017D01*
X88209078Y-74854133D01*
X88302364Y-75113023D01*
X88364344Y-75228980D01*
X88604435Y-75295960D01*
X89390395Y-74510000D01*
X89749605Y-74510000D01*
X90535565Y-75295960D01*
X90775656Y-75228980D01*
X90892756Y-74979952D01*
X90959023Y-74712865D01*
X90971910Y-74437983D01*
X90930922Y-74165867D01*
X90837636Y-73906977D01*
X90775656Y-73791020D01*
X90535565Y-73724040D01*
X89749605Y-74510000D01*
X89390395Y-74510000D01*
X88604435Y-73724040D01*
X88364344Y-73791020D01*
X88247244Y-74040048D01*
X88180977Y-74307135D01*
X88168090Y-74582017D01*
X87020000Y-74582017D01*
X87020000Y-73544435D01*
X88784040Y-73544435D01*
X89570000Y-74330395D01*
X90355960Y-73544435D01*
X90288980Y-73304344D01*
X90039952Y-73187244D01*
X89772865Y-73120977D01*
X89497983Y-73108090D01*
X89225867Y-73149078D01*
X88966977Y-73242364D01*
X88851020Y-73304344D01*
X88784040Y-73544435D01*
X87020000Y-73544435D01*
X87020000Y-70670000D01*
X236830001Y-70670000D01*
X236830001Y-75453415D01*
M02*
