G04 #@! TF.GenerationSoftware,KiCad,Pcbnew,(5.1.4)-1*
G04 #@! TF.CreationDate,2019-11-14T07:41:03-05:00*
G04 #@! TF.ProjectId,CapstoneSchematic,43617073-746f-46e6-9553-6368656d6174,rev?*
G04 #@! TF.SameCoordinates,Original*
G04 #@! TF.FileFunction,Legend,Top*
G04 #@! TF.FilePolarity,Positive*
%FSLAX46Y46*%
G04 Gerber Fmt 4.6, Leading zero omitted, Abs format (unit mm)*
G04 Created by KiCad (PCBNEW (5.1.4)-1) date 2019-11-14 07:41:03*
%MOMM*%
%LPD*%
G04 APERTURE LIST*
%ADD10C,0.150000*%
%ADD11C,0.300000*%
%ADD12C,0.120000*%
G04 APERTURE END LIST*
D10*
X105923809Y-92852380D02*
X106019047Y-92852380D01*
X106114285Y-92900000D01*
X106161904Y-92947619D01*
X106209523Y-93042857D01*
X106257142Y-93233333D01*
X106257142Y-93471428D01*
X106209523Y-93661904D01*
X106161904Y-93757142D01*
X106114285Y-93804761D01*
X106019047Y-93852380D01*
X105923809Y-93852380D01*
X105828571Y-93804761D01*
X105780952Y-93757142D01*
X105733333Y-93661904D01*
X105685714Y-93471428D01*
X105685714Y-93233333D01*
X105733333Y-93042857D01*
X105780952Y-92947619D01*
X105828571Y-92900000D01*
X105923809Y-92852380D01*
X106542857Y-92852380D02*
X106876190Y-93852380D01*
X107209523Y-92852380D01*
X104438095Y-98571428D02*
X105200000Y-98571428D01*
X104819047Y-98952380D02*
X104819047Y-98190476D01*
X106200000Y-98952380D02*
X105628571Y-98952380D01*
X105914285Y-98952380D02*
X105914285Y-97952380D01*
X105819047Y-98095238D01*
X105723809Y-98190476D01*
X105628571Y-98238095D01*
X106580952Y-98047619D02*
X106628571Y-98000000D01*
X106723809Y-97952380D01*
X106961904Y-97952380D01*
X107057142Y-98000000D01*
X107104761Y-98047619D01*
X107152380Y-98142857D01*
X107152380Y-98238095D01*
X107104761Y-98380952D01*
X106533333Y-98952380D01*
X107152380Y-98952380D01*
X107438095Y-97952380D02*
X107771428Y-98952380D01*
X108104761Y-97952380D01*
X104438095Y-109971428D02*
X105200000Y-109971428D01*
X104819047Y-110352380D02*
X104819047Y-109590476D01*
X106200000Y-110352380D02*
X105628571Y-110352380D01*
X105914285Y-110352380D02*
X105914285Y-109352380D01*
X105819047Y-109495238D01*
X105723809Y-109590476D01*
X105628571Y-109638095D01*
X106580952Y-109447619D02*
X106628571Y-109400000D01*
X106723809Y-109352380D01*
X106961904Y-109352380D01*
X107057142Y-109400000D01*
X107104761Y-109447619D01*
X107152380Y-109542857D01*
X107152380Y-109638095D01*
X107104761Y-109780952D01*
X106533333Y-110352380D01*
X107152380Y-110352380D01*
X107438095Y-109352380D02*
X107771428Y-110352380D01*
X108104761Y-109352380D01*
X97423809Y-128352380D02*
X97519047Y-128352380D01*
X97614285Y-128400000D01*
X97661904Y-128447619D01*
X97709523Y-128542857D01*
X97757142Y-128733333D01*
X97757142Y-128971428D01*
X97709523Y-129161904D01*
X97661904Y-129257142D01*
X97614285Y-129304761D01*
X97519047Y-129352380D01*
X97423809Y-129352380D01*
X97328571Y-129304761D01*
X97280952Y-129257142D01*
X97233333Y-129161904D01*
X97185714Y-128971428D01*
X97185714Y-128733333D01*
X97233333Y-128542857D01*
X97280952Y-128447619D01*
X97328571Y-128400000D01*
X97423809Y-128352380D01*
X98042857Y-128352380D02*
X98376190Y-129352380D01*
X98709523Y-128352380D01*
X100638095Y-128871428D02*
X101400000Y-128871428D01*
X101019047Y-129252380D02*
X101019047Y-128490476D01*
X102400000Y-129252380D02*
X101828571Y-129252380D01*
X102114285Y-129252380D02*
X102114285Y-128252380D01*
X102019047Y-128395238D01*
X101923809Y-128490476D01*
X101828571Y-128538095D01*
X102780952Y-128347619D02*
X102828571Y-128300000D01*
X102923809Y-128252380D01*
X103161904Y-128252380D01*
X103257142Y-128300000D01*
X103304761Y-128347619D01*
X103352380Y-128442857D01*
X103352380Y-128538095D01*
X103304761Y-128680952D01*
X102733333Y-129252380D01*
X103352380Y-129252380D01*
X103638095Y-128252380D02*
X103971428Y-129252380D01*
X104304761Y-128252380D01*
X92600000Y-81538095D02*
X92647619Y-81442857D01*
X92647619Y-81300000D01*
X92600000Y-81157142D01*
X92504761Y-81061904D01*
X92409523Y-81014285D01*
X92219047Y-80966666D01*
X92076190Y-80966666D01*
X91885714Y-81014285D01*
X91790476Y-81061904D01*
X91695238Y-81157142D01*
X91647619Y-81300000D01*
X91647619Y-81395238D01*
X91695238Y-81538095D01*
X91742857Y-81585714D01*
X92076190Y-81585714D01*
X92076190Y-81395238D01*
X91647619Y-82014285D02*
X92647619Y-82014285D01*
X91647619Y-82585714D01*
X92647619Y-82585714D01*
X91647619Y-83061904D02*
X92647619Y-83061904D01*
X92647619Y-83300000D01*
X92600000Y-83442857D01*
X92504761Y-83538095D01*
X92409523Y-83585714D01*
X92219047Y-83633333D01*
X92076190Y-83633333D01*
X91885714Y-83585714D01*
X91790476Y-83538095D01*
X91695238Y-83442857D01*
X91647619Y-83300000D01*
X91647619Y-83061904D01*
X92128571Y-86014285D02*
X92128571Y-86776190D01*
X91747619Y-86395238D02*
X92509523Y-86395238D01*
X92747619Y-87728571D02*
X92747619Y-87252380D01*
X92271428Y-87204761D01*
X92319047Y-87252380D01*
X92366666Y-87347619D01*
X92366666Y-87585714D01*
X92319047Y-87680952D01*
X92271428Y-87728571D01*
X92176190Y-87776190D01*
X91938095Y-87776190D01*
X91842857Y-87728571D01*
X91795238Y-87680952D01*
X91747619Y-87585714D01*
X91747619Y-87347619D01*
X91795238Y-87252380D01*
X91842857Y-87204761D01*
X92747619Y-88061904D02*
X91747619Y-88395238D01*
X92747619Y-88728571D01*
X233714285Y-94071428D02*
X234476190Y-94071428D01*
X234095238Y-94452380D02*
X234095238Y-93690476D01*
X235428571Y-93452380D02*
X234952380Y-93452380D01*
X234904761Y-93928571D01*
X234952380Y-93880952D01*
X235047619Y-93833333D01*
X235285714Y-93833333D01*
X235380952Y-93880952D01*
X235428571Y-93928571D01*
X235476190Y-94023809D01*
X235476190Y-94261904D01*
X235428571Y-94357142D01*
X235380952Y-94404761D01*
X235285714Y-94452380D01*
X235047619Y-94452380D01*
X234952380Y-94404761D01*
X234904761Y-94357142D01*
X235761904Y-93452380D02*
X236095238Y-94452380D01*
X236428571Y-93452380D01*
X228028571Y-123171428D02*
X228790476Y-123171428D01*
X228409523Y-123552380D02*
X228409523Y-122790476D01*
X229171428Y-122552380D02*
X229790476Y-122552380D01*
X229457142Y-122933333D01*
X229600000Y-122933333D01*
X229695238Y-122980952D01*
X229742857Y-123028571D01*
X229790476Y-123123809D01*
X229790476Y-123361904D01*
X229742857Y-123457142D01*
X229695238Y-123504761D01*
X229600000Y-123552380D01*
X229314285Y-123552380D01*
X229219047Y-123504761D01*
X229171428Y-123457142D01*
X230219047Y-123457142D02*
X230266666Y-123504761D01*
X230219047Y-123552380D01*
X230171428Y-123504761D01*
X230219047Y-123457142D01*
X230219047Y-123552380D01*
X230600000Y-122552380D02*
X231219047Y-122552380D01*
X230885714Y-122933333D01*
X231028571Y-122933333D01*
X231123809Y-122980952D01*
X231171428Y-123028571D01*
X231219047Y-123123809D01*
X231219047Y-123361904D01*
X231171428Y-123457142D01*
X231123809Y-123504761D01*
X231028571Y-123552380D01*
X230742857Y-123552380D01*
X230647619Y-123504761D01*
X230600000Y-123457142D01*
X201328571Y-123071428D02*
X202090476Y-123071428D01*
X201709523Y-123452380D02*
X201709523Y-122690476D01*
X202471428Y-122452380D02*
X203090476Y-122452380D01*
X202757142Y-122833333D01*
X202900000Y-122833333D01*
X202995238Y-122880952D01*
X203042857Y-122928571D01*
X203090476Y-123023809D01*
X203090476Y-123261904D01*
X203042857Y-123357142D01*
X202995238Y-123404761D01*
X202900000Y-123452380D01*
X202614285Y-123452380D01*
X202519047Y-123404761D01*
X202471428Y-123357142D01*
X203519047Y-123357142D02*
X203566666Y-123404761D01*
X203519047Y-123452380D01*
X203471428Y-123404761D01*
X203519047Y-123357142D01*
X203519047Y-123452380D01*
X203900000Y-122452380D02*
X204519047Y-122452380D01*
X204185714Y-122833333D01*
X204328571Y-122833333D01*
X204423809Y-122880952D01*
X204471428Y-122928571D01*
X204519047Y-123023809D01*
X204519047Y-123261904D01*
X204471428Y-123357142D01*
X204423809Y-123404761D01*
X204328571Y-123452380D01*
X204042857Y-123452380D01*
X203947619Y-123404761D01*
X203900000Y-123357142D01*
X212338095Y-122700000D02*
X212242857Y-122652380D01*
X212100000Y-122652380D01*
X211957142Y-122700000D01*
X211861904Y-122795238D01*
X211814285Y-122890476D01*
X211766666Y-123080952D01*
X211766666Y-123223809D01*
X211814285Y-123414285D01*
X211861904Y-123509523D01*
X211957142Y-123604761D01*
X212100000Y-123652380D01*
X212195238Y-123652380D01*
X212338095Y-123604761D01*
X212385714Y-123557142D01*
X212385714Y-123223809D01*
X212195238Y-123223809D01*
X212814285Y-123652380D02*
X212814285Y-122652380D01*
X213385714Y-123652380D01*
X213385714Y-122652380D01*
X213861904Y-123652380D02*
X213861904Y-122652380D01*
X214100000Y-122652380D01*
X214242857Y-122700000D01*
X214338095Y-122795238D01*
X214385714Y-122890476D01*
X214433333Y-123080952D01*
X214433333Y-123223809D01*
X214385714Y-123414285D01*
X214338095Y-123509523D01*
X214242857Y-123604761D01*
X214100000Y-123652380D01*
X213861904Y-123652380D01*
X224238095Y-122600000D02*
X224142857Y-122552380D01*
X224000000Y-122552380D01*
X223857142Y-122600000D01*
X223761904Y-122695238D01*
X223714285Y-122790476D01*
X223666666Y-122980952D01*
X223666666Y-123123809D01*
X223714285Y-123314285D01*
X223761904Y-123409523D01*
X223857142Y-123504761D01*
X224000000Y-123552380D01*
X224095238Y-123552380D01*
X224238095Y-123504761D01*
X224285714Y-123457142D01*
X224285714Y-123123809D01*
X224095238Y-123123809D01*
X224714285Y-123552380D02*
X224714285Y-122552380D01*
X225285714Y-123552380D01*
X225285714Y-122552380D01*
X225761904Y-123552380D02*
X225761904Y-122552380D01*
X226000000Y-122552380D01*
X226142857Y-122600000D01*
X226238095Y-122695238D01*
X226285714Y-122790476D01*
X226333333Y-122980952D01*
X226333333Y-123123809D01*
X226285714Y-123314285D01*
X226238095Y-123409523D01*
X226142857Y-123504761D01*
X226000000Y-123552380D01*
X225761904Y-123552380D01*
X151038095Y-129400000D02*
X150942857Y-129352380D01*
X150800000Y-129352380D01*
X150657142Y-129400000D01*
X150561904Y-129495238D01*
X150514285Y-129590476D01*
X150466666Y-129780952D01*
X150466666Y-129923809D01*
X150514285Y-130114285D01*
X150561904Y-130209523D01*
X150657142Y-130304761D01*
X150800000Y-130352380D01*
X150895238Y-130352380D01*
X151038095Y-130304761D01*
X151085714Y-130257142D01*
X151085714Y-129923809D01*
X150895238Y-129923809D01*
X151514285Y-130352380D02*
X151514285Y-129352380D01*
X152085714Y-130352380D01*
X152085714Y-129352380D01*
X152561904Y-130352380D02*
X152561904Y-129352380D01*
X152800000Y-129352380D01*
X152942857Y-129400000D01*
X153038095Y-129495238D01*
X153085714Y-129590476D01*
X153133333Y-129780952D01*
X153133333Y-129923809D01*
X153085714Y-130114285D01*
X153038095Y-130209523D01*
X152942857Y-130304761D01*
X152800000Y-130352380D01*
X152561904Y-130352380D01*
X188361904Y-80400000D02*
X188457142Y-80447619D01*
X188600000Y-80447619D01*
X188742857Y-80400000D01*
X188838095Y-80304761D01*
X188885714Y-80209523D01*
X188933333Y-80019047D01*
X188933333Y-79876190D01*
X188885714Y-79685714D01*
X188838095Y-79590476D01*
X188742857Y-79495238D01*
X188600000Y-79447619D01*
X188504761Y-79447619D01*
X188361904Y-79495238D01*
X188314285Y-79542857D01*
X188314285Y-79876190D01*
X188504761Y-79876190D01*
X187885714Y-79447619D02*
X187885714Y-80447619D01*
X187314285Y-79447619D01*
X187314285Y-80447619D01*
X186838095Y-79447619D02*
X186838095Y-80447619D01*
X186600000Y-80447619D01*
X186457142Y-80400000D01*
X186361904Y-80304761D01*
X186314285Y-80209523D01*
X186266666Y-80019047D01*
X186266666Y-79876190D01*
X186314285Y-79685714D01*
X186361904Y-79590476D01*
X186457142Y-79495238D01*
X186600000Y-79447619D01*
X186838095Y-79447619D01*
X200161904Y-80200000D02*
X200257142Y-80247619D01*
X200400000Y-80247619D01*
X200542857Y-80200000D01*
X200638095Y-80104761D01*
X200685714Y-80009523D01*
X200733333Y-79819047D01*
X200733333Y-79676190D01*
X200685714Y-79485714D01*
X200638095Y-79390476D01*
X200542857Y-79295238D01*
X200400000Y-79247619D01*
X200304761Y-79247619D01*
X200161904Y-79295238D01*
X200114285Y-79342857D01*
X200114285Y-79676190D01*
X200304761Y-79676190D01*
X199685714Y-79247619D02*
X199685714Y-80247619D01*
X199114285Y-79247619D01*
X199114285Y-80247619D01*
X198638095Y-79247619D02*
X198638095Y-80247619D01*
X198400000Y-80247619D01*
X198257142Y-80200000D01*
X198161904Y-80104761D01*
X198114285Y-80009523D01*
X198066666Y-79819047D01*
X198066666Y-79676190D01*
X198114285Y-79485714D01*
X198161904Y-79390476D01*
X198257142Y-79295238D01*
X198400000Y-79247619D01*
X198638095Y-79247619D01*
X222261904Y-80300000D02*
X222357142Y-80347619D01*
X222500000Y-80347619D01*
X222642857Y-80300000D01*
X222738095Y-80204761D01*
X222785714Y-80109523D01*
X222833333Y-79919047D01*
X222833333Y-79776190D01*
X222785714Y-79585714D01*
X222738095Y-79490476D01*
X222642857Y-79395238D01*
X222500000Y-79347619D01*
X222404761Y-79347619D01*
X222261904Y-79395238D01*
X222214285Y-79442857D01*
X222214285Y-79776190D01*
X222404761Y-79776190D01*
X221785714Y-79347619D02*
X221785714Y-80347619D01*
X221214285Y-79347619D01*
X221214285Y-80347619D01*
X220738095Y-79347619D02*
X220738095Y-80347619D01*
X220500000Y-80347619D01*
X220357142Y-80300000D01*
X220261904Y-80204761D01*
X220214285Y-80109523D01*
X220166666Y-79919047D01*
X220166666Y-79776190D01*
X220214285Y-79585714D01*
X220261904Y-79490476D01*
X220357142Y-79395238D01*
X220500000Y-79347619D01*
X220738095Y-79347619D01*
X218385714Y-79828571D02*
X217623809Y-79828571D01*
X218004761Y-79447619D02*
X218004761Y-80209523D01*
X216671428Y-80447619D02*
X217147619Y-80447619D01*
X217195238Y-79971428D01*
X217147619Y-80019047D01*
X217052380Y-80066666D01*
X216814285Y-80066666D01*
X216719047Y-80019047D01*
X216671428Y-79971428D01*
X216623809Y-79876190D01*
X216623809Y-79638095D01*
X216671428Y-79542857D01*
X216719047Y-79495238D01*
X216814285Y-79447619D01*
X217052380Y-79447619D01*
X217147619Y-79495238D01*
X217195238Y-79542857D01*
X216338095Y-80447619D02*
X216004761Y-79447619D01*
X215671428Y-80447619D01*
X144814285Y-129871428D02*
X145576190Y-129871428D01*
X145195238Y-130252380D02*
X145195238Y-129490476D01*
X146528571Y-129252380D02*
X146052380Y-129252380D01*
X146004761Y-129728571D01*
X146052380Y-129680952D01*
X146147619Y-129633333D01*
X146385714Y-129633333D01*
X146480952Y-129680952D01*
X146528571Y-129728571D01*
X146576190Y-129823809D01*
X146576190Y-130061904D01*
X146528571Y-130157142D01*
X146480952Y-130204761D01*
X146385714Y-130252380D01*
X146147619Y-130252380D01*
X146052380Y-130204761D01*
X146004761Y-130157142D01*
X146861904Y-129252380D02*
X147195238Y-130252380D01*
X147528571Y-129252380D01*
X138914285Y-129971428D02*
X139676190Y-129971428D01*
X139295238Y-130352380D02*
X139295238Y-129590476D01*
X140628571Y-129352380D02*
X140152380Y-129352380D01*
X140104761Y-129828571D01*
X140152380Y-129780952D01*
X140247619Y-129733333D01*
X140485714Y-129733333D01*
X140580952Y-129780952D01*
X140628571Y-129828571D01*
X140676190Y-129923809D01*
X140676190Y-130161904D01*
X140628571Y-130257142D01*
X140580952Y-130304761D01*
X140485714Y-130352380D01*
X140247619Y-130352380D01*
X140152380Y-130304761D01*
X140104761Y-130257142D01*
X140961904Y-129352380D02*
X141295238Y-130352380D01*
X141628571Y-129352380D01*
X127314285Y-129971428D02*
X128076190Y-129971428D01*
X127695238Y-130352380D02*
X127695238Y-129590476D01*
X129028571Y-129352380D02*
X128552380Y-129352380D01*
X128504761Y-129828571D01*
X128552380Y-129780952D01*
X128647619Y-129733333D01*
X128885714Y-129733333D01*
X128980952Y-129780952D01*
X129028571Y-129828571D01*
X129076190Y-129923809D01*
X129076190Y-130161904D01*
X129028571Y-130257142D01*
X128980952Y-130304761D01*
X128885714Y-130352380D01*
X128647619Y-130352380D01*
X128552380Y-130304761D01*
X128504761Y-130257142D01*
X129361904Y-129352380D02*
X129695238Y-130352380D01*
X130028571Y-129352380D01*
X122980952Y-130352380D02*
X122409523Y-130352380D01*
X122695238Y-130352380D02*
X122695238Y-129352380D01*
X122600000Y-129495238D01*
X122504761Y-129590476D01*
X122409523Y-129638095D01*
X123361904Y-129447619D02*
X123409523Y-129400000D01*
X123504761Y-129352380D01*
X123742857Y-129352380D01*
X123838095Y-129400000D01*
X123885714Y-129447619D01*
X123933333Y-129542857D01*
X123933333Y-129638095D01*
X123885714Y-129780952D01*
X123314285Y-130352380D01*
X123933333Y-130352380D01*
X124219047Y-129352380D02*
X124552380Y-130352380D01*
X124885714Y-129352380D01*
D11*
X126121428Y-74835714D02*
X126050000Y-74907142D01*
X125835714Y-74978571D01*
X125692857Y-74978571D01*
X125478571Y-74907142D01*
X125335714Y-74764285D01*
X125264285Y-74621428D01*
X125192857Y-74335714D01*
X125192857Y-74121428D01*
X125264285Y-73835714D01*
X125335714Y-73692857D01*
X125478571Y-73550000D01*
X125692857Y-73478571D01*
X125835714Y-73478571D01*
X126050000Y-73550000D01*
X126121428Y-73621428D01*
X126764285Y-74978571D02*
X126764285Y-73478571D01*
X127407142Y-74978571D02*
X127407142Y-74192857D01*
X127335714Y-74050000D01*
X127192857Y-73978571D01*
X126978571Y-73978571D01*
X126835714Y-74050000D01*
X126764285Y-74121428D01*
X128121428Y-74978571D02*
X128121428Y-73978571D01*
X128121428Y-73478571D02*
X128050000Y-73550000D01*
X128121428Y-73621428D01*
X128192857Y-73550000D01*
X128121428Y-73478571D01*
X128121428Y-73621428D01*
X129478571Y-74907142D02*
X129335714Y-74978571D01*
X129050000Y-74978571D01*
X128907142Y-74907142D01*
X128835714Y-74835714D01*
X128764285Y-74692857D01*
X128764285Y-74264285D01*
X128835714Y-74121428D01*
X128907142Y-74050000D01*
X129050000Y-73978571D01*
X129335714Y-73978571D01*
X129478571Y-74050000D01*
X130121428Y-74978571D02*
X130121428Y-73478571D01*
X130264285Y-74407142D02*
X130692857Y-74978571D01*
X130692857Y-73978571D02*
X130121428Y-74550000D01*
X131907142Y-74907142D02*
X131764285Y-74978571D01*
X131478571Y-74978571D01*
X131335714Y-74907142D01*
X131264285Y-74764285D01*
X131264285Y-74192857D01*
X131335714Y-74050000D01*
X131478571Y-73978571D01*
X131764285Y-73978571D01*
X131907142Y-74050000D01*
X131978571Y-74192857D01*
X131978571Y-74335714D01*
X131264285Y-74478571D01*
X132621428Y-73978571D02*
X132621428Y-74978571D01*
X132621428Y-74121428D02*
X132692857Y-74050000D01*
X132835714Y-73978571D01*
X133050000Y-73978571D01*
X133192857Y-74050000D01*
X133264285Y-74192857D01*
X133264285Y-74978571D01*
X135978571Y-74835714D02*
X135907142Y-74907142D01*
X135692857Y-74978571D01*
X135550000Y-74978571D01*
X135335714Y-74907142D01*
X135192857Y-74764285D01*
X135121428Y-74621428D01*
X135050000Y-74335714D01*
X135050000Y-74121428D01*
X135121428Y-73835714D01*
X135192857Y-73692857D01*
X135335714Y-73550000D01*
X135550000Y-73478571D01*
X135692857Y-73478571D01*
X135907142Y-73550000D01*
X135978571Y-73621428D01*
X136835714Y-74978571D02*
X136692857Y-74907142D01*
X136621428Y-74835714D01*
X136550000Y-74692857D01*
X136550000Y-74264285D01*
X136621428Y-74121428D01*
X136692857Y-74050000D01*
X136835714Y-73978571D01*
X137050000Y-73978571D01*
X137192857Y-74050000D01*
X137264285Y-74121428D01*
X137335714Y-74264285D01*
X137335714Y-74692857D01*
X137264285Y-74835714D01*
X137192857Y-74907142D01*
X137050000Y-74978571D01*
X136835714Y-74978571D01*
X138192857Y-74978571D02*
X138050000Y-74907142D01*
X137978571Y-74835714D01*
X137907142Y-74692857D01*
X137907142Y-74264285D01*
X137978571Y-74121428D01*
X138050000Y-74050000D01*
X138192857Y-73978571D01*
X138407142Y-73978571D01*
X138550000Y-74050000D01*
X138621428Y-74121428D01*
X138692857Y-74264285D01*
X138692857Y-74692857D01*
X138621428Y-74835714D01*
X138550000Y-74907142D01*
X138407142Y-74978571D01*
X138192857Y-74978571D01*
X139335714Y-73978571D02*
X139335714Y-75478571D01*
X139335714Y-74050000D02*
X139478571Y-73978571D01*
X139764285Y-73978571D01*
X139907142Y-74050000D01*
X139978571Y-74121428D01*
X140050000Y-74264285D01*
X140050000Y-74692857D01*
X139978571Y-74835714D01*
X139907142Y-74907142D01*
X139764285Y-74978571D01*
X139478571Y-74978571D01*
X139335714Y-74907142D01*
X141835714Y-74978571D02*
X141835714Y-73478571D01*
X142407142Y-73478571D01*
X142550000Y-73550000D01*
X142621428Y-73621428D01*
X142692857Y-73764285D01*
X142692857Y-73978571D01*
X142621428Y-74121428D01*
X142550000Y-74192857D01*
X142407142Y-74264285D01*
X141835714Y-74264285D01*
X144192857Y-74835714D02*
X144121428Y-74907142D01*
X143907142Y-74978571D01*
X143764285Y-74978571D01*
X143550000Y-74907142D01*
X143407142Y-74764285D01*
X143335714Y-74621428D01*
X143264285Y-74335714D01*
X143264285Y-74121428D01*
X143335714Y-73835714D01*
X143407142Y-73692857D01*
X143550000Y-73550000D01*
X143764285Y-73478571D01*
X143907142Y-73478571D01*
X144121428Y-73550000D01*
X144192857Y-73621428D01*
X145335714Y-74192857D02*
X145550000Y-74264285D01*
X145621428Y-74335714D01*
X145692857Y-74478571D01*
X145692857Y-74692857D01*
X145621428Y-74835714D01*
X145550000Y-74907142D01*
X145407142Y-74978571D01*
X144835714Y-74978571D01*
X144835714Y-73478571D01*
X145335714Y-73478571D01*
X145478571Y-73550000D01*
X145550000Y-73621428D01*
X145621428Y-73764285D01*
X145621428Y-73907142D01*
X145550000Y-74050000D01*
X145478571Y-74121428D01*
X145335714Y-74192857D01*
X144835714Y-74192857D01*
X147335714Y-73978571D02*
X147692857Y-74978571D01*
X148050000Y-73978571D01*
X149407142Y-74978571D02*
X148550000Y-74978571D01*
X148978571Y-74978571D02*
X148978571Y-73478571D01*
X148835714Y-73692857D01*
X148692857Y-73835714D01*
X148550000Y-73907142D01*
D10*
X230824600Y-76329761D02*
X230967457Y-76377380D01*
X231205552Y-76377380D01*
X231300790Y-76329761D01*
X231348409Y-76282142D01*
X231396028Y-76186904D01*
X231396028Y-76091666D01*
X231348409Y-75996428D01*
X231300790Y-75948809D01*
X231205552Y-75901190D01*
X231015076Y-75853571D01*
X230919838Y-75805952D01*
X230872219Y-75758333D01*
X230824600Y-75663095D01*
X230824600Y-75567857D01*
X230872219Y-75472619D01*
X230919838Y-75425000D01*
X231015076Y-75377380D01*
X231253171Y-75377380D01*
X231396028Y-75425000D01*
X231824600Y-76377380D02*
X231824600Y-75377380D01*
X232062695Y-75377380D01*
X232205552Y-75425000D01*
X232300790Y-75520238D01*
X232348409Y-75615476D01*
X232396028Y-75805952D01*
X232396028Y-75948809D01*
X232348409Y-76139285D01*
X232300790Y-76234523D01*
X232205552Y-76329761D01*
X232062695Y-76377380D01*
X231824600Y-76377380D01*
X232776981Y-76091666D02*
X233253171Y-76091666D01*
X232681743Y-76377380D02*
X233015076Y-75377380D01*
X233348409Y-76377380D01*
X230959519Y-78913094D02*
X231102376Y-78960713D01*
X231340472Y-78960713D01*
X231435710Y-78913094D01*
X231483329Y-78865475D01*
X231530948Y-78770237D01*
X231530948Y-78674999D01*
X231483329Y-78579761D01*
X231435710Y-78532142D01*
X231340472Y-78484523D01*
X231149996Y-78436904D01*
X231054757Y-78389285D01*
X231007138Y-78341666D01*
X230959519Y-78246428D01*
X230959519Y-78151190D01*
X231007138Y-78055952D01*
X231054757Y-78008333D01*
X231149996Y-77960713D01*
X231388091Y-77960713D01*
X231530948Y-78008333D01*
X232530948Y-78865475D02*
X232483329Y-78913094D01*
X232340472Y-78960713D01*
X232245234Y-78960713D01*
X232102376Y-78913094D01*
X232007138Y-78817856D01*
X231959519Y-78722618D01*
X231911900Y-78532142D01*
X231911900Y-78389285D01*
X231959519Y-78198809D01*
X232007138Y-78103571D01*
X232102376Y-78008333D01*
X232245234Y-77960713D01*
X232340472Y-77960713D01*
X232483329Y-78008333D01*
X232530948Y-78055952D01*
X233435710Y-78960713D02*
X232959519Y-78960713D01*
X232959519Y-77960713D01*
X231165871Y-80591666D02*
X231070633Y-80544046D01*
X230927776Y-80544046D01*
X230784918Y-80591666D01*
X230689680Y-80686904D01*
X230642061Y-80782142D01*
X230594442Y-80972618D01*
X230594442Y-81115475D01*
X230642061Y-81305951D01*
X230689680Y-81401189D01*
X230784918Y-81496427D01*
X230927776Y-81544046D01*
X231023014Y-81544046D01*
X231165871Y-81496427D01*
X231213490Y-81448808D01*
X231213490Y-81115475D01*
X231023014Y-81115475D01*
X231642061Y-81544046D02*
X231642061Y-80544046D01*
X232213490Y-81544046D01*
X232213490Y-80544046D01*
X232689680Y-81544046D02*
X232689680Y-80544046D01*
X232927776Y-80544046D01*
X233070633Y-80591666D01*
X233165871Y-80686904D01*
X233213490Y-80782142D01*
X233261109Y-80972618D01*
X233261109Y-81115475D01*
X233213490Y-81305951D01*
X233165871Y-81401189D01*
X233070633Y-81496427D01*
X232927776Y-81544046D01*
X232689680Y-81544046D01*
X230530951Y-83746428D02*
X231292856Y-83746428D01*
X230911904Y-84127380D02*
X230911904Y-83365476D01*
X232245237Y-83127380D02*
X231769046Y-83127380D01*
X231721427Y-83603571D01*
X231769046Y-83555952D01*
X231864285Y-83508333D01*
X232102380Y-83508333D01*
X232197618Y-83555952D01*
X232245237Y-83603571D01*
X232292856Y-83698809D01*
X232292856Y-83936904D01*
X232245237Y-84032142D01*
X232197618Y-84079761D01*
X232102380Y-84127380D01*
X231864285Y-84127380D01*
X231769046Y-84079761D01*
X231721427Y-84032142D01*
X232578570Y-83127380D02*
X232911904Y-84127380D01*
X233245237Y-83127380D01*
D12*
X103800000Y-90050000D02*
X103800000Y-89550000D01*
X103060000Y-90050000D02*
X103800000Y-90050000D01*
X95200000Y-76250000D02*
X96200000Y-76250000D01*
X95200000Y-78250000D02*
X96200000Y-78250000D01*
X96200000Y-78250000D02*
X96200000Y-76250000D01*
X95200000Y-78250000D02*
X95200000Y-76250000D01*
X100523000Y-78477000D02*
X100569000Y-78524000D01*
X98225000Y-76180000D02*
X98261000Y-76215000D01*
X100739000Y-78284000D02*
X100774000Y-78319000D01*
X98431000Y-75975000D02*
X98477000Y-76022000D01*
X95200000Y-81250000D02*
X96200000Y-81250000D01*
X95200000Y-83250000D02*
X96200000Y-83250000D01*
X96200000Y-83250000D02*
X96200000Y-81250000D01*
X95200000Y-83250000D02*
X95200000Y-81250000D01*
X100523000Y-83477000D02*
X100569000Y-83524000D01*
X98225000Y-81180000D02*
X98261000Y-81215000D01*
X100739000Y-83284000D02*
X100774000Y-83319000D01*
X98431000Y-80975000D02*
X98477000Y-81022000D01*
X95200000Y-86250000D02*
X96200000Y-86250000D01*
X95200000Y-88250000D02*
X96200000Y-88250000D01*
X96200000Y-88250000D02*
X96200000Y-86250000D01*
X95200000Y-88250000D02*
X95200000Y-86250000D01*
X95140000Y-74690000D02*
X103560000Y-74690000D01*
X95140000Y-89810000D02*
X103560000Y-89810000D01*
X103560000Y-89810000D02*
X103560000Y-74690000D01*
X95140000Y-89810000D02*
X95140000Y-74690000D01*
X97199000Y-89810000D02*
X97199000Y-74690000D01*
X101500000Y-89810000D02*
X101500000Y-74690000D01*
X103000000Y-89810000D02*
X103000000Y-74690000D01*
X101180000Y-77250000D02*
G75*
G03X101180000Y-77250000I-1680000J0D01*
G01*
X101180000Y-82250000D02*
G75*
G03X101180000Y-82250000I-1680000J0D01*
G01*
X101180253Y-87221195D02*
G75*
G02X101035000Y-87934000I-1680253J-28805D01*
G01*
X100183042Y-88785426D02*
G75*
G02X98816000Y-88785000I-683042J1535426D01*
G01*
X97964574Y-87933042D02*
G75*
G02X97965000Y-86566000I1535426J683042D01*
G01*
X98816958Y-85714574D02*
G75*
G02X100184000Y-85715000I683042J-1535426D01*
G01*
X101034756Y-86566682D02*
G75*
G02X101180000Y-87250000I-1534756J-683318D01*
G01*
X103600000Y-97400000D02*
X102600000Y-97400000D01*
X103600000Y-99400000D02*
X102600000Y-99400000D01*
X102600000Y-97400000D02*
X102600000Y-99400000D01*
X98277000Y-97173000D02*
X98231000Y-97126000D01*
X95000000Y-90600000D02*
X95000000Y-91100000D01*
X100575000Y-99470000D02*
X100539000Y-99435000D01*
X103600000Y-94400000D02*
X102600000Y-94400000D01*
X102600000Y-92400000D02*
X102600000Y-94400000D01*
X97300000Y-90840000D02*
X97300000Y-100960000D01*
X103600000Y-92400000D02*
X103600000Y-94400000D01*
X97619747Y-93428805D02*
G75*
G02X97765000Y-92716000I1680253J28805D01*
G01*
X100369000Y-99675000D02*
X100323000Y-99628000D01*
X100835426Y-92716958D02*
G75*
G02X100835000Y-94084000I-1535426J-683042D01*
G01*
X103660000Y-90840000D02*
X95240000Y-90840000D01*
X95240000Y-90840000D02*
X95240000Y-100960000D01*
X101601000Y-90840000D02*
X101601000Y-100960000D01*
X103600000Y-97400000D02*
X103600000Y-99400000D01*
X98061000Y-97366000D02*
X98026000Y-97331000D01*
X103600000Y-92400000D02*
X102600000Y-92400000D01*
X100980000Y-98400000D02*
G75*
G03X100980000Y-98400000I-1680000J0D01*
G01*
X103660000Y-90840000D02*
X103660000Y-100960000D01*
X95740000Y-90600000D02*
X95000000Y-90600000D01*
X95800000Y-90840000D02*
X95800000Y-100960000D01*
X97765244Y-94083318D02*
G75*
G02X97620000Y-93400000I1534756J683318D01*
G01*
X98616958Y-91864574D02*
G75*
G02X99984000Y-91865000I683042J-1535426D01*
G01*
X103660000Y-100960000D02*
X95240000Y-100960000D01*
X99983042Y-94935426D02*
G75*
G02X98616000Y-94935000I-683042J1535426D01*
G01*
X100980000Y-109900000D02*
G75*
G03X100980000Y-109900000I-1680000J0D01*
G01*
X97765244Y-105583318D02*
G75*
G02X97620000Y-104900000I1534756J683318D01*
G01*
X95800000Y-102340000D02*
X95800000Y-112460000D01*
X97300000Y-102340000D02*
X97300000Y-112460000D01*
X101601000Y-102340000D02*
X101601000Y-112460000D01*
X103660000Y-102340000D02*
X103660000Y-112460000D01*
X95240000Y-102340000D02*
X95240000Y-112460000D01*
X103660000Y-102340000D02*
X95240000Y-102340000D01*
X103660000Y-112460000D02*
X95240000Y-112460000D01*
X99983042Y-106435426D02*
G75*
G02X98616000Y-106435000I-683042J1535426D01*
G01*
X100835426Y-104216958D02*
G75*
G02X100835000Y-105584000I-1535426J-683042D01*
G01*
X98616958Y-103364574D02*
G75*
G02X99984000Y-103365000I683042J-1535426D01*
G01*
X97619747Y-104928805D02*
G75*
G02X97765000Y-104216000I1680253J28805D01*
G01*
X103600000Y-103900000D02*
X102600000Y-103900000D01*
X100369000Y-111175000D02*
X100323000Y-111128000D01*
X103600000Y-108900000D02*
X103600000Y-110900000D01*
X95740000Y-102100000D02*
X95000000Y-102100000D01*
X103600000Y-103900000D02*
X103600000Y-105900000D01*
X98061000Y-108866000D02*
X98026000Y-108831000D01*
X102600000Y-108900000D02*
X102600000Y-110900000D01*
X103600000Y-110900000D02*
X102600000Y-110900000D01*
X100575000Y-110970000D02*
X100539000Y-110935000D01*
X103600000Y-108900000D02*
X102600000Y-108900000D01*
X95000000Y-102100000D02*
X95000000Y-102600000D01*
X98277000Y-108673000D02*
X98231000Y-108626000D01*
X102600000Y-103900000D02*
X102600000Y-105900000D01*
X103600000Y-105900000D02*
X102600000Y-105900000D01*
X169670000Y-108730000D02*
X169670000Y-101050000D01*
X172330000Y-108730000D02*
X172330000Y-101050000D01*
X172330000Y-110000000D02*
X172330000Y-111330000D01*
X172330000Y-108730000D02*
X169670000Y-108730000D01*
X172330000Y-101050000D02*
X169670000Y-101050000D01*
X172330000Y-111330000D02*
X171000000Y-111330000D01*
X161700000Y-75900000D02*
G75*
G02X165200000Y-79400000I0J-3500000D01*
G01*
X165200000Y-113400000D02*
G75*
G02X161700000Y-116900000I-3500000J0D01*
G01*
X118700000Y-116900000D02*
G75*
G02X115200000Y-113400000I0J3500000D01*
G01*
X115200000Y-79400000D02*
G75*
G02X118700000Y-75900000I3500000J0D01*
G01*
X161700000Y-116900000D02*
X118700000Y-116900000D01*
X115200000Y-79400000D02*
X115200000Y-113400000D01*
X165200000Y-79400000D02*
X165200000Y-113400000D01*
X118700000Y-75900000D02*
X161700000Y-75900000D01*
X131500000Y-118850000D02*
X131000000Y-118850000D01*
X131500000Y-119590000D02*
X131500000Y-118850000D01*
X117700000Y-127450000D02*
X117700000Y-126450000D01*
X119700000Y-127450000D02*
X119700000Y-126450000D01*
X119700000Y-126450000D02*
X117700000Y-126450000D01*
X119700000Y-127450000D02*
X117700000Y-127450000D01*
X119927000Y-122127000D02*
X119974000Y-122081000D01*
X117630000Y-124425000D02*
X117665000Y-124389000D01*
X119734000Y-121911000D02*
X119769000Y-121876000D01*
X117425000Y-124219000D02*
X117472000Y-124173000D01*
X122700000Y-127450000D02*
X122700000Y-126450000D01*
X124700000Y-127450000D02*
X124700000Y-126450000D01*
X124700000Y-126450000D02*
X122700000Y-126450000D01*
X124700000Y-127450000D02*
X122700000Y-127450000D01*
X124927000Y-122127000D02*
X124974000Y-122081000D01*
X122630000Y-124425000D02*
X122665000Y-124389000D01*
X124734000Y-121911000D02*
X124769000Y-121876000D01*
X122425000Y-124219000D02*
X122472000Y-124173000D01*
X127700000Y-127450000D02*
X127700000Y-126450000D01*
X129700000Y-127450000D02*
X129700000Y-126450000D01*
X129700000Y-126450000D02*
X127700000Y-126450000D01*
X129700000Y-127450000D02*
X127700000Y-127450000D01*
X116140000Y-127510000D02*
X116140000Y-119090000D01*
X131260000Y-127510000D02*
X131260000Y-119090000D01*
X131260000Y-119090000D02*
X116140000Y-119090000D01*
X131260000Y-127510000D02*
X116140000Y-127510000D01*
X131260000Y-125451000D02*
X116140000Y-125451000D01*
X131260000Y-121150000D02*
X116140000Y-121150000D01*
X131260000Y-119650000D02*
X116140000Y-119650000D01*
X120380000Y-123150000D02*
G75*
G03X120380000Y-123150000I-1680000J0D01*
G01*
X125380000Y-123150000D02*
G75*
G03X125380000Y-123150000I-1680000J0D01*
G01*
X128671195Y-121469747D02*
G75*
G02X129384000Y-121615000I28805J-1680253D01*
G01*
X130235426Y-122466958D02*
G75*
G02X130235000Y-123834000I-1535426J-683042D01*
G01*
X129383042Y-124685426D02*
G75*
G02X128016000Y-124685000I-683042J1535426D01*
G01*
X127164574Y-123833042D02*
G75*
G02X127165000Y-122466000I1535426J683042D01*
G01*
X128016682Y-121615244D02*
G75*
G02X128700000Y-121470000I683318J-1534756D01*
G01*
X143200000Y-118855000D02*
X142700000Y-118855000D01*
X143200000Y-119595000D02*
X143200000Y-118855000D01*
X134400000Y-127455000D02*
X134400000Y-126455000D01*
X136400000Y-127455000D02*
X136400000Y-126455000D01*
X136400000Y-126455000D02*
X134400000Y-126455000D01*
X136400000Y-127455000D02*
X134400000Y-127455000D01*
X136627000Y-122132000D02*
X136674000Y-122086000D01*
X134330000Y-124430000D02*
X134365000Y-124394000D01*
X136434000Y-121916000D02*
X136469000Y-121881000D01*
X134125000Y-124224000D02*
X134172000Y-124178000D01*
X139400000Y-127455000D02*
X139400000Y-126455000D01*
X141400000Y-127455000D02*
X141400000Y-126455000D01*
X141400000Y-126455000D02*
X139400000Y-126455000D01*
X141400000Y-127455000D02*
X139400000Y-127455000D01*
X132840000Y-127515000D02*
X132840000Y-119095000D01*
X142960000Y-127515000D02*
X142960000Y-119095000D01*
X142960000Y-119095000D02*
X132840000Y-119095000D01*
X142960000Y-127515000D02*
X132840000Y-127515000D01*
X142960000Y-125456000D02*
X132840000Y-125456000D01*
X142960000Y-121155000D02*
X132840000Y-121155000D01*
X142960000Y-119655000D02*
X132840000Y-119655000D01*
X137080000Y-123155000D02*
G75*
G03X137080000Y-123155000I-1680000J0D01*
G01*
X140371195Y-121474747D02*
G75*
G02X141084000Y-121620000I28805J-1680253D01*
G01*
X141935426Y-122471958D02*
G75*
G02X141935000Y-123839000I-1535426J-683042D01*
G01*
X141083042Y-124690426D02*
G75*
G02X139716000Y-124690000I-683042J1535426D01*
G01*
X138864574Y-123838042D02*
G75*
G02X138865000Y-122471000I1535426J683042D01*
G01*
X139716682Y-121620244D02*
G75*
G02X140400000Y-121475000I683318J-1534756D01*
G01*
X159500000Y-118900000D02*
X159000000Y-118900000D01*
X159500000Y-119640000D02*
X159500000Y-118900000D01*
X145700000Y-127500000D02*
X145700000Y-126500000D01*
X147700000Y-127500000D02*
X147700000Y-126500000D01*
X147700000Y-126500000D02*
X145700000Y-126500000D01*
X147700000Y-127500000D02*
X145700000Y-127500000D01*
X147927000Y-122177000D02*
X147974000Y-122131000D01*
X145630000Y-124475000D02*
X145665000Y-124439000D01*
X147734000Y-121961000D02*
X147769000Y-121926000D01*
X145425000Y-124269000D02*
X145472000Y-124223000D01*
X150700000Y-127500000D02*
X150700000Y-126500000D01*
X152700000Y-127500000D02*
X152700000Y-126500000D01*
X152700000Y-126500000D02*
X150700000Y-126500000D01*
X152700000Y-127500000D02*
X150700000Y-127500000D01*
X152927000Y-122177000D02*
X152974000Y-122131000D01*
X150630000Y-124475000D02*
X150665000Y-124439000D01*
X152734000Y-121961000D02*
X152769000Y-121926000D01*
X150425000Y-124269000D02*
X150472000Y-124223000D01*
X155700000Y-127500000D02*
X155700000Y-126500000D01*
X157700000Y-127500000D02*
X157700000Y-126500000D01*
X157700000Y-126500000D02*
X155700000Y-126500000D01*
X157700000Y-127500000D02*
X155700000Y-127500000D01*
X144140000Y-127560000D02*
X144140000Y-119140000D01*
X159260000Y-127560000D02*
X159260000Y-119140000D01*
X159260000Y-119140000D02*
X144140000Y-119140000D01*
X159260000Y-127560000D02*
X144140000Y-127560000D01*
X159260000Y-125501000D02*
X144140000Y-125501000D01*
X159260000Y-121200000D02*
X144140000Y-121200000D01*
X159260000Y-119700000D02*
X144140000Y-119700000D01*
X148380000Y-123200000D02*
G75*
G03X148380000Y-123200000I-1680000J0D01*
G01*
X153380000Y-123200000D02*
G75*
G03X153380000Y-123200000I-1680000J0D01*
G01*
X156671195Y-121519747D02*
G75*
G02X157384000Y-121665000I28805J-1680253D01*
G01*
X158235426Y-122516958D02*
G75*
G02X158235000Y-123884000I-1535426J-683042D01*
G01*
X157383042Y-124735426D02*
G75*
G02X156016000Y-124735000I-683042J1535426D01*
G01*
X155164574Y-123883042D02*
G75*
G02X155165000Y-122516000I1535426J683042D01*
G01*
X156016682Y-121665244D02*
G75*
G02X156700000Y-121520000I683318J-1534756D01*
G01*
X105775000Y-119100000D02*
X105275000Y-119100000D01*
X105775000Y-119840000D02*
X105775000Y-119100000D01*
X96975000Y-127700000D02*
X96975000Y-126700000D01*
X98975000Y-127700000D02*
X98975000Y-126700000D01*
X98975000Y-126700000D02*
X96975000Y-126700000D01*
X98975000Y-127700000D02*
X96975000Y-127700000D01*
X99202000Y-122377000D02*
X99249000Y-122331000D01*
X96905000Y-124675000D02*
X96940000Y-124639000D01*
X99009000Y-122161000D02*
X99044000Y-122126000D01*
X96700000Y-124469000D02*
X96747000Y-124423000D01*
X101975000Y-127700000D02*
X101975000Y-126700000D01*
X103975000Y-127700000D02*
X103975000Y-126700000D01*
X103975000Y-126700000D02*
X101975000Y-126700000D01*
X103975000Y-127700000D02*
X101975000Y-127700000D01*
X95415000Y-127760000D02*
X95415000Y-119340000D01*
X105535000Y-127760000D02*
X105535000Y-119340000D01*
X105535000Y-119340000D02*
X95415000Y-119340000D01*
X105535000Y-127760000D02*
X95415000Y-127760000D01*
X105535000Y-125701000D02*
X95415000Y-125701000D01*
X105535000Y-121400000D02*
X95415000Y-121400000D01*
X105535000Y-119900000D02*
X95415000Y-119900000D01*
X99655000Y-123400000D02*
G75*
G03X99655000Y-123400000I-1680000J0D01*
G01*
X102946195Y-121719747D02*
G75*
G02X103659000Y-121865000I28805J-1680253D01*
G01*
X104510426Y-122716958D02*
G75*
G02X104510000Y-124084000I-1535426J-683042D01*
G01*
X103658042Y-124935426D02*
G75*
G02X102291000Y-124935000I-683042J1535426D01*
G01*
X101439574Y-124083042D02*
G75*
G02X101440000Y-122716000I1535426J683042D01*
G01*
X102291682Y-121865244D02*
G75*
G02X102975000Y-121720000I683318J-1534756D01*
G01*
X215850000Y-113375000D02*
X215350000Y-113375000D01*
X215850000Y-114115000D02*
X215850000Y-113375000D01*
X202050000Y-121975000D02*
X202050000Y-120975000D01*
X204050000Y-121975000D02*
X204050000Y-120975000D01*
X204050000Y-120975000D02*
X202050000Y-120975000D01*
X204050000Y-121975000D02*
X202050000Y-121975000D01*
X204277000Y-116652000D02*
X204324000Y-116606000D01*
X201980000Y-118950000D02*
X202015000Y-118914000D01*
X204084000Y-116436000D02*
X204119000Y-116401000D01*
X201775000Y-118744000D02*
X201822000Y-118698000D01*
X207050000Y-121975000D02*
X207050000Y-120975000D01*
X209050000Y-121975000D02*
X209050000Y-120975000D01*
X209050000Y-120975000D02*
X207050000Y-120975000D01*
X209050000Y-121975000D02*
X207050000Y-121975000D01*
X209277000Y-116652000D02*
X209324000Y-116606000D01*
X206980000Y-118950000D02*
X207015000Y-118914000D01*
X209084000Y-116436000D02*
X209119000Y-116401000D01*
X206775000Y-118744000D02*
X206822000Y-118698000D01*
X212050000Y-121975000D02*
X212050000Y-120975000D01*
X214050000Y-121975000D02*
X214050000Y-120975000D01*
X214050000Y-120975000D02*
X212050000Y-120975000D01*
X214050000Y-121975000D02*
X212050000Y-121975000D01*
X200490000Y-122035000D02*
X200490000Y-113615000D01*
X215610000Y-122035000D02*
X215610000Y-113615000D01*
X215610000Y-113615000D02*
X200490000Y-113615000D01*
X215610000Y-122035000D02*
X200490000Y-122035000D01*
X215610000Y-119976000D02*
X200490000Y-119976000D01*
X215610000Y-115675000D02*
X200490000Y-115675000D01*
X215610000Y-114175000D02*
X200490000Y-114175000D01*
X204730000Y-117675000D02*
G75*
G03X204730000Y-117675000I-1680000J0D01*
G01*
X209730000Y-117675000D02*
G75*
G03X209730000Y-117675000I-1680000J0D01*
G01*
X213021195Y-115994747D02*
G75*
G02X213734000Y-116140000I28805J-1680253D01*
G01*
X214585426Y-116991958D02*
G75*
G02X214585000Y-118359000I-1535426J-683042D01*
G01*
X213733042Y-119210426D02*
G75*
G02X212366000Y-119210000I-683042J1535426D01*
G01*
X211514574Y-118358042D02*
G75*
G02X211515000Y-116991000I1535426J683042D01*
G01*
X212366682Y-116140244D02*
G75*
G02X213050000Y-115995000I683318J-1534756D01*
G01*
X232700000Y-113375000D02*
X232200000Y-113375000D01*
X232700000Y-114115000D02*
X232700000Y-113375000D01*
X218900000Y-121975000D02*
X218900000Y-120975000D01*
X220900000Y-121975000D02*
X220900000Y-120975000D01*
X220900000Y-120975000D02*
X218900000Y-120975000D01*
X220900000Y-121975000D02*
X218900000Y-121975000D01*
X221127000Y-116652000D02*
X221174000Y-116606000D01*
X218830000Y-118950000D02*
X218865000Y-118914000D01*
X220934000Y-116436000D02*
X220969000Y-116401000D01*
X218625000Y-118744000D02*
X218672000Y-118698000D01*
X223900000Y-121975000D02*
X223900000Y-120975000D01*
X225900000Y-121975000D02*
X225900000Y-120975000D01*
X225900000Y-120975000D02*
X223900000Y-120975000D01*
X225900000Y-121975000D02*
X223900000Y-121975000D01*
X226127000Y-116652000D02*
X226174000Y-116606000D01*
X223830000Y-118950000D02*
X223865000Y-118914000D01*
X225934000Y-116436000D02*
X225969000Y-116401000D01*
X223625000Y-118744000D02*
X223672000Y-118698000D01*
X228900000Y-121975000D02*
X228900000Y-120975000D01*
X230900000Y-121975000D02*
X230900000Y-120975000D01*
X230900000Y-120975000D02*
X228900000Y-120975000D01*
X230900000Y-121975000D02*
X228900000Y-121975000D01*
X217340000Y-122035000D02*
X217340000Y-113615000D01*
X232460000Y-122035000D02*
X232460000Y-113615000D01*
X232460000Y-113615000D02*
X217340000Y-113615000D01*
X232460000Y-122035000D02*
X217340000Y-122035000D01*
X232460000Y-119976000D02*
X217340000Y-119976000D01*
X232460000Y-115675000D02*
X217340000Y-115675000D01*
X232460000Y-114175000D02*
X217340000Y-114175000D01*
X221580000Y-117675000D02*
G75*
G03X221580000Y-117675000I-1680000J0D01*
G01*
X226580000Y-117675000D02*
G75*
G03X226580000Y-117675000I-1680000J0D01*
G01*
X229871195Y-115994747D02*
G75*
G02X230584000Y-116140000I28805J-1680253D01*
G01*
X231435426Y-116991958D02*
G75*
G02X231435000Y-118359000I-1535426J-683042D01*
G01*
X230583042Y-119210426D02*
G75*
G02X229216000Y-119210000I-683042J1535426D01*
G01*
X228364574Y-118358042D02*
G75*
G02X228365000Y-116991000I1535426J683042D01*
G01*
X229216682Y-116140244D02*
G75*
G02X229900000Y-115995000I683318J-1534756D01*
G01*
X196700000Y-89775000D02*
X197200000Y-89775000D01*
X196700000Y-89035000D02*
X196700000Y-89775000D01*
X205500000Y-81175000D02*
X205500000Y-82175000D01*
X203500000Y-81175000D02*
X203500000Y-82175000D01*
X203500000Y-82175000D02*
X205500000Y-82175000D01*
X203500000Y-81175000D02*
X205500000Y-81175000D01*
X203273000Y-86498000D02*
X203226000Y-86544000D01*
X205570000Y-84200000D02*
X205535000Y-84236000D01*
X203466000Y-86714000D02*
X203431000Y-86749000D01*
X205775000Y-84406000D02*
X205728000Y-84452000D01*
X200500000Y-81175000D02*
X200500000Y-82175000D01*
X198500000Y-81175000D02*
X198500000Y-82175000D01*
X198500000Y-82175000D02*
X200500000Y-82175000D01*
X198500000Y-81175000D02*
X200500000Y-81175000D01*
X207060000Y-81115000D02*
X207060000Y-89535000D01*
X196940000Y-81115000D02*
X196940000Y-89535000D01*
X196940000Y-89535000D02*
X207060000Y-89535000D01*
X196940000Y-81115000D02*
X207060000Y-81115000D01*
X196940000Y-83174000D02*
X207060000Y-83174000D01*
X196940000Y-87475000D02*
X207060000Y-87475000D01*
X196940000Y-88975000D02*
X207060000Y-88975000D01*
X206180000Y-85475000D02*
G75*
G03X206180000Y-85475000I-1680000J0D01*
G01*
X199528805Y-87155253D02*
G75*
G02X198816000Y-87010000I-28805J1680253D01*
G01*
X197964574Y-86158042D02*
G75*
G02X197965000Y-84791000I1535426J683042D01*
G01*
X198816958Y-83939574D02*
G75*
G02X200184000Y-83940000I683042J-1535426D01*
G01*
X201035426Y-84791958D02*
G75*
G02X201035000Y-86159000I-1535426J-683042D01*
G01*
X200183318Y-87009756D02*
G75*
G02X199500000Y-87155000I-683318J1534756D01*
G01*
X184745000Y-89775000D02*
X185245000Y-89775000D01*
X184745000Y-89035000D02*
X184745000Y-89775000D01*
X193545000Y-81175000D02*
X193545000Y-82175000D01*
X191545000Y-81175000D02*
X191545000Y-82175000D01*
X191545000Y-82175000D02*
X193545000Y-82175000D01*
X191545000Y-81175000D02*
X193545000Y-81175000D01*
X191318000Y-86498000D02*
X191271000Y-86544000D01*
X193615000Y-84200000D02*
X193580000Y-84236000D01*
X191511000Y-86714000D02*
X191476000Y-86749000D01*
X193820000Y-84406000D02*
X193773000Y-84452000D01*
X188545000Y-81175000D02*
X188545000Y-82175000D01*
X186545000Y-81175000D02*
X186545000Y-82175000D01*
X186545000Y-82175000D02*
X188545000Y-82175000D01*
X186545000Y-81175000D02*
X188545000Y-81175000D01*
X195105000Y-81115000D02*
X195105000Y-89535000D01*
X184985000Y-81115000D02*
X184985000Y-89535000D01*
X184985000Y-89535000D02*
X195105000Y-89535000D01*
X184985000Y-81115000D02*
X195105000Y-81115000D01*
X184985000Y-83174000D02*
X195105000Y-83174000D01*
X184985000Y-87475000D02*
X195105000Y-87475000D01*
X184985000Y-88975000D02*
X195105000Y-88975000D01*
X194225000Y-85475000D02*
G75*
G03X194225000Y-85475000I-1680000J0D01*
G01*
X187573805Y-87155253D02*
G75*
G02X186861000Y-87010000I-28805J1680253D01*
G01*
X186009574Y-86158042D02*
G75*
G02X186010000Y-84791000I1535426J683042D01*
G01*
X186861958Y-83939574D02*
G75*
G02X188229000Y-83940000I683042J-1535426D01*
G01*
X189080426Y-84791958D02*
G75*
G02X189080000Y-86159000I-1535426J-683042D01*
G01*
X188228318Y-87009756D02*
G75*
G02X187545000Y-87155000I-683318J1534756D01*
G01*
X232000000Y-92670000D02*
X233110000Y-92670000D01*
X233110000Y-92670000D02*
X233110000Y-94000000D01*
X221910000Y-92670000D02*
X221910000Y-108030000D01*
X221910000Y-108030000D02*
X230540000Y-108030000D01*
X230540000Y-92670000D02*
X230540000Y-108030000D01*
X221910000Y-92670000D02*
X230540000Y-92670000D01*
X221910000Y-105430000D02*
X230540000Y-105430000D01*
X221910000Y-102890000D02*
X230540000Y-102890000D01*
X221910000Y-100350000D02*
X230540000Y-100350000D01*
X221910000Y-97810000D02*
X230540000Y-97810000D01*
X221910000Y-95270000D02*
X230540000Y-95270000D01*
X230540000Y-107060000D02*
X230950000Y-107060000D01*
X230540000Y-106340000D02*
X230950000Y-106340000D01*
X230540000Y-104520000D02*
X230950000Y-104520000D01*
X230540000Y-103800000D02*
X230950000Y-103800000D01*
X230540000Y-101980000D02*
X230950000Y-101980000D01*
X230540000Y-101260000D02*
X230950000Y-101260000D01*
X230540000Y-99440000D02*
X230950000Y-99440000D01*
X230540000Y-98720000D02*
X230950000Y-98720000D01*
X230540000Y-96900000D02*
X230950000Y-96900000D01*
X230540000Y-96180000D02*
X230950000Y-96180000D01*
X230540000Y-94360000D02*
X230890000Y-94360000D01*
X230540000Y-93640000D02*
X230890000Y-93640000D01*
X221910000Y-95151900D02*
X230540000Y-95151900D01*
X221910000Y-95033805D02*
X230540000Y-95033805D01*
X221910000Y-94915710D02*
X230540000Y-94915710D01*
X221910000Y-94797615D02*
X230540000Y-94797615D01*
X221910000Y-94679520D02*
X230540000Y-94679520D01*
X221910000Y-94561425D02*
X230540000Y-94561425D01*
X221910000Y-94443330D02*
X230540000Y-94443330D01*
X221910000Y-94325235D02*
X230540000Y-94325235D01*
X221910000Y-94207140D02*
X230540000Y-94207140D01*
X221910000Y-94089045D02*
X230540000Y-94089045D01*
X221910000Y-93970950D02*
X230540000Y-93970950D01*
X221910000Y-93852855D02*
X230540000Y-93852855D01*
X221910000Y-93734760D02*
X230540000Y-93734760D01*
X221910000Y-93616665D02*
X230540000Y-93616665D01*
X221910000Y-93498570D02*
X230540000Y-93498570D01*
X221910000Y-93380475D02*
X230540000Y-93380475D01*
X221910000Y-93262380D02*
X230540000Y-93262380D01*
X221910000Y-93144285D02*
X230540000Y-93144285D01*
X221910000Y-93026190D02*
X230540000Y-93026190D01*
X221910000Y-92908095D02*
X230540000Y-92908095D01*
X221910000Y-92790000D02*
X230540000Y-92790000D01*
X213500000Y-89775000D02*
X214000000Y-89775000D01*
X213500000Y-89035000D02*
X213500000Y-89775000D01*
X227300000Y-81175000D02*
X227300000Y-82175000D01*
X225300000Y-81175000D02*
X225300000Y-82175000D01*
X225300000Y-82175000D02*
X227300000Y-82175000D01*
X225300000Y-81175000D02*
X227300000Y-81175000D01*
X225073000Y-86498000D02*
X225026000Y-86544000D01*
X227370000Y-84200000D02*
X227335000Y-84236000D01*
X225266000Y-86714000D02*
X225231000Y-86749000D01*
X227575000Y-84406000D02*
X227528000Y-84452000D01*
X222300000Y-81175000D02*
X222300000Y-82175000D01*
X220300000Y-81175000D02*
X220300000Y-82175000D01*
X220300000Y-82175000D02*
X222300000Y-82175000D01*
X220300000Y-81175000D02*
X222300000Y-81175000D01*
X220073000Y-86498000D02*
X220026000Y-86544000D01*
X222370000Y-84200000D02*
X222335000Y-84236000D01*
X220266000Y-86714000D02*
X220231000Y-86749000D01*
X222575000Y-84406000D02*
X222528000Y-84452000D01*
X217300000Y-81175000D02*
X217300000Y-82175000D01*
X215300000Y-81175000D02*
X215300000Y-82175000D01*
X215300000Y-82175000D02*
X217300000Y-82175000D01*
X215300000Y-81175000D02*
X217300000Y-81175000D01*
X228860000Y-81115000D02*
X228860000Y-89535000D01*
X213740000Y-81115000D02*
X213740000Y-89535000D01*
X213740000Y-89535000D02*
X228860000Y-89535000D01*
X213740000Y-81115000D02*
X228860000Y-81115000D01*
X213740000Y-83174000D02*
X228860000Y-83174000D01*
X213740000Y-87475000D02*
X228860000Y-87475000D01*
X213740000Y-88975000D02*
X228860000Y-88975000D01*
X227980000Y-85475000D02*
G75*
G03X227980000Y-85475000I-1680000J0D01*
G01*
X222980000Y-85475000D02*
G75*
G03X222980000Y-85475000I-1680000J0D01*
G01*
X216328805Y-87155253D02*
G75*
G02X215616000Y-87010000I-28805J1680253D01*
G01*
X214764574Y-86158042D02*
G75*
G02X214765000Y-84791000I1535426J683042D01*
G01*
X215616958Y-83939574D02*
G75*
G02X216984000Y-83940000I683042J-1535426D01*
G01*
X217835426Y-84791958D02*
G75*
G02X217835000Y-86159000I-1535426J-683042D01*
G01*
X216983318Y-87009756D02*
G75*
G02X216300000Y-87155000I-683318J1534756D01*
G01*
X235400000Y-84805000D02*
X234070000Y-84805000D01*
X234070000Y-84805000D02*
X234070000Y-83475000D01*
X234070000Y-82205000D02*
X234070000Y-74525000D01*
X236730000Y-74525000D02*
X234070000Y-74525000D01*
X236730000Y-82205000D02*
X236730000Y-74525000D01*
X236730000Y-82205000D02*
X234070000Y-82205000D01*
D10*
X94592380Y-84035714D02*
X93592380Y-84035714D01*
X94306666Y-83702380D01*
X93592380Y-83369047D01*
X94592380Y-83369047D01*
X94592380Y-82892857D02*
X93592380Y-82892857D01*
X93592380Y-82511904D01*
X93640000Y-82416666D01*
X93687619Y-82369047D01*
X93782857Y-82321428D01*
X93925714Y-82321428D01*
X94020952Y-82369047D01*
X94068571Y-82416666D01*
X94116190Y-82511904D01*
X94116190Y-82892857D01*
X94544761Y-81940476D02*
X94592380Y-81797619D01*
X94592380Y-81559523D01*
X94544761Y-81464285D01*
X94497142Y-81416666D01*
X94401904Y-81369047D01*
X94306666Y-81369047D01*
X94211428Y-81416666D01*
X94163809Y-81464285D01*
X94116190Y-81559523D01*
X94068571Y-81750000D01*
X94020952Y-81845238D01*
X93973333Y-81892857D01*
X93878095Y-81940476D01*
X93782857Y-81940476D01*
X93687619Y-81892857D01*
X93640000Y-81845238D01*
X93592380Y-81750000D01*
X93592380Y-81511904D01*
X93640000Y-81369047D01*
X94592380Y-80416666D02*
X94592380Y-80988095D01*
X94592380Y-80702380D02*
X93592380Y-80702380D01*
X93735238Y-80797619D01*
X93830476Y-80892857D01*
X93878095Y-80988095D01*
X105012380Y-86202380D02*
X104012380Y-86202380D01*
X104012380Y-85821428D01*
X104060000Y-85726190D01*
X104107619Y-85678571D01*
X104202857Y-85630952D01*
X104345714Y-85630952D01*
X104440952Y-85678571D01*
X104488571Y-85726190D01*
X104536190Y-85821428D01*
X104536190Y-86202380D01*
X105012380Y-85202380D02*
X104345714Y-85202380D01*
X104536190Y-85202380D02*
X104440952Y-85154761D01*
X104393333Y-85107142D01*
X104345714Y-85011904D01*
X104345714Y-84916666D01*
X105012380Y-84440476D02*
X104964761Y-84535714D01*
X104917142Y-84583333D01*
X104821904Y-84630952D01*
X104536190Y-84630952D01*
X104440952Y-84583333D01*
X104393333Y-84535714D01*
X104345714Y-84440476D01*
X104345714Y-84297619D01*
X104393333Y-84202380D01*
X104440952Y-84154761D01*
X104536190Y-84107142D01*
X104821904Y-84107142D01*
X104917142Y-84154761D01*
X104964761Y-84202380D01*
X105012380Y-84297619D01*
X105012380Y-84440476D01*
X105012380Y-83773809D02*
X104345714Y-83250000D01*
X104345714Y-83773809D02*
X105012380Y-83250000D01*
X104964761Y-82916666D02*
X105012380Y-82773809D01*
X105012380Y-82535714D01*
X104964761Y-82440476D01*
X104917142Y-82392857D01*
X104821904Y-82345238D01*
X104726666Y-82345238D01*
X104631428Y-82392857D01*
X104583809Y-82440476D01*
X104536190Y-82535714D01*
X104488571Y-82726190D01*
X104440952Y-82821428D01*
X104393333Y-82869047D01*
X104298095Y-82916666D01*
X104202857Y-82916666D01*
X104107619Y-82869047D01*
X104060000Y-82821428D01*
X104012380Y-82726190D01*
X104012380Y-82488095D01*
X104060000Y-82345238D01*
X104964761Y-81535714D02*
X105012380Y-81630952D01*
X105012380Y-81821428D01*
X104964761Y-81916666D01*
X104869523Y-81964285D01*
X104488571Y-81964285D01*
X104393333Y-81916666D01*
X104345714Y-81821428D01*
X104345714Y-81630952D01*
X104393333Y-81535714D01*
X104488571Y-81488095D01*
X104583809Y-81488095D01*
X104679047Y-81964285D01*
X104345714Y-81059523D02*
X105012380Y-81059523D01*
X104440952Y-81059523D02*
X104393333Y-81011904D01*
X104345714Y-80916666D01*
X104345714Y-80773809D01*
X104393333Y-80678571D01*
X104488571Y-80630952D01*
X105012380Y-80630952D01*
X104964761Y-80202380D02*
X105012380Y-80107142D01*
X105012380Y-79916666D01*
X104964761Y-79821428D01*
X104869523Y-79773809D01*
X104821904Y-79773809D01*
X104726666Y-79821428D01*
X104679047Y-79916666D01*
X104679047Y-80059523D01*
X104631428Y-80154761D01*
X104536190Y-80202380D01*
X104488571Y-80202380D01*
X104393333Y-80154761D01*
X104345714Y-80059523D01*
X104345714Y-79916666D01*
X104393333Y-79821428D01*
X105012380Y-79202380D02*
X104964761Y-79297619D01*
X104917142Y-79345238D01*
X104821904Y-79392857D01*
X104536190Y-79392857D01*
X104440952Y-79345238D01*
X104393333Y-79297619D01*
X104345714Y-79202380D01*
X104345714Y-79059523D01*
X104393333Y-78964285D01*
X104440952Y-78916666D01*
X104536190Y-78869047D01*
X104821904Y-78869047D01*
X104917142Y-78916666D01*
X104964761Y-78964285D01*
X105012380Y-79059523D01*
X105012380Y-79202380D01*
X105012380Y-78440476D02*
X104345714Y-78440476D01*
X104536190Y-78440476D02*
X104440952Y-78392857D01*
X104393333Y-78345238D01*
X104345714Y-78250000D01*
X104345714Y-78154761D01*
X140061904Y-102352380D02*
X139728571Y-101876190D01*
X139490476Y-102352380D02*
X139490476Y-101352380D01*
X139871428Y-101352380D01*
X139966666Y-101400000D01*
X140014285Y-101447619D01*
X140061904Y-101542857D01*
X140061904Y-101685714D01*
X140014285Y-101780952D01*
X139966666Y-101828571D01*
X139871428Y-101876190D01*
X139490476Y-101876190D01*
X140490476Y-102352380D02*
X140490476Y-101352380D01*
X140823809Y-102066666D01*
X141157142Y-101352380D01*
X141157142Y-102352380D01*
X142157142Y-102352380D02*
X141585714Y-102352380D01*
X141871428Y-102352380D02*
X141871428Y-101352380D01*
X141776190Y-101495238D01*
X141680952Y-101590476D01*
X141585714Y-101638095D01*
X173809523Y-102052380D02*
X174142857Y-103052380D01*
X174476190Y-102052380D01*
X175238095Y-103004761D02*
X175142857Y-103052380D01*
X174952380Y-103052380D01*
X174857142Y-103004761D01*
X174809523Y-102957142D01*
X174761904Y-102861904D01*
X174761904Y-102576190D01*
X174809523Y-102480952D01*
X174857142Y-102433333D01*
X174952380Y-102385714D01*
X175142857Y-102385714D01*
X175238095Y-102433333D01*
X176095238Y-103004761D02*
X176000000Y-103052380D01*
X175809523Y-103052380D01*
X175714285Y-103004761D01*
X175666666Y-102957142D01*
X175619047Y-102861904D01*
X175619047Y-102576190D01*
X175666666Y-102480952D01*
X175714285Y-102433333D01*
X175809523Y-102385714D01*
X176000000Y-102385714D01*
X176095238Y-102433333D01*
X173690476Y-105652380D02*
X173690476Y-104652380D01*
X174166666Y-104985714D02*
X174166666Y-105652380D01*
X174166666Y-105080952D02*
X174214285Y-105033333D01*
X174309523Y-104985714D01*
X174452380Y-104985714D01*
X174547619Y-105033333D01*
X174595238Y-105128571D01*
X174595238Y-105652380D01*
X174833333Y-105747619D02*
X175595238Y-105747619D01*
X175785714Y-104747619D02*
X175833333Y-104700000D01*
X175928571Y-104652380D01*
X176166666Y-104652380D01*
X176261904Y-104700000D01*
X176309523Y-104747619D01*
X176357142Y-104842857D01*
X176357142Y-104938095D01*
X176309523Y-105080952D01*
X175738095Y-105652380D01*
X176357142Y-105652380D01*
X173690476Y-108252380D02*
X173690476Y-107252380D01*
X174166666Y-107585714D02*
X174166666Y-108252380D01*
X174166666Y-107680952D02*
X174214285Y-107633333D01*
X174309523Y-107585714D01*
X174452380Y-107585714D01*
X174547619Y-107633333D01*
X174595238Y-107728571D01*
X174595238Y-108252380D01*
X174833333Y-108347619D02*
X175595238Y-108347619D01*
X176357142Y-108252380D02*
X175785714Y-108252380D01*
X176071428Y-108252380D02*
X176071428Y-107252380D01*
X175976190Y-107395238D01*
X175880952Y-107490476D01*
X175785714Y-107538095D01*
X174357142Y-109900000D02*
X174261904Y-109852380D01*
X174119047Y-109852380D01*
X173976190Y-109900000D01*
X173880952Y-109995238D01*
X173833333Y-110090476D01*
X173785714Y-110280952D01*
X173785714Y-110423809D01*
X173833333Y-110614285D01*
X173880952Y-110709523D01*
X173976190Y-110804761D01*
X174119047Y-110852380D01*
X174214285Y-110852380D01*
X174357142Y-110804761D01*
X174404761Y-110757142D01*
X174404761Y-110423809D01*
X174214285Y-110423809D01*
X174833333Y-110185714D02*
X174833333Y-110852380D01*
X174833333Y-110280952D02*
X174880952Y-110233333D01*
X174976190Y-110185714D01*
X175119047Y-110185714D01*
X175214285Y-110233333D01*
X175261904Y-110328571D01*
X175261904Y-110852380D01*
X176166666Y-110852380D02*
X176166666Y-109852380D01*
X176166666Y-110804761D02*
X176071428Y-110852380D01*
X175880952Y-110852380D01*
X175785714Y-110804761D01*
X175738095Y-110757142D01*
X175690476Y-110661904D01*
X175690476Y-110376190D01*
X175738095Y-110280952D01*
X175785714Y-110233333D01*
X175880952Y-110185714D01*
X176071428Y-110185714D01*
X176166666Y-110233333D01*
X129838095Y-112385714D02*
X130076190Y-113052380D01*
X130314285Y-112385714D02*
X130076190Y-113052380D01*
X129980952Y-113290476D01*
X129933333Y-113338095D01*
X129838095Y-113385714D01*
X131314285Y-112385714D02*
X131695238Y-112385714D01*
X131457142Y-112052380D02*
X131457142Y-112909523D01*
X131504761Y-113004761D01*
X131600000Y-113052380D01*
X131695238Y-113052380D01*
X132028571Y-113052380D02*
X132028571Y-112052380D01*
X132457142Y-113052380D02*
X132457142Y-112528571D01*
X132409523Y-112433333D01*
X132314285Y-112385714D01*
X132171428Y-112385714D01*
X132076190Y-112433333D01*
X132028571Y-112480952D01*
X133314285Y-113004761D02*
X133219047Y-113052380D01*
X133028571Y-113052380D01*
X132933333Y-113004761D01*
X132885714Y-112909523D01*
X132885714Y-112528571D01*
X132933333Y-112433333D01*
X133028571Y-112385714D01*
X133219047Y-112385714D01*
X133314285Y-112433333D01*
X133361904Y-112528571D01*
X133361904Y-112623809D01*
X132885714Y-112719047D01*
X133695238Y-112385714D02*
X133933333Y-113052380D01*
X134171428Y-112385714D02*
X133933333Y-113052380D01*
X133838095Y-113290476D01*
X133790476Y-113338095D01*
X133695238Y-113385714D01*
X135314285Y-112385714D02*
X135314285Y-113052380D01*
X135314285Y-112480952D02*
X135361904Y-112433333D01*
X135457142Y-112385714D01*
X135600000Y-112385714D01*
X135695238Y-112433333D01*
X135742857Y-112528571D01*
X135742857Y-113052380D01*
X136361904Y-113052380D02*
X136266666Y-113004761D01*
X136219047Y-112957142D01*
X136171428Y-112861904D01*
X136171428Y-112576190D01*
X136219047Y-112480952D01*
X136266666Y-112433333D01*
X136361904Y-112385714D01*
X136504761Y-112385714D01*
X136600000Y-112433333D01*
X136647619Y-112480952D01*
X136695238Y-112576190D01*
X136695238Y-112861904D01*
X136647619Y-112957142D01*
X136600000Y-113004761D01*
X136504761Y-113052380D01*
X136361904Y-113052380D01*
X137885714Y-113052380D02*
X137885714Y-112385714D01*
X137885714Y-112480952D02*
X137933333Y-112433333D01*
X138028571Y-112385714D01*
X138171428Y-112385714D01*
X138266666Y-112433333D01*
X138314285Y-112528571D01*
X138314285Y-113052380D01*
X138314285Y-112528571D02*
X138361904Y-112433333D01*
X138457142Y-112385714D01*
X138600000Y-112385714D01*
X138695238Y-112433333D01*
X138742857Y-112528571D01*
X138742857Y-113052380D01*
X139647619Y-113052380D02*
X139647619Y-112528571D01*
X139600000Y-112433333D01*
X139504761Y-112385714D01*
X139314285Y-112385714D01*
X139219047Y-112433333D01*
X139647619Y-113004761D02*
X139552380Y-113052380D01*
X139314285Y-113052380D01*
X139219047Y-113004761D01*
X139171428Y-112909523D01*
X139171428Y-112814285D01*
X139219047Y-112719047D01*
X139314285Y-112671428D01*
X139552380Y-112671428D01*
X139647619Y-112623809D01*
X140123809Y-113052380D02*
X140123809Y-112052380D01*
X140219047Y-112671428D02*
X140504761Y-113052380D01*
X140504761Y-112385714D02*
X140123809Y-112766666D01*
X141314285Y-113004761D02*
X141219047Y-113052380D01*
X141028571Y-113052380D01*
X140933333Y-113004761D01*
X140885714Y-112909523D01*
X140885714Y-112528571D01*
X140933333Y-112433333D01*
X141028571Y-112385714D01*
X141219047Y-112385714D01*
X141314285Y-112433333D01*
X141361904Y-112528571D01*
X141361904Y-112623809D01*
X140885714Y-112719047D01*
X142980952Y-113052380D02*
X142980952Y-112052380D01*
X142980952Y-113004761D02*
X142885714Y-113052380D01*
X142695238Y-113052380D01*
X142600000Y-113004761D01*
X142552380Y-112957142D01*
X142504761Y-112861904D01*
X142504761Y-112576190D01*
X142552380Y-112480952D01*
X142600000Y-112433333D01*
X142695238Y-112385714D01*
X142885714Y-112385714D01*
X142980952Y-112433333D01*
X143885714Y-113052380D02*
X143885714Y-112528571D01*
X143838095Y-112433333D01*
X143742857Y-112385714D01*
X143552380Y-112385714D01*
X143457142Y-112433333D01*
X143885714Y-113004761D02*
X143790476Y-113052380D01*
X143552380Y-113052380D01*
X143457142Y-113004761D01*
X143409523Y-112909523D01*
X143409523Y-112814285D01*
X143457142Y-112719047D01*
X143552380Y-112671428D01*
X143790476Y-112671428D01*
X143885714Y-112623809D01*
X144219047Y-112385714D02*
X144600000Y-112385714D01*
X144361904Y-112052380D02*
X144361904Y-112909523D01*
X144409523Y-113004761D01*
X144504761Y-113052380D01*
X144600000Y-113052380D01*
X145361904Y-113052380D02*
X145361904Y-112528571D01*
X145314285Y-112433333D01*
X145219047Y-112385714D01*
X145028571Y-112385714D01*
X144933333Y-112433333D01*
X145361904Y-113004761D02*
X145266666Y-113052380D01*
X145028571Y-113052380D01*
X144933333Y-113004761D01*
X144885714Y-112909523D01*
X144885714Y-112814285D01*
X144933333Y-112719047D01*
X145028571Y-112671428D01*
X145266666Y-112671428D01*
X145361904Y-112623809D01*
X145790476Y-113004761D02*
X145885714Y-113052380D01*
X146076190Y-113052380D01*
X146171428Y-113004761D01*
X146219047Y-112909523D01*
X146219047Y-112861904D01*
X146171428Y-112766666D01*
X146076190Y-112719047D01*
X145933333Y-112719047D01*
X145838095Y-112671428D01*
X145790476Y-112576190D01*
X145790476Y-112528571D01*
X145838095Y-112433333D01*
X145933333Y-112385714D01*
X146076190Y-112385714D01*
X146171428Y-112433333D01*
X146647619Y-113052380D02*
X146647619Y-112052380D01*
X147076190Y-113052380D02*
X147076190Y-112528571D01*
X147028571Y-112433333D01*
X146933333Y-112385714D01*
X146790476Y-112385714D01*
X146695238Y-112433333D01*
X146647619Y-112480952D01*
X147933333Y-113004761D02*
X147838095Y-113052380D01*
X147647619Y-113052380D01*
X147552380Y-113004761D01*
X147504761Y-112909523D01*
X147504761Y-112528571D01*
X147552380Y-112433333D01*
X147647619Y-112385714D01*
X147838095Y-112385714D01*
X147933333Y-112433333D01*
X147980952Y-112528571D01*
X147980952Y-112623809D01*
X147504761Y-112719047D01*
X148790476Y-113004761D02*
X148695238Y-113052380D01*
X148504761Y-113052380D01*
X148409523Y-113004761D01*
X148361904Y-112909523D01*
X148361904Y-112528571D01*
X148409523Y-112433333D01*
X148504761Y-112385714D01*
X148695238Y-112385714D01*
X148790476Y-112433333D01*
X148838095Y-112528571D01*
X148838095Y-112623809D01*
X148361904Y-112719047D01*
X149123809Y-112385714D02*
X149504761Y-112385714D01*
X149266666Y-112052380D02*
X149266666Y-112909523D01*
X149314285Y-113004761D01*
X149409523Y-113052380D01*
X149504761Y-113052380D01*
X150600000Y-112957142D02*
X150647619Y-113004761D01*
X150600000Y-113052380D01*
X150552380Y-113004761D01*
X150600000Y-112957142D01*
X150600000Y-113052380D01*
X150600000Y-112433333D02*
X150647619Y-112480952D01*
X150600000Y-112528571D01*
X150552380Y-112480952D01*
X150600000Y-112433333D01*
X150600000Y-112528571D01*
X151361904Y-113433333D02*
X151314285Y-113385714D01*
X151219047Y-113242857D01*
X151171428Y-113147619D01*
X151123809Y-113004761D01*
X151076190Y-112766666D01*
X151076190Y-112576190D01*
X151123809Y-112338095D01*
X151171428Y-112195238D01*
X151219047Y-112100000D01*
X151314285Y-111957142D01*
X151361904Y-111909523D01*
X122033333Y-128914761D02*
X122176190Y-128962380D01*
X122414285Y-128962380D01*
X122509523Y-128914761D01*
X122557142Y-128867142D01*
X122604761Y-128771904D01*
X122604761Y-128676666D01*
X122557142Y-128581428D01*
X122509523Y-128533809D01*
X122414285Y-128486190D01*
X122223809Y-128438571D01*
X122128571Y-128390952D01*
X122080952Y-128343333D01*
X122033333Y-128248095D01*
X122033333Y-128152857D01*
X122080952Y-128057619D01*
X122128571Y-128010000D01*
X122223809Y-127962380D01*
X122461904Y-127962380D01*
X122604761Y-128010000D01*
X122985714Y-128676666D02*
X123461904Y-128676666D01*
X122890476Y-128962380D02*
X123223809Y-127962380D01*
X123557142Y-128962380D01*
X123842857Y-128914761D02*
X123985714Y-128962380D01*
X124223809Y-128962380D01*
X124319047Y-128914761D01*
X124366666Y-128867142D01*
X124414285Y-128771904D01*
X124414285Y-128676666D01*
X124366666Y-128581428D01*
X124319047Y-128533809D01*
X124223809Y-128486190D01*
X124033333Y-128438571D01*
X123938095Y-128390952D01*
X123890476Y-128343333D01*
X123842857Y-128248095D01*
X123842857Y-128152857D01*
X123890476Y-128057619D01*
X123938095Y-128010000D01*
X124033333Y-127962380D01*
X124271428Y-127962380D01*
X124414285Y-128010000D01*
X124795238Y-128057619D02*
X124842857Y-128010000D01*
X124938095Y-127962380D01*
X125176190Y-127962380D01*
X125271428Y-128010000D01*
X125319047Y-128057619D01*
X125366666Y-128152857D01*
X125366666Y-128248095D01*
X125319047Y-128390952D01*
X124747619Y-128962380D01*
X125366666Y-128962380D01*
X136233333Y-128919761D02*
X136376190Y-128967380D01*
X136614285Y-128967380D01*
X136709523Y-128919761D01*
X136757142Y-128872142D01*
X136804761Y-128776904D01*
X136804761Y-128681666D01*
X136757142Y-128586428D01*
X136709523Y-128538809D01*
X136614285Y-128491190D01*
X136423809Y-128443571D01*
X136328571Y-128395952D01*
X136280952Y-128348333D01*
X136233333Y-128253095D01*
X136233333Y-128157857D01*
X136280952Y-128062619D01*
X136328571Y-128015000D01*
X136423809Y-127967380D01*
X136661904Y-127967380D01*
X136804761Y-128015000D01*
X137185714Y-128681666D02*
X137661904Y-128681666D01*
X137090476Y-128967380D02*
X137423809Y-127967380D01*
X137757142Y-128967380D01*
X138042857Y-128919761D02*
X138185714Y-128967380D01*
X138423809Y-128967380D01*
X138519047Y-128919761D01*
X138566666Y-128872142D01*
X138614285Y-128776904D01*
X138614285Y-128681666D01*
X138566666Y-128586428D01*
X138519047Y-128538809D01*
X138423809Y-128491190D01*
X138233333Y-128443571D01*
X138138095Y-128395952D01*
X138090476Y-128348333D01*
X138042857Y-128253095D01*
X138042857Y-128157857D01*
X138090476Y-128062619D01*
X138138095Y-128015000D01*
X138233333Y-127967380D01*
X138471428Y-127967380D01*
X138614285Y-128015000D01*
X139566666Y-128967380D02*
X138995238Y-128967380D01*
X139280952Y-128967380D02*
X139280952Y-127967380D01*
X139185714Y-128110238D01*
X139090476Y-128205476D01*
X138995238Y-128253095D01*
X149914285Y-129012380D02*
X149914285Y-128012380D01*
X150247619Y-128726666D01*
X150580952Y-128012380D01*
X150580952Y-129012380D01*
X151057142Y-129012380D02*
X151057142Y-128012380D01*
X151438095Y-128012380D01*
X151533333Y-128060000D01*
X151580952Y-128107619D01*
X151628571Y-128202857D01*
X151628571Y-128345714D01*
X151580952Y-128440952D01*
X151533333Y-128488571D01*
X151438095Y-128536190D01*
X151057142Y-128536190D01*
X152009523Y-128964761D02*
X152152380Y-129012380D01*
X152390476Y-129012380D01*
X152485714Y-128964761D01*
X152533333Y-128917142D01*
X152580952Y-128821904D01*
X152580952Y-128726666D01*
X152533333Y-128631428D01*
X152485714Y-128583809D01*
X152390476Y-128536190D01*
X152200000Y-128488571D01*
X152104761Y-128440952D01*
X152057142Y-128393333D01*
X152009523Y-128298095D01*
X152009523Y-128202857D01*
X152057142Y-128107619D01*
X152104761Y-128060000D01*
X152200000Y-128012380D01*
X152438095Y-128012380D01*
X152580952Y-128060000D01*
X152961904Y-128107619D02*
X153009523Y-128060000D01*
X153104761Y-128012380D01*
X153342857Y-128012380D01*
X153438095Y-128060000D01*
X153485714Y-128107619D01*
X153533333Y-128202857D01*
X153533333Y-128298095D01*
X153485714Y-128440952D01*
X152914285Y-129012380D01*
X153533333Y-129012380D01*
X106566666Y-126752380D02*
X106566666Y-127466666D01*
X106519047Y-127609523D01*
X106423809Y-127704761D01*
X106280952Y-127752380D01*
X106185714Y-127752380D01*
X106995238Y-126847619D02*
X107042857Y-126800000D01*
X107138095Y-126752380D01*
X107376190Y-126752380D01*
X107471428Y-126800000D01*
X107519047Y-126847619D01*
X107566666Y-126942857D01*
X107566666Y-127038095D01*
X107519047Y-127180952D01*
X106947619Y-127752380D01*
X107566666Y-127752380D01*
X97117857Y-117792380D02*
X97451190Y-118792380D01*
X97784523Y-117792380D01*
X98260714Y-118792380D02*
X98165476Y-118744761D01*
X98117857Y-118697142D01*
X98070238Y-118601904D01*
X98070238Y-118316190D01*
X98117857Y-118220952D01*
X98165476Y-118173333D01*
X98260714Y-118125714D01*
X98403571Y-118125714D01*
X98498809Y-118173333D01*
X98546428Y-118220952D01*
X98594047Y-118316190D01*
X98594047Y-118601904D01*
X98546428Y-118697142D01*
X98498809Y-118744761D01*
X98403571Y-118792380D01*
X98260714Y-118792380D01*
X99165476Y-118792380D02*
X99070238Y-118744761D01*
X99022619Y-118649523D01*
X99022619Y-117792380D01*
X99403571Y-118125714D02*
X99784523Y-118125714D01*
X99546428Y-117792380D02*
X99546428Y-118649523D01*
X99594047Y-118744761D01*
X99689285Y-118792380D01*
X99784523Y-118792380D01*
X100546428Y-118792380D02*
X100546428Y-118268571D01*
X100498809Y-118173333D01*
X100403571Y-118125714D01*
X100213095Y-118125714D01*
X100117857Y-118173333D01*
X100546428Y-118744761D02*
X100451190Y-118792380D01*
X100213095Y-118792380D01*
X100117857Y-118744761D01*
X100070238Y-118649523D01*
X100070238Y-118554285D01*
X100117857Y-118459047D01*
X100213095Y-118411428D01*
X100451190Y-118411428D01*
X100546428Y-118363809D01*
X101451190Y-118125714D02*
X101451190Y-118935238D01*
X101403571Y-119030476D01*
X101355952Y-119078095D01*
X101260714Y-119125714D01*
X101117857Y-119125714D01*
X101022619Y-119078095D01*
X101451190Y-118744761D02*
X101355952Y-118792380D01*
X101165476Y-118792380D01*
X101070238Y-118744761D01*
X101022619Y-118697142D01*
X100975000Y-118601904D01*
X100975000Y-118316190D01*
X101022619Y-118220952D01*
X101070238Y-118173333D01*
X101165476Y-118125714D01*
X101355952Y-118125714D01*
X101451190Y-118173333D01*
X102308333Y-118744761D02*
X102213095Y-118792380D01*
X102022619Y-118792380D01*
X101927380Y-118744761D01*
X101879761Y-118649523D01*
X101879761Y-118268571D01*
X101927380Y-118173333D01*
X102022619Y-118125714D01*
X102213095Y-118125714D01*
X102308333Y-118173333D01*
X102355952Y-118268571D01*
X102355952Y-118363809D01*
X101879761Y-118459047D01*
X102784523Y-118792380D02*
X102784523Y-117792380D01*
X103260714Y-118125714D02*
X103260714Y-118792380D01*
X103260714Y-118220952D02*
X103308333Y-118173333D01*
X103403571Y-118125714D01*
X103546428Y-118125714D01*
X103641666Y-118173333D01*
X103689285Y-118268571D01*
X103689285Y-118792380D01*
X207061904Y-111452380D02*
X207061904Y-110452380D01*
X207442857Y-110452380D01*
X207538095Y-110500000D01*
X207585714Y-110547619D01*
X207633333Y-110642857D01*
X207633333Y-110785714D01*
X207585714Y-110880952D01*
X207538095Y-110928571D01*
X207442857Y-110976190D01*
X207061904Y-110976190D01*
X208633333Y-111452380D02*
X208300000Y-110976190D01*
X208061904Y-111452380D02*
X208061904Y-110452380D01*
X208442857Y-110452380D01*
X208538095Y-110500000D01*
X208585714Y-110547619D01*
X208633333Y-110642857D01*
X208633333Y-110785714D01*
X208585714Y-110880952D01*
X208538095Y-110928571D01*
X208442857Y-110976190D01*
X208061904Y-110976190D01*
X209585714Y-111452380D02*
X209014285Y-111452380D01*
X209300000Y-111452380D02*
X209300000Y-110452380D01*
X209204761Y-110595238D01*
X209109523Y-110690476D01*
X209014285Y-110738095D01*
X203121428Y-113067380D02*
X203121428Y-112067380D01*
X203502380Y-112067380D01*
X203597619Y-112115000D01*
X203645238Y-112162619D01*
X203692857Y-112257857D01*
X203692857Y-112400714D01*
X203645238Y-112495952D01*
X203597619Y-112543571D01*
X203502380Y-112591190D01*
X203121428Y-112591190D01*
X204121428Y-113067380D02*
X204121428Y-112067380D01*
X204550000Y-113067380D02*
X204550000Y-112543571D01*
X204502380Y-112448333D01*
X204407142Y-112400714D01*
X204264285Y-112400714D01*
X204169047Y-112448333D01*
X204121428Y-112495952D01*
X205169047Y-113067380D02*
X205073809Y-113019761D01*
X205026190Y-112972142D01*
X204978571Y-112876904D01*
X204978571Y-112591190D01*
X205026190Y-112495952D01*
X205073809Y-112448333D01*
X205169047Y-112400714D01*
X205311904Y-112400714D01*
X205407142Y-112448333D01*
X205454761Y-112495952D01*
X205502380Y-112591190D01*
X205502380Y-112876904D01*
X205454761Y-112972142D01*
X205407142Y-113019761D01*
X205311904Y-113067380D01*
X205169047Y-113067380D01*
X205788095Y-112400714D02*
X206169047Y-112400714D01*
X205930952Y-112067380D02*
X205930952Y-112924523D01*
X205978571Y-113019761D01*
X206073809Y-113067380D01*
X206169047Y-113067380D01*
X206645238Y-113067380D02*
X206550000Y-113019761D01*
X206502380Y-112972142D01*
X206454761Y-112876904D01*
X206454761Y-112591190D01*
X206502380Y-112495952D01*
X206550000Y-112448333D01*
X206645238Y-112400714D01*
X206788095Y-112400714D01*
X206883333Y-112448333D01*
X206930952Y-112495952D01*
X206978571Y-112591190D01*
X206978571Y-112876904D01*
X206930952Y-112972142D01*
X206883333Y-113019761D01*
X206788095Y-113067380D01*
X206645238Y-113067380D01*
X207978571Y-113067380D02*
X207645238Y-112591190D01*
X207407142Y-113067380D02*
X207407142Y-112067380D01*
X207788095Y-112067380D01*
X207883333Y-112115000D01*
X207930952Y-112162619D01*
X207978571Y-112257857D01*
X207978571Y-112400714D01*
X207930952Y-112495952D01*
X207883333Y-112543571D01*
X207788095Y-112591190D01*
X207407142Y-112591190D01*
X208788095Y-113019761D02*
X208692857Y-113067380D01*
X208502380Y-113067380D01*
X208407142Y-113019761D01*
X208359523Y-112924523D01*
X208359523Y-112543571D01*
X208407142Y-112448333D01*
X208502380Y-112400714D01*
X208692857Y-112400714D01*
X208788095Y-112448333D01*
X208835714Y-112543571D01*
X208835714Y-112638809D01*
X208359523Y-112734047D01*
X209216666Y-113019761D02*
X209311904Y-113067380D01*
X209502380Y-113067380D01*
X209597619Y-113019761D01*
X209645238Y-112924523D01*
X209645238Y-112876904D01*
X209597619Y-112781666D01*
X209502380Y-112734047D01*
X209359523Y-112734047D01*
X209264285Y-112686428D01*
X209216666Y-112591190D01*
X209216666Y-112543571D01*
X209264285Y-112448333D01*
X209359523Y-112400714D01*
X209502380Y-112400714D01*
X209597619Y-112448333D01*
X210073809Y-113067380D02*
X210073809Y-112400714D01*
X210073809Y-112067380D02*
X210026190Y-112115000D01*
X210073809Y-112162619D01*
X210121428Y-112115000D01*
X210073809Y-112067380D01*
X210073809Y-112162619D01*
X210502380Y-113019761D02*
X210597619Y-113067380D01*
X210788095Y-113067380D01*
X210883333Y-113019761D01*
X210930952Y-112924523D01*
X210930952Y-112876904D01*
X210883333Y-112781666D01*
X210788095Y-112734047D01*
X210645238Y-112734047D01*
X210550000Y-112686428D01*
X210502380Y-112591190D01*
X210502380Y-112543571D01*
X210550000Y-112448333D01*
X210645238Y-112400714D01*
X210788095Y-112400714D01*
X210883333Y-112448333D01*
X211216666Y-112400714D02*
X211597619Y-112400714D01*
X211359523Y-112067380D02*
X211359523Y-112924523D01*
X211407142Y-113019761D01*
X211502380Y-113067380D01*
X211597619Y-113067380D01*
X212073809Y-113067380D02*
X211978571Y-113019761D01*
X211930952Y-112972142D01*
X211883333Y-112876904D01*
X211883333Y-112591190D01*
X211930952Y-112495952D01*
X211978571Y-112448333D01*
X212073809Y-112400714D01*
X212216666Y-112400714D01*
X212311904Y-112448333D01*
X212359523Y-112495952D01*
X212407142Y-112591190D01*
X212407142Y-112876904D01*
X212359523Y-112972142D01*
X212311904Y-113019761D01*
X212216666Y-113067380D01*
X212073809Y-113067380D01*
X212835714Y-113067380D02*
X212835714Y-112400714D01*
X212835714Y-112591190D02*
X212883333Y-112495952D01*
X212930952Y-112448333D01*
X213026190Y-112400714D01*
X213121428Y-112400714D01*
X224338095Y-110652380D02*
X224909523Y-110652380D01*
X224623809Y-111652380D02*
X224623809Y-110652380D01*
X225766666Y-111652380D02*
X225195238Y-111652380D01*
X225480952Y-111652380D02*
X225480952Y-110652380D01*
X225385714Y-110795238D01*
X225290476Y-110890476D01*
X225195238Y-110938095D01*
X220161904Y-112067380D02*
X220733333Y-112067380D01*
X220447619Y-113067380D02*
X220447619Y-112067380D01*
X221447619Y-113019761D02*
X221352380Y-113067380D01*
X221161904Y-113067380D01*
X221066666Y-113019761D01*
X221019047Y-112924523D01*
X221019047Y-112543571D01*
X221066666Y-112448333D01*
X221161904Y-112400714D01*
X221352380Y-112400714D01*
X221447619Y-112448333D01*
X221495238Y-112543571D01*
X221495238Y-112638809D01*
X221019047Y-112734047D01*
X221923809Y-113067380D02*
X221923809Y-112400714D01*
X221923809Y-112495952D02*
X221971428Y-112448333D01*
X222066666Y-112400714D01*
X222209523Y-112400714D01*
X222304761Y-112448333D01*
X222352380Y-112543571D01*
X222352380Y-113067380D01*
X222352380Y-112543571D02*
X222400000Y-112448333D01*
X222495238Y-112400714D01*
X222638095Y-112400714D01*
X222733333Y-112448333D01*
X222780952Y-112543571D01*
X222780952Y-113067380D01*
X223257142Y-112400714D02*
X223257142Y-113400714D01*
X223257142Y-112448333D02*
X223352380Y-112400714D01*
X223542857Y-112400714D01*
X223638095Y-112448333D01*
X223685714Y-112495952D01*
X223733333Y-112591190D01*
X223733333Y-112876904D01*
X223685714Y-112972142D01*
X223638095Y-113019761D01*
X223542857Y-113067380D01*
X223352380Y-113067380D01*
X223257142Y-113019761D01*
X224876190Y-113019761D02*
X225019047Y-113067380D01*
X225257142Y-113067380D01*
X225352380Y-113019761D01*
X225400000Y-112972142D01*
X225447619Y-112876904D01*
X225447619Y-112781666D01*
X225400000Y-112686428D01*
X225352380Y-112638809D01*
X225257142Y-112591190D01*
X225066666Y-112543571D01*
X224971428Y-112495952D01*
X224923809Y-112448333D01*
X224876190Y-112353095D01*
X224876190Y-112257857D01*
X224923809Y-112162619D01*
X224971428Y-112115000D01*
X225066666Y-112067380D01*
X225304761Y-112067380D01*
X225447619Y-112115000D01*
X226257142Y-113019761D02*
X226161904Y-113067380D01*
X225971428Y-113067380D01*
X225876190Y-113019761D01*
X225828571Y-112924523D01*
X225828571Y-112543571D01*
X225876190Y-112448333D01*
X225971428Y-112400714D01*
X226161904Y-112400714D01*
X226257142Y-112448333D01*
X226304761Y-112543571D01*
X226304761Y-112638809D01*
X225828571Y-112734047D01*
X226733333Y-112400714D02*
X226733333Y-113067380D01*
X226733333Y-112495952D02*
X226780952Y-112448333D01*
X226876190Y-112400714D01*
X227019047Y-112400714D01*
X227114285Y-112448333D01*
X227161904Y-112543571D01*
X227161904Y-113067380D01*
X227590476Y-113019761D02*
X227685714Y-113067380D01*
X227876190Y-113067380D01*
X227971428Y-113019761D01*
X228019047Y-112924523D01*
X228019047Y-112876904D01*
X227971428Y-112781666D01*
X227876190Y-112734047D01*
X227733333Y-112734047D01*
X227638095Y-112686428D01*
X227590476Y-112591190D01*
X227590476Y-112543571D01*
X227638095Y-112448333D01*
X227733333Y-112400714D01*
X227876190Y-112400714D01*
X227971428Y-112448333D01*
X228590476Y-113067380D02*
X228495238Y-113019761D01*
X228447619Y-112972142D01*
X228400000Y-112876904D01*
X228400000Y-112591190D01*
X228447619Y-112495952D01*
X228495238Y-112448333D01*
X228590476Y-112400714D01*
X228733333Y-112400714D01*
X228828571Y-112448333D01*
X228876190Y-112495952D01*
X228923809Y-112591190D01*
X228923809Y-112876904D01*
X228876190Y-112972142D01*
X228828571Y-113019761D01*
X228733333Y-113067380D01*
X228590476Y-113067380D01*
X229352380Y-113067380D02*
X229352380Y-112400714D01*
X229352380Y-112591190D02*
X229400000Y-112495952D01*
X229447619Y-112448333D01*
X229542857Y-112400714D01*
X229638095Y-112400714D01*
X198747619Y-91452380D02*
X198271428Y-91452380D01*
X198271428Y-90452380D01*
X199080952Y-90928571D02*
X199414285Y-90928571D01*
X199557142Y-91452380D02*
X199080952Y-91452380D01*
X199080952Y-90452380D01*
X199557142Y-90452380D01*
X199985714Y-91452380D02*
X199985714Y-90452380D01*
X200223809Y-90452380D01*
X200366666Y-90500000D01*
X200461904Y-90595238D01*
X200509523Y-90690476D01*
X200557142Y-90880952D01*
X200557142Y-91023809D01*
X200509523Y-91214285D01*
X200461904Y-91309523D01*
X200366666Y-91404761D01*
X200223809Y-91452380D01*
X199985714Y-91452380D01*
X200747619Y-91547619D02*
X201509523Y-91547619D01*
X202319047Y-91452380D02*
X201985714Y-90976190D01*
X201747619Y-91452380D02*
X201747619Y-90452380D01*
X202128571Y-90452380D01*
X202223809Y-90500000D01*
X202271428Y-90547619D01*
X202319047Y-90642857D01*
X202319047Y-90785714D01*
X202271428Y-90880952D01*
X202223809Y-90928571D01*
X202128571Y-90976190D01*
X201747619Y-90976190D01*
X202747619Y-90928571D02*
X203080952Y-90928571D01*
X203223809Y-91452380D02*
X202747619Y-91452380D01*
X202747619Y-90452380D01*
X203223809Y-90452380D01*
X203652380Y-91452380D02*
X203652380Y-90452380D01*
X203890476Y-90452380D01*
X204033333Y-90500000D01*
X204128571Y-90595238D01*
X204176190Y-90690476D01*
X204223809Y-90880952D01*
X204223809Y-91023809D01*
X204176190Y-91214285D01*
X204128571Y-91309523D01*
X204033333Y-91404761D01*
X203890476Y-91452380D01*
X203652380Y-91452380D01*
X205176190Y-91452380D02*
X204604761Y-91452380D01*
X204890476Y-91452380D02*
X204890476Y-90452380D01*
X204795238Y-90595238D01*
X204700000Y-90690476D01*
X204604761Y-90738095D01*
X185771428Y-91452380D02*
X185295238Y-91452380D01*
X185295238Y-90452380D01*
X186104761Y-90928571D02*
X186438095Y-90928571D01*
X186580952Y-91452380D02*
X186104761Y-91452380D01*
X186104761Y-90452380D01*
X186580952Y-90452380D01*
X187009523Y-91452380D02*
X187009523Y-90452380D01*
X187247619Y-90452380D01*
X187390476Y-90500000D01*
X187485714Y-90595238D01*
X187533333Y-90690476D01*
X187580952Y-90880952D01*
X187580952Y-91023809D01*
X187533333Y-91214285D01*
X187485714Y-91309523D01*
X187390476Y-91404761D01*
X187247619Y-91452380D01*
X187009523Y-91452380D01*
X187771428Y-91547619D02*
X188533333Y-91547619D01*
X189295238Y-90500000D02*
X189200000Y-90452380D01*
X189057142Y-90452380D01*
X188914285Y-90500000D01*
X188819047Y-90595238D01*
X188771428Y-90690476D01*
X188723809Y-90880952D01*
X188723809Y-91023809D01*
X188771428Y-91214285D01*
X188819047Y-91309523D01*
X188914285Y-91404761D01*
X189057142Y-91452380D01*
X189152380Y-91452380D01*
X189295238Y-91404761D01*
X189342857Y-91357142D01*
X189342857Y-91023809D01*
X189152380Y-91023809D01*
X190342857Y-91452380D02*
X190009523Y-90976190D01*
X189771428Y-91452380D02*
X189771428Y-90452380D01*
X190152380Y-90452380D01*
X190247619Y-90500000D01*
X190295238Y-90547619D01*
X190342857Y-90642857D01*
X190342857Y-90785714D01*
X190295238Y-90880952D01*
X190247619Y-90928571D01*
X190152380Y-90976190D01*
X189771428Y-90976190D01*
X190771428Y-90928571D02*
X191104761Y-90928571D01*
X191247619Y-91452380D02*
X190771428Y-91452380D01*
X190771428Y-90452380D01*
X191247619Y-90452380D01*
X191676190Y-90928571D02*
X192009523Y-90928571D01*
X192152380Y-91452380D02*
X191676190Y-91452380D01*
X191676190Y-90452380D01*
X192152380Y-90452380D01*
X192580952Y-91452380D02*
X192580952Y-90452380D01*
X193152380Y-91452380D01*
X193152380Y-90452380D01*
X194152380Y-91452380D02*
X193580952Y-91452380D01*
X193866666Y-91452380D02*
X193866666Y-90452380D01*
X193771428Y-90595238D01*
X193676190Y-90690476D01*
X193580952Y-90738095D01*
X225048571Y-90682380D02*
X225048571Y-91491904D01*
X225096190Y-91587142D01*
X225143809Y-91634761D01*
X225239047Y-91682380D01*
X225429523Y-91682380D01*
X225524761Y-91634761D01*
X225572380Y-91587142D01*
X225620000Y-91491904D01*
X225620000Y-90682380D01*
X226572380Y-91682380D02*
X226096190Y-91682380D01*
X226096190Y-90682380D01*
X227048571Y-91682380D02*
X226953333Y-91634761D01*
X226905714Y-91587142D01*
X226858095Y-91491904D01*
X226858095Y-91206190D01*
X226905714Y-91110952D01*
X226953333Y-91063333D01*
X227048571Y-91015714D01*
X227191428Y-91015714D01*
X227286666Y-91063333D01*
X227334285Y-91110952D01*
X227381904Y-91206190D01*
X227381904Y-91491904D01*
X227334285Y-91587142D01*
X227286666Y-91634761D01*
X227191428Y-91682380D01*
X227048571Y-91682380D01*
X228381904Y-91682380D02*
X228048571Y-91206190D01*
X227810476Y-91682380D02*
X227810476Y-90682380D01*
X228191428Y-90682380D01*
X228286666Y-90730000D01*
X228334285Y-90777619D01*
X228381904Y-90872857D01*
X228381904Y-91015714D01*
X228334285Y-91110952D01*
X228286666Y-91158571D01*
X228191428Y-91206190D01*
X227810476Y-91206190D01*
X229239047Y-91682380D02*
X229239047Y-91158571D01*
X229191428Y-91063333D01*
X229096190Y-91015714D01*
X228905714Y-91015714D01*
X228810476Y-91063333D01*
X229239047Y-91634761D02*
X229143809Y-91682380D01*
X228905714Y-91682380D01*
X228810476Y-91634761D01*
X228762857Y-91539523D01*
X228762857Y-91444285D01*
X228810476Y-91349047D01*
X228905714Y-91301428D01*
X229143809Y-91301428D01*
X229239047Y-91253809D01*
X230239047Y-91682380D02*
X229667619Y-91682380D01*
X229953333Y-91682380D02*
X229953333Y-90682380D01*
X229858095Y-90825238D01*
X229762857Y-90920476D01*
X229667619Y-90968095D01*
X211138095Y-88552380D02*
X211138095Y-89361904D01*
X211185714Y-89457142D01*
X211233333Y-89504761D01*
X211328571Y-89552380D01*
X211519047Y-89552380D01*
X211614285Y-89504761D01*
X211661904Y-89457142D01*
X211709523Y-89361904D01*
X211709523Y-88552380D01*
X212614285Y-88552380D02*
X212423809Y-88552380D01*
X212328571Y-88600000D01*
X212280952Y-88647619D01*
X212185714Y-88790476D01*
X212138095Y-88980952D01*
X212138095Y-89361904D01*
X212185714Y-89457142D01*
X212233333Y-89504761D01*
X212328571Y-89552380D01*
X212519047Y-89552380D01*
X212614285Y-89504761D01*
X212661904Y-89457142D01*
X212709523Y-89361904D01*
X212709523Y-89123809D01*
X212661904Y-89028571D01*
X212614285Y-88980952D01*
X212519047Y-88933333D01*
X212328571Y-88933333D01*
X212233333Y-88980952D01*
X212185714Y-89028571D01*
X212138095Y-89123809D01*
X217490476Y-90987380D02*
X217014285Y-90987380D01*
X217014285Y-89987380D01*
X218252380Y-90987380D02*
X218252380Y-90463571D01*
X218204761Y-90368333D01*
X218109523Y-90320714D01*
X217919047Y-90320714D01*
X217823809Y-90368333D01*
X218252380Y-90939761D02*
X218157142Y-90987380D01*
X217919047Y-90987380D01*
X217823809Y-90939761D01*
X217776190Y-90844523D01*
X217776190Y-90749285D01*
X217823809Y-90654047D01*
X217919047Y-90606428D01*
X218157142Y-90606428D01*
X218252380Y-90558809D01*
X218680952Y-90939761D02*
X218776190Y-90987380D01*
X218966666Y-90987380D01*
X219061904Y-90939761D01*
X219109523Y-90844523D01*
X219109523Y-90796904D01*
X219061904Y-90701666D01*
X218966666Y-90654047D01*
X218823809Y-90654047D01*
X218728571Y-90606428D01*
X218680952Y-90511190D01*
X218680952Y-90463571D01*
X218728571Y-90368333D01*
X218823809Y-90320714D01*
X218966666Y-90320714D01*
X219061904Y-90368333D01*
X219919047Y-90939761D02*
X219823809Y-90987380D01*
X219633333Y-90987380D01*
X219538095Y-90939761D01*
X219490476Y-90844523D01*
X219490476Y-90463571D01*
X219538095Y-90368333D01*
X219633333Y-90320714D01*
X219823809Y-90320714D01*
X219919047Y-90368333D01*
X219966666Y-90463571D01*
X219966666Y-90558809D01*
X219490476Y-90654047D01*
X220395238Y-90987380D02*
X220395238Y-90320714D01*
X220395238Y-90511190D02*
X220442857Y-90415952D01*
X220490476Y-90368333D01*
X220585714Y-90320714D01*
X220680952Y-90320714D01*
X220966666Y-90939761D02*
X221109523Y-90987380D01*
X221347619Y-90987380D01*
X221442857Y-90939761D01*
X221490476Y-90892142D01*
X221538095Y-90796904D01*
X221538095Y-90701666D01*
X221490476Y-90606428D01*
X221442857Y-90558809D01*
X221347619Y-90511190D01*
X221157142Y-90463571D01*
X221061904Y-90415952D01*
X221014285Y-90368333D01*
X220966666Y-90273095D01*
X220966666Y-90177857D01*
X221014285Y-90082619D01*
X221061904Y-90035000D01*
X221157142Y-89987380D01*
X221395238Y-89987380D01*
X221538095Y-90035000D01*
X222347619Y-90939761D02*
X222252380Y-90987380D01*
X222061904Y-90987380D01*
X221966666Y-90939761D01*
X221919047Y-90844523D01*
X221919047Y-90463571D01*
X221966666Y-90368333D01*
X222061904Y-90320714D01*
X222252380Y-90320714D01*
X222347619Y-90368333D01*
X222395238Y-90463571D01*
X222395238Y-90558809D01*
X221919047Y-90654047D01*
X222823809Y-90320714D02*
X222823809Y-90987380D01*
X222823809Y-90415952D02*
X222871428Y-90368333D01*
X222966666Y-90320714D01*
X223109523Y-90320714D01*
X223204761Y-90368333D01*
X223252380Y-90463571D01*
X223252380Y-90987380D01*
X223680952Y-90939761D02*
X223776190Y-90987380D01*
X223966666Y-90987380D01*
X224061904Y-90939761D01*
X224109523Y-90844523D01*
X224109523Y-90796904D01*
X224061904Y-90701666D01*
X223966666Y-90654047D01*
X223823809Y-90654047D01*
X223728571Y-90606428D01*
X223680952Y-90511190D01*
X223680952Y-90463571D01*
X223728571Y-90368333D01*
X223823809Y-90320714D01*
X223966666Y-90320714D01*
X224061904Y-90368333D01*
X224680952Y-90987380D02*
X224585714Y-90939761D01*
X224538095Y-90892142D01*
X224490476Y-90796904D01*
X224490476Y-90511190D01*
X224538095Y-90415952D01*
X224585714Y-90368333D01*
X224680952Y-90320714D01*
X224823809Y-90320714D01*
X224919047Y-90368333D01*
X224966666Y-90415952D01*
X225014285Y-90511190D01*
X225014285Y-90796904D01*
X224966666Y-90892142D01*
X224919047Y-90939761D01*
X224823809Y-90987380D01*
X224680952Y-90987380D01*
X225442857Y-90987380D02*
X225442857Y-90320714D01*
X225442857Y-90511190D02*
X225490476Y-90415952D01*
X225538095Y-90368333D01*
X225633333Y-90320714D01*
X225728571Y-90320714D01*
X235066666Y-85697380D02*
X235066666Y-86411666D01*
X235019047Y-86554523D01*
X234923809Y-86649761D01*
X234780952Y-86697380D01*
X234685714Y-86697380D01*
X236066666Y-86697380D02*
X235495238Y-86697380D01*
X235780952Y-86697380D02*
X235780952Y-85697380D01*
X235685714Y-85840238D01*
X235590476Y-85935476D01*
X235495238Y-85983095D01*
X223595238Y-72541666D02*
X224071428Y-72541666D01*
X223500000Y-72827380D02*
X223833333Y-71827380D01*
X224166666Y-72827380D01*
X224500000Y-72827380D02*
X224500000Y-72160714D01*
X224500000Y-72351190D02*
X224547619Y-72255952D01*
X224595238Y-72208333D01*
X224690476Y-72160714D01*
X224785714Y-72160714D01*
X225547619Y-72827380D02*
X225547619Y-71827380D01*
X225547619Y-72779761D02*
X225452380Y-72827380D01*
X225261904Y-72827380D01*
X225166666Y-72779761D01*
X225119047Y-72732142D01*
X225071428Y-72636904D01*
X225071428Y-72351190D01*
X225119047Y-72255952D01*
X225166666Y-72208333D01*
X225261904Y-72160714D01*
X225452380Y-72160714D01*
X225547619Y-72208333D01*
X226452380Y-72160714D02*
X226452380Y-72827380D01*
X226023809Y-72160714D02*
X226023809Y-72684523D01*
X226071428Y-72779761D01*
X226166666Y-72827380D01*
X226309523Y-72827380D01*
X226404761Y-72779761D01*
X226452380Y-72732142D01*
X226928571Y-72827380D02*
X226928571Y-72160714D01*
X226928571Y-71827380D02*
X226880952Y-71875000D01*
X226928571Y-71922619D01*
X226976190Y-71875000D01*
X226928571Y-71827380D01*
X226928571Y-71922619D01*
X227404761Y-72160714D02*
X227404761Y-72827380D01*
X227404761Y-72255952D02*
X227452380Y-72208333D01*
X227547619Y-72160714D01*
X227690476Y-72160714D01*
X227785714Y-72208333D01*
X227833333Y-72303571D01*
X227833333Y-72827380D01*
X228452380Y-72827380D02*
X228357142Y-72779761D01*
X228309523Y-72732142D01*
X228261904Y-72636904D01*
X228261904Y-72351190D01*
X228309523Y-72255952D01*
X228357142Y-72208333D01*
X228452380Y-72160714D01*
X228595238Y-72160714D01*
X228690476Y-72208333D01*
X228738095Y-72255952D01*
X228785714Y-72351190D01*
X228785714Y-72636904D01*
X228738095Y-72732142D01*
X228690476Y-72779761D01*
X228595238Y-72827380D01*
X228452380Y-72827380D01*
X229785714Y-72827380D02*
X229452380Y-72351190D01*
X229214285Y-72827380D02*
X229214285Y-71827380D01*
X229595238Y-71827380D01*
X229690476Y-71875000D01*
X229738095Y-71922619D01*
X229785714Y-72017857D01*
X229785714Y-72160714D01*
X229738095Y-72255952D01*
X229690476Y-72303571D01*
X229595238Y-72351190D01*
X229214285Y-72351190D01*
X230738095Y-71875000D02*
X230642857Y-71827380D01*
X230500000Y-71827380D01*
X230357142Y-71875000D01*
X230261904Y-71970238D01*
X230214285Y-72065476D01*
X230166666Y-72255952D01*
X230166666Y-72398809D01*
X230214285Y-72589285D01*
X230261904Y-72684523D01*
X230357142Y-72779761D01*
X230500000Y-72827380D01*
X230595238Y-72827380D01*
X230738095Y-72779761D01*
X230785714Y-72732142D01*
X230785714Y-72398809D01*
X230595238Y-72398809D01*
X231547619Y-72303571D02*
X231690476Y-72351190D01*
X231738095Y-72398809D01*
X231785714Y-72494047D01*
X231785714Y-72636904D01*
X231738095Y-72732142D01*
X231690476Y-72779761D01*
X231595238Y-72827380D01*
X231214285Y-72827380D01*
X231214285Y-71827380D01*
X231547619Y-71827380D01*
X231642857Y-71875000D01*
X231690476Y-71922619D01*
X231738095Y-72017857D01*
X231738095Y-72113095D01*
X231690476Y-72208333D01*
X231642857Y-72255952D01*
X231547619Y-72303571D01*
X231214285Y-72303571D01*
X232166666Y-72779761D02*
X232309523Y-72827380D01*
X232547619Y-72827380D01*
X232642857Y-72779761D01*
X232690476Y-72732142D01*
X232738095Y-72636904D01*
X232738095Y-72541666D01*
X232690476Y-72446428D01*
X232642857Y-72398809D01*
X232547619Y-72351190D01*
X232357142Y-72303571D01*
X232261904Y-72255952D01*
X232214285Y-72208333D01*
X232166666Y-72113095D01*
X232166666Y-72017857D01*
X232214285Y-71922619D01*
X232261904Y-71875000D01*
X232357142Y-71827380D01*
X232595238Y-71827380D01*
X232738095Y-71875000D01*
X233166666Y-72827380D02*
X233166666Y-71827380D01*
X233595238Y-72827380D02*
X233595238Y-72303571D01*
X233547619Y-72208333D01*
X233452380Y-72160714D01*
X233309523Y-72160714D01*
X233214285Y-72208333D01*
X233166666Y-72255952D01*
X234071428Y-72827380D02*
X234071428Y-72160714D01*
X234071428Y-71827380D02*
X234023809Y-71875000D01*
X234071428Y-71922619D01*
X234119047Y-71875000D01*
X234071428Y-71827380D01*
X234071428Y-71922619D01*
X234928571Y-72779761D02*
X234833333Y-72827380D01*
X234642857Y-72827380D01*
X234547619Y-72779761D01*
X234500000Y-72684523D01*
X234500000Y-72303571D01*
X234547619Y-72208333D01*
X234642857Y-72160714D01*
X234833333Y-72160714D01*
X234928571Y-72208333D01*
X234976190Y-72303571D01*
X234976190Y-72398809D01*
X234500000Y-72494047D01*
X235547619Y-72827380D02*
X235452380Y-72779761D01*
X235404761Y-72684523D01*
X235404761Y-71827380D01*
X236357142Y-72827380D02*
X236357142Y-71827380D01*
X236357142Y-72779761D02*
X236261904Y-72827380D01*
X236071428Y-72827380D01*
X235976190Y-72779761D01*
X235928571Y-72732142D01*
X235880952Y-72636904D01*
X235880952Y-72351190D01*
X235928571Y-72255952D01*
X235976190Y-72208333D01*
X236071428Y-72160714D01*
X236261904Y-72160714D01*
X236357142Y-72208333D01*
M02*
